<?xml version="1.0" encoding="utf-8"?>
<!-- Generator: Adobe Illustrator 24.1.2, SVG Export Plug-In . SVG Version: 6.00 Build 0)  -->
<svg version="1.1" id="Capa_1" xmlns="http://www.w3.org/2000/svg" xmlns:xlink="http://www.w3.org/1999/xlink" x="0px" y="0px"
	 viewBox="0 0 652 822" style="enable-background:new 0 0 652 822;" xml:space="preserve">
<style type="text/css">
	.st0{fill:#FFFFFF;}
	.st1{fill:#F6F2C2;}
	.st2{clip-path:url(#SVGID_2_);}
	.st3{fill:#D6D087;}
	.st4{clip-path:url(#SVGID_4_);}
	.st5{fill:none;stroke:#D6D087;stroke-width:4;}
	.st6{fill:#0092D3;}
	.st7{fill:#95C6EC;}
	.st8{fill:#91C4EB;}
	.st9{fill:#64ACE0;}
	.st10{fill:#ACD3F1;}
	.st11{fill:#AAD3F1;}
	.st12{clip-path:url(#SVGID_6_);}
	.st13{fill:#0071B6;}
	.st14{fill:#A1CAEC;}
	.st15{clip-path:url(#SVGID_8_);}
	.st16{fill:#BF0811;}
	.st17{font-family:'SyntaxLTStd-Black';}
	.st18{font-size:11px;}
	.st19{fill:#5775B3;}
	.st20{clip-path:url(#SVGID_10_);}
	.st21{clip-path:url(#SVGID_12_);}
	.st22{clip-path:url(#SVGID_14_);}
	.st23{clip-path:url(#SVGID_16_);}
	.st24{fill:none;stroke:#5775B3;}
	.st25{fill:none;stroke:#5775B3;stroke-width:0.9;}
	.st26{fill:#211915;}
	.st27{font-family:'SyntaxLTStd-Bold';}
	.st28{letter-spacing:3;}
	.st29{fill:none;stroke:#9A999E;stroke-width:0.75;}
	.st30{fill:none;stroke:#9A999E;stroke-width:0.55;stroke-miterlimit:10;}
	.st31{fill:none;stroke:#9A999E;stroke-width:0.5;stroke-miterlimit:10;}
	.st32{letter-spacing:77;}
	.st33{font-family:'SyntaxLTStd-Italic';}
	.st34{clip-path:url(#SVGID_18_);}
	.st35{clip-path:url(#SVGID_20_);}
	.st36{fill:none;stroke:#211915;}
	.st37{font-size:10px;}
	.st38{font-family:'SyntaxLTStd-Roman';}
	.st39{font-size:11.2753px;}
	.st40{clip-path:url(#SVGID_22_);}
	.st41{clip-path:url(#SVGID_24_);}
	.st42{fill:#0066AD;}
	.st43{fill:#DCA3C6;}
	.st44{fill:#009045;}
	.st45{fill:#B36B0D;}
	.st46{clip-path:url(#SVGID_26_);}
	.st47{clip-path:url(#SVGID_28_);}
	.st48{enable-background:new    ;}
	.st49{fill:#CA7104;}
	.st50{font-family:'Gabriel-Sans-Bold';}
	.st51{font-size:18px;}
</style>
<rect x="-5.3" y="-4.9" class="st0" width="662.5" height="831.8"/>
<rect x="60.4" y="759.8" class="st1" width="15.9" height="47.9"/>
<rect x="76.3" y="759.8" class="st1" width="16" height="47.9"/>
<g>
	<g>
		<g>
			<g>
				<g>
					<defs>
						<rect id="SVGID_1_" x="14" y="13.9" width="609.5" height="793.7"/>
					</defs>
					<clipPath id="SVGID_2_">
						<use xlink:href="#SVGID_1_"  style="overflow:visible;"/>
					</clipPath>
					<g class="st2">
						<rect x="44.4" y="759.8" class="st1" width="15.9" height="47.9"/>
						<rect x="14" y="759.8" class="st3" width="30.4" height="47.9"/>
					</g>
				</g>
			</g>
		</g>
	</g>
</g>
<rect x="14" y="83.5" class="st3" width="609.5" height="4"/>
<g>
	<g>
		<g>
			<g>
				<g>
					<defs>
						<rect id="SVGID_3_" x="623.5" y="13.9" width="14.2" height="793.7"/>
					</defs>
					<clipPath id="SVGID_4_">
						<use xlink:href="#SVGID_3_"  style="overflow:visible;"/>
					</clipPath>
					<g class="st4">
						<line class="st5" x1="623.5" y1="85.5" x2="1232.9" y2="85.5"/>
					</g>
				</g>
			</g>
		</g>
	</g>
</g>
<rect x="130.7" y="13.9" class="st6" width="492.8" height="69.6"/>
<polyline class="st6" points="602.9,83.5 559.2,83.5 559.2,37.2 582.4,13.9 619.2,13.9 619.2,67.2 602.9,83.5 "/>
<polyline class="st7" points="478.4,83.5 478.4,83.5 511.9,49.9 478.4,83.5 "/>
<polyline class="st7" points="460,83.5 460,83.5 446.6,70.1 446.6,70.1 460,83.5 "/>
<polyline class="st7" points="511.9,49.9 511.9,49.9 544.2,17.7 511.9,49.9 "/>
<polyline class="st7" points="559.2,37.2 559.2,13.9 582.4,13.9 559.2,37.2 "/>
<polyline class="st6" points="379.2,83.5 368.5,83.5 368.5,58.3 368.5,58.3 379.2,47.5 379.2,83.5 "/>
<polyline class="st6" points="439.2,62.7 401.6,25.1 401.6,25.1 439.2,62.7 439.2,62.7 "/>
<polyline class="st7" points="446.6,70.1 439.2,62.7 439.2,62.7 446.6,70.1 446.6,70.1 "/>
<polyline class="st8" points="368.5,83.5 303.7,83.5 278.5,58.3 278.5,13.9 324.2,13.9 368.5,58.3 368.5,83.5 "/>
<path class="st8" d="M401.6,25.1l-11.2-11.2l0,0L401.6,25.1L401.6,25.1 M368.5,58.3L324.2,14h55v33.6L368.5,58.3"/>
<polyline class="st6" points="529.2,67.2 511.9,49.9 511.9,49.9 529.2,67.2 559.2,37.2 559.2,37.2 529.2,67.2 "/>
<polyline class="st6" points="559.2,83.5 529.2,83.5 529.2,67.2 529.2,67.2 559.2,37.2 559.2,83.5 "/>
<polyline class="st9" points="529.2,83.5 478.4,83.5 511.9,49.9 529.2,67.2 529.2,83.5 "/>
<polyline class="st9" points="529.2,67.2 511.9,49.9 547.9,13.9 559.2,13.9 559.2,37.2 529.2,67.2 "/>
<polyline class="st8" points="455.5,83.5 433.2,83.5 444.4,72.4 455.5,83.5 "/>
<polyline class="st10" points="460,83.5 455.5,83.5 444.4,72.4 446.6,70.1 460,83.5 "/>
<polyline class="st8" points="379.2,47.5 379.2,47.5 401.6,25.1 401.6,25.1 379.2,47.5 "/>
<polyline class="st8" points="433.2,83.5 379.2,83.5 379.2,47.5 401.6,25.1 439.2,62.7 439.2,67.2 444.4,72.4 433.2,83.5 "/>
<polyline class="st10" points="444.4,72.4 439.2,67.2 439.2,62.7 446.6,70.1 444.4,72.4 "/>
<polyline class="st11" points="379.2,47.5 379.2,13.9 390.5,13.9 401.6,25.1 379.2,47.5 "/>
<polyline class="st8" points="511.9,49.9 476,13.9 476,13.9 511.9,49.9 511.9,49.9 "/>
<polyline class="st10" points="478.4,83.5 460,83.5 446.6,70.1 458.5,58.3 458.5,13.9 476,13.9 511.9,49.9 478.4,83.5 "/>
<polyline class="st10" points="511.9,49.9 476,13.9 547.9,13.9 511.9,49.9 "/>
<polyline class="st8" points="401.6,25.1 401.6,25.1 412.8,13.9 412.8,13.9 401.6,25.1 "/>
<polyline class="st8" points="439.2,62.7 401.6,25.1 412.8,13.9 439.2,13.9 439.2,62.7 "/>
<polyline class="st10" points="446.6,70.1 439.2,62.7 439.2,13.9 458.5,13.9 458.5,58.3 446.6,70.1 "/>
<polyline class="st11" points="401.6,25.1 390.5,13.9 412.8,13.9 401.6,25.1 "/>
<g>
	<g>
		<g>
			<g>
				<g>
					<defs>
						<rect id="SVGID_5_" x="14" y="13.9" width="609.5" height="793.7"/>
					</defs>
					<clipPath id="SVGID_6_">
						<use xlink:href="#SVGID_5_"  style="overflow:visible;"/>
					</clipPath>
					<g class="st12">
						<polyline class="st13" points="157.1,67.8 157.1,13.9 14,13.9 14,83.5 141.4,83.5 157.1,67.8 						"/>
					</g>
				</g>
			</g>
		</g>
	</g>
</g>
<polyline class="st6" points="80.1,766.8 67.9,759.7 67.9,773.8 80.1,780.9 80.1,766.8 "/>
<polyline class="st13" points="80.1,780.9 92.3,773.8 92.3,759.7 80.1,766.8 80.1,780.9 "/>
<polyline class="st14" points="67.9,759.7 80.1,766.8 92.3,759.7 80.1,752.7 67.9,759.7 "/>
<g>
	<g>
		<g>
			<g>
				<g>
					<defs>
						<rect id="SVGID_7_" x="623.5" y="13.9" width="14.2" height="793.7"/>
					</defs>
					<clipPath id="SVGID_8_">
						<use xlink:href="#SVGID_7_"  style="overflow:visible;"/>
					</clipPath>
					<g class="st15">
						<polyline class="st13" points="769.5,67.8 769.5,13.9 623.5,13.9 623.5,83.5 753.9,83.5 769.5,67.8 						"/>
					</g>
				</g>
			</g>
		</g>
	</g>
</g>
<text transform="matrix(1 0 0 1 81.88 122.26)" class="st16 st17 st18">1.</text>
<polyline class="st19" points="110.9,115.1 110.9,121.3 124.3,126.2 134,122.2 134,114.2 124.3,110.2 110.9,115.1 "/>
<g>
	<g>
		<g>
			<g>
				<g>
					<defs>
						<path id="SVGID_9_" d="M111,128.8c-5.8,0-10.6-4.7-10.6-10.6c0-5.8,4.7-10.6,10.6-10.6c5.8,0,10.6,4.7,10.6,10.6l0,0
							C121.6,124,116.8,128.8,111,128.8L111,128.8"/>
					</defs>
					<clipPath id="SVGID_10_">
						<use xlink:href="#SVGID_9_"  style="overflow:visible;"/>
					</clipPath>
					<g class="st20">
						<g>
							<g>
								<g>
									<g>
										<g>
											<defs>
												<rect id="SVGID_11_" x="100.4" y="107.6" width="21.2" height="21.1"/>
											</defs>
											<clipPath id="SVGID_12_">
												<use xlink:href="#SVGID_11_"  style="overflow:visible;"/>
											</clipPath>
											<g class="st21">
												<g>
													<g>
														<g>
															<g>
																<g>
																	<defs>
																		<rect id="SVGID_13_" x="100.4" y="107.6" width="21.2" height="21.1"/>
																	</defs>
																	<clipPath id="SVGID_14_">
																		<use xlink:href="#SVGID_13_"  style="overflow:visible;"/>
																	</clipPath>
																	<g class="st22">
																		
																			<image style="overflow:visible;enable-background:new    ;" width="89" height="89" xlink:href="EA66CDA7.png"  transform="matrix(0.24 0 0 0.24 100.35 107.57)">
																		</image>
																	</g>
																</g>
															</g>
														</g>
													</g>
												</g>
											</g>
										</g>
									</g>
								</g>
							</g>
						</g>
					</g>
				</g>
			</g>
		</g>
	</g>
</g>
<g>
	<g>
		<g>
			<g>
				<g>
					<defs>
						<path id="SVGID_15_" d="M111,128.8c-5.8,0-10.6-4.7-10.6-10.6c0-5.8,4.7-10.6,10.6-10.6c5.8,0,10.6,4.7,10.6,10.6l0,0
							C121.6,124,116.8,128.8,111,128.8L111,128.8"/>
					</defs>
					<clipPath id="SVGID_16_">
						<use xlink:href="#SVGID_15_"  style="overflow:visible;"/>
					</clipPath>
					<g class="st23">
						<polyline class="st0" points="110.9,115.1 110.9,121.3 124.3,126.2 134,122.2 134,114.2 124.3,110.2 110.9,115.1 						"/>
					</g>
				</g>
			</g>
		</g>
	</g>
</g>
<circle class="st24" cx="110.9" cy="118.2" r="10.6"/>
<path class="st0" d="M111,121.3c-1.7,0-3.2-1.4-3.2-3.2s1.4-3.2,3.2-3.2c1.7,0,3.2,1.4,3.2,3.2S112.7,121.3,111,121.3L111,121.3"/>
<path class="st25" d="M111,121.3c-1.7,0-3.2-1.4-3.2-3.2s1.4-3.2,3.2-3.2c1.7,0,3.2,1.4,3.2,3.2S112.7,121.3,111,121.3L111,121.3z"
	/>
<path class="st19" d="M111,119.5c-0.7,0-1.3-0.6-1.3-1.4c0-0.7,0.6-1.3,1.4-1.3c0.7,0,1.3,0.6,1.3,1.3
	C112.4,118.9,111.8,119.5,111,119.5L111,119.5"/>
<text transform="matrix(1 0 0 1 141.88 122.26)" class="st26 st27 st18">Listen to the dialogue. </text>
<text transform="matrix(1 0 0 1 252.52 122.26)" class="st26 st27 st18">W</text>
<text transform="matrix(1 0 0 1 263.33 122.26)" class="st26 st27 st18">rite the greeting and farewell expressions.</text>
<rect x="101.1" y="138.5" class="st0" width="451.8" height="20.3"/>
<text transform="matrix(1 0 0 1 119.44 152.74)" class="st26 st27 st18">Hello</text>
<text transform="matrix(1 0 0 1 145.11 152.74)" class="st26 st27 st18 st28">  </text>
<text transform="matrix(1 0 0 1 167.11 152.74)" class="st26 st27 st18">See you around!</text>
<text transform="matrix(1 0 0 1 244.74 152.74)" class="st26 st27 st18 st28">  </text>
<text transform="matrix(1 0 0 1 266.74 152.74)" class="st26 st27 st18">Glad to meet you</text>
<text transform="matrix(1 0 0 1 349.87 152.74)" class="st26 st27 st18 st28">  </text>
<text transform="matrix(1 0 0 1 371.87 152.74)" class="st26 st27 st18">Bye!</text>
<text transform="matrix(1 0 0 1 393.24 152.74)" class="st26 st27 st18 st28">  </text>
<text transform="matrix(1 0 0 1 415.24 152.74)" class="st26 st27 st18">Hi!</text>
<text transform="matrix(1 0 0 1 429.89 152.74)" class="st26 st27 st18 st28">  </text>
<text transform="matrix(1 0 0 1 451.89 152.74)" class="st26 st27 st18">Nice to meet you</text>
<path class="st29" d="M552.8,138.5H101.1v20.3h451.8L552.8,138.5L552.8,138.5z"/>
<line class="st30" x1="135.9" y1="227.3" x2="252.9" y2="227.3"/>
<path class="st31" d="M261.9,305.3h116 M135.9,305.3h117 M261.9,285.8h116 M135.9,285.8h117 M261.9,266.3h116 M135.9,266.3h117
	 M261.9,246.8h116 M135.9,246.8h117 M261.9,227.3h116"/>
<text transform="matrix(1 0 0 1 174.1 206.7)" class="st26 st27 st18">Greeting</text>
<text transform="matrix(1 0 0 1 215.66 206.7)" class="st26 st27 st18 st32"> </text>
<text transform="matrix(1 0 0 1 297.71 206.7)" class="st26 st27 st18">Farewell</text>
<text transform="matrix(1 0 0 1 99.88 226.2)" class="st26 st27 st18">Diana:</text>
<text transform="matrix(1 0 0 1 135.88 226.2)" class="st19 st33 st18">             Hello! </text>
<text transform="matrix(1 0 0 1 99.88 265.2)" class="st26 st27 st18">T</text>
<text transform="matrix(1 0 0 1 105.39 265.2)" class="st26 st27 st18">im:</text>
<text transform="matrix(1 0 0 1 99.88 284.7)" class="st26 st27 st18">Fer:</text>
<text transform="matrix(1 0 0 1 99.88 304.2)" class="st26 st27 st18">Luis:</text>
<g>
	<g>
		<g>
			<g>
				<g>
					<defs>
						<rect id="SVGID_17_" x="388.7" y="201.1" width="192" height="125.2"/>
					</defs>
					<clipPath id="SVGID_18_">
						<use xlink:href="#SVGID_17_"  style="overflow:visible;"/>
					</clipPath>
					<g class="st34">
						<g>
							<g>
								<g>
									<g>
										<g>
											<defs>
												<rect id="SVGID_19_" x="388.7" y="201.1" width="192" height="125.3"/>
											</defs>
											<clipPath id="SVGID_20_">
												<use xlink:href="#SVGID_19_"  style="overflow:visible;"/>
											</clipPath>
											<g class="st35">
												
													<image style="overflow:visible;enable-background:new    ;" width="801" height="523" xlink:href="EA66CDA5.png"  transform="matrix(0.2395 0 0 0.2395 388.7738 201.11)">
												</image>
											</g>
										</g>
									</g>
								</g>
							</g>
						</g>
					</g>
				</g>
			</g>
		</g>
	</g>
</g>
<path class="st0" d="M492.7,173.6c0,0-6,0-6,6v1.9c0,0,0,6,6,6h27.2c0,0,6,0,6-6v-1.9c0,0,0-6-6-6H492.7"/>
<path class="st36" d="M492.7,173.6c0,0-6,0-6,6v1.9c0,0,0,6,6,6h27.2c0,0,6,0,6-6v-1.9c0,0,0-6-6-6H492.7z"/>
<text transform="matrix(1 0 0 1 493.5 183.85)" class="st26 st27 st37">Diana</text>
<path class="st0" d="M394.4,173.6c0,0-6,0-6,6v1.9c0,0,0,6,6,6h27.2c0,0,6,0,6-6v-1.9c0,0,0-6-6-6H394.4"/>
<path class="st36" d="M394.4,173.6c0,0-6,0-6,6v1.9c0,0,0,6,6,6h27.2c0,0,6,0,6-6v-1.9c0,0,0-6-6-6H394.4z"/>
<text transform="matrix(1 0 0 1 399.14 183.85)" class="st26 st27 st37">Luis</text>
<path class="st0" d="M547.1,173.6c0,0-6,0-6,6v1.9c0,0,0,6,6,6h27.2c0,0,6,0,6-6v-1.9c0,0,0-6-6-6H547.1"/>
<path class="st36" d="M547.1,173.6c0,0-6,0-6,6v1.9c0,0,0,6,6,6h27.2c0,0,6,0,6-6v-1.9c0,0,0-6-6-6H547.1z"/>
<text transform="matrix(1 0 0 1 552.63 183.85)" class="st26 st27 st37">T</text>
<text transform="matrix(1 0 0 1 557.65 183.85)" class="st26 st27 st37">im</text>
<path class="st0" d="M441.7,173.6c0,0-6,0-6,6v1.9c0,0,0,6,6,6h27.2c0,0,6,0,6-6v-1.9c0,0,0-6-6-6H441.7"/>
<path class="st36" d="M441.7,173.6c0,0-6,0-6,6v1.9c0,0,0,6,6,6h27.2c0,0,6,0,6-6v-1.9c0,0,0-6-6-6H441.7z"/>
<text transform="matrix(1 0 0 1 448.61 183.85)" class="st26 st27 st37">Fer</text>
<text transform="matrix(1 0 0 1 81.43 596.95)" class="st16 st17 st18">3.  </text>
<text transform="matrix(1 0 0 1 99.43 596.95)" class="st26 st27 st18">Read the text about Andrew and what he does to keep his body health</text>
<text transform="matrix(1 0 0 1 437.46 596.95)" class="st26 st27 st18">y</text>
<text transform="matrix(1 0 0 1 442.14 596.95)" class="st26 st27 st18">. What is Andrew</text>
<text transform="matrix(1 0 0 1 525.88 596.95)" class="st26 st27 st18">’</text>
<text transform="matrix(1 0 0 1 528.13 596.95)" class="st26 st27 st18">s</text>
<text transform="matrix(1 0 0 1 99.43 610.45)" class="st26 st27 st18">profession? Choose an option and check with your group.</text>
<text transform="matrix(1 0 0 1 99.43 632.45)" class="st26 st38 st18">And</text>
<text transform="matrix(1 0 0 1 119 632.45)" class="st26 st38 st18">r</text>
<text transform="matrix(1 0 0 1 122.55 632.45)" class="st26 st38 st18">ew is a</text>
<text transform="matrix(0.9778 0 -0.2095 0.9778 158.0007 632.4592)" class="st26 st27 st39">tall</text>
<text transform="matrix(1 0 0 1 173.28 632.45)" class="st26 st38 st18"> man and has </text>
<text transform="matrix(0.9778 0 -0.2095 0.9778 239.9304 632.4592)" class="st26 st27 st39">strong</text>
<text transform="matrix(1 0 0 1 270.48 632.45)" class="st26 st38 st18"> muscles. He starts his day very early </text>
<text transform="matrix(1 0 0 1 99.43 648.45)" class="st26 st38 st18">in the morning, at 6 o’clock. He eats a</text>
<text transform="matrix(0.9778 0 -0.2095 0.9778 282.7994 648.4583)" class="st26 st27 st39">healthy</text>
<text transform="matrix(1 0 0 1 318.26 648.45)" class="st26 st38 st18"> b</text>
<text transform="matrix(1 0 0 1 327.43 648.45)" class="st26 st38 st18">r</text>
<text transform="matrix(1 0 0 1 331 648.45)" class="st26 st38 st18">eakfast and walks to the</text>
<path class="st26" d="M103.7,660.2c-0.3-0.4-0.7-0.6-1.2-0.6c-0.8,0-1.7,0.8-1.7,2.3c-0.1,1,0.6,1.9,1.6,2l0,0c0.5,0,1-0.3,1.3-0.7
	l0.4,0.5c-0.4,0.6-1.1,0.9-1.8,0.9c-1.4,0-2.4-1.1-2.4-2.9c-0.1-1.5,1.1-2.8,2.6-2.9c0.7,0,1.4,0.4,1.8,0.9L103.7,660.2z
	 M107.4,658.8c1.6,0,2.6,1.1,2.6,2.9c0.1,1.5-1.1,2.8-2.6,2.9h-0.1c-1.6,0-2.6-1.1-2.6-2.9C104.7,660.2,105.8,658.9,107.4,658.8
	L107.4,658.8z M107.3,663.9c0.8,0,1.7-0.7,1.7-2.2s-0.7-2.2-1.6-2.2s-1.7,0.7-1.7,2.2S106.4,663.9,107.3,663.9z M111.3,658.9h0.9
	v2.5c0,0.5,0,1,0,1.5s0.4,0.9,1,0.9c0.7-0.1,1.3-0.4,1.6-1V659h0.9v5.5h-0.9v-0.9l0,0c-0.4,0.6-1.1,1-1.9,1c-1.3,0-1.7-0.7-1.7-1.7
	c0-0.4,0-0.8,0-1.3L111.3,658.9z M117.4,658.9h0.9v1.1l0,0c0.2-0.7,0.8-1.2,1.5-1.3c0.2,0,0.3,0,0.5,0.1l-0.3,0.8
	c-0.1,0-0.2-0.1-0.3-0.1c-0.4,0-0.9,0.3-1.4,1.2v3.6h-0.9L117.4,658.9z M121.4,658.9v-2h0.9v2h1.5v0.7h-1.5v2.2c0,0.6,0,1,0,1.3
	c0,0.5,0.1,0.7,0.5,0.7c0.3,0,0.6-0.1,0.9-0.3l0.3,0.6c-0.4,0.3-0.9,0.4-1.4,0.5c-0.8,0-1.2-0.5-1.2-1.4c0-0.4,0-0.8,0-1.6v-2h-0.9
	V659L121.4,658.9z M124.9,663.4h1v1.1h-1V663.4z M131,656.8h1v3.4h4l0.1-3.4h0.9l-0.1,7.6h-1V661h-4.1v3.5h-1L131,656.8z
	 M139.4,661.6v0.2c0,1.2,0.4,2.2,1.6,2.2c0.6-0.1,1.2-0.3,1.6-0.8l0.4,0.5c-0.5,0.6-1.3,1-2.1,1c-1.5,0-2.4-1.1-2.4-2.9
	c-0.1-1.5,1-2.8,2.5-2.9c1.5,0,2.1,1.1,2.1,2.6v0.2L139.4,661.6z M142.2,661c0-0.8-0.3-1.5-1.2-1.5c-0.8,0.1-1.4,0.7-1.5,1.5H142.2z
	 M147.9,661.6v0.2c0,1.2,0.4,2.2,1.6,2.2c0.6,0,1.2-0.3,1.6-0.8l0.4,0.5c-0.5,0.6-1.3,1-2.1,1c-1.5,0-2.4-1.1-2.4-2.9
	c-0.1-1.5,1-2.8,2.5-2.9c1.5,0,2.1,1.1,2.1,2.6v0.2L147.9,661.6z M150.7,661c0-0.8-0.3-1.5-1.2-1.5c-0.8,0.1-1.4,0.7-1.5,1.6
	L150.7,661z M154.7,662.2l-1.6,2.3l-0.7-0.5l1.9-2.5l-1.8-2.4l0.8-0.4l1.4,2.2l1.6-2.2l0.7,0.4l-1.8,2.4l1.9,2.5l-0.8,0.5
	L154.7,662.2z M158.9,661.6v0.2c0,1.2,0.4,2.2,1.6,2.2c0.6,0,1.2-0.3,1.6-0.8l0.4,0.5c-0.5,0.6-1.3,1-2.1,1c-1.5,0-2.4-1.1-2.4-2.9
	c-0.1-1.5,1-2.8,2.5-2.9c1.5,0,2.1,1.1,2.1,2.6v0.2L158.9,661.6z M161.7,661c0-0.8-0.3-1.5-1.2-1.5c-0.8,0.1-1.4,0.8-1.5,1.6
	L161.7,661z M163.9,659h0.9v1l0,0c0.2-0.7,0.8-1.2,1.5-1.3c0.2,0,0.3,0,0.5,0.1l-0.3,0.8c-0.1,0-0.2-0.1-0.4-0.1
	c-0.4,0-0.9,0.3-1.4,1.2l-0.1,3.6h-0.9L163.9,659z M170.8,660.2c-0.3-0.4-0.7-0.6-1.2-0.6c-0.8,0-1.6,0.8-1.6,2.3
	c-0.1,1,0.6,1.9,1.6,2l0,0c0.5,0,1-0.3,1.3-0.7l0.4,0.5c-0.4,0.6-1.1,0.9-1.9,0.9c-1.4,0-2.4-1.1-2.4-2.9c-0.1-1.5,1.1-2.8,2.6-2.9
	c0.7,0,1.4,0.4,1.8,0.9L170.8,660.2z M172.2,656.8h1v1h-1V656.8z M172.2,659h0.9v5.5h-0.9V659z M174.6,663.5
	c0.3,0.3,0.8,0.4,1.2,0.5c0.5,0,1-0.3,1.1-0.9c0-1.4-2.5-0.8-2.5-2.6c0-0.9,0.8-1.7,1.7-1.6h0.1c0.6,0,1.1,0.2,1.6,0.5l-0.4,0.6
	c-0.3-0.2-0.6-0.3-1-0.4c-0.6,0-1.1,0.3-1.1,0.9c0,1.2,2.5,0.7,2.5,2.5c0,0.9-0.8,1.7-1.8,1.7l0,0c-0.6,0-1.2-0.2-1.7-0.5
	L174.6,663.5z M179.5,661.6v0.2c0,1.2,0.4,2.2,1.6,2.2c0.6,0,1.2-0.3,1.6-0.8l0.4,0.5c-0.5,0.6-1.3,1-2.1,1c-1.5,0-2.4-1.1-2.4-2.9
	c-0.1-1.5,1-2.8,2.5-2.9c1.5,0,2.1,1.1,2.1,2.6v0.2L179.5,661.6z M182.3,661c0-0.8-0.3-1.5-1.2-1.5c-0.8,0.1-1.4,0.7-1.5,1.5H182.3z
	 M184.3,663.5c0.3,0.3,0.8,0.4,1.2,0.5c0.5,0,1-0.3,1.1-0.9c0-1.4-2.5-0.8-2.5-2.6c0-0.9,0.8-1.7,1.7-1.6h0.1c0.6,0,1.1,0.2,1.6,0.5
	l-0.4,0.6c-0.3-0.2-0.6-0.3-1-0.4c-0.6,0-1.1,0.3-1.1,0.9c0,1.2,2.5,0.7,2.5,2.5c0,0.9-0.8,1.7-1.8,1.7l0,0c-0.6,0-1.2-0.2-1.7-0.5
	L184.3,663.5z M191.8,656.2h0.9v3.6l0,0c0.4-0.6,1.1-1,1.8-1c1.3,0,1.7,0.7,1.7,1.7c0,0.4,0,0.8,0,1.3v2.7h-0.9V662c0-0.5,0-1,0-1.5
	s-0.4-0.9-1-0.9c-0.7,0.1-1.3,0.4-1.6,1v3.8h-0.9V656.2z M197.8,656.8h0.9v1h-0.9V656.8z M197.8,659h0.9l-0.1,5.5h-0.9L197.8,659z
	 M200.2,663.5c0.3,0.3,0.8,0.4,1.2,0.5c0.5,0,1-0.3,1.1-0.9c0-1.4-2.5-0.8-2.5-2.6c0-0.9,0.8-1.7,1.7-1.6h0.1c0.6,0,1.1,0.2,1.6,0.5
	L203,660c-0.3-0.2-0.7-0.3-1.1-0.4c-0.6,0-1.1,0.3-1.1,0.9c0,1.2,2.5,0.7,2.5,2.5c0,0.9-0.8,1.7-1.8,1.7c0,0,0,0-0.1,0
	c-0.6,0-1.2-0.2-1.7-0.5L200.2,663.5z M207.7,656.2h0.9v3.6l0,0c0.4-0.6,1.1-1,1.8-1c1.3,0,1.7,0.7,1.7,1.7c0,0.4,0,0.8,0,1.3v2.7
	h-0.9V662c0-0.5,0-1,0-1.5s-0.4-0.9-1-0.9c-0.7,0.1-1.3,0.4-1.6,1v3.8h-0.9V656.2z M214.3,661.6v0.2c0,1.2,0.4,2.2,1.6,2.2
	c0.6-0.1,1.2-0.3,1.6-0.8l0.4,0.5c-0.5,0.6-1.3,1-2.1,1c-1.5,0-2.4-1.1-2.4-2.9c-0.1-1.5,1-2.8,2.5-2.9c1.5,0,2.1,1.1,2.1,2.6v0.2
	L214.3,661.6z M217.1,661c0-0.8-0.3-1.5-1.2-1.5c-0.8,0.1-1.4,0.7-1.5,1.5H217.1z M223.9,664.2c-0.3,0.2-0.6,0.4-1,0.4
	c-0.5,0-0.8-0.5-0.8-0.9c-0.4,0.5-1,0.9-1.6,0.9c-0.8,0-1.5-0.6-1.6-1.4c0-0.1,0-0.1,0-0.2c0-1.5,2-1.9,3.2-2c0-0.2,0-0.5,0-0.7
	c0-0.4-0.2-0.8-0.7-0.8c-0.1,0-0.1,0-0.2,0c-0.4,0-0.8,0.2-1.6,0.8l-0.4-0.6c1.1-0.7,1.4-0.9,2.2-0.9c0.7-0.1,1.3,0.4,1.4,1
	c0,0.1,0,0.3,0,0.4c0,1-0.1,2-0.1,3c0,0.4,0.1,0.8,0.4,0.8c0.2,0,0.3-0.1,0.5-0.2L223.9,664.2z M222.1,661.6
	c-1.5,0.2-2.3,0.5-2.3,1.4c0,0.5,0.3,0.9,0.8,0.9c0.1,0,0.1,0,0.2,0c0.5-0.1,1-0.4,1.3-0.8V661.6z M228.3,656.2h0.9l-0.1,8.3h-0.9
	v-0.7l0,0c-0.4,0.6-1,0.9-1.7,0.9c-0.9,0-2.2-0.7-2.2-2.9c-0.1-1.5,1-2.8,2.5-2.9c0.6,0,1.1,0.3,1.4,0.7l0,0L228.3,656.2z
	 M228.3,660.4c-0.2-0.5-0.8-0.9-1.3-0.9c-1,0-1.6,1.1-1.6,2.2c0,1.5,0.7,2.2,1.4,2.2c0.6,0,1.2-0.4,1.5-1L228.3,660.4z M238.6,664.2
	c-0.3,0.2-0.6,0.4-1,0.4c-0.5,0-0.8-0.4-0.8-0.9c-0.4,0.5-1,0.9-1.6,0.9c-0.8,0.1-1.5-0.6-1.6-1.4c0-0.1,0-0.1,0-0.2
	c0-1.5,2-1.9,3.2-2c0-0.2,0-0.5,0-0.7c0-0.4-0.3-0.8-0.7-0.8c-0.1,0-0.1,0-0.2,0c-0.4,0-0.8,0.2-1.6,0.8l-0.4-0.6
	c1.1-0.7,1.5-0.9,2.3-0.9c0.7-0.1,1.3,0.4,1.4,1.1c0,0.1,0,0.2,0,0.3c0,1-0.1,2-0.1,3c0,0.4,0,0.8,0.4,0.8c0.2,0,0.3-0.1,0.5-0.2
	L238.6,664.2z M236.8,661.6c-1.5,0.2-2.3,0.5-2.3,1.4c0,0.5,0.3,0.9,0.8,0.9c0.1,0,0.1,0,0.2,0c0.5-0.1,1-0.4,1.3-0.8V661.6z
	 M239.5,659h0.9v0.9l0,0c0.4-0.6,1.1-1,1.9-1c1.3,0,1.7,0.7,1.7,1.7c0,0.4,0,0.8,0,1.3v2.7h-1V662c0-0.5,0-1,0-1.5s-0.4-0.9-1-0.9
	c-0.7,0.1-1.3,0.4-1.6,1v3.8h-0.9L239.5,659L239.5,659z M249.1,656.2h0.9l-0.1,8.3H249v-0.7l0,0c-0.4,0.6-1,0.9-1.7,0.9
	c-0.9,0-2.2-0.7-2.2-2.9c-0.1-1.5,1-2.8,2.5-2.9c0.6,0,1.1,0.3,1.4,0.7l0,0L249.1,656.2z M249.1,660.4c-0.2-0.5-0.8-0.9-1.3-0.9
	c-1,0-1.6,1.1-1.6,2.2c0,1.5,0.7,2.2,1.4,2.2c0.6,0,1.2-0.4,1.5-1L249.1,660.4z M259.5,664.2c-0.3,0.2-0.6,0.4-1,0.4
	c-0.5,0-0.8-0.4-0.8-0.9c-0.4,0.5-1,0.9-1.6,0.9c-0.8,0.1-1.5-0.6-1.6-1.4c0-0.1,0-0.1,0-0.2c0-1.5,2-1.9,3.2-2c0-0.2,0-0.5,0-0.7
	c0-0.4-0.3-0.8-0.7-0.8c-0.1,0-0.1,0-0.2,0c-0.4,0-0.8,0.2-1.6,0.8l-0.4-0.6c1.1-0.7,1.5-0.9,2.3-0.9c0.7-0.1,1.3,0.4,1.4,1.1
	c0,0.1,0,0.2,0,0.3c0,1-0.1,2-0.1,3c0,0.4,0,0.8,0.4,0.8c0.2,0,0.3-0.1,0.5-0.2L259.5,664.2z M257.6,661.6c-1.5,0.2-2.3,0.5-2.3,1.4
	c0,0.5,0.3,0.9,0.8,0.9c0.1,0,0.1,0,0.2,0c0.5-0.1,1-0.4,1.3-0.8V661.6z M260.3,659h0.9v1l0,0c0.2-0.7,0.8-1.2,1.5-1.3
	c0.2,0,0.3,0,0.5,0.1l-0.3,0.8c-0.1,0-0.2-0.1-0.3-0.1c-0.4,0-0.9,0.3-1.4,1.2v3.6h-0.9L260.3,659z M264,659h0.9v0.8l0,0
	c0.4-0.6,1.1-1,1.8-1c0.6-0.1,1.2,0.4,1.4,1c0.5-0.6,1.2-0.9,1.9-1c1.1,0,1.5,0.7,1.5,1.7c0,0.4,0,0.8,0,1.3v2.7h-0.9V662
	c0-0.5,0-1,0-1.5c0-0.4-0.3-0.8-0.7-0.9h-0.1c-0.6,0-1.2,0.4-1.6,0.9l-0.1,3.9h-0.9v-2.5c0-0.5,0-1,0-1.5c0-0.4-0.3-0.8-0.7-0.9
	h-0.1c-0.6,0-1.2,0.4-1.6,0.9l-0.1,3.9h-0.9L264,659z M273,663.5c0.3,0.3,0.8,0.4,1.2,0.5c0.5,0,1-0.3,1.1-0.9
	c0-1.4-2.5-0.8-2.5-2.6c0-0.9,0.8-1.7,1.7-1.6h0.1c0.6,0,1.1,0.2,1.6,0.5l-0.4,0.6c-0.3-0.2-0.6-0.3-1-0.4c-0.6,0-1.1,0.3-1.1,0.9
	c0,1.2,2.5,0.7,2.5,2.5c0,0.9-0.8,1.7-1.8,1.7l0,0c-0.6,0-1.2-0.2-1.7-0.5L273,663.5z M279.8,659h1.1c0-0.3,0-0.7,0-1.1
	c0.1-1.3,1-1.8,2.3-1.8v0.7h-0.4c-0.7,0-1.1,0.6-1.1,1.3v0.9h3.3v5.5h-0.9v-4.8h-2.3v4.8h-0.9v-4.8h-1.1V659z M284,656.8h1v1h-1
	V656.8z"/>
<text transform="matrix(1 0 0 1 282.69 664.45)" class="st26 st38 st18"> rst and then, the </text>
<text transform="matrix(1 0 0 1 367.05 664.45)" class="st26 st38 st18">r</text>
<text transform="matrix(1 0 0 1 370.6 664.45)" class="st26 st38 st18">est of his bod</text>
<text transform="matrix(1 0 0 1 434.18 664.45)" class="st26 st38 st18">y</text>
<text transform="matrix(1 0 0 1 438.69 664.45)" class="st26 st38 st18">.</text>
<text transform="matrix(1 0 0 1 99.43 680.45)" class="st26 st38 st18">He does push-ups to get</text>
<text transform="matrix(0.9778 0 -0.2095 0.9778 218.6403 680.4593)" class="st26 st27 st39">strong</text>
<text transform="matrix(1 0 0 1 249.19 680.45)" class="st26 st38 st18"> arms, but he is not a gymnast, because he </text>
<text transform="matrix(1 0 0 1 99.43 696.45)" class="st26 st38 st18">isn’t a</text>
<text transform="matrix(0.9778 0 -0.2095 0.9778 130.6008 696.4593)" class="st26 st27 st39">short</text>
<text transform="matrix(1 0 0 1 155.03 696.45)" class="st26 st38 st18"> person. Finall</text>
<text transform="matrix(1 0 0 1 220.44 696.45)" class="st26 st38 st18">y</text>
<text transform="matrix(1 0 0 1 224.95 696.45)" class="st26 st38 st18">, he exe</text>
<text transform="matrix(1 0 0 1 262.24 696.45)" class="st26 st38 st18">r</text>
<text transform="matrix(1 0 0 1 265.79 696.45)" class="st26 st38 st18">cises his legs. He has</text>
<path class="st26" d="M368.1,691.9h-0.9l0.2-1h0.9l0.1-0.7c0.2-1.2,1.3-2.1,2.5-2.1h0.4l-0.2,1.1h-0.3c-0.6,0-1,0.4-1,0.9l0,0
	l-0.2,0.8h1.1l-0.2,1h-1.2l-1,4.5h-1.4L368.1,691.9z M372.3,688.2h1.3l-1.8,8.3h-1.3L372.3,688.2z"/>
<text transform="matrix(0.9778 0 -0.2095 0.9778 372.7512 696.4593)" class="st26 st27 st39">exible</text>
<text transform="matrix(1 0 0 1 401.48 696.45)" class="st26 st38 st18"> legs, like </text>
<text transform="matrix(1 0 0 1 99.43 712.45)" class="st26 st38 st18">a dance</text>
<text transform="matrix(1 0 0 1 136.1 712.45)" class="st26 st38 st18">r</text>
<text transform="matrix(1 0 0 1 138.89 712.45)" class="st26 st38 st18">, but he isn’t a dance</text>
<text transform="matrix(1 0 0 1 237.92 712.45)" class="st26 st38 st18">r</text>
<text transform="matrix(1 0 0 1 240.7 712.45)" class="st26 st38 st18">. After th</text>
<text transform="matrix(1 0 0 1 283.48 712.45)" class="st26 st38 st18">r</text>
<text transform="matrix(1 0 0 1 287.03 712.45)" class="st26 st38 st18">ee hours of practice, And</text>
<text transform="matrix(1 0 0 1 405.61 712.45)" class="st26 st38 st18">r</text>
<text transform="matrix(1 0 0 1 409.17 712.45)" class="st26 st38 st18">ew takes</text>
<text transform="matrix(1 0 0 1 99.43 728.45)" class="st26 st38 st18">a bath, eats a</text>
<text transform="matrix(0.9778 0 -0.2095 0.9778 166.0493 728.4594)" class="st26 st27 st39">good</text>
<text transform="matrix(1 0 0 1 190.52 728.45)" class="st26 st38 st18"> lunch and goes to work whe</text>
<text transform="matrix(1 0 0 1 328.07 728.45)" class="st26 st38 st18">r</text>
<text transform="matrix(1 0 0 1 331.63 728.45)" class="st26 st38 st18">e he works with a lot of</text>
<text transform="matrix(1 0 0 1 99.43 744.45)" class="st26 st38 st18">students. He is very</text>
<text transform="matrix(0.9778 0 -0.2095 0.9778 194.7696 744.4594)" class="st26 st27 st39">responsible</text>
<text transform="matrix(1 0 0 1 249.76 744.45)" class="st26 st38 st18">,</text>
<text transform="matrix(0.9778 0 -0.2095 0.9778 255.879 744.4594)" class="st26 st27 st39">disciplined</text>
<text transform="matrix(1 0 0 1 307.83 744.45)" class="st26 st38 st18"> and a </text>
<text transform="matrix(0.9778 0 -0.2095 0.9778 340.2403 744.4594)" class="st26 st27 st39">nice</text>
<text transform="matrix(1 0 0 1 359.79 744.45)" class="st26 st38 st18"> person, too.</text>
<rect x="100" y="765.7" class="st0" width="351.3" height="20.3"/>
<text transform="matrix(1 0 0 1 122.29 779.97)" class="st26 st27 st18">a.</text>
<text transform="matrix(1 0 0 1 136.35 779.97)" class="st26 st38 st18">Sports coach</text>
<text transform="matrix(1 0 0 1 196.24 779.97)" class="st26 st38 st18 st28">    </text>
<text transform="matrix(1 0 0 1 251.24 779.97)" class="st26 st27 st18">b.</text>
<text transform="matrix(1 0 0 1 265.92 779.97)" class="st26 st38 st18">Gym teacher</text>
<text transform="matrix(1 0 0 1 326.42 779.97)" class="st26 st38 st18 st28">    </text>
<text transform="matrix(1 0 0 1 381.42 779.97)" class="st26 st27 st18">c.</text>
<text transform="matrix(1 0 0 1 394.86 779.97)" class="st26 st38 st18">Athlete</text>
<path class="st29" d="M451.3,765.7H100V786h351.3V765.7z"/>
<g>
	<g>
		<g>
			<g>
				<g>
					<defs>
						<rect id="SVGID_21_" x="474" y="614" width="106.3" height="175.7"/>
					</defs>
					<clipPath id="SVGID_22_">
						<use xlink:href="#SVGID_21_"  style="overflow:visible;"/>
					</clipPath>
					<g class="st40">
						<g>
							<g>
								<g>
									<g>
										<g>
											<defs>
												<rect id="SVGID_23_" x="474" y="614" width="106.3" height="176.6"/>
											</defs>
											<clipPath id="SVGID_24_">
												<use xlink:href="#SVGID_23_"  style="overflow:visible;"/>
											</clipPath>
											<g class="st41">
												
													<image style="overflow:visible;enable-background:new    ;" width="444" height="737" xlink:href="EA66CDAB.png"  transform="matrix(0.2395 0 0 0.2395 474.04 614.0992)">
												</image>
											</g>
										</g>
									</g>
								</g>
							</g>
						</g>
					</g>
				</g>
			</g>
		</g>
	</g>
</g>
<text transform="matrix(1 0 0 1 82.15 344.53)" class="st16 st17 st18">2.  </text>
<text transform="matrix(1 0 0 1 100.15 344.53)" class="st26 st27 st18">Look at the picture and identify the objects. What happened? Read the conversation and match the</text>
<text transform="matrix(1 0 0 1 100.15 358.03)" class="st26 st27 st18">people with their possessions.</text>
<text transform="matrix(1 0 0 1 100.15 377.53)" class="st26 st27 st18">Ana:</text>
<text transform="matrix(1 0 0 1 142.15 377.53)" class="st26 st38 st18">Ouch!</text>
<text transform="matrix(1 0 0 1 100.15 391.03)" class="st26 st27 st18">Carlos:  </text>
<text transform="matrix(1 0 0 1 142.15 391.03)" class="st26 st38 st18">I’m sorr</text>
<text transform="matrix(1 0 0 1 178.22 391.03)" class="st26 st38 st18">y</text>
<text transform="matrix(1 0 0 1 182.73 391.03)" class="st26 st38 st18">. A</text>
<text transform="matrix(1 0 0 1 196.18 391.03)" class="st26 st38 st18">r</text>
<text transform="matrix(1 0 0 1 199.73 391.03)" class="st26 st38 st18">e you OK?</text>
<text transform="matrix(1 0 0 1 100.15 404.53)" class="st26 st27 st18">Ana:</text>
<path class="st26" d="M144.9,401.3l-2.7-4l0.9-0.5l2.3,3.8l2.5-3.8l0.8,0.5l-2.9,4l-0.1,3.3h-0.9L144.9,401.3z M149.3,401.7v0.2
	c0,1.1,0.4,2.2,1.6,2.2c0.6-0.1,1.2-0.3,1.6-0.8l0.4,0.5c-0.5,0.6-1.3,1-2.1,1c-1.5,0-2.4-1.1-2.4-2.9c-0.1-1.5,1-2.8,2.5-2.9
	c1.5,0,2.1,1.1,2.1,2.6v0.2L149.3,401.7z M152.1,401.1c0-0.8-0.3-1.5-1.2-1.5c-0.8,0.1-1.4,0.7-1.5,1.5H152.1z M154.2,403.6
	c0.3,0.3,0.8,0.4,1.2,0.5c0.5,0,1-0.4,1.1-0.9c0-1.4-2.5-0.8-2.5-2.6c0-0.9,0.8-1.7,1.7-1.6h0.1c0.6,0,1.1,0.2,1.6,0.5l-0.4,0.6
	c-0.3-0.2-0.6-0.3-1-0.4c-0.6,0-1.1,0.3-1.1,0.9c0,1.2,2.5,0.7,2.5,2.5c0,0.9-0.8,1.7-1.8,1.7l0,0c-0.6,0-1.2-0.2-1.7-0.5
	L154.2,403.6z M158.8,403.5h1.2l-0.8,2.6h-0.4V403.5z M164.9,396.9h1l-0.1,7.6h-0.9V396.9z M167.9,396.9h1.2l-0.8,2.6h-0.4V396.9z
	 M170.8,399.1h0.9v0.8l0,0c0.4-0.6,1.1-1,1.8-1c0.6-0.1,1.2,0.4,1.4,1c0.5-0.6,1.2-0.9,1.9-1c1.1,0,1.5,0.6,1.5,1.7
	c0,0.4,0,0.8,0,1.3v2.7h-0.9V402c0-0.5,0-1,0-1.5c0-0.4-0.3-0.8-0.7-0.9h-0.1c-0.6,0.1-1.2,0.4-1.6,0.9l-0.1,3.9H174V402
	c0-0.5,0-1,0-1.5c0-0.4-0.3-0.8-0.7-0.9h-0.1c-0.6,0.1-1.2,0.4-1.6,0.9l-0.1,3.9h-0.9L170.8,399.1z M186.8,396.8
	c2.1-0.1,3.9,1.5,4,3.6c0,0.1,0,0.3,0,0.4c0.1,2.2-1.6,3.9-3.8,4c-0.1,0-0.1,0-0.2,0c-2.1,0.1-3.9-1.5-4-3.6c0-0.1,0-0.3,0-0.4
	c-0.1-2.2,1.6-3.9,3.8-4C186.7,396.8,186.7,396.8,186.8,396.8L186.8,396.8z M186.8,403.9c1.7,0.1,3.2-1.2,3.3-3
	c0.1-1.7-1.2-3.2-3-3.3c-1.7-0.1-3.2,1.2-3.3,3c0,0.1,0,0.1,0,0.2c-0.1,1.7,1.2,3.1,2.8,3.2C186.7,403.9,186.7,403.9,186.8,403.9
	L186.8,403.9z M192.4,396.9h0.9l-0.1,7.6h-0.9L192.4,396.9z M193.3,400.6l3.8-3.9l0.7,0.6l-3.3,3.3l3.3,3.4l-0.7,0.6L193.3,400.6z
	 M199.2,403.5h1.2l-0.8,2.6h-0.4V403.5z M205.4,399v-2h0.9v2h1.5v0.7h-1.5v2.3c0,0.6,0,1,0,1.3c0,0.5,0.1,0.7,0.5,0.7
	c0.3,0,0.6-0.1,0.9-0.3l0.3,0.6c-0.4,0.3-0.9,0.5-1.4,0.5c-0.8,0-1.2-0.5-1.2-1.4c0-0.4,0-0.8,0-1.6v-2h-0.9V399H205.4z
	 M208.8,396.3h0.9v3.6l0,0c0.4-0.6,1.1-1,1.8-1c1.3,0,1.7,0.6,1.7,1.7c0,0.4,0,0.8,0,1.3v2.7h-0.9v-2.5c0-0.5,0-1,0-1.5
	s-0.4-0.9-1-0.9c-0.7,0.1-1.3,0.4-1.6,1l-0.1,3.8h-0.9L208.8,396.3z M219.5,404.3c-0.3,0.2-0.6,0.4-1,0.4c-0.5,0-0.8-0.4-0.8-0.9
	c-0.4,0.5-1,0.9-1.6,0.9c-0.8,0-1.5-0.6-1.6-1.4c0-0.1,0-0.1,0-0.2c0-1.5,2-1.9,3.2-2c0-0.2,0-0.5,0-0.7c0-0.4-0.3-0.8-0.7-0.8h-0.1
	c-0.4,0-0.8,0.1-1.6,0.8l-0.4-0.6c1.1-0.7,1.4-0.9,2.3-0.9c0.7-0.1,1.3,0.4,1.4,1.1c0,0.1,0,0.2,0,0.3c0,1-0.1,2-0.1,3
	c0,0.4,0.1,0.8,0.4,0.8c0.2,0,0.3-0.1,0.5-0.2L219.5,404.3z M217.6,401.6c-1.5,0.2-2.3,0.5-2.3,1.4c0,0.5,0.3,0.9,0.8,0.9
	c0.1,0,0.1,0,0.2,0c0.5-0.1,1-0.4,1.3-0.8V401.6z M220.4,399h0.9v0.9l0,0c0.4-0.6,1.1-1,1.9-1c1.3,0,1.7,0.6,1.7,1.7
	c0,0.4,0,0.8,0,1.3v2.7H224v-2.5c0-0.5,0-1,0-1.5s-0.4-0.9-1-0.9c-0.7,0.1-1.3,0.4-1.6,1v3.8h-0.9L220.4,399z M226.5,396.2h0.9v5.4
	l2.8-2.9l0.6,0.6l-2.3,2.2l2.4,2.6l-0.7,0.6l-2.8-3v2.8h-0.9V396.2z M231.9,403.5c0.3,0.3,0.7,0.4,1.1,0.5c0.5,0,1-0.4,1.1-0.9
	c0-1.4-2.5-0.8-2.5-2.6c0-0.9,0.8-1.7,1.7-1.6h0.1c0.6,0,1.1,0.2,1.6,0.5l-0.4,0.6c-0.3-0.2-0.6-0.3-1-0.4c-0.6,0-1.1,0.3-1.1,0.9
	c0,1.2,2.5,0.7,2.5,2.5c0,0.9-0.8,1.7-1.8,1.7l0,0c-0.6,0-1.2-0.2-1.7-0.5L231.9,403.5z M236.4,403.4h1v1h-1V403.4z M242.4,404.4
	l0.1-7.6h0.9l-0.1,6.8h3.3v0.8L242.4,404.4z M250.1,398.8c1.6,0,2.6,1.1,2.6,2.9c0.1,1.5-1.1,2.8-2.6,2.9H250
	c-1.6,0-2.6-1.1-2.6-2.9C247.4,400.2,248.6,398.9,250.1,398.8C250.1,398.9,250.1,398.9,250.1,398.8L250.1,398.8z M250,404
	c0.8,0,1.7-0.7,1.7-2.2s-0.7-2.2-1.6-2.2s-1.7,0.7-1.7,2.2S249.1,404,250,404z M256.2,398.9c1.6,0,2.6,1.1,2.6,2.9
	c0.1,1.5-1.1,2.8-2.6,2.9h-0.1c-1.6,0-2.6-1.1-2.6-2.9C253.5,400.3,254.6,399,256.2,398.9C256.1,398.9,256.2,398.9,256.2,398.9
	L256.2,398.9z M256.1,404c0.8,0,1.7-0.7,1.7-2.2s-0.7-2.2-1.6-2.2s-1.7,0.7-1.7,2.2S255.2,404,256.1,404z M260.1,396.3h0.9v5.4
	l2.8-2.9l0.6,0.6l-2.4,2.3l2.4,2.6l-0.7,0.6l-2.8-3v2.8H260L260.1,396.3z M273.3,404.3c-0.3,0.2-0.6,0.4-1,0.4
	c-0.5,0-0.8-0.4-0.8-0.9c-0.4,0.5-1,0.9-1.6,0.9c-0.8,0-1.5-0.6-1.6-1.4c0-0.1,0-0.1,0-0.2c0-1.5,2-1.9,3.2-2c0-0.2,0-0.5,0-0.7
	c0-0.4-0.3-0.8-0.7-0.8h-0.1c-0.4,0-0.8,0.1-1.6,0.8l-0.4-0.6c1.1-0.7,1.5-0.9,2.3-0.9c0.7-0.1,1.3,0.4,1.4,1.1c0,0.1,0,0.2,0,0.3
	c0,1-0.1,2-0.1,3c0,0.4,0.1,0.8,0.4,0.8c0.2,0,0.3-0.1,0.5-0.2L273.3,404.3z M271.4,401.6c-1.5,0.2-2.3,0.5-2.3,1.4
	c0,0.5,0.3,0.9,0.8,0.9c0.1,0,0.1,0,0.2,0c0.5-0.1,1-0.4,1.3-0.8V401.6z M274.4,399v-2h0.9v2h1.5v0.7h-1.5v2.3c0,0.6,0,1,0,1.3
	c0,0.5,0.1,0.7,0.5,0.7c0.3,0,0.6-0.1,0.9-0.3l0.3,0.6c-0.4,0.3-0.9,0.5-1.4,0.5c-0.8,0-1.2-0.5-1.2-1.4c0-0.4,0-0.8,0-1.6v-2h-0.9
	V399H274.4z M281.1,399v-2h0.9v2h1.5v0.7H282v2.3c0,0.6,0,1,0,1.3c0,0.5,0.1,0.7,0.5,0.7c0.3,0,0.6-0.1,0.9-0.3l0.3,0.6
	c-0.4,0.3-0.9,0.4-1.4,0.5c-0.9,0-1.2-0.5-1.2-1.4c0-0.4,0-0.8,0-1.6v-2h-0.9V399H281.1z M284.5,396.2h0.9v3.6l0,0
	c0.4-0.6,1.1-1,1.8-1c1.3,0,1.7,0.6,1.7,1.7c0,0.4,0,0.8,0,1.3v2.7H288V402c0-0.5,0-1,0-1.5s-0.4-0.9-1-0.9c-0.7,0.1-1.3,0.4-1.6,1
	v3.8h-0.9V396.2z M290.5,396.9h1v1h-1V396.9z M290.5,399h0.9v5.5h-0.9V399z M292.9,403.5c0.3,0.3,0.8,0.4,1.2,0.5
	c0.5,0,1-0.3,1.1-0.9c0-1.4-2.5-0.8-2.5-2.6c0-0.9,0.8-1.7,1.7-1.6h0.1c0.6,0,1.1,0.2,1.6,0.5l-0.4,0.6c-0.3-0.2-0.6-0.3-1-0.4
	c-0.6,0-1.1,0.3-1.1,0.9c0,1.2,2.5,0.7,2.5,2.5c0,0.9-0.8,1.7-1.8,1.7c0,0,0,0-0.1,0c-0.6,0-1.2-0.2-1.7-0.5L292.9,403.5z
	 M300.3,399h0.9v0.8l0,0c0.4-0.6,1.1-1,1.8-1c0.6-0.1,1.2,0.4,1.4,1c0.5-0.6,1.2-0.9,1.9-1c1.1,0,1.5,0.6,1.5,1.7c0,0.4,0,0.8,0,1.3
	v2.7H307V402c0-0.5,0-1,0-1.5c0-0.4-0.3-0.8-0.7-0.9h-0.1c-0.6,0.1-1.2,0.4-1.6,0.9l-0.1,3.9h-0.9V402c0-0.5,0-1,0-1.5
	c0-0.4-0.3-0.8-0.7-0.9h-0.1c-0.6,0.1-1.2,0.4-1.6,0.9l-0.1,3.9h-0.9L300.3,399z M310,401.6v0.2c0,1.1,0.4,2.2,1.5,2.2
	c0.6-0.1,1.2-0.3,1.6-0.8l0.4,0.5c-0.5,0.6-1.3,1-2.1,1c-1.5,0-2.4-1.1-2.4-2.9c-0.1-1.5,1-2.8,2.5-2.9c1.5,0,2.1,1.1,2.1,2.6v0.2
	L310,401.6z M312.8,401c0-0.8-0.3-1.5-1.2-1.5c-0.8,0.1-1.4,0.7-1.5,1.5H312.8z M314.8,403.5c0.3,0.3,0.8,0.4,1.2,0.5
	c0.5,0,1-0.3,1.1-0.9c0-1.4-2.5-0.8-2.5-2.6c0-0.9,0.8-1.7,1.7-1.6h0.1c0.6,0,1.1,0.2,1.6,0.5l-0.4,0.6c-0.3-0.2-0.7-0.3-1-0.4
	c-0.6,0-1.1,0.3-1.1,0.9c0,1.2,2.5,0.7,2.5,2.5c0,0.9-0.8,1.7-1.8,1.7l0,0c-0.6,0-1.2-0.2-1.7-0.5L314.8,403.5z M319.1,403.5
	c0.3,0.3,0.8,0.4,1.2,0.5c0.5,0,1-0.3,1.1-0.9c0-1.4-2.5-0.8-2.5-2.6c0-0.9,0.8-1.7,1.7-1.6h0.1c0.6,0,1.1,0.2,1.6,0.5l-0.4,0.6
	c-0.3-0.2-0.6-0.3-1-0.4c-0.6,0-1.1,0.3-1.1,0.9c0,1.2,2.5,0.7,2.5,2.5c0,0.9-0.8,1.7-1.8,1.7c0,0,0,0-0.1,0c-0.6,0-1.2-0.2-1.7-0.5
	L319.1,403.5z M324,402.6l0.1-5.8h1l-0.1,5.8H324z M324,403.4h0.9v1H324V403.4z M330.4,397.1l0.8-0.4l4.2,6.2l0,0v-6h1l-0.1,7.5
	l-0.8,0.3l-4.2-6.2l0,0v6.1h-1L330.4,397.1z M340.5,398.9c1.6,0,2.6,1.1,2.6,2.9c0.1,1.5-1,2.8-2.6,2.9h-0.1c-1.6,0-2.6-1.1-2.6-2.9
	C337.7,400.2,338.9,399,340.5,398.9h0.1H340.5z M340.4,404c0.8,0,1.7-0.7,1.7-2.2s-0.7-2.2-1.6-2.2s-1.7,0.7-1.7,2.2
	s0.9,2.2,1.8,2.2H340.4z M343.7,399.1l0.9-0.3l1.2,4.6l0,0l1.5-4.4h0.9l1.2,4.4l0,0l1.6-4.5l0.9,0.3l-2,5.4H349l-1.2-4.4l0,0
	l-1.5,4.4h-0.9L343.7,399.1z M352.3,403.4h1.2l-0.8,2.6h-0.4L352.3,403.4z M358.1,396.2h0.9l-0.1,8.3H358L358.1,396.2z M361.1,401.6
	v0.2c0,1.1,0.4,2.2,1.5,2.2c0.6-0.1,1.2-0.3,1.6-0.8l0.4,0.5c-0.5,0.6-1.3,1-2.1,1c-1.5,0-2.4-1.1-2.4-2.9c-0.1-1.5,1-2.8,2.5-2.9
	c1.5,0,2.1,1.1,2.1,2.6v0.2L361.1,401.6z M363.9,401c0-0.8-0.3-1.5-1.2-1.5c-0.8,0.1-1.4,0.7-1.5,1.5H363.9z M366.4,399v-2h0.9v2
	h1.5v0.7h-1.5v2.3c0,0.6,0,1,0,1.3c0,0.5,0.1,0.7,0.5,0.7c0.3,0,0.6-0.1,0.9-0.3l0.3,0.6c-0.4,0.3-0.9,0.4-1.4,0.5
	c-0.9,0-1.2-0.5-1.2-1.4c0-0.4,0-0.8,0-1.6v-2h-0.9v-0.7L366.4,399z M369.9,396.9h1.2l-0.8,2.6H370L369.9,396.9z M371.9,403.6
	c0.3,0.3,0.8,0.4,1.2,0.5c0.5,0,1-0.3,1.1-0.9c0-1.4-2.5-0.8-2.5-2.6c0-0.9,0.8-1.7,1.7-1.6h0.1c0.6,0,1.1,0.2,1.6,0.5l-0.4,0.6
	c-0.3-0.2-0.6-0.3-1-0.4c-0.6,0-1.1,0.3-1.1,0.9c0,1.2,2.5,0.7,2.5,2.5c0,1-0.8,1.7-1.8,1.7l0,0c-0.6,0-1.2-0.2-1.7-0.5L371.9,403.6
	z M378.7,399h1.1c0-0.3,0-0.7,0-1c0.1-1.4,1-1.8,2.3-1.8v0.7h-0.4c-0.7,0-1.1,0.6-1.1,1.3v0.9h3.4v5.5h-1v-4.8h-2.3v4.8h-0.9v-4.8
	h-1.1V399z M382.9,396.9h1.1v1h-1L382.9,396.9z"/>
<text transform="matrix(1 0 0 1 381.68 404.53)" class="st26 st38 st18"> nd </text>
<text transform="matrix(0.9778 0 -0.2095 0.9778 142.1505 418.0489)" class="st26 st27 st39">our</text>
<text transform="matrix(1 0 0 1 158.05 418.03)" class="st26 st38 st18"> things, please.</text>
<text transform="matrix(1 0 0 1 100.15 431.53)" class="st26 st27 st18">Carlos:  </text>
<text transform="matrix(1 0 0 1 142.15 431.53)" class="st26 st38 st18">This is</text>
<text transform="matrix(0.9778 0 -0.2095 0.9778 173.9406 431.549)" class="st26 st27 st39">my</text>
<text transform="matrix(1 0 0 1 188.6 431.53)" class="st26 st38 st18"> pen.</text>
<text transform="matrix(1 0 0 1 100.15 445.03)" class="st26 st27 st18">Ana:</text>
<text transform="matrix(1 0 0 1 142.15 445.03)" class="st26 st38 st18">No! It</text>
<text transform="matrix(1 0 0 1 169.66 445.03)" class="st26 st38 st18">’</text>
<text transform="matrix(1 0 0 1 171.92 445.03)" class="st26 st38 st18">s not</text>
<text transform="matrix(0.9778 0 -0.2095 0.9778 198.1995 445.0492)" class="st26 st27 st39">your</text>
<text transform="matrix(1 0 0 1 219.59 445.03)" class="st26 st38 st18"> pen. </text>
<text transform="matrix(0.9778 0 -0.2095 0.9778 246.5003 445.0492)" class="st26 st27 st39">Y</text>
<text transform="matrix(0.9778 0 -0.2095 0.9778 252.428 445.0492)" class="st26 st27 st39">our</text>
<text transform="matrix(1 0 0 1 268.3 445.03)" class="st26 st38 st18"> pen is </text>
<text transform="matrix(1 0 0 1 301.93 445.03)" class="st42 st27 st18">blue</text>
<text transform="matrix(1 0 0 1 322.72 445.03)" class="st26 st38 st18"> and this is </text>
<text transform="matrix(1 0 0 1 375.9 445.03)" class="st16 st27 st18">red</text>
<text transform="matrix(1 0 0 1 391.18 445.03)" class="st26 st38 st18">.</text>
<text transform="matrix(1 0 0 1 100.15 458.53)" class="st26 st27 st18">Carlos:  </text>
<text transform="matrix(1 0 0 1 142.15 458.53)" class="st26 st38 st18">Look, two notebooks, but which is</text>
<text transform="matrix(0.9778 0 -0.2095 0.9778 308.4398 458.5493)" class="st26 st27 st39">your</text>
<text transform="matrix(1 0 0 1 329.83 458.53)" class="st26 st38 st18"> notebook?</text>
<text transform="matrix(1 0 0 1 100.15 472.03)" class="st26 st27 st18">Ana:</text>
<text transform="matrix(0.9778 0 -0.2095 0.9778 142.1491 472.0485)" class="st26 st27 st39">My</text>
<text transform="matrix(1 0 0 1 158.04 472.03)" class="st26 st38 st18"> notebook is </text>
<text transform="matrix(1 0 0 1 219.17 472.03)" class="st43 st27 st18">pink</text>
<text transform="matrix(1 0 0 1 239.96 472.03)" class="st26 st38 st18"> and </text>
<text transform="matrix(0.9778 0 -0.2095 0.9778 263.8093 472.0485)" class="st26 st27 st39">your</text>
<text transform="matrix(1 0 0 1 285.21 472.03)" class="st26 st38 st18"> notebook is </text>
<text transform="matrix(1 0 0 1 346.34 472.03)" class="st26 st27 st18">black</text>
<text transform="matrix(1 0 0 1 371.4 472.03)" class="st26 st38 st18">. Ugh!</text>
<text transform="matrix(1 0 0 1 142.15 485.53)" class="st26 st38 st18">And he</text>
<text transform="matrix(1 0 0 1 176.39 485.53)" class="st26 st38 st18">r</text>
<text transform="matrix(1 0 0 1 179.95 485.53)" class="st26 st38 st18">e</text>
<text transform="matrix(1 0 0 1 185.45 485.53)" class="st26 st38 st18">’</text>
<text transform="matrix(1 0 0 1 187.7 485.53)" class="st26 st38 st18">s</text>
<text transform="matrix(0.9778 0 -0.2095 0.9778 195.03 485.5486)" class="st26 st27 st39">my</text>
<text transform="matrix(1 0 0 1 212.75 485.53)" class="st44 st27 st18">green</text>
<text transform="matrix(1 0 0 1 239.65 485.53)" class="st26 st38 st18"> dictionar</text>
<text transform="matrix(1 0 0 1 283.65 485.53)" class="st26 st38 st18">y</text>
<text transform="matrix(1 0 0 1 288.16 485.53)" class="st26 st38 st18">.</text>
<text transform="matrix(1 0 0 1 100.15 499.03)" class="st26 st27 st18">Carlos:  </text>
<text transform="matrix(1 0 0 1 142.15 499.03)" class="st26 st38 st18">G</text>
<text transform="matrix(1 0 0 1 150.09 499.03)" class="st26 st38 st18">r</text>
<text transform="matrix(1 0 0 1 153.64 499.03)" class="st26 st38 st18">eat! He</text>
<text transform="matrix(1 0 0 1 188.48 499.03)" class="st26 st38 st18">r</text>
<text transform="matrix(1 0 0 1 192.03 499.03)" class="st26 st38 st18">e</text>
<text transform="matrix(1 0 0 1 197.53 499.03)" class="st26 st38 st18">’</text>
<text transform="matrix(1 0 0 1 199.78 499.03)" class="st26 st38 st18">s</text>
<text transform="matrix(0.9778 0 -0.2095 0.9778 207.12 499.0487)" class="st26 st27 st39">my</text>
<text transform="matrix(1 0 0 1 224.84 499.03)" class="st45 st27 st18">brown</text>
<text transform="matrix(1 0 0 1 255.41 499.03)" class="st26 st38 st18"> wallet; it</text>
<text transform="matrix(1 0 0 1 298.79 499.03)" class="st26 st38 st18">’</text>
<text transform="matrix(1 0 0 1 301.04 499.03)" class="st26 st38 st18">s</text>
<text transform="matrix(0.9778 0 -0.2095 0.9778 308.37 499.0487)" class="st26 st27 st39">my</text>
<text transform="matrix(1 0 0 1 323.04 499.03)" class="st26 st38 st18"> favorite! </text>
<text transform="matrix(1 0 0 1 142.15 512.53)" class="st26 st38 st18">Oh,</text>
<text transform="matrix(0.9778 0 -0.2095 0.9778 163.5595 512.5489)" class="st26 st27 st39">your</text>
<text transform="matrix(1 0 0 1 184.95 512.53)" class="st26 st38 st18"> USB is in pieces!</text>
<text transform="matrix(1 0 0 1 100.15 526.03)" class="st26 st27 st18">Ana:</text>
<text transform="matrix(1 0 0 1 142.15 526.03)" class="st26 st38 st18">Oops, I’m in t</text>
<text transform="matrix(1 0 0 1 207.58 526.03)" class="st26 st38 st18">r</text>
<text transform="matrix(1 0 0 1 211.13 526.03)" class="st26 st38 st18">ouble! This USB belongs to</text>
<text transform="matrix(0.9778 0 -0.2095 0.9778 341.3604 526.049)" class="st26 st27 st39">my</text>
<text transform="matrix(1 0 0 1 356.02 526.03)" class="st26 st38 st18"> b</text>
<text transform="matrix(1 0 0 1 365.19 526.03)" class="st26 st38 st18">r</text>
<text transform="matrix(1 0 0 1 368.76 526.03)" class="st26 st38 st18">other;</text>
<text transform="matrix(1 0 0 1 142.15 539.53)" class="st26 st38 st18">it</text>
<text transform="matrix(1 0 0 1 148.25 539.53)" class="st26 st38 st18">’</text>
<text transform="matrix(1 0 0 1 150.51 539.53)" class="st26 st38 st18">s</text>
<text transform="matrix(0.9778 0 -0.2095 0.9778 157.839 539.5491)" class="st26 st27 st39">his</text>
<text transform="matrix(1 0 0 1 171.89 539.53)" class="st26 st38 st18"> USB. </text>
<text transform="matrix(1 0 0 1 100.15 553.03)" class="st26 st27 st18">Carlos:  </text>
<text transform="matrix(1 0 0 1 142.15 553.03)" class="st26 st38 st18">I’m sorry about the USB, but look,</text>
<text transform="matrix(0.9778 0 -0.2095 0.9778 306.599 553.0483)" class="st26 st27 st39">our</text>
<text transform="matrix(1 0 0 1 322.5 553.03)" class="st26 st38 st18"> cell phones a</text>
<text transform="matrix(1 0 0 1 386.68 553.03)" class="st26 st38 st18">r</text>
<text transform="matrix(1 0 0 1 390.24 553.03)" class="st26 st38 st18">e OK.</text>
<text transform="matrix(1 0 0 1 100.15 566.53)" class="st26 st27 st18">Ana:</text>
<text transform="matrix(1 0 0 1 142.15 566.53)" class="st26 st38 st18">Oh, no! He</text>
<text transform="matrix(1 0 0 1 195.96 566.53)" class="st26 st38 st18">r</text>
<text transform="matrix(1 0 0 1 199.51 566.53)" class="st26 st38 st18">e comes</text>
<text transform="matrix(0.9778 0 -0.2095 0.9778 241.0796 566.5485)" class="st26 st27 st39">my</text>
<text transform="matrix(1 0 0 1 255.75 566.53)" class="st26 st38 st18"> b</text>
<text transform="matrix(1 0 0 1 264.92 566.53)" class="st26 st38 st18">r</text>
<text transform="matrix(1 0 0 1 268.48 566.53)" class="st26 st38 st18">other!</text>
<g>
	<g>
		<g>
			<g>
				<g>
					<defs>
						<rect id="SVGID_25_" x="428.8" y="374.6" width="152.3" height="195.7"/>
					</defs>
					<clipPath id="SVGID_26_">
						<use xlink:href="#SVGID_25_"  style="overflow:visible;"/>
					</clipPath>
					<g class="st46">
						<g>
							<g>
								<g>
									<g>
										<g>
											<defs>
												<rect id="SVGID_27_" x="428.8" y="374.5" width="152.3" height="195.8"/>
											</defs>
											<clipPath id="SVGID_28_">
												<use xlink:href="#SVGID_27_"  style="overflow:visible;"/>
											</clipPath>
											<g class="st47">
												
													<image style="overflow:visible;enable-background:new    ;" width="706" height="906" xlink:href="EA66CDAD.png"  transform="matrix(0.2197 0 0 0.2197 428.75 374.6912)">
												</image>
											</g>
										</g>
									</g>
								</g>
							</g>
						</g>
					</g>
				</g>
			</g>
		</g>
	</g>
</g>
<g class="st48">
	
		<image style="overflow:visible;opacity:0.37;enable-background:new    ;" width="297" height="93" xlink:href="91AEF1A5.png"  transform="matrix(1 0 0 1 154 11)">
	</image>
	<g>
		
			<image style="overflow:visible;opacity:0.8;enable-background:new    ;" width="281" height="72" xlink:href="91AEF1A7.png"  transform="matrix(1 0 0 1 158 14)">
		</image>
		<g>
			<text transform="matrix(1 0 0 1 173.8216 44.7172)" class="st49 st50 st51">LISTENING AND READING </text>
			<text transform="matrix(1 0 0 1 173.8216 66.3173)" class="st49 st50 st51">Greetings and introductions</text>
		</g>
	</g>
</g>
</svg>
