<?xml version="1.0" encoding="utf-8"?>
<!-- Generator: Adobe Illustrator 24.1.2, SVG Export Plug-In . SVG Version: 6.00 Build 0)  -->
<svg version="1.1" id="Capa_1" xmlns="http://www.w3.org/2000/svg" xmlns:xlink="http://www.w3.org/1999/xlink" x="0px" y="0px"
	 viewBox="0 0 652 822" style="enable-background:new 0 0 652 822;" xml:space="preserve">
<style type="text/css">
	.st0{fill:#FFFFFF;}
	.st1{clip-path:url(#SVGID_2_);}
	.st2{fill:#D6D087;}
	.st3{clip-path:url(#SVGID_4_);}
	.st4{clip-path:url(#SVGID_6_);}
	.st5{fill:#F6F2C2;}
	.st6{clip-path:url(#SVGID_8_);}
	.st7{fill:#0092D3;}
	.st8{clip-path:url(#SVGID_10_);}
	.st9{clip-path:url(#SVGID_12_);}
	.st10{fill:#95C6EC;}
	.st11{fill:#91C4EB;}
	.st12{fill:#64ACE0;}
	.st13{fill:#ACD3F1;}
	.st14{fill:#AAD3F1;}
	.st15{clip-path:url(#SVGID_14_);}
	.st16{fill:#0071B6;}
	.st17{fill:#A1CAEC;}
	.st18{fill:#BF0811;}
	.st19{font-family:'SyntaxLTStd-Black';}
	.st20{font-size:11px;}
	.st21{fill:#5775B3;}
	.st22{clip-path:url(#SVGID_16_);}
	.st23{clip-path:url(#SVGID_18_);}
	.st24{clip-path:url(#SVGID_20_);}
	.st25{clip-path:url(#SVGID_22_);}
	.st26{fill:none;stroke:#5775B3;}
	.st27{fill:none;stroke:#5775B3;stroke-width:0.9;}
	.st28{fill:#211915;}
	.st29{font-family:'SyntaxLTStd-Bold';}
	.st30{font-size:11.2753px;}
	.st31{font-family:'SyntaxLTStd-Roman';}
	.st32{clip-path:url(#SVGID_24_);}
	.st33{clip-path:url(#SVGID_26_);}
	.st34{clip-path:url(#SVGID_28_);}
	.st35{clip-path:url(#SVGID_30_);}
	.st36{fill:none;stroke:#211915;stroke-width:0.55;stroke-miterlimit:10;}
	.st37{fill:none;stroke:#9A999E;stroke-width:0.5;stroke-miterlimit:10;}
	.st38{clip-path:url(#SVGID_32_);}
	.st39{clip-path:url(#SVGID_34_);}
	.st40{letter-spacing:4;}
	.st41{fill:none;stroke:#9A999E;stroke-width:0.75;}
	.st42{clip-path:url(#SVGID_36_);}
	.st43{clip-path:url(#SVGID_38_);}
	.st44{clip-path:url(#SVGID_40_);}
	.st45{clip-path:url(#SVGID_42_);}
	.st46{clip-path:url(#SVGID_44_);}
	.st47{clip-path:url(#SVGID_46_);}
	.st48{clip-path:url(#SVGID_48_);}
	.st49{clip-path:url(#SVGID_50_);}
	.st50{font-size:9px;}
	.st51{fill:#CA7104;}
	.st52{font-family:'Gabriel-Sans-Bold';}
	.st53{font-size:18px;}
</style>
<rect x="-7.6" y="-5.5" class="st0" width="662.5" height="831.8"/>
<g>
	<g>
		<g>
			<g>
				<defs>
					<rect id="SVGID_1_" x="15" y="13" width="14.2" height="793.7"/>
				</defs>
				<clipPath id="SVGID_2_">
					<use xlink:href="#SVGID_1_"  style="overflow:visible;"/>
				</clipPath>
				<g class="st1">
					<rect x="15" y="82.6" class="st2" width="14.2" height="4"/>
				</g>
			</g>
		</g>
	</g>
</g>
<g>
	<g>
		<g>
			<g>
				<defs>
					<rect id="SVGID_3_" x="29.1" y="13" width="609.5" height="793.7"/>
				</defs>
				<clipPath id="SVGID_4_">
					<use xlink:href="#SVGID_3_"  style="overflow:visible;"/>
				</clipPath>
				<g class="st3">
					<rect x="29.1" y="82.6" class="st2" width="609.5" height="4"/>
				</g>
			</g>
		</g>
	</g>
</g>
<rect x="576.3" y="758.8" class="st2" width="15.9" height="47.9"/>
<rect x="560.3" y="758.8" class="st2" width="16" height="47.9"/>
<g>
	<g>
		<g>
			<g>
				<defs>
					<rect id="SVGID_5_" x="15" y="13" width="623.6" height="793.7"/>
				</defs>
				<clipPath id="SVGID_6_">
					<use xlink:href="#SVGID_5_"  style="overflow:visible;"/>
				</clipPath>
				<g class="st4">
					<rect x="592.3" y="758.8" class="st5" width="46.3" height="47.9"/>
				</g>
			</g>
		</g>
	</g>
</g>
<g>
	<g>
		<g>
			<g>
				<defs>
					<rect id="SVGID_7_" x="15" y="13" width="14.2" height="793.7"/>
				</defs>
				<clipPath id="SVGID_8_">
					<use xlink:href="#SVGID_7_"  style="overflow:visible;"/>
				</clipPath>
				<g class="st6">
					<rect x="15" y="13" class="st7" width="14.2" height="69.6"/>
				</g>
			</g>
		</g>
	</g>
</g>
<g>
	<g>
		<g>
			<g>
				<defs>
					<rect id="SVGID_9_" x="15" y="13" width="14.2" height="69.6"/>
				</defs>
				<clipPath id="SVGID_10_">
					<use xlink:href="#SVGID_9_"  style="overflow:visible;"/>
				</clipPath>
				<g class="st8">
					<polyline class="st7" points="8.6,82.6 -65.1,82.6 -65.1,66.3 -11.9,13 24.9,13 24.9,66.3 8.6,82.6 					"/>
				</g>
			</g>
		</g>
	</g>
</g>
<g>
	<g>
		<g>
			<g>
				<defs>
					<rect id="SVGID_11_" x="29.1" y="13" width="609.5" height="793.7"/>
				</defs>
				<clipPath id="SVGID_12_">
					<use xlink:href="#SVGID_11_"  style="overflow:visible;"/>
				</clipPath>
				<g class="st9">
					<rect x="131.6" y="13" class="st7" width="507" height="69.6"/>
				</g>
			</g>
		</g>
	</g>
</g>
<polyline class="st7" points="603.8,82.6 560.1,82.6 560.1,36.3 583.4,13 620.1,13 620.1,66.3 603.8,82.6 "/>
<polyline class="st10" points="479.3,82.6 479.3,82.6 512.9,49 479.3,82.6 "/>
<polyline class="st10" points="461,82.6 460.9,82.6 447.6,69.2 447.6,69.2 461,82.6 "/>
<polyline class="st10" points="512.9,49 512.9,49 548.9,13 512.9,49 "/>
<polyline class="st10" points="560.1,36.3 560.1,13 583.4,13 560.1,36.3 "/>
<polyline class="st7" points="380.1,82.6 369.4,82.6 369.4,57.3 369.4,57.3 380.1,46.6 380.1,82.6 "/>
<polyline class="st7" points="440.1,61.8 402.6,24.2 402.6,24.2 440.1,61.8 440.1,61.8 "/>
<polyline class="st10" points="447.6,69.2 440.1,61.8 440.1,61.8 447.6,69.2 447.6,69.2 "/>
<polyline class="st11" points="369.4,82.6 304.7,82.6 279.4,57.3 279.4,13 325.1,13 369.4,57.3 369.4,82.6 "/>
<path class="st11" d="M402.6,24.2L391.4,13l0,0L402.6,24.2L402.6,24.2 M369.4,57.3L325.1,13h55v33.6L369.4,57.3"/>
<polyline class="st7" points="530.1,66.3 512.9,49 512.9,49 530.1,66.3 560.1,36.3 560.1,36.3 530.1,66.3 "/>
<polyline class="st7" points="560.1,82.6 530.1,82.6 530.1,66.3 530.1,66.3 560.1,36.3 560.1,82.6 "/>
<polyline class="st12" points="530.1,82.6 479.3,82.6 512.9,49 530.1,66.3 530.1,82.6 "/>
<polyline class="st12" points="530.1,66.3 512.9,49 548.9,13 560.1,13 560.1,36.3 530.1,66.3 "/>
<polyline class="st11" points="456.5,82.6 434.2,82.6 445.3,71.4 456.5,82.6 "/>
<polyline class="st13" points="460.9,82.6 456.5,82.6 445.3,71.4 447.6,69.2 460.9,82.6 "/>
<polyline class="st11" points="380.1,46.6 380.1,46.6 402.6,24.2 402.6,24.2 380.1,46.6 "/>
<polyline class="st11" points="434.2,82.6 380.1,82.6 380.1,46.6 402.6,24.2 440.1,61.8 440.1,66.3 445.3,71.4 434.2,82.6 "/>
<polyline class="st13" points="445.3,71.4 440.1,66.3 440.1,61.8 447.6,69.2 445.3,71.4 "/>
<polyline class="st14" points="380.1,46.6 380.1,13 391.4,13 402.6,24.2 380.1,46.6 "/>
<polyline class="st11" points="512.9,49 476.9,13 476.9,13 512.9,49 512.9,49 "/>
<polyline class="st13" points="479.3,82.6 461,82.6 447.6,69.2 459.4,57.3 459.4,13 476.9,13 512.9,49 479.3,82.6 "/>
<polyline class="st13" points="512.9,49 476.9,13 548.9,13 512.9,49 "/>
<polyline class="st11" points="402.6,24.2 402.6,24.2 413.7,13 413.7,13 402.6,24.2 "/>
<polyline class="st11" points="440.1,61.8 402.6,24.2 413.7,13 440.1,13 440.1,61.8 "/>
<polyline class="st13" points="447.6,69.2 440.1,61.8 440.1,13 459.4,13 459.4,57.3 447.6,69.2 "/>
<polyline class="st14" points="402.6,24.2 391.4,13 413.7,13 402.6,24.2 "/>
<g>
	<g>
		<g>
			<g>
				<defs>
					<rect id="SVGID_13_" x="29.1" y="13" width="609.5" height="793.7"/>
				</defs>
				<clipPath id="SVGID_14_">
					<use xlink:href="#SVGID_13_"  style="overflow:visible;"/>
				</clipPath>
				<g class="st15">
					<polyline class="st16" points="175.2,66.9 175.2,13 29.1,13 29.1,82.6 159.5,82.6 175.2,66.9 					"/>
				</g>
			</g>
		</g>
	</g>
</g>
<polyline class="st7" points="572.5,765.9 560.3,758.8 560.3,772.9 572.5,780 572.5,765.9 "/>
<polyline class="st16" points="572.5,780 584.7,772.9 584.7,758.8 572.5,765.9 572.5,780 "/>
<polyline class="st17" points="560.3,758.8 572.5,765.9 584.7,758.8 572.5,751.8 560.3,758.8 "/>
<text transform="matrix(1 0 0 1 69.33 103.27)" class="st18 st19 st20">1.  </text>
<polyline class="st21" points="98.4,96.3 98.4,102.5 111.7,107.4 121.4,103.4 121.4,95.4 111.7,91.4 98.4,96.3 "/>
<g>
	<g>
		<g>
			<g>
				<defs>
					<path id="SVGID_15_" d="M98.4,110c-5.8,0-10.6-4.7-10.6-10.6s4.7-10.6,10.6-10.6c5.8,0,10.6,4.7,10.6,10.6S104.3,110,98.4,110
						L98.4,110"/>
				</defs>
				<clipPath id="SVGID_16_">
					<use xlink:href="#SVGID_15_"  style="overflow:visible;"/>
				</clipPath>
				<g class="st22">
					<g>
						<g>
							<g>
								<g>
									<defs>
										<rect id="SVGID_17_" x="87.8" y="88.9" width="21.2" height="21.2"/>
									</defs>
									<clipPath id="SVGID_18_">
										<use xlink:href="#SVGID_17_"  style="overflow:visible;"/>
									</clipPath>
									<g class="st23">
										<g>
											<g>
												<g>
													<g>
														<defs>
															<rect id="SVGID_19_" x="87.8" y="88.9" width="21.2" height="21.2"/>
														</defs>
														<clipPath id="SVGID_20_">
															<use xlink:href="#SVGID_19_"  style="overflow:visible;"/>
														</clipPath>
														<g class="st24">
															
																<image style="overflow:visible;enable-background:new    ;" width="89" height="89" xlink:href="8CAE7312.png"  transform="matrix(0.24 0 0 0.24 87.8 88.85)">
															</image>
														</g>
													</g>
												</g>
											</g>
										</g>
									</g>
								</g>
							</g>
						</g>
					</g>
				</g>
			</g>
		</g>
	</g>
</g>
<g>
	<g>
		<g>
			<g>
				<defs>
					<path id="SVGID_21_" d="M98.4,110c-5.8,0-10.6-4.7-10.6-10.6s4.7-10.6,10.6-10.6c5.8,0,10.6,4.7,10.6,10.6S104.3,110,98.4,110
						L98.4,110"/>
				</defs>
				<clipPath id="SVGID_22_">
					<use xlink:href="#SVGID_21_"  style="overflow:visible;"/>
				</clipPath>
				<g class="st25">
					<polyline class="st0" points="98.4,96.3 98.4,102.5 111.7,107.4 121.4,103.4 121.4,95.4 111.7,91.4 98.4,96.3 					"/>
				</g>
			</g>
		</g>
	</g>
</g>
<circle class="st26" cx="98.4" cy="99.4" r="10.6"/>
<path class="st0" d="M98.4,102.6c-1.7,0-3.2-1.4-3.2-3.1s1.4-3.2,3.1-3.2s3.2,1.4,3.2,3.1l0,0C101.6,101.2,100.2,102.6,98.4,102.6"
	/>
<path class="st27" d="M98.4,102.6c-1.7,0-3.2-1.4-3.2-3.1s1.4-3.2,3.1-3.2s3.2,1.4,3.2,3.1l0,0C101.6,101.2,100.2,102.6,98.4,102.6z
	"/>
<path class="st21" d="M98.4,100.8c-0.7,0-1.3-0.6-1.3-1.3c0-0.7,0.6-1.3,1.3-1.3c0.7,0,1.3,0.6,1.3,1.3l0,0
	C99.8,100.2,99.2,100.8,98.4,100.8"/>
<text transform="matrix(1 0 0 1 129.33 103.27)" class="st28 st29 st20">Listen again and circle</text>
<text transform="matrix(0.9778 0 -0.2095 0.9778 239.3398 103.2894)" class="st28 st29 st30">T</text>
<text transform="matrix(1 0 0 1 245.46 103.27)" class="st28 st29 st20"> or </text>
<text transform="matrix(0.9778 0 -0.2095 0.9778 261.3495 103.2894)" class="st28 st29 st30">F</text>
<text transform="matrix(1 0 0 1 266.85 103.27)" class="st28 st29 st20">.</text>
<text transform="matrix(1 0 0 1 501.33 125.77)" class="st28 st31 st20">F</text>
<text transform="matrix(1 0 0 1 429.33 125.77)" class="st28 st31 st20">T</text>
<text transform="matrix(1 0 0 1 313.1 125.77)" class="st28 st31 st20">.</text>
<text transform="matrix(1 0 0 1 308.59 125.77)" class="st28 st31 st20">y</text>
<text transform="matrix(1 0 0 1 304.93 125.77)" class="st28 st31 st20">t</text>
<text transform="matrix(1 0 0 1 302.49 125.77)" class="st28 st31 st20">i</text>
<text transform="matrix(1 0 0 1 298.21 125.77)" class="st28 st31 st20">s</text>
<text transform="matrix(1 0 0 1 294.55 125.77)" class="st28 st31 st20">r</text>
<text transform="matrix(1 0 0 1 289.05 125.77)" class="st28 st31 st20">e</text>
<text transform="matrix(1 0 0 1 283.55 125.77)" class="st28 st31 st20">v</text>
<text transform="matrix(1 0 0 1 281.11 125.77)" class="st28 st31 st20">i</text>
<text transform="matrix(1 0 0 1 274.99 125.77)" class="st28 st31 st20">n</text>
<text transform="matrix(1 0 0 1 268.87 125.77)" class="st28 st31 st20">u</text>
<text transform="matrix(1 0 0 1 262.15 125.77)" class="st28 st31 st20">t</text>
<text transform="matrix(1 0 0 1 256.65 125.77)" class="st28 st31 st20">a</text>
<text transform="matrix(1 0 0 1 249.93 125.77)" class="st28 st31 st20">r</text>
<text transform="matrix(1 0 0 1 244.43 125.77)" class="st28 st31 st20">e</text>
<text transform="matrix(1 0 0 1 238.32 125.77)" class="st28 st31 st20">h</text>
<text transform="matrix(1 0 0 1 234.65 125.77)" class="st28 st31 st20">t</text>
<text transform="matrix(1 0 0 1 229.15 125.77)" class="st28 st31 st20">e</text>
<text transform="matrix(1 0 0 1 223.04 125.77)" class="st28 st31 st20">g</text>
<text transform="matrix(1 0 0 1 216.92 125.77)" class="st28 st31 st20">o</text>
<text transform="matrix(1 0 0 1 213.26 125.77)" class="st28 st31 st20">t</text>
<text transform="matrix(1 0 0 1 204.08 125.77)" class="st28 st31 st20">d</text>
<text transform="matrix(1 0 0 1 198.58 125.77)" class="st28 st31 st20">e</text>
<text transform="matrix(1 0 0 1 196.14 125.77)" class="st28 st31 st20">i</text>
<text transform="matrix(1 0 0 1 190.03 125.77)" class="st28 st31 st20">d</text>
<text transform="matrix(1 0 0 1 183.91 125.77)" class="st28 st31 st20">u</text>
<text transform="matrix(1 0 0 1 180.25 125.77)" class="st28 st31 st20">t</text>
<text transform="matrix(1 0 0 1 175.97 125.77)" class="st28 st31 st20">s</text>
<text transform="matrix(1 0 0 1 166.79 125.77)" class="st28 st31 st20">o</text>
<text transform="matrix(1 0 0 1 160.68 125.77)" class="st28 st31 st20">g</text>
<text transform="matrix(1 0 0 1 158.24 125.77)" class="st28 st31 st20">i</text>
<text transform="matrix(1 0 0 1 154.57 125.77)" class="st28 st31 st20">r</text>
<text transform="matrix(1 0 0 1 148.46 125.77)" class="st28 st31 st20">d</text>
<text transform="matrix(1 0 0 1 142.34 125.77)" class="st28 st31 st20">o</text>
<text transform="matrix(1 0 0 1 135.62 125.77)" class="st28 st31 st20">R</text>
<text transform="matrix(1 0 0 1 126.45 125.77)" class="st28 st31 st20">d</text>
<text transform="matrix(1 0 0 1 120.33 125.77)" class="st28 st31 st20">n</text>
<text transform="matrix(1 0 0 1 114.83 125.77)" class="st28 st31 st20">a</text>
<text transform="matrix(1 0 0 1 106.27 125.77)" class="st28 st31 st20">a</text>
<text transform="matrix(1 0 0 1 103.83 125.77)" class="st28 st31 st20">l</text>
<text transform="matrix(1 0 0 1 100.17 125.77)" class="st28 st31 st20">r</text>
<text transform="matrix(1 0 0 1 94.67 125.77)" class="st28 st31 st20">a</text>
<text transform="matrix(1 0 0 1 87.33 125.77)" class="st28 st31 st20">C</text>
<text transform="matrix(1 0 0 1 501.33 145.27)" class="st28 st31 st20">F</text>
<text transform="matrix(1 0 0 1 429.33 145.27)" class="st28 st31 st20">T</text>
<text transform="matrix(1 0 0 1 243.21 145.27)" class="st28 st31 st20">.</text>
<text transform="matrix(1 0 0 1 237.71 145.27)" class="st28 st31 st20">e</text>
<text transform="matrix(1 0 0 1 228.54 145.27)" class="st28 st31 st20">m</text>
<text transform="matrix(1 0 0 1 226.09 145.27)" class="st28 st31 st20">i</text>
<text transform="matrix(1 0 0 1 222.43 145.27)" class="st28 st31 st20">t</text>
<text transform="matrix(1 0 0 1 213.26 145.27)" class="st28 st31 st20">g</text>
<text transform="matrix(1 0 0 1 207.14 145.27)" class="st28 st31 st20">n</text>
<text transform="matrix(1 0 0 1 201.03 145.27)" class="st28 st31 st20">o</text>
<text transform="matrix(1 0 0 1 198.58 145.27)" class="st28 st31 st20">l</text>
<text transform="matrix(1 0 0 1 190.03 145.27)" class="st28 st31 st20">a</text>
<text transform="matrix(1 0 0 1 183.31 145.27)" class="st28 st31 st20">r</text>
<text transform="matrix(1 0 0 1 177.19 145.27)" class="st28 st31 st20">o</text>
<text transform="matrix(1 0 0 1 173.53 145.27)" class="st28 st31 st20">f</text>
<text transform="matrix(1 0 0 1 166.81 145.27)" class="st28 st31 st20">t</text>
<text transform="matrix(1 0 0 1 161.31 145.27)" class="st28 st31 st20">e</text>
<text transform="matrix(1 0 0 1 152.13 145.27)" class="st28 st31 st20">m</text>
<text transform="matrix(1 0 0 1 145.41 145.27)" class="st28 st31 st20">t</text>
<text transform="matrix(1 0 0 1 142.35 145.27)" class="st28 st31 st20">’</text>
<text transform="matrix(1 0 0 1 136.24 145.27)" class="st28 st31 st20">n</text>
<text transform="matrix(1 0 0 1 130.74 145.27)" class="st28 st31 st20">e</text>
<text transform="matrix(1 0 0 1 125.24 145.27)" class="st28 st31 st20">v</text>
<text transform="matrix(1 0 0 1 119.74 145.27)" class="st28 st31 st20">a</text>
<text transform="matrix(1 0 0 1 113.62 145.27)" class="st28 st31 st20">h</text>
<text transform="matrix(1 0 0 1 105.06 145.27)" class="st28 st31 st20">y</text>
<text transform="matrix(1 0 0 1 99.56 145.27)" class="st28 st31 st20">e</text>
<text transform="matrix(1 0 0 1 93.45 145.27)" class="st28 st31 st20">h</text>
<text transform="matrix(1 0 0 1 87.33 145.27)" class="st28 st31 st20">T</text>
<text transform="matrix(1 0 0 1 501.33 164.77)" class="st28 st31 st20">F</text>
<text transform="matrix(1 0 0 1 429.33 164.77)" class="st28 st31 st20">T</text>
<text transform="matrix(1 0 0 1 236.18 164.77)" class="st28 st31 st20">.</text>
<text transform="matrix(1 0 0 1 230.07 164.77)" class="st28 st31 st20">p</text>
<text transform="matrix(1 0 0 1 223.95 164.77)" class="st28 st31 st20">o</text>
<text transform="matrix(1 0 0 1 220.29 164.77)" class="st28 st31 st20">t</text>
<text transform="matrix(1 0 0 1 214.17 164.77)" class="st28 st31 st20">p</text>
<text transform="matrix(1 0 0 1 208.67 164.77)" class="st28 st31 st20">a</text>
<text transform="matrix(1 0 0 1 206.23 164.77)" class="st28 st31 st20">l</text>
<text transform="matrix(1 0 0 1 198.89 164.77)" class="st28 st31 st20">s</text>
<text transform="matrix(1 0 0 1 196.65 164.77)" class="st28 st31 st20">’</text>
<text transform="matrix(1 0 0 1 190.53 164.77)" class="st28 st31 st20">o</text>
<text transform="matrix(1 0 0 1 184.42 164.77)" class="st28 st31 st20">g</text>
<text transform="matrix(1 0 0 1 181.97 164.77)" class="st28 st31 st20">i</text>
<text transform="matrix(1 0 0 1 178.31 164.77)" class="st28 st31 st20">r</text>
<text transform="matrix(1 0 0 1 172.2 164.77)" class="st28 st31 st20">d</text>
<text transform="matrix(1 0 0 1 166.08 164.77)" class="st28 st31 st20">o</text>
<text transform="matrix(1 0 0 1 159.36 164.77)" class="st28 st31 st20">R</text>
<text transform="matrix(1 0 0 1 150.18 164.77)" class="st28 st31 st20">g</text>
<text transform="matrix(1 0 0 1 144.07 164.77)" class="st28 st31 st20">n</text>
<text transform="matrix(1 0 0 1 141.63 164.77)" class="st28 st31 st20">i</text>
<text transform="matrix(1 0 0 1 137.35 164.77)" class="st28 st31 st20">s</text>
<text transform="matrix(1 0 0 1 131.23 164.77)" class="st28 st31 st20">u</text>
<text transform="matrix(1 0 0 1 122.67 164.77)" class="st28 st31 st20">e</text>
<text transform="matrix(1 0 0 1 119.12 164.77)" class="st28 st31 st20">r</text>
<text transform="matrix(1 0 0 1 113.62 164.77)" class="st28 st31 st20">a</text>
<text transform="matrix(1 0 0 1 105.06 164.77)" class="st28 st31 st20">y</text>
<text transform="matrix(1 0 0 1 99.56 164.77)" class="st28 st31 st20">e</text>
<text transform="matrix(1 0 0 1 93.45 164.77)" class="st28 st31 st20">h</text>
<text transform="matrix(1 0 0 1 87.33 164.77)" class="st28 st31 st20">T</text>
<text transform="matrix(1 0 0 1 501.33 184.27)" class="st28 st31 st20">F</text>
<text transform="matrix(1 0 0 1 429.33 184.27)" class="st28 st31 st20">T</text>
<text transform="matrix(1 0 0 1 160.67 184.27)" class="st28 st31 st20">.</text>
<text transform="matrix(1 0 0 1 154.55 184.27)" class="st28 st31 st20">d</text>
<text transform="matrix(1 0 0 1 149.05 184.27)" class="st28 st31 st20">e</text>
<text transform="matrix(1 0 0 1 146.61 184.27)" class="st28 st31 st20">i</text>
<text transform="matrix(1 0 0 1 142.95 184.27)" class="st28 st31 st20">r</text>
<text transform="matrix(1 0 0 1 139.28 184.27)" class="st28 st31 st20">r</text>
<text transform="matrix(1 0 0 1 133.78 184.27)" class="st28 st31 st20">a</text>
<text transform="matrix(1 0 0 1 124.61 184.27)" class="st28 st31 st20">m</text>
<text transform="matrix(1 0 0 1 117.27 184.27)" class="st28 st31 st20">s</text>
<text transform="matrix(1 0 0 1 114.83 184.27)" class="st28 st31 st20">i</text>
<text transform="matrix(1 0 0 1 106.27 184.27)" class="st28 st31 st20">a</text>
<text transform="matrix(1 0 0 1 103.83 184.27)" class="st28 st31 st20">l</text>
<text transform="matrix(1 0 0 1 100.17 184.27)" class="st28 st31 st20">r</text>
<text transform="matrix(1 0 0 1 94.67 184.27)" class="st28 st31 st20">a</text>
<text transform="matrix(1 0 0 1 87.33 184.27)" class="st28 st31 st20">C</text>
<text transform="matrix(1 0 0 1 501.33 203.77)" class="st28 st31 st20">F</text>
<text transform="matrix(1 0 0 1 429.33 203.77)" class="st28 st31 st20">T</text>
<text transform="matrix(1 0 0 1 275.01 203.77)" class="st28 st31 st20">.</text>
<text transform="matrix(1 0 0 1 270.5 203.77)" class="st28 st31 st20">y</text>
<text transform="matrix(1 0 0 1 266.84 203.77)" class="st28 st31 st20">r</text>
<text transform="matrix(1 0 0 1 263.18 203.77)" class="st28 st31 st20">r</text>
<text transform="matrix(1 0 0 1 257.68 203.77)" class="st28 st31 st20">a</text>
<text transform="matrix(1 0 0 1 248.5 203.77)" class="st28 st31 st20">m</text>
<text transform="matrix(1 0 0 1 239.33 203.77)" class="st28 st31 st20">o</text>
<text transform="matrix(1 0 0 1 235.67 203.77)" class="st28 st31 st20">t</text>
<text transform="matrix(1 0 0 1 228.94 203.77)" class="st28 st31 st20">r</text>
<text transform="matrix(1 0 0 1 223.44 203.77)" class="st28 st31 st20">e</text>
<text transform="matrix(1 0 0 1 217.33 203.77)" class="st28 st31 st20">h</text>
<text transform="matrix(1 0 0 1 210.61 203.77)" class="st28 st31 st20">t</text>
<text transform="matrix(1 0 0 1 204.49 203.77)" class="st28 st31 st20">n</text>
<text transform="matrix(1 0 0 1 198.99 203.77)" class="st28 st31 st20">a</text>
<text transform="matrix(1 0 0 1 190.43 203.77)" class="st28 st31 st20">w</text>
<text transform="matrix(1 0 0 1 183.71 203.77)" class="st28 st31 st20">t</text>
<text transform="matrix(1 0 0 1 177.6 203.77)" class="st28 st31 st20">o</text>
<text transform="matrix(1 0 0 1 171.48 203.77)" class="st28 st31 st20">n</text>
<text transform="matrix(1 0 0 1 162.31 203.77)" class="st28 st31 st20">o</text>
<text transform="matrix(1 0 0 1 156.19 203.77)" class="st28 st31 st20">d</text>
<text transform="matrix(1 0 0 1 148.85 203.77)" class="st28 st31 st20">s</text>
<text transform="matrix(1 0 0 1 142.74 203.77)" class="st28 st31 st20">d</text>
<text transform="matrix(1 0 0 1 136.62 203.77)" class="st28 st31 st20">n</text>
<text transform="matrix(1 0 0 1 131.12 203.77)" class="st28 st31 st20">e</text>
<text transform="matrix(1 0 0 1 128.68 203.77)" class="st28 st31 st20">i</text>
<text transform="matrix(1 0 0 1 125.02 203.77)" class="st28 st31 st20">r</text>
<text transform="matrix(1 0 0 1 121.35 203.77)" class="st28 st31 st20">f</text>
<text transform="matrix(1 0 0 1 114.02 203.77)" class="st28 st31 st20">s</text>
<text transform="matrix(1 0 0 1 111.77 203.77)" class="st28 st31 st20">’</text>
<text transform="matrix(1 0 0 1 106.27 203.77)" class="st28 st31 st20">a</text>
<text transform="matrix(1 0 0 1 103.83 203.77)" class="st28 st31 st20">l</text>
<text transform="matrix(1 0 0 1 100.17 203.77)" class="st28 st31 st20">r</text>
<text transform="matrix(1 0 0 1 94.67 203.77)" class="st28 st31 st20">a</text>
<text transform="matrix(1 0 0 1 87.33 203.77)" class="st28 st31 st20">C</text>
<text transform="matrix(1 0 0 1 69.26 225.1)" class="st18 st19 st20">2.</text>
<polyline class="st21" points="98.3,218.4 98.3,224.5 111.6,229.4 121.4,225.4 121.4,217.4 111.6,213.5 98.3,218.4 "/>
<g>
	<g>
		<g>
			<g>
				<defs>
					<path id="SVGID_23_" d="M98.3,232c-5.8,0-10.6-4.7-10.6-10.6c0-5.8,4.7-10.6,10.6-10.6s10.6,4.7,10.6,10.6l0,0
						C108.9,227.3,104.2,232,98.3,232"/>
				</defs>
				<clipPath id="SVGID_24_">
					<use xlink:href="#SVGID_23_"  style="overflow:visible;"/>
				</clipPath>
				<g class="st32">
					<g>
						<g>
							<g>
								<g>
									<defs>
										<rect id="SVGID_25_" x="87.8" y="210.9" width="21.2" height="21.1"/>
									</defs>
									<clipPath id="SVGID_26_">
										<use xlink:href="#SVGID_25_"  style="overflow:visible;"/>
									</clipPath>
									<g class="st33">
										<g>
											<g>
												<g>
													<g>
														<defs>
															<rect id="SVGID_27_" x="87.8" y="210.9" width="21.2" height="21.1"/>
														</defs>
														<clipPath id="SVGID_28_">
															<use xlink:href="#SVGID_27_"  style="overflow:visible;"/>
														</clipPath>
														<g class="st34">
															
																<image style="overflow:visible;enable-background:new    ;" width="89" height="89" xlink:href="8CAE7316.png"  transform="matrix(0.24 0 0 0.24 87.56 210.77)">
															</image>
														</g>
													</g>
												</g>
											</g>
										</g>
									</g>
								</g>
							</g>
						</g>
					</g>
				</g>
			</g>
		</g>
	</g>
</g>
<g>
	<g>
		<g>
			<g>
				<defs>
					<path id="SVGID_29_" d="M98.3,232c-5.8,0-10.6-4.7-10.6-10.6c0-5.8,4.7-10.6,10.6-10.6s10.6,4.7,10.6,10.6l0,0
						C108.9,227.3,104.2,232,98.3,232"/>
				</defs>
				<clipPath id="SVGID_30_">
					<use xlink:href="#SVGID_29_"  style="overflow:visible;"/>
				</clipPath>
				<g class="st35">
					<polyline class="st0" points="98.3,218.4 98.3,224.5 111.6,229.4 121.4,225.4 121.4,217.4 111.6,213.5 98.3,218.4 					"/>
				</g>
			</g>
		</g>
	</g>
</g>
<path class="st26" d="M98.3,232c-5.8,0-10.6-4.7-10.6-10.6c0-5.8,4.7-10.6,10.6-10.6s10.6,4.7,10.6,10.6l0,0
	C108.9,227.3,104.2,232,98.3,232z"/>
<path class="st0" d="M98.3,224.6c-1.7,0-3.2-1.4-3.2-3.2c0-1.7,1.4-3.2,3.2-3.2c1.7,0,3.2,1.4,3.2,3.1l0,0
	C101.5,223.2,100.1,224.6,98.3,224.6"/>
<path class="st27" d="M98.3,224.6c-1.7,0-3.2-1.4-3.2-3.2c0-1.7,1.4-3.2,3.2-3.2c1.7,0,3.2,1.4,3.2,3.1l0,0
	C101.5,223.2,100.1,224.6,98.3,224.6z"/>
<path class="st21" d="M98.3,222.8c-0.7,0-1.3-0.6-1.3-1.4c0-0.7,0.6-1.3,1.3-1.3c0.7,0,1.3,0.6,1.3,1.3S99.1,222.8,98.3,222.8
	L98.3,222.8"/>
<path class="st28" d="M130.2,217.5h1.4l-0.1,6.4h3v1.2h-4.4L130.2,217.5z M137.8,219.4c1.8,0,2.6,1.3,2.6,2.9c0.1,1.5-1,2.8-2.4,2.9
	c-0.1,0-0.1,0-0.2,0c-1.4,0-2.6-1.1-2.7-2.6c0-0.1,0-0.2,0-0.3C135.1,220.8,136.3,219.5,137.8,219.4L137.8,219.4z M137.8,224.2
	c1,0,1.3-1,1.3-1.8c0-1.2-0.4-1.9-1.3-1.9s-1.3,1.1-1.3,1.9S136.8,224.2,137.8,224.2z M143.9,219.4c1.8,0,2.6,1.3,2.6,2.9
	c0.1,1.5-1,2.8-2.4,2.9c-0.1,0-0.1,0-0.2,0c-1.4,0-2.6-1.1-2.7-2.6c0-0.1,0-0.2,0-0.4C141.2,220.8,142.4,219.5,143.9,219.4
	L143.9,219.4z M143.9,224.2c1,0,1.3-1,1.3-1.8c0-1.2-0.4-1.9-1.3-1.9s-1.3,1.1-1.3,1.9S142.9,224.2,143.9,224.2z M147.8,216.8h1.3
	l-0.1,5.3l0,0l2.4-2.9l1,0.8l-1.9,2.2l1.9,2.5l-1.1,0.8l-2.2-3.1l0,0v2.7h-1.3L147.8,216.8z M156.2,220.5c0.6-0.7,1.5-1.1,2.4-1.1
	c0.8,0,1.5,0.6,1.6,1.4c0,0.1,0,0.1,0,0.2c0,0.2,0,0.3,0,0.5v1.6c0,0.3,0,0.5,0,0.7s0.2,0.5,0.3,0.5s0.3-0.1,0.4-0.1l0.3,0.7
	c-0.3,0.3-0.7,0.4-1.2,0.4s-0.9-0.3-1-0.7c-0.3,0.4-0.9,0.7-1.4,0.7c-0.8,0.1-1.6-0.6-1.7-1.4c0-0.1,0-0.1,0-0.2c0-0.9,0.6-1.7,3-2
	v-0.4c0-0.6-0.3-0.7-0.6-0.7s-0.6,0.1-1.4,0.8L156.2,220.5z M158.9,222.4c-1.3,0.3-1.7,0.6-1.7,1.1c0,0.3,0.3,0.6,0.6,0.7h0.1
	c0.4,0,0.8-0.2,1-0.5L158.9,222.4z M164.8,224.8l-0.4,0.2c-0.3,0.1-0.5,0.2-0.8,0.2c-0.9,0-1.5-0.5-1.5-1.7c0-0.3,0-0.9,0-1.3v-1.7
	h-0.8v-1h0.8l0.1-2h1.3l-0.1,2h1.2v1h-1.2v1.6c0,0.6,0,1.1,0,1.5s0.1,0.6,0.4,0.6c0.2,0,0.4-0.1,0.6-0.3L164.8,224.8z M171.5,224.8
	l-0.4,0.2c-0.3,0.1-0.5,0.2-0.8,0.2c-0.9,0-1.5-0.5-1.5-1.7c0-0.3,0-0.9,0-1.3v-1.7H168v-1h0.8l0.1-2h1.3l-0.1,2h1.2v1h-1.2v1.6
	c0,0.6,0,1.1,0,1.5s0.1,0.6,0.4,0.6c0.2,0,0.4-0.1,0.6-0.3L171.5,224.8z M172.2,216.8h1.3v3.4l0,0c0.5-0.5,1.1-0.8,1.8-0.8
	c1.2,0,1.5,0.8,1.5,1.7c0,0.6,0,0.9,0,1.2v2.8h-1.3v-1.4c0-0.9,0-1.9,0-2.4s-0.2-0.8-0.7-0.8c-0.5,0.1-0.9,0.4-1.2,0.7v3.8h-1.3
	L172.2,216.8z M179.3,222.5c0,0.8,0.4,1.7,1.3,1.7c0.5-0.1,1-0.3,1.3-0.7l0.8,0.7c-0.6,0.7-1.4,1.1-2.3,1.1c-1.4,0-2.4-1.2-2.4-2.9
	c-0.1-1.5,1-2.8,2.5-2.9h0.1c1.6,0,2.3,1.1,2.3,3.1L179.3,222.5z M181.5,221.5c0-0.6-0.3-1.2-1-1.2c-0.6,0.1-1.1,0.6-1.1,1.2H181.5z
	 M186.3,219.7l1.3-0.3l1,4.1l0,0l1.1-3.9h1.4l1,3.9l0,0l1.1-4.1l1.3,0.4l-1.8,5.3h-1.4l-1-4.1l0,0l-1.1,4.1H188L186.3,219.7z
	 M197.7,219.3c1.8,0,2.6,1.3,2.6,2.9c0.1,1.5-1,2.8-2.4,2.9c-0.1,0-0.1,0-0.2,0c-1.4,0-2.6-1.1-2.7-2.6c0-0.1,0-0.2,0-0.4
	C195,220.8,196.2,219.5,197.7,219.3L197.7,219.3z M197.7,224.1c1,0,1.3-1,1.3-1.8c0-1.2-0.4-1.9-1.3-1.9s-1.3,1.1-1.3,1.9
	S196.7,224.2,197.7,224.1L197.7,224.1z M201.6,219.5h1.4v1c0.3-0.6,0.6-1.2,1.3-1.2c0.1,0,0.3,0,0.4,0l-0.2,1.3c-0.1,0-0.2,0-0.3,0
	c-0.5,0-0.9,0.4-1.2,1v3.4h-1.4V219.5z M208.6,224.4L208.6,224.4c-0.3,0.5-0.8,0.7-1.4,0.7c-1.4,0-2.3-1.2-2.3-2.8
	c0-1.5,0.9-3,2.4-3c0.5,0,0.9,0.2,1.2,0.5l0,0v-3.1h1.3v8.3h-1.3L208.6,224.4z M208.5,221c-0.2-0.3-0.6-0.5-0.9-0.5
	c-0.7,0-1.4,0.7-1.4,1.8s0.6,1.8,1.3,1.8c0.5,0,0.9-0.4,1-0.9L208.5,221z M211.5,223.7c0.4,0.3,0.9,0.4,1.4,0.5
	c0.4,0,0.8-0.2,0.8-0.6c0-1.1-2.6-0.3-2.6-2.5c0-1,0.9-1.8,1.9-1.7h0.1c0.7,0,1.3,0.2,1.9,0.6l-0.6,0.9c-0.4-0.3-0.8-0.4-1.2-0.4
	s-0.9,0.2-0.9,0.7c0,1.1,2.7,0.4,2.7,2.4c0,1-0.9,1.8-1.9,1.8c-0.1,0-0.1,0-0.2,0c-0.7,0-1.3-0.2-1.9-0.5L211.5,223.7z M216.2,223.6
	h1.5v1.5h-1.5V223.6z M228.6,222.3c0,1.6-1.2,2.9-2.7,2.9c-0.1,0-0.3,0-0.4,0c-1.5,0.2-2.9-0.9-3.1-2.5c0-0.2,0-0.4,0-0.5
	c0-1.6,0-3.2,0-4.8h1.4c0,1.6,0,3.3,0,4.9c-0.1,0.9,0.6,1.7,1.5,1.7c0.1,0,0.1,0,0.2,0c0.9,0,1.7-0.6,1.7-1.5c0-0.1,0-0.2,0-0.2
	v-4.8h1.4L228.6,222.3z M230.4,223.7c0.4,0.3,0.9,0.4,1.4,0.5c0.4,0,0.8-0.2,0.8-0.6c0-1.1-2.6-0.3-2.6-2.5c0-1.1,1-1.7,2.1-1.7
	c0.7,0,1.3,0.2,1.9,0.6l-0.6,0.9c-0.4-0.3-0.8-0.4-1.2-0.4s-0.9,0.2-0.9,0.7c0,1.1,2.6,0.4,2.6,2.4c0,1-0.9,1.8-1.9,1.8
	c-0.1,0-0.1,0-0.2,0c-0.7,0-1.3-0.2-1.9-0.5L230.4,223.7z M236.1,222.4c0,0.8,0.4,1.7,1.3,1.7c0.5,0,1-0.3,1.3-0.7l0.8,0.7
	c-0.6,0.7-1.4,1.1-2.3,1.1c-1.4,0-2.4-1.2-2.4-2.9c-0.1-1.5,1-2.8,2.5-2.9h0.1c1.6,0,2.3,1.1,2.3,3.1L236.1,222.4z M238.3,221.4
	c0-0.6-0.3-1.2-1-1.2c-0.6,0.1-1.1,0.6-1.1,1.2H238.3z M243.1,226.6h0.2c0.5,0,1-0.3,1.2-0.7l0.4-0.8l-1.9-5.2l1.4-0.4l1.2,4l0,0
	l1.4-4l1.3,0.4l-2.4,6c-0.5,1.3-1.1,2-2.5,2h-0.3L243.1,226.6z M251.5,219.3c1.8,0,2.6,1.3,2.6,2.9c0.1,1.5-1,2.8-2.4,2.9
	c-0.1,0-0.1,0-0.2,0c-1.4,0-2.6-1.1-2.7-2.6c0-0.1,0-0.2,0-0.3C248.8,220.7,250,219.5,251.5,219.3L251.5,219.3z M251.5,224.1
	c1,0,1.3-1,1.3-1.8c0-1.2-0.4-1.9-1.3-1.9s-1.3,1.1-1.3,1.9S250.5,224.2,251.5,224.1L251.5,224.1z M259.9,225h-1.3v-0.7l0,0
	c-0.4,0.5-1,0.8-1.7,0.8c-1.2,0-1.5-0.8-1.5-1.9c0-0.3,0-0.7,0-1v-2.8h1.3v1.4c0,0.8,0,1.6,0,2.2s0.2,0.9,0.7,0.9
	c0.5-0.1,0.9-0.3,1.2-0.7v-3.8h1.3V225z M261.4,219.4h1.3v1c0.3-0.6,0.6-1.2,1.3-1.2c0.1,0,0.3,0,0.4,0l-0.2,1.3c-0.1,0-0.2,0-0.3,0
	c-0.5,0-0.9,0.4-1.2,1v3.4h-1.4L261.4,219.4z M271.5,224.4L271.5,224.4c-0.3,0.5-0.8,0.7-1.4,0.7c-1.4,0-2.3-1.2-2.3-2.8
	c0-1.5,0.9-3,2.4-3c0.5,0,0.9,0.2,1.2,0.5l0,0v-3.1h1.3v8.3h-1.3L271.5,224.4z M271.4,221c-0.2-0.3-0.6-0.5-0.9-0.5
	c-0.7,0-1.4,0.7-1.4,1.8s0.6,1.8,1.3,1.8c0.5,0,0.9-0.4,1-0.9V221z M274.4,219.4h1.4l-0.1,5.6h-1.3V219.4z M274.4,217.4h1.4v1.3
	h-1.4V217.4z M281.4,224.1c-0.5,0.7-1.3,1.1-2.1,1.1c-1.4-0.1-2.5-1.4-2.4-2.8l0,0c-0.1-1.5,1-2.9,2.5-3h0.1c0.7,0,1.5,0.3,1.9,0.9
	l-0.8,0.7c-0.3-0.3-0.7-0.5-1.1-0.5c-0.8,0-1.3,0.9-1.3,1.8c0,1.2,0.5,1.8,1.2,1.8c0.5,0,0.9-0.3,1.1-0.6L281.4,224.1z M285.2,224.7
	l-0.5,0.2c-0.3,0.1-0.5,0.2-0.8,0.2c-0.9,0-1.5-0.5-1.5-1.7c0-0.3,0-0.9,0-1.3v-1.7h-0.8v-1h0.8v-2h1.3v2h1.2v1h-1.2v1.6
	c0,0.6,0,1.1,0,1.5s0.1,0.6,0.5,0.6c0.2,0,0.4-0.1,0.6-0.3L285.2,224.7z M286,219.4h1.3v5.6h-1.4L286,219.4z M286,217.4h1.3v1.3H286
	V217.4z M291.2,219.3c1.4,0,2.6,1.1,2.7,2.6c0,0.1,0,0.2,0,0.4c0.1,1.5-1,2.8-2.5,2.9c-0.1,0-0.1,0-0.2,0c-1.4,0-2.6-1.1-2.7-2.6
	c0-0.1,0-0.2,0-0.3c0-1.5,1.2-2.8,2.7-2.8V219.3z M291.2,224.1c1,0,1.3-1,1.3-1.8c0-1.2-0.4-1.9-1.3-1.9s-1.3,1.1-1.3,1.9
	S290.2,224.2,291.2,224.1L291.2,224.1z M295,219.4h1.3v0.7l0,0c0.4-0.5,1.1-0.8,1.8-0.8c1.2,0,1.5,0.8,1.5,1.7c0,0.6,0,0.9,0,1.2
	v2.8h-1.3v-1.4c0-0.9,0-1.5,0-2.2s-0.2-0.9-0.7-0.9c-0.5,0.1-0.9,0.4-1.2,0.7v3.8H295V219.4z M300.9,220.4c0.6-0.7,1.5-1.1,2.4-1.1
	c0.8-0.1,1.6,0.5,1.6,1.3c0,0.1,0,0.2,0,0.3c0,0.2,0,0.3,0,0.5v1.6c0,0.3,0,0.5,0,0.7s0.1,0.5,0.3,0.5c0.1,0,0.3-0.1,0.4-0.1
	l0.3,0.7c-0.3,0.3-0.7,0.4-1.1,0.4c-0.5,0.1-0.9-0.3-1-0.7c-0.3,0.4-0.9,0.7-1.4,0.7c-0.8,0.1-1.6-0.6-1.7-1.4c0-0.1,0-0.1,0-0.2
	c0-0.9,0.6-1.7,3-2v-0.4c0-0.6-0.3-0.7-0.6-0.7s-0.6,0.1-1.4,0.8L300.9,220.4z M303.6,222.4c-1.3,0.3-1.7,0.6-1.7,1.1
	c0,0.3,0.3,0.6,0.6,0.7h0.1c0.4,0,0.7-0.2,1-0.5V222.4z M306.6,219.5h1.4v1c0.3-0.6,0.6-1.2,1.3-1.2c0.1,0,0.3,0,0.4,0l-0.2,1.3
	c-0.1,0-0.2,0-0.3,0c-0.5,0-0.9,0.4-1.2,1v3.4h-1.4L306.6,219.5z M309.8,226.6h0.2c0.5,0,1-0.3,1.2-0.7l0.4-0.8l-1.9-5.3l1.3-0.4
	l1.2,4l0,0l1.5-4l1.3,0.4l-2.4,6c-0.5,1.3-1.1,2-2.5,2h-0.3L309.8,226.6z M321.8,224.7l-0.5,0.2c-0.3,0.1-0.5,0.2-0.8,0.2
	c-0.9,0-1.5-0.5-1.5-1.7c0-0.3,0-0.9,0-1.3v-1.7h-0.8v-1h0.8v-2h1.4v2h1.2v1h-1.2v1.6c0,0.6,0,1.1,0,1.5s0.1,0.6,0.5,0.6
	c0.2,0,0.4-0.1,0.6-0.3L321.8,224.7z M324.8,219.3c1.8,0,2.6,1.3,2.6,2.9c0.1,1.5-1,2.8-2.4,2.9c-0.1,0-0.1,0-0.2,0
	c-1.4,0-2.6-1.1-2.7-2.6c0-0.1,0-0.2,0-0.3C322.1,220.7,323.3,219.5,324.8,219.3L324.8,219.3z M324.8,224.1c1,0,1.3-1,1.3-1.8
	c0-1.2-0.4-1.9-1.3-1.9s-1.3,1.1-1.3,1.9S323.8,224.2,324.8,224.1L324.8,224.1z M332.1,220.5h-0.9v-1h0.9v-0.7
	c-0.1-1.1,0.7-2,1.8-2.1c0.1,0,0.2,0,0.3,0h0.4v1.1h-0.3c-0.5,0-0.9,0.3-0.9,0.9v0.8h3.4v5.6h-1.4l0.1-4.5h-2.1v4.5H332L332.1,220.5
	z M335.5,217.4h1.3v1.3h-1.3V217.4z"/>
<text transform="matrix(1 0 0 1 337.67 225.1)" class="st28 st29 st20">nd out the meanings. What do you know about</text>
<text transform="matrix(1 0 0 1 129.26 238.6)" class="st28 st29 st20">safaris? Listen and complete the conversation using these words.</text>
<path class="st36" d="M316.6,315.7H338 M396,296.7h18.9"/>
<line class="st37" x1="356.1" y1="315.7" x2="475.4" y2="315.7"/>
<line class="st36" x1="356.8" y1="334.7" x2="382.5" y2="334.7"/>
<line class="st37" x1="403.9" y1="334.7" x2="514" y2="334.7"/>
<path class="st36" d="M316.6,410.7h19 M352.5,391.7H369"/>
<line class="st37" x1="376.5" y1="410.7" x2="501.9" y2="410.7"/>
<path class="st36" d="M365.5,448.7H393 M417.3,429.7H443"/>
<line class="st37" x1="450.4" y1="448.7" x2="536" y2="448.7"/>
<text transform="matrix(1 0 0 1 264.6 276.61)" class="st28 st29 st20">Guide:</text>
<text transform="matrix(1 0 0 1 316.6 276.61)" class="st28 st31 st20">Look, over the</text>
<text transform="matrix(1 0 0 1 385.06 276.61)" class="st28 st31 st20">r</text>
<text transform="matrix(1 0 0 1 388.62 276.61)" class="st28 st31 st20">e!</text>
<text transform="matrix(1 0 0 1 264.6 295.61)" class="st28 st29 st20">T</text>
<text transform="matrix(1 0 0 1 269.72 295.61)" class="st28 st29 st20">ourist 1:</text>
<text transform="matrix(1 0 0 1 316.59 295.61)" class="st28 st31 st20">Whe</text>
<text transform="matrix(1 0 0 1 339.21 295.61)" class="st28 st31 st20">r</text>
<text transform="matrix(1 0 0 1 342.76 295.61)" class="st28 st31 st20">e? What is that? It</text>
<text transform="matrix(1 0 0 1 430.15 295.61)" class="st28 st31 st20">’</text>
<text transform="matrix(1 0 0 1 432.4 295.61)" class="st28 st31 st20">s so fa</text>
<text transform="matrix(1 0 0 1 462.35 295.61)" class="st28 st31 st20">r</text>
<text transform="matrix(1 0 0 1 465.15 295.61)" class="st28 st31 st20">.</text>
<text transform="matrix(1 0 0 1 264.6 314.61)" class="st28 st29 st20">Guide:</text>
<text transform="matrix(1 0 0 1 316.6 314.61)" class="st28 st31 st20">That</text>
<text transform="matrix(1 0 0 1 337.99 314.61)" class="st28 st31 st20">’</text>
<text transform="matrix(1 0 0 1 340.24 314.61)" class="st28 st31 st20">s a                                        !</text>
<text transform="matrix(1 0 0 1 264.6 333.61)" class="st28 st29 st20">T</text>
<text transform="matrix(1 0 0 1 269.72 333.61)" class="st28 st29 st20">ourist 2:</text>
<text transform="matrix(1 0 0 1 316.59 333.61)" class="st28 st31 st20">And a</text>
<text transform="matrix(1 0 0 1 344.72 333.61)" class="st28 st31 st20">r</text>
<text transform="matrix(1 0 0 1 348.27 333.61)" class="st28 st31 st20">e those her                                     ?</text>
<text transform="matrix(1 0 0 1 264.6 352.61)" class="st28 st29 st20">T</text>
<text transform="matrix(1 0 0 1 269.72 352.61)" class="st28 st29 st20">ourist 1:</text>
<text transform="matrix(1 0 0 1 316.59 352.61)" class="st28 st31 st20">Of course, they’</text>
<text transform="matrix(1 0 0 1 393 352.61)" class="st28 st31 st20">r</text>
<text transform="matrix(1 0 0 1 396.55 352.61)" class="st28 st31 st20">e not my cubs!</text>
<text transform="matrix(1 0 0 1 264.6 371.61)" class="st28 st29 st20">Guide:</text>
<text transform="matrix(1 0 0 1 316.6 371.61)" class="st28 st31 st20">Shh! Don’t make noise. Those animals a</text>
<text transform="matrix(1 0 0 1 505.51 371.61)" class="st28 st31 st20">r</text>
<text transform="matrix(1 0 0 1 509.07 371.61)" class="st28 st31 st20">e dange</text>
<text transform="matrix(1 0 0 1 546.97 371.61)" class="st28 st31 st20">r</text>
<text transform="matrix(1 0 0 1 550.52 371.61)" class="st28 st31 st20">ous.</text>
<text transform="matrix(1 0 0 1 264.6 390.61)" class="st28 st29 st20">T</text>
<text transform="matrix(1 0 0 1 269.72 390.61)" class="st28 st29 st20">ourist 2:</text>
<text transform="matrix(1 0 0 1 316.59 390.61)" class="st28 st31 st20">What</text>
<text transform="matrix(1 0 0 1 342.87 390.61)" class="st28 st31 st20">’</text>
<text transform="matrix(1 0 0 1 345.11 390.61)" class="st28 st31 st20">s this? </text>
<text transform="matrix(1 0 0 1 377.51 390.61)" class="st28 st31 st20">T</text>
<text transform="matrix(1 0 0 1 382.62 390.61)" class="st28 st31 st20">ake it o</text>
<text transform="matrix(1 0 0 1 417.46 390.61)" class="st28 st31 st20">f</text>
<text transform="matrix(1 0 0 1 420.93 390.61)" class="st28 st31 st20">f me!</text>
<text transform="matrix(1 0 0 1 264.6 409.61)" class="st28 st29 st20">T</text>
<text transform="matrix(1 0 0 1 269.72 409.61)" class="st28 st29 st20">ourist 1:</text>
<text transform="matrix(1 0 0 1 316.59 409.61)" class="st28 st31 st20">This is just a                                          ! Keep quiet!</text>
<text transform="matrix(1 0 0 1 264.6 428.61)" class="st28 st29 st20">T</text>
<text transform="matrix(1 0 0 1 269.72 428.61)" class="st28 st29 st20">ourist 2:</text>
<text transform="matrix(1 0 0 1 316.59 428.61)" class="st28 st31 st20">OK. Guide, what a</text>
<text transform="matrix(1 0 0 1 405.23 428.61)" class="st28 st31 st20">r</text>
<text transform="matrix(1 0 0 1 408.78 428.61)" class="st28 st31 st20">e those things on your feet?</text>
<text transform="matrix(1 0 0 1 264.6 447.61)" class="st28 st29 st20">Guide:</text>
<text transform="matrix(1 0 0 1 316.6 447.61)" class="st28 st31 st20">Oh, dear! These a</text>
<text transform="matrix(1 0 0 1 401.59 447.61)" class="st28 st31 st20">r</text>
<text transform="matrix(1 0 0 1 405.14 447.61)" class="st28 st31 st20">e African                             ! Run!</text>
<g>
	<g>
		<g>
			<g>
				<defs>
					<rect id="SVGID_31_" x="69.7" y="282.2" width="176" height="153.2"/>
				</defs>
				<clipPath id="SVGID_32_">
					<use xlink:href="#SVGID_31_"  style="overflow:visible;"/>
				</clipPath>
				<g class="st38">
					<g>
						<g>
							<g>
								<g>
									<defs>
										<rect id="SVGID_33_" x="68.7" y="282.1" width="178" height="153.2"/>
									</defs>
									<clipPath id="SVGID_34_">
										<use xlink:href="#SVGID_33_"  style="overflow:visible;"/>
									</clipPath>
									<g class="st39">
										
											<image style="overflow:visible;enable-background:new    ;" width="740" height="638" xlink:href="8CAE7311.png"  transform="matrix(0.2396 0 0 0.2396 68.8092 282.13)">
										</image>
									</g>
								</g>
							</g>
						</g>
					</g>
				</g>
			</g>
		</g>
	</g>
</g>
<rect x="125.6" y="244.4" class="st0" width="386.3" height="20.3"/>
<text transform="matrix(1 0 0 1 145.28 258.6)" class="st28 st29 st20">bees</text>
<text transform="matrix(1 0 0 1 167.27 258.6)" class="st28 st29 st20 st40">   </text>
<text transform="matrix(1 0 0 1 200.27 258.6)" class="st28 st29 st20">caterpillar</text>
<text transform="matrix(1 0 0 1 247.93 258.6)" class="st28 st29 st20 st40">   </text>
<text transform="matrix(1 0 0 1 280.93 258.6)" class="st28 st29 st20">lioness</text>
<text transform="matrix(1 0 0 1 314.53 258.6)" class="st28 st29 st20 st40">   </text>
<text transform="matrix(1 0 0 1 347.53 258.6)" class="st28 st29 st20">gira</text>
<text transform="matrix(1 0 0 1 365.86 258.6)" class="st28 st29 st20">f</text>
<text transform="matrix(1 0 0 1 369.34 258.6)" class="st28 st29 st20">fe</text>
<text transform="matrix(1 0 0 1 378.5 258.6)" class="st28 st29 st20 st40">   </text>
<text transform="matrix(1 0 0 1 411.5 258.6)" class="st28 st29 st20">cubs</text>
<text transform="matrix(1 0 0 1 433.49 258.6)" class="st28 st29 st20 st40">   </text>
<text transform="matrix(1 0 0 1 466.49 258.6)" class="st28 st29 st20">zebra</text>
<path class="st41" d="M511.8,244.4H125.6v20.3h386.3L511.8,244.4z"/>
<text transform="matrix(1 0 0 1 68.03 464.88)" class="st18 st19 st20">3.  </text>
<text transform="matrix(1 0 0 1 86.03 464.88)" class="st28 st29 st20">Read and match. Circle the best title for the text.</text>
<text transform="matrix(1 0 0 1 86.03 484.88)" class="st28 st31 st20">When we think of African animals, these animals come to mind: lions, gira</text>
<text transform="matrix(1 0 0 1 436.29 484.88)" class="st28 st31 st20">f</text>
<text transform="matrix(1 0 0 1 439.75 484.88)" class="st28 st31 st20">fes, leopa</text>
<text transform="matrix(1 0 0 1 484.99 484.88)" class="st28 st31 st20">r</text>
<text transform="matrix(1 0 0 1 488.55 484.88)" class="st28 st31 st20">ds, elephants</text>
<text transform="matrix(1 0 0 1 86.03 498.88)" class="st28 st31 st20">and rhinoce</text>
<text transform="matrix(1 0 0 1 141.66 498.88)" class="st28 st31 st20">r</text>
<text transform="matrix(1 0 0 1 145.21 498.88)" class="st28 st31 st20">oses. Savanna animals a</text>
<text transform="matrix(1 0 0 1 258.3 498.88)" class="st28 st31 st20">r</text>
<text transform="matrix(1 0 0 1 261.85 498.88)" class="st28 st31 st20">e on a constant sea</text>
<text transform="matrix(1 0 0 1 352.93 498.88)" class="st28 st31 st20">r</text>
<text transform="matrix(1 0 0 1 356.49 498.88)" class="st28 st31 st20">ch for wate</text>
<text transform="matrix(1 0 0 1 410.26 498.88)" class="st28 st31 st20">r</text>
<text transform="matrix(1 0 0 1 413.06 498.88)" class="st28 st31 st20">, especially during the dry</text>
<text transform="matrix(1 0 0 1 86.03 512.88)" class="st28 st31 st20">season. The Savanna is whe</text>
<text transform="matrix(1 0 0 1 217.47 512.88)" class="st28 st31 st20">r</text>
<text transform="matrix(1 0 0 1 221.02 512.88)" class="st28 st31 st20">e people go on a safari to see the wild animals in Africa.</text>
<rect x="132.1" y="532.8" class="st0" width="370.7" height="20.3"/>
<text transform="matrix(1 0 0 1 168.45 547)" class="st28 st29 st20">The African Five</text>
<text transform="matrix(1 0 0 1 246.08 547)" class="st28 st29 st20 st40"> </text>
<text transform="matrix(1 0 0 1 268.07 547)" class="st28 st29 st20">The Most Dangerous</text>
<text transform="matrix(1 0 0 1 368.89 547)" class="st28 st29 st20 st40">  </text>
<text transform="matrix(1 0 0 1 390.89 547)" class="st28 st29 st20">African </text>
<text transform="matrix(1 0 0 1 428.17 547)" class="st28 st29 st20">W</text>
<text transform="matrix(1 0 0 1 438.98 547)" class="st28 st29 st20">ildlife</text>
<path class="st41" d="M502.8,532.8H132.1V553h370.7L502.8,532.8L502.8,532.8z"/>
<text transform="matrix(1 0 0 1 327.27 581.82)" class="st28 st31 st20">Those a</text>
<text transform="matrix(1 0 0 1 363.95 581.82)" class="st28 st31 st20">r</text>
<text transform="matrix(1 0 0 1 367.51 581.82)" class="st28 st31 st20">e African</text>
<text transform="matrix(1 0 0 1 327.27 595.82)" class="st28 st31 st20">bu</text>
<text transform="matrix(1 0 0 1 339.5 595.82)" class="st28 st31 st20">f</text>
<text transform="matrix(1 0 0 1 342.97 595.82)" class="st28 st31 st20">faloes. They have</text>
<text transform="matrix(1 0 0 1 327.27 609.82)" class="st28 st31 st20">a body between 2.1</text>
<text transform="matrix(1 0 0 1 327.27 623.82)" class="st28 st31 st20">and 3.4 m long. They</text>
<text transform="matrix(1 0 0 1 327.27 637.82)" class="st28 st31 st20">weigh up to 685</text>
<text transform="matrix(1 0 0 1 327.27 651.82)" class="st28 st31 st20">kgs. They a</text>
<text transform="matrix(1 0 0 1 381.07 651.82)" class="st28 st31 st20">r</text>
<text transform="matrix(1 0 0 1 384.62 651.82)" class="st28 st31 st20">e very</text>
<text transform="matrix(1 0 0 1 327.27 665.82)" class="st28 st31 st20">agg</text>
<text transform="matrix(1 0 0 1 345 665.82)" class="st28 st31 st20">r</text>
<text transform="matrix(1 0 0 1 348.56 665.82)" class="st28 st31 st20">essive animals.</text>
<text transform="matrix(1 0 0 1 86.03 581.87)" class="st28 st31 st20">These a</text>
<text transform="matrix(1 0 0 1 122.1 581.87)" class="st28 st31 st20">r</text>
<text transform="matrix(1 0 0 1 125.65 581.87)" class="st28 st31 st20">e hippos.  </text>
<text transform="matrix(1 0 0 1 86.03 595.87)" class="st28 st31 st20">They a</text>
<text transform="matrix(1 0 0 1 117.82 595.87)" class="st28 st31 st20">r</text>
<text transform="matrix(1 0 0 1 121.37 595.87)" class="st28 st31 st20">e sedentary</text>
<text transform="matrix(1 0 0 1 86.03 609.87)" class="st28 st31 st20">and live most of the</text>
<text transform="matrix(1 0 0 1 86.03 623.87)" class="st28 st31 st20">time in wate</text>
<text transform="matrix(1 0 0 1 144.7 623.87)" class="st28 st31 st20">r</text>
<text transform="matrix(1 0 0 1 147.49 623.87)" class="st28 st31 st20">. They</text>
<text transform="matrix(1 0 0 1 86.03 637.87)" class="st28 st31 st20">weigh up to 500</text>
<text transform="matrix(1 0 0 1 86.03 651.87)" class="st28 st31 st20">kilograms. They eat</text>
<text transform="matrix(1 0 0 1 86.03 665.87)" class="st28 st31 st20">grass.</text>
<g>
	<g>
		<g>
			<g>
				<defs>
					<rect id="SVGID_35_" x="439" y="573.6" width="117.6" height="90.7"/>
				</defs>
				<clipPath id="SVGID_36_">
					<use xlink:href="#SVGID_35_"  style="overflow:visible;"/>
				</clipPath>
				<g class="st42">
					<g>
						<g>
							<g>
								<g>
									<defs>
										<rect id="SVGID_37_" x="439" y="573.5" width="117.6" height="90.8"/>
									</defs>
									<clipPath id="SVGID_38_">
										<use xlink:href="#SVGID_37_"  style="overflow:visible;"/>
									</clipPath>
									<g class="st43">
										
											<image style="overflow:visible;enable-background:new    ;" width="491" height="379" xlink:href="8CAE7313.png"  transform="matrix(0.2394 0 0 0.2394 439.0555 573.55)">
										</image>
									</g>
								</g>
							</g>
						</g>
					</g>
				</g>
			</g>
		</g>
	</g>
</g>
<g>
	<g>
		<g>
			<g>
				<defs>
					<rect id="SVGID_39_" x="201.5" y="573.6" width="117.6" height="90.7"/>
				</defs>
				<clipPath id="SVGID_40_">
					<use xlink:href="#SVGID_39_"  style="overflow:visible;"/>
				</clipPath>
				<g class="st44">
					<g>
						<g>
							<g>
								<g>
									<defs>
										<rect id="SVGID_41_" x="201.4" y="573.6" width="117.6" height="90.8"/>
									</defs>
									<clipPath id="SVGID_42_">
										<use xlink:href="#SVGID_41_"  style="overflow:visible;"/>
									</clipPath>
									<g class="st45">
										
											<image style="overflow:visible;enable-background:new    ;" width="491" height="379" xlink:href="8CAE7310.png"  transform="matrix(0.2394 0 0 0.2394 201.4755 573.6)">
										</image>
									</g>
								</g>
							</g>
						</g>
					</g>
				</g>
			</g>
		</g>
	</g>
</g>
<text transform="matrix(1 0 0 1 326.78 690.62)" class="st28 st31 st20">That is a hedgehog.</text>
<text transform="matrix(1 0 0 1 326.78 704.62)" class="st28 st31 st20">It is an amazing</text>
<text transform="matrix(1 0 0 1 326.78 718.62)" class="st28 st31 st20">mammal, with</text>
<text transform="matrix(1 0 0 1 326.78 732.62)" class="st28 st31 st20">sti</text>
<text transform="matrix(1 0 0 1 337.16 732.62)" class="st28 st31 st20">f</text>
<text transform="matrix(1 0 0 1 340.63 732.62)" class="st28 st31 st20">f pointed spines</text>
<text transform="matrix(1 0 0 1 326.78 746.62)" class="st28 st31 st20">covering its back.</text>
<text transform="matrix(1 0 0 1 326.78 760.62)" class="st28 st31 st20">They a</text>
<text transform="matrix(1 0 0 1 358.57 760.62)" class="st28 st31 st20">r</text>
<text transform="matrix(1 0 0 1 362.12 760.62)" class="st28 st31 st20">e about</text>
<text transform="matrix(1 0 0 1 326.78 774.62)" class="st28 st31 st20">25cm long.</text>
<text transform="matrix(1 0 0 1 85.54 690.67)" class="st28 st31 st20">This is a hyena. It</text>
<text transform="matrix(1 0 0 1 85.54 704.67)" class="st28 st31 st20">weighs a</text>
<text transform="matrix(1 0 0 1 127.11 704.67)" class="st28 st31 st20">r</text>
<text transform="matrix(1 0 0 1 130.66 704.67)" class="st28 st31 st20">ound 50</text>
<text transform="matrix(1 0 0 1 85.54 718.67)" class="st28 st31 st20">kilograms, is stocky</text>
<text transform="matrix(1 0 0 1 85.54 732.67)" class="st28 st31 st20">and has ext</text>
<text transform="matrix(1 0 0 1 139.95 732.67)" class="st28 st31 st20">r</text>
<text transform="matrix(1 0 0 1 143.5 732.67)" class="st28 st31 st20">emely</text>
<text transform="matrix(1 0 0 1 85.54 746.67)" class="st28 st31 st20">powerful jaws. Hyenas</text>
<text transform="matrix(1 0 0 1 85.54 760.67)" class="st28 st31 st20">eat meat.</text>
<g>
	<g>
		<g>
			<g>
				<defs>
					<rect id="SVGID_43_" x="201" y="682.4" width="117.6" height="90.7"/>
				</defs>
				<clipPath id="SVGID_44_">
					<use xlink:href="#SVGID_43_"  style="overflow:visible;"/>
				</clipPath>
				<g class="st46">
					<g>
						<g>
							<g>
								<g>
									<defs>
										<rect id="SVGID_45_" x="200.9" y="682.4" width="117.6" height="90.8"/>
									</defs>
									<clipPath id="SVGID_46_">
										<use xlink:href="#SVGID_45_"  style="overflow:visible;"/>
									</clipPath>
									<g class="st47">
										
											<image style="overflow:visible;enable-background:new    ;" width="491" height="379" xlink:href="8CAE731E.png"  transform="matrix(0.2394 0 0 0.2394 200.9855 682.39)">
										</image>
									</g>
								</g>
							</g>
						</g>
					</g>
				</g>
			</g>
		</g>
	</g>
</g>
<g>
	<g>
		<g>
			<g>
				<defs>
					<rect id="SVGID_47_" x="438.5" y="682.4" width="117.6" height="90.7"/>
				</defs>
				<clipPath id="SVGID_48_">
					<use xlink:href="#SVGID_47_"  style="overflow:visible;"/>
				</clipPath>
				<g class="st48">
					<g>
						<g>
							<g>
								<g>
									<defs>
										<rect id="SVGID_49_" x="438.5" y="682.3" width="117.6" height="90.8"/>
									</defs>
									<clipPath id="SVGID_50_">
										<use xlink:href="#SVGID_49_"  style="overflow:visible;"/>
									</clipPath>
									<g class="st49">
										
											<image style="overflow:visible;enable-background:new    ;" width="491" height="380" xlink:href="8CAE7315.png"  transform="matrix(0.2387 0 0 0.2387 438.7201 682.34)">
										</image>
									</g>
								</g>
							</g>
						</g>
					</g>
				</g>
			</g>
		</g>
	</g>
</g>
<text transform="matrix(1 0 0 1 373.15 794.73)" class="st28 st31 st50">Adapted f</text>
<text transform="matrix(1 0 0 1 411.66 794.73)" class="st28 st31 st50">r</text>
<text transform="matrix(1 0 0 1 414.57 794.73)" class="st28 st31 st50">om http://ww</text>
<text transform="matrix(1 0 0 1 470.08 794.73)" class="st28 st31 st50">w</text>
<text transform="matrix(1 0 0 1 476.42 794.73)" class="st28 st31 st50">.africanfauna.com/</text>
<g>
	
		<image style="overflow:visible;opacity:0.41;enable-background:new    ;" width="297" height="90" xlink:href="33F69718.png"  transform="matrix(1 0 0 1 169 11)">
	</image>
	<g>
		
			<image style="overflow:visible;opacity:0.8;enable-background:new    ;" width="281" height="72" xlink:href="33F6971B.png"  transform="matrix(1 0 0 1 173 14)">
		</image>
		<g>
			<text transform="matrix(1 0 0 1 189.0285 44.7174)" class="st51 st52 st53">LISTENING AND READING </text>
			<text transform="matrix(1 0 0 1 189.0285 66.3174)" class="st51 st52 st53">Animals wildlife</text>
		</g>
	</g>
</g>
</svg>
