<?xml version="1.0" encoding="utf-8"?>
<!-- Generator: Adobe Illustrator 24.1.2, SVG Export Plug-In . SVG Version: 6.00 Build 0)  -->
<svg version="1.1" id="Capa_1" xmlns="http://www.w3.org/2000/svg" xmlns:xlink="http://www.w3.org/1999/xlink" x="0px" y="0px"
	 viewBox="0 0 652 822" style="enable-background:new 0 0 652 822;" xml:space="preserve">
<style type="text/css">
	.st0{fill:#FFFFFF;}
	.st1{clip-path:url(#SVGID_2_);}
	.st2{fill:#F7F3C9;}
	.st3{fill:none;stroke:#D6D087;stroke-width:4;}
	.st4{clip-path:url(#SVGID_4_);}
	.st5{fill:#E5DF9D;}
	.st6{fill:#EDE8AE;}
	.st7{fill:#E7E2A3;}
	.st8{fill:#DDD78E;}
	.st9{fill:#EEEAB1;}
	.st10{fill:#EBE6AD;}
	.st11{fill:#DCD68B;}
	.st12{fill:#E3DD97;}
	.st13{fill:#F1EDBC;}
	.st14{fill:#E9E4A6;}
	.st15{fill:#E4DE9D;}
	.st16{fill:#DBD58C;}
	.st17{fill:#EAE5A9;}
	.st18{fill:#F7F4C8;}
	.st19{fill:#EAE4A9;}
	.st20{fill:#E2DC97;}
	.st21{fill:#F0EBB5;}
	.st22{fill:#F6F2C2;}
	.st23{clip-path:url(#SVGID_6_);}
	.st24{fill:#899BCA;}
	.st25{fill:#5775B3;}
	.st26{fill:#BBC5E2;}
	.st27{clip-path:url(#SVGID_8_);}
	.st28{clip-path:url(#SVGID_10_);}
	.st29{clip-path:url(#SVGID_12_);}
	.st30{fill:none;stroke:#9A999E;stroke-width:0.5;stroke-miterlimit:10;}
	.st31{fill:#BF0811;}
	.st32{font-family:'SyntaxLTStd-Black';}
	.st33{font-size:11px;}
	.st34{fill:#211915;}
	.st35{font-family:'SyntaxLTStd-Bold';}
	.st36{font-family:'SyntaxLTStd-Roman';}
	.st37{fill:none;stroke:#798EC2;stroke-width:2;}
	.st38{fill:#E7F2FB;}
	.st39{clip-path:url(#SVGID_14_);}
	.st40{clip-path:url(#SVGID_16_);}
	.st41{clip-path:url(#SVGID_18_);}
	.st42{clip-path:url(#SVGID_20_);}
	.st43{fill:none;stroke:#5775B3;stroke-width:1;stroke-miterlimit:4.0003;}
	.st44{fill:none;stroke:#5775B3;stroke-width:0.9;}
	.st45{fill:none;stroke:#211915;stroke-width:0.5;}
	.st46{clip-path:url(#SVGID_22_);}
	.st47{clip-path:url(#SVGID_24_);}
	.st48{clip-path:url(#SVGID_26_);}
	.st49{clip-path:url(#SVGID_28_);}
	.st50{clip-path:url(#SVGID_30_);}
	.st51{fill:none;stroke:#5775B3;}
	.st52{letter-spacing:22;}
	.st53{clip-path:url(#SVGID_32_);}
	.st54{clip-path:url(#SVGID_34_);}
	.st55{font-family:'Gabriel-Sans-Bold';}
	.st56{font-size:18px;}
	.st57{font-size:15px;}
</style>
<rect x="-5.2" y="-4.4" class="st0" width="662.5" height="831.8"/>
<g>
	<g>
		<g>
			<g>
				<defs>
					<rect id="SVGID_1_" x="14.2" y="14.2" width="14.2" height="793.7"/>
				</defs>
				<clipPath id="SVGID_2_">
					<use xlink:href="#SVGID_1_"  style="overflow:visible;"/>
				</clipPath>
				<g class="st1">
					<rect x="14.2" y="14.2" class="st2" width="14.2" height="69.5"/>
					<line class="st3" x1="-581.1" y1="85.7" x2="28.4" y2="85.7"/>
				</g>
			</g>
		</g>
	</g>
</g>
<g>
	<g>
		<g>
			<g>
				<defs>
					<rect id="SVGID_3_" x="28.4" y="14.2" width="609.5" height="793.7"/>
				</defs>
				<clipPath id="SVGID_4_">
					<use xlink:href="#SVGID_3_"  style="overflow:visible;"/>
				</clipPath>
				<g class="st4">
					<rect x="28.4" y="14.2" class="st2" width="609.5" height="70"/>
				</g>
			</g>
		</g>
	</g>
</g>
<polyline class="st5" points="586.9,84.2 546.3,84.2 546.3,34.8 567,14.2 606.3,14.2 606.3,64.8 586.9,84.2 "/>
<polyline class="st6" points="462.5,84.2 462.4,84.2 499,47.6 499,47.6 462.5,84.2 "/>
<polyline class="st6" points="450.1,84.2 450.1,84.2 433.7,67.8 433.7,67.8 450.1,84.2 "/>
<path class="st6" d="M546.3,34.8V14.2H567L546.3,34.8 M499,47.6L499,47.6l33.4-33.4L499,47.6"/>
<path class="st7" d="M426.3,60.3l-37.6-37.6l0,0L426.3,60.3L426.3,60.3 M366.3,84.2h-10.7V55.9l0,0l10.7-10.7V84.2"/>
<polyline class="st8" points="433.7,67.8 426.3,60.3 426.3,60.3 433.7,67.8 433.7,67.8 "/>
<polyline class="st9" points="355.6,84.2 293.8,84.2 265.6,55.9 265.6,14.2 313.8,14.2 355.6,55.9 355.6,55.9 355.6,84.2 "/>
<path class="st9" d="M388.7,22.8l-8.6-8.6l0,0L388.7,22.8L388.7,22.8 M355.6,55.9l-41.8-41.8h52.5v31L355.6,55.9"/>
<polyline class="st10" points="516.3,64.8 499,47.6 499,47.6 516.3,64.8 546.3,34.8 546.3,34.8 516.3,64.8 "/>
<polyline class="st11" points="546.3,84.2 516.3,84.2 516.3,64.8 516.3,64.8 546.3,34.8 546.3,84.2 "/>
<polyline class="st12" points="516.3,84.2 462.5,84.2 499,47.6 516.3,64.8 516.3,64.8 516.3,84.2 "/>
<polyline class="st12" points="516.3,64.8 499,47.6 532.5,14.2 546.3,14.2 546.3,34.8 516.3,64.8 "/>
<path class="st13" d="M366.3,45.2L366.3,45.2l22.4-22.4L366.3,45.2 M445.6,84.2h-28.3L431.5,70L445.6,84.2"/>
<polyline class="st14" points="450.1,84.2 445.6,84.2 431.5,70 433.7,67.8 450.1,84.2 "/>
<polyline class="st15" points="417.3,84.2 366.3,84.2 366.3,45.2 388.7,22.8 426.3,60.3 426.3,64.8 431.5,70 417.3,84.2 "/>
<polyline class="st16" points="431.5,70 426.3,64.8 426.3,60.3 433.7,67.8 431.5,70 "/>
<polyline class="st17" points="366.3,45.2 366.3,14.2 380.1,14.2 388.7,22.8 366.3,45.2 "/>
<path class="st18" d="M388.7,22.8L388.7,22.8l8.6-8.6l0,0L388.7,22.8 M499,47.6l-33.4-33.4l0,0L499,47.6L499,47.6"/>
<polyline class="st9" points="462.4,84.2 450.1,84.2 433.7,67.8 445.6,55.9 445.6,14.2 465.6,14.2 499,47.6 462.4,84.2 "/>
<polyline class="st9" points="499,47.6 465.6,14.2 532.5,14.2 499,47.6 "/>
<polyline class="st19" points="426.3,60.3 388.7,22.8 397.3,14.2 426.3,14.2 426.3,60.3 "/>
<polyline class="st20" points="433.7,67.8 426.3,60.3 426.3,14.2 445.6,14.2 445.6,55.9 433.7,67.8 "/>
<polyline class="st21" points="388.7,22.8 380.1,14.2 397.3,14.2 388.7,22.8 "/>
<rect x="575.5" y="760" class="st22" width="15.9" height="47.9"/>
<rect x="559.5" y="760" class="st22" width="16" height="47.9"/>
<g>
	<g>
		<g>
			<g>
				<defs>
					<rect id="SVGID_5_" x="28.4" y="14.2" width="609.5" height="793.7"/>
				</defs>
				<clipPath id="SVGID_6_">
					<use xlink:href="#SVGID_5_"  style="overflow:visible;"/>
				</clipPath>
				<g class="st23">
					<rect x="591.5" y="760" class="st22" width="46.3" height="47.9"/>
				</g>
			</g>
		</g>
	</g>
</g>
<polyline class="st24" points="571.7,767 559.5,760 559.5,774.1 571.7,781.1 571.7,767 "/>
<polyline class="st25" points="571.7,781.1 583.9,774.1 583.9,760 571.7,767 571.7,781.1 "/>
<polyline class="st26" points="559.5,760 571.7,767 583.9,760 571.7,752.9 559.5,760 "/>
<g>
	<g>
		<g>
			<g>
				<defs>
					<rect id="SVGID_7_" x="28.4" y="14.2" width="609.5" height="793.7"/>
				</defs>
				<clipPath id="SVGID_8_">
					<use xlink:href="#SVGID_7_"  style="overflow:visible;"/>
				</clipPath>
				<g class="st27">
					<line class="st3" x1="28.4" y1="85.7" x2="637.8" y2="85.7"/>
				</g>
			</g>
		</g>
	</g>
</g>
<polyline class="st25" points="242.2,68.1 242.2,14.2 28.4,14.2 28.4,83.7 226.6,83.7 242.2,68.1 "/>
<g>
	<g>
		<g>
			<g>
				<defs>
					<rect id="SVGID_9_" x="218.4" y="115.3" width="359.5" height="94.1"/>
				</defs>
				<clipPath id="SVGID_10_">
					<use xlink:href="#SVGID_9_"  style="overflow:visible;"/>
				</clipPath>
				<g class="st28">
					<g>
						<g>
							<g>
								<g>
									<defs>
										<rect id="SVGID_11_" x="218.3" y="115.3" width="359.6" height="94.1"/>
									</defs>
									<clipPath id="SVGID_12_">
										<use xlink:href="#SVGID_11_"  style="overflow:visible;"/>
									</clipPath>
									<g class="st29">
										
											<image style="overflow:visible;enable-background:new    ;" width="1499" height="393" xlink:href="3058795F.png"  transform="matrix(0.2394 0 0 0.2394 218.6677 115.28)">
										</image>
									</g>
								</g>
							</g>
						</g>
					</g>
				</g>
			</g>
		</g>
	</g>
</g>
<path class="st30" d="M123.7,200.5h21.4 M99.2,200.5h21.4 M188.5,181h21.4 M164,181h21.4 M130.4,181h21.4 M93.1,181h21.4
	 M117.6,161.5H139 M93.1,161.5h21.4 M145.1,142h21.4 M115.1,142h21.4 M175,122.5h21.4 M132.2,122.5h21.4 M96.7,122.5h21.4"/>
<text transform="matrix(1 0 0 1 72.04 101.92)" class="st31 st32 st33">1.</text>
<text transform="matrix(1 0 0 1 90.04 101.92)" class="st34 st35 st33">Now use letters that are not in the grid to complete these words.</text>
<text transform="matrix(1 0 0 1 90.04 121.42)" class="st34 st36 st33">t         le         isio         </text>
<text transform="matrix(1 0 0 1 90.04 140.92)" class="st34 st36 st33">sand         i         h</text>
<text transform="matrix(1 0 0 1 90.04 160.42)" class="st34 st36 st33">                 da</text>
<text transform="matrix(1 0 0 1 90.04 179.92)" class="st34 st36 st33">         ot         b                 k</text>
<text transform="matrix(1 0 0 1 90.04 199.42)" class="st34 st36 st33">p                 cil</text>
<text transform="matrix(1 0 0 1 72.04 224.92)" class="st31 st32 st33">  </text>
<text transform="matrix(1 0 0 1 90.04 224.92)" class="st34 st35 st33">Choose a word from Activity 2 and play hangman with your partne</text>
<text transform="matrix(1 0 0 1 410.95 224.92)" class="st34 st35 st33">r</text>
<text transform="matrix(1 0 0 1 414.01 224.92)" class="st34 st35 st33">.</text>
<polyline class="st37" points="107.5,300.6 107.5,239.1 134.4,239.1 134.4,243.3 "/>
<rect x="94.7" y="301.3" class="st38" width="55.8" height="4"/>
<path class="st37" d="M150.5,301.3H94.7v4h55.8V301.3z"/>
<line class="st30" x1="205.6" y1="299.5" x2="228.1" y2="299.5"/>
<line class="st30" x1="313.4" y1="299.5" x2="335.9" y2="299.5"/>
<line class="st30" x1="421.2" y1="299.5" x2="443.7" y2="299.5"/>
<line class="st30" x1="259.5" y1="299.5" x2="282" y2="299.5"/>
<line class="st30" x1="367.3" y1="299.5" x2="389.8" y2="299.5"/>
<line class="st30" x1="232.5" y1="299.5" x2="255" y2="299.5"/>
<line class="st30" x1="340.3" y1="299.5" x2="362.8" y2="299.5"/>
<line class="st30" x1="448.2" y1="299.5" x2="470.7" y2="299.5"/>
<line class="st30" x1="286.4" y1="299.5" x2="308.9" y2="299.5"/>
<line class="st30" x1="394.3" y1="299.5" x2="416.8" y2="299.5"/>
<text transform="matrix(1 0 0 1 72.04 329.98)" class="st31 st32 st33">2.</text>
<polyline class="st25" points="101.1,322.8 101.1,329 114.4,333.9 124.1,329.9 124.1,321.9 114.4,317.9 101.1,322.8 "/>
<g>
	<g>
		<g>
			<g>
				<defs>
					<path id="SVGID_13_" d="M101.1,336.5c-5.8,0-10.6-4.7-10.6-10.6c0-5.8,4.7-10.6,10.6-10.6c5.8,0,10.6,4.7,10.6,10.6l0,0
						C111.7,331.7,107,336.5,101.1,336.5L101.1,336.5"/>
				</defs>
				<clipPath id="SVGID_14_">
					<use xlink:href="#SVGID_13_"  style="overflow:visible;"/>
				</clipPath>
				<g class="st39">
					<g>
						<g>
							<g>
								<g>
									<defs>
										<rect id="SVGID_15_" x="90.5" y="315.3" width="21.2" height="21.1"/>
									</defs>
									<clipPath id="SVGID_16_">
										<use xlink:href="#SVGID_15_"  style="overflow:visible;"/>
									</clipPath>
									<g class="st40">
										<g>
											<g>
												<g>
													<g>
														<defs>
															<rect id="SVGID_17_" x="90.5" y="315.3" width="21.2" height="21.1"/>
														</defs>
														<clipPath id="SVGID_18_">
															<use xlink:href="#SVGID_17_"  style="overflow:visible;"/>
														</clipPath>
														<g class="st41">
															
																<image style="overflow:visible;enable-background:new    ;" width="89" height="89" xlink:href="3058795A.png"  transform="matrix(0.24 0 0 0.24 90.48 315.17)">
															</image>
														</g>
													</g>
												</g>
											</g>
										</g>
									</g>
								</g>
							</g>
						</g>
					</g>
				</g>
			</g>
		</g>
	</g>
</g>
<g>
	<g>
		<g>
			<g>
				<defs>
					<path id="SVGID_19_" d="M101.1,336.5c-5.8,0-10.6-4.7-10.6-10.6c0-5.8,4.7-10.6,10.6-10.6c5.8,0,10.6,4.7,10.6,10.6l0,0
						C111.7,331.7,107,336.5,101.1,336.5L101.1,336.5"/>
				</defs>
				<clipPath id="SVGID_20_">
					<use xlink:href="#SVGID_19_"  style="overflow:visible;"/>
				</clipPath>
				<g class="st42">
					<polyline class="st0" points="101.1,322.8 101.1,329 114.4,333.9 124.1,329.9 124.1,321.9 114.4,317.9 101.1,322.8 					"/>
				</g>
			</g>
		</g>
	</g>
</g>
<ellipse transform="matrix(7.097054e-02 -0.9975 0.9975 7.097054e-02 -231.1581 403.8031)" class="st43" cx="101.2" cy="326" rx="10.6" ry="10.6"/>
<path class="st0" d="M101.1,329.1c-1.7,0-3.2-1.4-3.2-3.2c0-1.7,1.4-3.2,3.2-3.2c1.7,0,3.2,1.4,3.2,3.2l0,0
	C104.3,327.6,102.9,329.1,101.1,329.1L101.1,329.1"/>
<path class="st44" d="M101.1,329.1c-1.7,0-3.2-1.4-3.2-3.2c0-1.7,1.4-3.2,3.2-3.2c1.7,0,3.2,1.4,3.2,3.2l0,0
	C104.3,327.6,102.9,329.1,101.1,329.1L101.1,329.1z"/>
<path class="st25" d="M101.1,327.3c-0.8,0-1.4-0.6-1.4-1.4s0.6-1.4,1.4-1.4s1.4,0.6,1.4,1.4l0,0
	C102.5,326.7,101.9,327.3,101.1,327.3"/>
<text transform="matrix(1 0 0 1 132.04 329.98)" class="st34 st35 st33">Number the sentences as you listen.</text>
<text transform="matrix(1 0 0 1 90.04 358.48)" class="st34 st36 st33">Excuse me …</text>
<rect x="324.3" y="343.7" class="st0" width="20.5" height="20.5"/>
<path class="st45" d="M344.8,343.7h-20.5v20.5h20.5V343.7z"/>
<text transform="matrix(1 0 0 1 90.04 386.98)" class="st34 st36 st33">Can you </text>
<text transform="matrix(1 0 0 1 132.84 386.98)" class="st34 st36 st33">r</text>
<text transform="matrix(1 0 0 1 136.39 386.98)" class="st34 st36 st33">epeat that, please?</text>
<rect x="324.3" y="372.2" class="st0" width="20.5" height="20.5"/>
<path class="st45" d="M344.8,372.2h-20.5v20.5h20.5V372.2z"/>
<text transform="matrix(1 0 0 1 90.04 415.48)" class="st34 st36 st33">I don’t understand …</text>
<rect x="324.3" y="400.7" class="st0" width="20.5" height="20.5"/>
<path class="st45" d="M344.8,400.7h-20.5v20.5h20.5V400.7z"/>
<text transform="matrix(1 0 0 1 90.04 443.98)" class="st34 st36 st33">What does this mean?</text>
<rect x="324.3" y="429.2" class="st0" width="20.5" height="20.5"/>
<path class="st45" d="M344.8,429.2h-20.5v20.5h20.5V429.2z"/>
<text transform="matrix(1 0 0 1 90.04 472.48)" class="st34 st36 st33">How do you say … in English?</text>
<rect x="324.3" y="457.7" class="st0" width="20.5" height="20.5"/>
<path class="st45" d="M344.8,457.7h-20.5v20.5h20.5V457.7z"/>
<text transform="matrix(1 0 0 1 90.04 500.98)" class="st34 st36 st33">Is the</text>
<text transform="matrix(1 0 0 1 115.71 500.98)" class="st34 st36 st33">r</text>
<text transform="matrix(1 0 0 1 119.27 500.98)" class="st34 st36 st33">e any homework for tomor</text>
<text transform="matrix(1 0 0 1 247.03 500.98)" class="st34 st36 st33">r</text>
<text transform="matrix(1 0 0 1 250.58 500.98)" class="st34 st36 st33">ow?</text>
<rect x="324.3" y="486.2" class="st0" width="20.5" height="20.5"/>
<path class="st45" d="M344.8,486.2h-20.5v20.5h20.5V486.2z"/>
<text transform="matrix(1 0 0 1 90.04 529.48)" class="st34 st36 st33">What do you mean?</text>
<rect x="324.3" y="514.7" class="st0" width="20.5" height="20.5"/>
<path class="st45" d="M344.8,514.7h-20.5v20.5h20.5V514.7z"/>
<text transform="matrix(1 0 0 1 90.04 557.98)" class="st34 st36 st33">May I go out for a minute?</text>
<rect x="324.3" y="543.2" class="st0" width="20.5" height="20.5"/>
<path class="st45" d="M344.8,543.2h-20.5v20.5h20.5V543.2z"/>
<g>
	<g>
		<g>
			<g>
				<defs>
					<path id="SVGID_21_" d="M101.9,574.2c-5.8,0-10.6-4.7-10.6-10.6c0-5.8,4.7-10.6,10.6-10.6s10.6,4.7,10.6,10.6
						C112.5,569.4,107.8,574.2,101.9,574.2L101.9,574.2"/>
				</defs>
				<clipPath id="SVGID_22_">
					<use xlink:href="#SVGID_21_"  style="overflow:visible;"/>
				</clipPath>
				<g class="st46">
					<polyline class="st0" points="101.9,560.5 101.9,566.7 115.2,571.6 125,567.6 125,559.6 115.2,555.6 101.9,560.5 					"/>
				</g>
			</g>
		</g>
	</g>
</g>
<path class="st0" d="M101.9,566.7c-1.7,0-3.2-1.4-3.2-3.2c0-1.7,1.4-3.2,3.2-3.2c1.7,0,3.2,1.4,3.2,3.2l0,0
	C105.1,565.3,103.7,566.7,101.9,566.7"/>
<line class="st30" x1="344.1" y1="592.6" x2="567.3" y2="592.6"/>
<text transform="matrix(1 0 0 1 71.41 591.48)" class="st31 st32 st33">3.</text>
<polyline class="st25" points="100.5,584.3 100.5,590.5 113.8,595.4 123.5,591.4 123.5,583.4 113.8,579.4 100.5,584.3 "/>
<g>
	<g>
		<g>
			<g>
				<defs>
					<path id="SVGID_23_" d="M100.5,598c-5.8,0-10.6-4.7-10.6-10.6c0-5.8,4.7-10.6,10.6-10.6c5.8,0,10.6,4.7,10.6,10.6l0,0
						C111.1,593.3,106.3,598,100.5,598L100.5,598"/>
				</defs>
				<clipPath id="SVGID_24_">
					<use xlink:href="#SVGID_23_"  style="overflow:visible;"/>
				</clipPath>
				<g class="st47">
					<g>
						<g>
							<g>
								<g>
									<defs>
										<rect id="SVGID_25_" x="89.9" y="576.8" width="21.2" height="21.2"/>
									</defs>
									<clipPath id="SVGID_26_">
										<use xlink:href="#SVGID_25_"  style="overflow:visible;"/>
									</clipPath>
									<g class="st48">
										<g>
											<g>
												<g>
													<g>
														<defs>
															<rect id="SVGID_27_" x="89.9" y="576.8" width="21.2" height="21.2"/>
														</defs>
														<clipPath id="SVGID_28_">
															<use xlink:href="#SVGID_27_"  style="overflow:visible;"/>
														</clipPath>
														<g class="st49">
															
																<image style="overflow:visible;enable-background:new    ;" width="89" height="89" xlink:href="30587959.png"  transform="matrix(0.24 0 0 0.24 89.76 576.77)">
															</image>
														</g>
													</g>
												</g>
											</g>
										</g>
									</g>
								</g>
							</g>
						</g>
					</g>
				</g>
			</g>
		</g>
	</g>
</g>
<g>
	<g>
		<g>
			<g>
				<defs>
					<path id="SVGID_29_" d="M100.5,598c-5.8,0-10.6-4.7-10.6-10.6c0-5.8,4.7-10.6,10.6-10.6c5.8,0,10.6,4.7,10.6,10.6l0,0
						C111.1,593.3,106.3,598,100.5,598L100.5,598"/>
				</defs>
				<clipPath id="SVGID_30_">
					<use xlink:href="#SVGID_29_"  style="overflow:visible;"/>
				</clipPath>
				<g class="st50">
					<polyline class="st0" points="100.5,584.3 100.5,590.5 113.8,595.4 123.5,591.4 123.5,583.4 113.8,579.4 100.5,584.3 					"/>
				</g>
			</g>
		</g>
	</g>
</g>
<circle class="st51" cx="100.5" cy="587.4" r="10.6"/>
<path class="st0" d="M100.5,590.6c-1.7,0-3.2-1.4-3.2-3.2c0-1.7,1.4-3.2,3.2-3.2c1.7,0,3.2,1.4,3.2,3.2l0,0
	C103.6,589.2,102.2,590.6,100.5,590.6"/>
<path class="st44" d="M100.5,590.6c-1.7,0-3.2-1.4-3.2-3.2c0-1.7,1.4-3.2,3.2-3.2c1.7,0,3.2,1.4,3.2,3.2l0,0
	C103.6,589.2,102.2,590.6,100.5,590.6z"/>
<path class="st25" d="M100.5,588.8c-0.7,0-1.3-0.6-1.3-1.3s0.6-1.4,1.3-1.4c0.7,0,1.3,0.6,1.3,1.4l0,0
	C101.8,588.2,101.2,588.8,100.5,588.8L100.5,588.8"/>
<text transform="matrix(1 0 0 1 131.41 591.48)" class="st34 st35 st33">Look</text>
<text transform="matrix(1 0 0 1 154.64 591.48)" class="st34 st35 st33"> </text>
<text transform="matrix(1 0 0 1 157.68 591.48)" class="st34 st35 st33">at</text>
<text transform="matrix(1 0 0 1 166.84 591.48)" class="st34 st35 st33"> </text>
<text transform="matrix(1 0 0 1 169.87 591.48)" class="st34 st35 st33">the</text>
<text transform="matrix(1 0 0 1 185.15 591.48)" class="st34 st35 st33"> </text>
<text transform="matrix(1 0 0 1 188.19 591.48)" class="st34 st35 st33">picture.</text>
<text transform="matrix(1 0 0 1 224.25 591.48)" class="st34 st35 st33"> </text>
<text transform="matrix(1 0 0 1 227.28 591.48)" class="st34 st35 st33">Listen.</text>
<text transform="matrix(1 0 0 1 259.05 591.48)" class="st34 st35 st33"> </text>
<text transform="matrix(1 0 0 1 262.09 591.48)" class="st34 st35 st33">Where</text>
<text transform="matrix(1 0 0 1 293.87 591.48)" class="st34 st35 st33"> </text>
<text transform="matrix(1 0 0 1 296.9 591.48)" class="st34 st35 st33">are</text>
<text transform="matrix(1 0 0 1 311.56 591.48)" class="st34 st35 st33"> </text>
<text transform="matrix(1 0 0 1 314.6 591.48)" class="st34 st35 st33">they?</text>
<text transform="matrix(1 0 0 1 340.88 591.48)" class="st34 st35 st33">            </text>
<text transform="matrix(1 0 0 1 380.28 591.48)" class="st34 st35 st33">                                                             </text>
<path class="st30" d="M248.7,731h85.6 M138.4,711.5h64.2 M159.8,692H224 M241.1,659h64.2 M168.3,620h64.2"/>
<text transform="matrix(1 0 0 1 90.41 618.87)" class="st34 st35 st33">John:</text>
<text transform="matrix(1 0 0 1 138.41 618.87)" class="st34 st36 st33">Look!                       our teache</text>
<text transform="matrix(1 0 0 1 285.77 618.87)" class="st34 st36 st33">r</text>
<text transform="matrix(1 0 0 1 288.56 618.87)" class="st34 st36 st33">.</text>
<text transform="matrix(1 0 0 1 90.41 638.37)" class="st34 st35 st33">Sue:</text>
<text transform="matrix(1 0 0 1 138.41 638.37)" class="st34 st36 st33">He is very cute!</text>
<text transform="matrix(1 0 0 1 90.41 657.87)" class="st34 st35 st33">T</text>
<text transform="matrix(1 0 0 1 95.51 657.87)" class="st34 st35 st33">eacher:</text>
<text transform="matrix(1 0 0 1 138.41 657.87)" class="st34 st36 st33">Good morning, class.                       your English teache</text>
<text transform="matrix(1 0 0 1 400.08 657.87)" class="st34 st36 st33">r</text>
<text transform="matrix(1 0 0 1 402.86 657.87)" class="st34 st36 st33">.</text>
<text transform="matrix(1 0 0 1 138.41 671.37)" class="st34 st36 st33">Please, call me Paul.</text>
<text transform="matrix(1 0 0 1 90.41 690.87)" class="st34 st35 st33">John:</text>
<text transform="matrix(1 0 0 1 138.41 690.87)" class="st34 st36 st33">Oh,                       friendly! </text>
<text transform="matrix(1 0 0 1 90.41 710.37)" class="st34 st35 st33">Sue:</text>
<text transform="matrix(1 0 0 1 110.58 710.37)" class="st34 st35 st33 st52"> </text>
<text transform="matrix(1 0 0 1 138.4 710.37)" class="st34 st35 st33">                      </text>
<text transform="matrix(1 0 0 1 205.68 710.37)" class="st34 st36 st33">friendl</text>
<text transform="matrix(1 0 0 1 235.62 710.37)" class="st34 st36 st33">y</text>
<text transform="matrix(1 0 0 1 240.13 710.37)" class="st34 st36 st33">, too.</text>
<text transform="matrix(1 0 0 1 90.41 729.87)" class="st34 st35 st33">T</text>
<text transform="matrix(1 0 0 1 95.51 729.87)" class="st34 st35 st33">eacher:</text>
<text transform="matrix(1 0 0 1 138.41 729.87)" class="st34 st36 st33">Excuse me young lad</text>
<text transform="matrix(1 0 0 1 238.06 729.87)" class="st34 st36 st33">y</text>
<text transform="matrix(1 0 0 1 242.57 729.87)" class="st34 st36 st33">,                              your name?</text>
<text transform="matrix(1 0 0 1 90.41 749.37)" class="st34 st35 st33">Sue:</text>
<text transform="matrix(1 0 0 1 138.41 749.37)" class="st34 st36 st33">Er … my name is Sue, Paul.</text>
<text transform="matrix(1 0 0 1 90.41 768.87)" class="st34 st35 st33">T</text>
<text transform="matrix(1 0 0 1 95.51 768.87)" class="st34 st35 st33">eacher:</text>
<text transform="matrix(1 0 0 1 138.41 768.87)" class="st34 st36 st33">OK, Sue. Silence, please.</text>
<text transform="matrix(1 0 0 1 90.41 788.37)" class="st34 st35 st33">Sue:</text>
<text transform="matrix(1 0 0 1 138.41 788.37)" class="st34 st36 st33">Ops! He is not friendly!</text>
<g>
	<g>
		<g>
			<g>
				<defs>
					<rect id="SVGID_31_" x="427.4" y="609" width="120.9" height="146.9"/>
				</defs>
				<clipPath id="SVGID_32_">
					<use xlink:href="#SVGID_31_"  style="overflow:visible;"/>
				</clipPath>
				<g class="st53">
					<g>
						<g>
							<g>
								<g>
									<defs>
										<rect id="SVGID_33_" x="427.4" y="609" width="120.9" height="146.9"/>
									</defs>
									<clipPath id="SVGID_34_">
										<use xlink:href="#SVGID_33_"  style="overflow:visible;"/>
									</clipPath>
									<g class="st54">
										
											<image style="overflow:visible;enable-background:new    ;" width="595" height="723" xlink:href="30587965.png"  transform="matrix(0.2 0 0 0.2 427.44 609)">
										</image>
									</g>
								</g>
							</g>
						</g>
					</g>
				</g>
			</g>
		</g>
	</g>
</g>
<image style="overflow:visible;opacity:0.37;enable-background:new    ;" width="417" height="88" xlink:href="D7A09D52.png"  transform="matrix(1 0 0 1 236 13)">
</image>
<g>
	
		<image style="overflow:visible;opacity:0.8;enable-background:new    ;" width="398" height="68" xlink:href="D7A09D5E.png"  transform="matrix(1 0 0 1 241 16)">
	</image>
	<g>
		<g>
			<text transform="matrix(1 0 0 1 256.8977 46.8726)" class="st25 st55 st56">LISTENING </text>
			<text transform="matrix(1 0 0 1 256.8977 64.8726)" class="st25 st55 st57">Basic vocabulary and verb to be in simple present </text>
		</g>
	</g>
</g>
</svg>
