<?xml version="1.0" encoding="utf-8"?>
<!-- Generator: Adobe Illustrator 24.1.2, SVG Export Plug-In . SVG Version: 6.00 Build 0)  -->
<svg version="1.1" id="Capa_1" xmlns="http://www.w3.org/2000/svg" xmlns:xlink="http://www.w3.org/1999/xlink" x="0px" y="0px"
	 viewBox="0 0 652 822" style="enable-background:new 0 0 652 822;" xml:space="preserve">
<style type="text/css">
	.st0{fill:#FFFFFF;}
	.st1{fill:#F6F2C2;}
	.st2{clip-path:url(#SVGID_2_);}
	.st3{fill:#D6D087;}
	.st4{clip-path:url(#SVGID_4_);}
	.st5{fill:none;stroke:#D6D087;stroke-width:4;}
	.st6{fill:#DB9600;}
	.st7{fill:#E7B700;}
	.st8{fill:#E6B500;}
	.st9{fill:#E1A600;}
	.st10{fill:#EBC000;}
	.st11{fill:#EABF00;}
	.st12{clip-path:url(#SVGID_6_);}
	.st13{fill:#CA7104;}
	.st14{fill:#E2AC52;}
	.st15{clip-path:url(#SVGID_8_);}
	.st16{fill:#BF0811;}
	.st17{font-family:'SyntaxLTStd-Black';}
	.st18{font-size:11px;}
	.st19{fill:#5775B3;}
	.st20{clip-path:url(#SVGID_10_);}
	.st21{clip-path:url(#SVGID_12_);}
	.st22{clip-path:url(#SVGID_14_);}
	.st23{clip-path:url(#SVGID_16_);}
	.st24{fill:none;stroke:#5775B3;}
	.st25{fill:none;stroke:#5775B3;stroke-width:0.9;}
	.st26{fill:#211915;}
	.st27{font-family:'SyntaxLTStd-Bold';}
	.st28{font-family:'SyntaxLTStd-Roman';}
	.st29{clip-path:url(#SVGID_18_);}
	.st30{clip-path:url(#SVGID_20_);}
	.st31{fill:none;stroke:#9A999E;stroke-width:0.5;stroke-miterlimit:10;}
	.st32{clip-path:url(#SVGID_22_);}
	.st33{clip-path:url(#SVGID_24_);}
	.st34{clip-path:url(#SVGID_26_);}
	.st35{clip-path:url(#SVGID_28_);}
	.st36{clip-path:url(#SVGID_30_);}
	.st37{clip-path:url(#SVGID_32_);}
	.st38{fill:#E7F2FB;}
	.st39{letter-spacing:57;}
	.st40{letter-spacing:49;}
	.st41{letter-spacing:46;}
	.st42{letter-spacing:60;}
	.st43{font-family:'SyntaxLTStd-Italic';}
	.st44{font-family:'Gabriel-Sans-Bold';}
	.st45{font-size:18px;}
</style>
<rect x="-5.5" y="-4.4" class="st0" width="662.5" height="831.8"/>
<rect x="60.5" y="760.3" class="st1" width="15.9" height="47.9"/>
<rect x="76.4" y="760.3" class="st1" width="16.1" height="47.9"/>
<g>
	<g>
		<g>
			<g>
				<defs>
					<rect id="SVGID_1_" x="14.1" y="14.5" width="609.5" height="793.7"/>
				</defs>
				<clipPath id="SVGID_2_">
					<use xlink:href="#SVGID_1_"  style="overflow:visible;"/>
				</clipPath>
				<g class="st2">
					<rect x="44.6" y="760.3" class="st1" width="15.9" height="47.9"/>
					<rect x="14.1" y="760.3" class="st3" width="30.4" height="47.9"/>
				</g>
			</g>
		</g>
	</g>
</g>
<rect x="14.1" y="84" class="st3" width="609.5" height="4"/>
<g>
	<g>
		<g>
			<g>
				<defs>
					<rect id="SVGID_3_" x="623.6" y="14.5" width="14.2" height="793.7"/>
				</defs>
				<clipPath id="SVGID_4_">
					<use xlink:href="#SVGID_3_"  style="overflow:visible;"/>
				</clipPath>
				<g class="st4">
					<line class="st5" x1="623.6" y1="86" x2="1233" y2="86"/>
				</g>
			</g>
		</g>
	</g>
</g>
<rect x="130.8" y="14.5" class="st6" width="492.8" height="69.6"/>
<polyline class="st6" points="603,84 559.3,84 559.3,37.7 582.5,14.5 619.3,14.5 619.3,67.7 603,84 "/>
<polyline class="st7" points="478.5,84 478.5,84 512.1,50.5 478.5,84 "/>
<polyline class="st7" points="460.1,84 460.1,84 446.7,70.7 446.7,70.7 460.1,84 "/>
<polyline class="st7" points="512.1,50.5 512.1,50.5 544.3,18.2 512.1,50.5 "/>
<polyline class="st7" points="559.3,37.7 559.3,14.5 582.5,14.5 559.3,37.7 "/>
<polyline class="st6" points="379.3,84 368.6,84 368.6,58.8 368.6,58.8 379.3,48.1 379.3,84 "/>
<polyline class="st6" points="439.3,63.2 401.7,25.6 401.7,25.6 439.3,63.2 439.3,63.2 "/>
<polyline class="st7" points="446.7,70.7 439.3,63.2 439.3,63.2 446.7,70.7 446.7,70.7 "/>
<polyline class="st8" points="368.6,84 303.8,84 278.6,58.8 278.6,14.5 324.3,14.5 368.6,58.8 368.6,84 "/>
<path class="st8" d="M401.7,25.6l-11.2-11.2l0,0L401.7,25.6L401.7,25.6 M368.6,58.8l-44.3-44.3h55v33.6L368.6,58.8"/>
<polyline class="st6" points="529.3,67.7 512.1,50.5 512.1,50.5 529.3,67.7 559.3,37.7 559.3,37.7 529.3,67.7 "/>
<polyline class="st6" points="559.3,84 529.3,84 529.3,67.7 529.3,67.7 559.3,37.7 559.3,84 "/>
<polyline class="st9" points="529.3,84 478.5,84 512.1,50.5 529.3,67.7 529.3,84 "/>
<polyline class="st9" points="529.3,67.7 512.1,50.5 548,14.5 559.3,14.5 559.3,37.7 529.3,67.7 "/>
<polyline class="st8" points="455.6,84 433.4,84 444.5,72.9 455.6,84 "/>
<polyline class="st10" points="460.1,84 455.6,84 444.5,72.9 446.7,70.7 460.1,84 "/>
<polyline class="st8" points="379.3,48.1 379.3,48.1 401.7,25.6 401.7,25.6 379.3,48.1 "/>
<polyline class="st8" points="433.4,84 379.3,84 379.3,48.1 401.7,25.6 439.3,63.2 439.3,67.7 444.5,72.9 433.4,84 "/>
<polyline class="st10" points="444.5,72.9 439.3,67.7 439.3,63.2 446.7,70.7 444.5,72.9 "/>
<polyline class="st11" points="379.3,48.1 379.3,14.5 390.6,14.5 401.7,25.6 379.3,48.1 "/>
<polyline class="st8" points="512.1,50.5 476.1,14.5 476.1,14.5 512.1,50.5 512.1,50.5 "/>
<polyline class="st10" points="478.5,84 460.1,84 446.7,70.7 458.6,58.8 458.6,14.5 476.1,14.5 512.1,50.5 478.5,84 "/>
<polyline class="st10" points="512.1,50.5 476.1,14.5 548,14.5 512.1,50.5 "/>
<polyline class="st8" points="401.7,25.6 401.7,25.6 412.9,14.5 412.9,14.5 401.7,25.6 "/>
<polyline class="st8" points="439.3,63.2 401.7,25.6 412.9,14.5 439.3,14.5 439.3,63.2 "/>
<polyline class="st10" points="446.7,70.7 439.3,63.2 439.3,14.5 458.6,14.5 458.6,58.8 446.7,70.7 "/>
<polyline class="st11" points="401.7,25.6 390.6,14.5 412.9,14.5 401.7,25.6 "/>
<g>
	<g>
		<g>
			<g>
				<defs>
					<rect id="SVGID_5_" x="14.1" y="14.5" width="609.5" height="793.7"/>
				</defs>
				<clipPath id="SVGID_6_">
					<use xlink:href="#SVGID_5_"  style="overflow:visible;"/>
				</clipPath>
				<g class="st12">
					<polyline class="st13" points="157.2,68.4 157.2,14.5 14.1,14.5 14.1,84 141.5,84 157.2,68.4 					"/>
				</g>
			</g>
		</g>
	</g>
</g>
<polyline class="st6" points="80.2,767.3 68,760.3 68,774.4 80.2,781.5 80.2,767.3 "/>
<polyline class="st13" points="80.2,781.5 92.4,774.4 92.4,760.3 80.2,767.3 80.2,781.5 "/>
<polyline class="st14" points="68,760.3 80.2,767.3 92.4,760.3 80.2,753.2 68,760.3 "/>
<g>
	<g>
		<g>
			<g>
				<defs>
					<rect id="SVGID_7_" x="623.6" y="14.5" width="14.2" height="793.7"/>
				</defs>
				<clipPath id="SVGID_8_">
					<use xlink:href="#SVGID_7_"  style="overflow:visible;"/>
				</clipPath>
				<g class="st15">
					<polyline class="st13" points="769.6,68.4 769.6,14.5 623.6,14.5 623.6,84 754,84 769.6,68.4 					"/>
				</g>
			</g>
		</g>
	</g>
</g>
<text transform="matrix(1 0 0 1 68 139.28)" class="st16 st17 st18">1.</text>
<polyline class="st19" points="97.1,132.1 97.1,138.3 110.4,143.2 120.1,139.2 120.1,131.2 110.4,127.2 97.1,132.1 "/>
<g>
	<g>
		<g>
			<g>
				<defs>
					<path id="SVGID_9_" d="M97.1,145.8c-5.8,0-10.6-4.7-10.6-10.6c0-5.8,4.7-10.6,10.6-10.6c5.8,0,10.6,4.7,10.6,10.6l0,0
						C107.7,141.1,102.9,145.8,97.1,145.8L97.1,145.8"/>
				</defs>
				<clipPath id="SVGID_10_">
					<use xlink:href="#SVGID_9_"  style="overflow:visible;"/>
				</clipPath>
				<g class="st20">
					<g>
						<g>
							<g>
								<g>
									<defs>
										<rect id="SVGID_11_" x="86.5" y="124.7" width="21.2" height="21.2"/>
									</defs>
									<clipPath id="SVGID_12_">
										<use xlink:href="#SVGID_11_"  style="overflow:visible;"/>
									</clipPath>
									<g class="st21">
										<g>
											<g>
												<g>
													<g>
														<defs>
															<rect id="SVGID_13_" x="86.5" y="124.7" width="21.2" height="21.2"/>
														</defs>
														<clipPath id="SVGID_14_">
															<use xlink:href="#SVGID_13_"  style="overflow:visible;"/>
														</clipPath>
														<g class="st22">
															
																<image style="overflow:visible;enable-background:new    ;" width="90" height="89" xlink:href="A47521ED.png"  transform="matrix(0.24 0 0 0.24 86.28 124.61)">
															</image>
														</g>
													</g>
												</g>
											</g>
										</g>
									</g>
								</g>
							</g>
						</g>
					</g>
				</g>
			</g>
		</g>
	</g>
</g>
<g>
	<g>
		<g>
			<g>
				<defs>
					<path id="SVGID_15_" d="M97.1,145.8c-5.8,0-10.6-4.7-10.6-10.6c0-5.8,4.7-10.6,10.6-10.6c5.8,0,10.6,4.7,10.6,10.6l0,0
						C107.7,141.1,102.9,145.8,97.1,145.8L97.1,145.8"/>
				</defs>
				<clipPath id="SVGID_16_">
					<use xlink:href="#SVGID_15_"  style="overflow:visible;"/>
				</clipPath>
				<g class="st23">
					<polyline class="st0" points="97.1,132.1 97.1,138.3 110.4,143.2 120.1,139.2 120.1,131.2 110.4,127.2 97.1,132.1 					"/>
				</g>
			</g>
		</g>
	</g>
</g>
<path class="st24" d="M97.1,145.8c-5.8,0-10.6-4.7-10.6-10.6c0-5.8,4.7-10.6,10.6-10.6c5.8,0,10.6,4.7,10.6,10.6l0,0
	C107.7,141.1,102.9,145.8,97.1,145.8L97.1,145.8z"/>
<path class="st0" d="M97.1,138.4c-1.7,0-3.2-1.4-3.2-3.2s1.4-3.2,3.2-3.2c1.7,0,3.2,1.4,3.2,3.2l0,0
	C100.2,137,98.8,138.4,97.1,138.4L97.1,138.4"/>
<path class="st25" d="M97.1,138.4c-1.7,0-3.2-1.4-3.2-3.2s1.4-3.2,3.2-3.2c1.7,0,3.2,1.4,3.2,3.2l0,0
	C100.2,137,98.8,138.4,97.1,138.4L97.1,138.4z"/>
<path class="st19" d="M97.1,136.6c-0.7,0-1.3-0.6-1.3-1.4c0-0.7,0.6-1.3,1.4-1.3c0.7,0,1.3,0.6,1.3,1.3
	C98.4,136,97.8,136.6,97.1,136.6"/>
<text transform="matrix(1 0 0 1 128 139.28)" class="st26 st27 st18">What time is it? Match each clock with the corresponding way or ways to express time.</text>
<text transform="matrix(1 0 0 1 128 152.78)" class="st26 st27 st18">W</text>
<text transform="matrix(1 0 0 1 138.81 152.78)" class="st26 st27 st18">rite the appropriate letter under each clock. Listen and check your answers.</text>
<text transform="matrix(1 0 0 1 86 283.65)" class="st26 st27 st18">a.</text>
<path class="st26" d="M105.1,276h0.9l-0.1,7.6h-1L105.1,276z M108.2,278.1v-2h0.9v2h1.5v0.7h-1.5v2.3c0,0.6,0,1,0,1.3
	c0,0.5,0.1,0.7,0.5,0.7c0.3,0,0.6-0.1,0.9-0.3l0.3,0.6c-0.4,0.3-0.9,0.5-1.4,0.5c-0.8,0-1.2-0.5-1.2-1.4c0-0.4,0-0.8,0-1.6v-2h-0.9
	v-0.7L108.2,278.1z M111.8,276h1.2l-0.8,2.6h-0.4L111.8,276z M113.8,282.6c0.3,0.3,0.8,0.4,1.2,0.5c0.5,0,1-0.3,1.1-0.9
	c0-1.4-2.5-0.8-2.5-2.6c0-0.9,0.8-1.7,1.7-1.6h0.1c0.6,0,1.1,0.2,1.6,0.5l-0.4,0.6c-0.3-0.2-0.6-0.3-1-0.4c-0.6,0-1.1,0.3-1.1,0.9
	c0,1.2,2.5,0.7,2.5,2.5c0,1-0.8,1.7-1.8,1.7l0,0c-0.6,0-1.2-0.2-1.7-0.5L113.8,282.6z M121.5,278.1v-2h0.9v2h1.5v0.7h-1.5v2.3
	c0,0.6,0,1,0,1.3c0,0.5,0.1,0.7,0.5,0.7c0.3,0,0.6-0.1,0.9-0.3l0.3,0.6c-0.4,0.3-0.9,0.5-1.4,0.5c-0.8,0-1.2-0.5-1.2-1.4
	c0-0.4,0-0.8,0-1.6v-2h-0.9v-0.7L121.5,278.1z M125.4,280.8v0.3c0,1.1,0.4,2.2,1.6,2.2c0.6-0.1,1.2-0.3,1.6-0.8l0.4,0.5
	c-0.5,0.6-1.3,1-2.1,1c-1.5,0-2.4-1.1-2.4-2.9c-0.1-1.5,1-2.8,2.5-2.9c1.5,0,2.1,1.1,2.1,2.6v0.2L125.4,280.8z M128.2,280.2
	c0-0.8-0.3-1.5-1.2-1.5c-0.8,0.1-1.4,0.7-1.5,1.5H128.2z M130.4,278.2h0.9v0.9l0,0c0.4-0.6,1.1-1,1.9-1c1.3,0,1.7,0.6,1.7,1.7
	c0,0.4,0,0.8,0,1.3v2.7H134v-2.5c0-0.5,0-1,0-1.5s-0.4-0.9-1-0.9c-0.7,0.1-1.3,0.4-1.6,1v3.8h-0.9L130.4,278.2z M138.9,278.2h1.1
	c0-0.3,0-0.7,0-1c0.1-1.4,1-1.8,2.3-1.8v0.7h-0.4c-0.7,0-1.1,0.6-1.1,1.3v0.9h3.2v5.5h-0.9V279h-2.3l-0.1,4.8h-0.9V279h-1.1
	L138.9,278.2z M143.1,276h0.9v1h-0.9V276z"/>
<text transform="matrix(1 0 0 1 141.7 283.65)" class="st26 st28 st18"> fteen. / It</text>
<text transform="matrix(1 0 0 1 189.98 283.65)" class="st26 st28 st18">’</text>
<text transform="matrix(1 0 0 1 192.23 283.65)" class="st26 st28 st18">s a quarter past ten.</text>
<text transform="matrix(1 0 0 1 86 303.15)" class="st26 st27 st18">b.</text>
<text transform="matrix(1 0 0 1 104 303.15)" class="st26 st28 st18">It</text>
<text transform="matrix(1 0 0 1 110.72 303.15)" class="st26 st28 st18">’</text>
<text transform="matrix(1 0 0 1 112.96 303.15)" class="st26 st28 st18">s two o’clock.</text>
<text transform="matrix(1 0 0 1 86 322.65)" class="st26 st27 st18">c.  </text>
<path class="st26" d="M105.1,315h0.9l-0.1,7.6h-1L105.1,315z M108.2,317.1v-2h0.9v2h1.5v0.7h-1.5v2.3c0,0.6,0,1,0,1.3
	c0,0.5,0.1,0.7,0.5,0.7c0.3,0,0.6-0.1,0.9-0.3l0.3,0.6c-0.4,0.3-0.9,0.4-1.4,0.5c-0.8,0-1.2-0.5-1.2-1.4c0-0.4,0-0.8,0-1.6v-2h-0.9
	v-0.7L108.2,317.1z M111.8,315h1.2l-0.8,2.6h-0.4L111.8,315z M113.8,321.6c0.3,0.3,0.8,0.4,1.2,0.5c0.5,0,1-0.3,1.1-0.9
	c0-1.4-2.5-0.8-2.5-2.6c0-0.9,0.8-1.7,1.7-1.6h0.1c0.6,0,1.1,0.2,1.6,0.5l-0.4,0.6c-0.3-0.2-0.6-0.3-1-0.4c-0.6,0-1.1,0.3-1.1,0.9
	c0,1.2,2.5,0.7,2.5,2.5c0,1-0.8,1.7-1.8,1.7l0,0c-0.6,0-1.2-0.2-1.7-0.5L113.8,321.6z M120.6,317.1h1.1c0-0.3,0-0.7,0-1
	c0.1-1.4,1-1.8,2.3-1.8v0.7h-0.4c-0.7,0-1.1,0.6-1.1,1.3v0.9h3.2l-0.1,5.5h-0.9v-4.8h-2.3v4.8h-0.9v-4.8h-1.1L120.6,317.1z
	 M124.8,315h1v1h-1V315z"/>
<path class="st26" d="M131.7,317.3l-2.2,5.4h-0.9l-2-5.4l0.9-0.2l1.6,4.6l0,0l1.7-4.6L131.7,317.3z M133.3,319.8v0.2
	c0,1.1,0.4,2.2,1.6,2.2c0.6-0.1,1.2-0.3,1.6-0.8l0.4,0.5c-0.5,0.6-1.3,1-2.1,1c-1.5,0-2.4-1.1-2.4-2.9c-0.1-1.5,1-2.8,2.5-2.9
	c1.5,0,2.1,1.1,2.1,2.6v0.2L133.3,319.8z M136.1,319.2c0-0.8-0.3-1.5-1.2-1.5c-0.8,0.1-1.4,0.7-1.5,1.5H136.1z M141.3,317.2h0.9v0.7
	l0,0c0.4-0.6,1.1-1,1.8-0.9c0.9,0,2.2,0.7,2.2,2.9c0,1.5-1,2.9-2.4,2.9c-0.6,0-1.2-0.2-1.6-0.7l0,0v3.3h-0.9V317.2z M142.2,321.2
	c0.3,0.5,0.8,0.8,1.4,0.9c1,0,1.6-1.1,1.6-2.2c0-1.5-0.7-2.2-1.4-2.2c-0.6,0.1-1.2,0.4-1.5,1L142.2,321.2z M152.1,322.4
	c-0.3,0.2-0.6,0.4-1,0.4c-0.5,0-0.8-0.5-0.8-0.9c-0.4,0.6-1,0.9-1.6,0.9c-0.8,0-1.5-0.6-1.6-1.4c0-0.1,0-0.1,0-0.2
	c0-1.5,2-1.9,3.2-2c0-0.2,0-0.5,0-0.7c0-0.4-0.3-0.8-0.7-0.8h-0.1c-0.4,0-0.8,0.2-1.6,0.8l-0.4-0.6c1.1-0.7,1.4-0.9,2.2-0.9
	c0.7-0.1,1.3,0.4,1.4,1.1c0,0.1,0,0.2,0,0.3c0,1-0.1,2-0.1,3c0,0.4,0.1,0.8,0.4,0.8c0.2,0,0.3-0.1,0.5-0.2L152.1,322.4z
	 M150.2,319.8c-1.5,0.2-2.3,0.5-2.3,1.4c0,0.5,0.3,0.9,0.8,0.9c0.1,0,0.1,0,0.2,0c0.5-0.1,1-0.4,1.3-0.8V319.8z M152.8,321.7
	c0.3,0.3,0.8,0.4,1.2,0.5c0.5,0,1-0.4,1.1-0.9c0-1.4-2.5-0.8-2.5-2.6c0-0.9,0.8-1.7,1.7-1.6h0.1c0.6,0,1.1,0.2,1.6,0.5l-0.4,0.6
	c-0.3-0.2-0.6-0.3-1-0.4c-0.6,0-1.1,0.3-1.1,0.9c0,1.2,2.5,0.7,2.5,2.5c0,0.9-0.8,1.7-1.8,1.7l0,0c-0.6,0-1.2-0.2-1.7-0.5
	L152.8,321.7z M157.6,317.2v-2h0.9v2h1.5v0.7h-1.5v2.3c0,0.6,0,1,0,1.3c0,0.5,0.1,0.7,0.5,0.7c0.3,0,0.6-0.1,0.9-0.3l0.3,0.6
	c-0.4,0.3-0.9,0.4-1.4,0.5c-0.9,0-1.2-0.5-1.2-1.4c0-0.4,0-0.8,0-1.6v-2h-0.9v-0.7L157.6,317.2z M166.2,317c1.6,0,2.6,1.1,2.6,2.9
	c0.1,1.5-1.1,2.8-2.6,2.9h-0.1c-1.6,0-2.6-1.1-2.6-2.9c-0.1-1.5,1-2.8,2.5-2.9C166.1,317,166.2,317,166.2,317L166.2,317z
	 M166.1,322.2c0.8,0,1.7-0.7,1.7-2.2s-0.7-2.2-1.6-2.2s-1.7,0.7-1.7,2.2S165.2,322.1,166.1,322.2L166.1,322.2z M170.1,317.2h0.9v0.9
	l0,0c0.4-0.6,1.1-1,1.9-1c1.3,0,1.7,0.6,1.7,1.7c0,0.4,0,0.8,0,1.3v2.7h-0.9v-2.5c0-0.5,0-1,0-1.5s-0.4-0.9-1-0.9
	c-0.7,0.1-1.3,0.4-1.6,1l-0.1,3.8h-1L170.1,317.2z M176.7,319.8v0.2c0,1.1,0.4,2.2,1.6,2.2c0.6-0.1,1.2-0.3,1.6-0.8l0.4,0.5
	c-0.5,0.6-1.3,1-2.1,1c-1.5,0-2.4-1.1-2.4-2.9c-0.1-1.5,1-2.8,2.5-2.9c1.5,0,2.1,1.1,2.1,2.6v0.2L176.7,319.8z M179.5,319.2
	c0-0.8-0.3-1.5-1.2-1.5c-0.8,0.1-1.4,0.7-1.5,1.5H179.5z M181.9,321.6h1v1h-1V321.6z M190.7,314.7l0.7,0.3l-3.4,7.9l-0.7-0.3
	L190.7,314.7z M196,315h0.9l-0.1,7.6h-0.9L196,315z M199.2,317.1v-2h0.8v2h1.5v0.7H200v2.3c0,0.6,0,1,0,1.3c0,0.5,0.1,0.7,0.5,0.7
	c0.3,0,0.6-0.1,0.9-0.3l0.3,0.6c-0.4,0.3-0.9,0.4-1.4,0.5c-0.9,0-1.2-0.5-1.2-1.4c0-0.4,0-0.8,0-1.6v-2h-0.9v-0.7L199.2,317.1z
	 M202.7,315h1.2l-0.8,2.6h-0.4V315z M204.6,321.6c0.3,0.3,0.8,0.4,1.2,0.5c0.5,0,1-0.3,1.1-0.9c0-1.4-2.5-0.8-2.5-2.6
	c0-0.9,0.8-1.7,1.7-1.6h0.1c0.6,0,1.1,0.2,1.6,0.5l-0.4,0.6c-0.3-0.2-0.6-0.3-1-0.4c-0.6,0-1.1,0.3-1.1,0.9c0,1.2,2.5,0.7,2.5,2.5
	c0,0.9-0.8,1.7-1.8,1.7c0,0,0,0-0.1,0c-0.6,0-1.2-0.2-1.7-0.5L204.6,321.6z M211.4,317.1h1.1c0-0.3,0-0.7,0-1c0.1-1.4,1-1.8,2.3-1.8
	v0.7h-0.4c-0.7,0-1.1,0.6-1.1,1.3v0.9h3.2l-0.1,5.5h-0.9l0.1-4.8h-2.3v4.8h-0.9v-4.8h-1.1L211.4,317.1z M215.6,315h1v1h-1V315z"/>
<text transform="matrix(1 0 0 1 214.24 322.65)" class="st26 st28 st18"> ve after one.</text>
<text transform="matrix(1 0 0 1 86 342.15)" class="st26 st27 st18">d.  </text>
<text transform="matrix(1 0 0 1 104 342.15)" class="st26 st28 st18">It</text>
<text transform="matrix(1 0 0 1 110.72 342.15)" class="st26 st28 st18">’</text>
<text transform="matrix(1 0 0 1 112.96 342.15)" class="st26 st28 st18">s seven thirt</text>
<text transform="matrix(1 0 0 1 169.8 342.15)" class="st26 st28 st18">y</text>
<text transform="matrix(1 0 0 1 174.31 342.15)" class="st26 st28 st18">. / It</text>
<text transform="matrix(1 0 0 1 195.09 342.15)" class="st26 st28 st18">’</text>
<text transform="matrix(1 0 0 1 197.33 342.15)" class="st26 st28 st18">s half past seven.</text>
<text transform="matrix(1 0 0 1 86 361.65)" class="st26 st27 st18">e.  </text>
<path class="st26" d="M105.1,354h0.9l-0.1,7.6h-1L105.1,354z M108.2,356.1v-2h0.9v2h1.5v0.7h-1.5v2.3c0,0.6,0,1,0,1.3
	c0,0.5,0.1,0.7,0.5,0.7c0.3,0,0.6-0.1,0.9-0.3l0.3,0.6c-0.4,0.3-0.9,0.4-1.4,0.5c-0.8,0-1.2-0.5-1.2-1.4c0-0.4,0-0.8,0-1.6v-2h-0.9
	v-0.7h0.9C108.2,356.2,108.2,356.1,108.2,356.1z M111.8,354h1.2l-0.8,2.6h-0.4L111.8,354z M113.8,360.6c0.3,0.3,0.8,0.4,1.2,0.5
	c0.5,0,1-0.3,1.1-0.9c0-1.4-2.5-0.8-2.5-2.6c0-0.9,0.8-1.7,1.7-1.6h0.1c0.6,0,1.1,0.2,1.6,0.5l-0.4,0.6c-0.3-0.2-0.6-0.3-1-0.4
	c-0.6,0-1.1,0.3-1.1,0.9c0,1.2,2.5,0.7,2.5,2.5c0,0.9-0.8,1.7-1.7,1.7c-0.1,0-0.2,0-0.2,0c-0.6,0-1.2-0.2-1.7-0.5L113.8,360.6z
	 M120.6,356.1h1.1c0-0.3,0-0.7,0-1c0.1-1.4,1-1.8,2.3-1.8v0.7h-0.4c-0.7,0-1.1,0.6-1.1,1.3v0.9h1.5v0.7h-1.5v4.8h-0.9v-4.8h-1.1
	L120.6,356.1z M127.1,356c1.6,0,2.6,1.1,2.6,2.9c0.1,1.5-1,2.8-2.5,2.9c-0.1,0-0.1,0-0.2,0c-1.6,0-2.6-1.1-2.6-2.9
	c-0.1-1.5,1-2.8,2.5-2.9C127,356,127,356,127.1,356L127.1,356z M127,361.1c0.8,0,1.7-0.7,1.7-2.2s-0.7-2.2-1.6-2.2s-1.7,0.7-1.7,2.2
	S126.1,361.1,127,361.1L127,361.1z M131,356.1h0.9v2.5c0,0.5,0,1,0,1.5s0.4,0.9,1,0.9c0.7-0.1,1.3-0.4,1.6-1v-3.8h0.9v5.5h-0.9v-0.9
	l0,0c-0.4,0.6-1.1,1-1.9,1c-1.3,0-1.7-0.6-1.7-1.7c0-0.4,0-0.8,0-1.3L131,356.1z M137.1,356.1h0.9v1.1l0,0c0.2-0.7,0.8-1.2,1.5-1.2
	c0.2,0,0.3,0,0.5,0.1l-0.3,0.8c-0.1,0-0.2,0-0.4,0c-0.4,0-0.9,0.3-1.4,1.2l-0.1,3.6h-1L137.1,356.1z M143.2,356.1h1.1
	c0-0.3,0-0.7,0-1c0.1-1.4,1-1.8,2.3-1.8v0.8h-0.4c-0.7,0-1.1,0.6-1.1,1.3v0.9h1.5v0.7h-1.5l-0.1,4.8h-0.9V357H143L143.2,356.1z
	 M149.8,356c1.6,0,2.6,1.1,2.6,2.9c0.1,1.5-1.1,2.8-2.6,2.9h-0.1c-1.6,0-2.6-1.1-2.6-2.9C147,357.3,148.2,356.1,149.8,356
	C149.7,356,149.7,356,149.8,356L149.8,356z M149.7,361.1c0.8,0,1.7-0.7,1.7-2.2s-0.7-2.2-1.6-2.2s-1.7,0.7-1.7,2.2
	S148.7,361.1,149.7,361.1L149.7,361.1z M153.7,356.1h0.9v1.1l0,0c0.2-0.6,0.8-1,1.4-1.1c0.2,0,0.3,0,0.5,0.1l-0.3,0.8
	c-0.1,0-0.2,0-0.4,0c-0.4,0-0.9,0.3-1.4,1.2l-0.1,3.6h-0.9L153.7,356.1z M157.7,356.1v-2h0.9v2h1.5v0.7h-1.5v2.3c0,0.6,0,1,0,1.3
	c0,0.5,0.1,0.7,0.5,0.7c0.3,0,0.6-0.1,0.9-0.3l0.3,0.6c-0.4,0.3-0.9,0.4-1.4,0.5c-0.9,0-1.2-0.5-1.2-1.4c0-0.4,0-0.8,0-1.6v-2h-0.9
	v-0.7h0.9V356.1z M160.5,363.5c0.9,0,1.1-0.2,1.3-0.7l0.6-1.3l-2-5.3l1-0.3l1.5,4.5l0,0l1.7-4.5l0.9,0.3l-2.4,6
	c-0.6,1.5-0.9,1.9-2.1,1.9h-0.4L160.5,363.5z M166.4,358.2h2.6v0.9h-2.7L166.4,358.2z M170.1,356.1h1.1c0-0.3,0-0.7,0-1
	c0.1-1.4,1-1.8,2.3-1.8v0.8h-0.4c-0.7,0-1.1,0.6-1.1,1.3v0.9h3.2l-0.1,5.5h-0.9l0.1-4.8H172v4.8h-0.9l0.1-4.8H170L170.1,356.1z
	 M174.3,353.9h0.9v1h-0.9V353.9z"/>
<path class="st26" d="M181.2,356.3l-2.2,5.4h-0.9l-2-5.4l0.9-0.3l1.6,4.6l0,0l1.7-4.6L181.2,356.3z M182.8,358.8v0.2
	c0,1.1,0.4,2.2,1.6,2.2c0.6,0,1.2-0.3,1.6-0.8l0.4,0.5c-0.5,0.6-1.3,1-2.1,1c-1.5,0-2.4-1.1-2.4-2.9c-0.1-1.5,1-2.8,2.5-2.9
	c1.5,0,2.1,1.1,2.1,2.6v0.2L182.8,358.8z M185.6,358.2c0-0.8-0.3-1.5-1.2-1.5c-0.8,0.1-1.4,0.7-1.5,1.5H185.6z M187.9,360.6h1v1.1
	h-1V360.6z M196.8,353.8l0.7,0.3l-3.4,7.9l-0.7-0.3L196.8,353.8z M202.1,354h0.9l-0.1,7.6H202L202.1,354z M205.2,356.2v-2h0.9v2h1.5
	v0.7h-1.5v2.3c0,0.6,0,1,0,1.3c0,0.5,0.1,0.7,0.5,0.7c0.3,0,0.6-0.1,0.9-0.3l0.3,0.6c-0.4,0.3-0.9,0.4-1.4,0.5
	c-0.8,0-1.2-0.5-1.2-1.4c0-0.4,0-0.8,0-1.6v-2h-0.9v-0.7h0.9V356.2z M208.7,354h1.2l-0.8,2.6h-0.4V354z M210.7,360.7
	c0.4,0.3,0.8,0.4,1.2,0.5c0.5,0,1-0.4,1.1-0.9c0-1.4-2.5-0.8-2.5-2.6c0-0.9,0.8-1.7,1.7-1.6h0.1c0.6,0,1.1,0.2,1.6,0.5l-0.4,0.6
	c-0.3-0.2-0.6-0.3-1-0.4c-0.6,0-1.1,0.3-1.1,0.9c0,1.2,2.5,0.7,2.5,2.5c0,0.9-0.8,1.7-1.8,1.7H212c-0.6,0-1.2-0.2-1.7-0.5
	L210.7,360.7z M222.8,361.4c-0.3,0.2-0.6,0.4-1,0.4c-0.5,0-0.8-0.4-0.8-0.9c-0.4,0.5-1,0.9-1.6,0.9c-0.8,0-1.5-0.6-1.6-1.4
	c0-0.1,0-0.1,0-0.2c0-1.5,2-1.9,3.2-2c0-0.2,0-0.5,0-0.7c0-0.4-0.3-0.8-0.7-0.8c-0.1,0-0.1,0-0.2,0c-0.4,0-0.8,0.2-1.6,0.8l-0.4-0.6
	c1.1-0.7,1.4-0.9,2.2-0.9c0.7-0.1,1.3,0.4,1.4,1.1c0,0.1,0,0.2,0,0.3c0,1-0.1,2-0.1,3c0,0.4,0.1,0.8,0.4,0.8c0.2,0,0.3-0.1,0.5-0.2
	L222.8,361.4z M220.9,358.8c-1.5,0.2-2.3,0.5-2.3,1.4c0,0.5,0.3,0.9,0.8,0.9c0.1,0,0.2,0,0.2,0c0.5-0.1,1-0.4,1.3-0.8V358.8z
	 M231,364.4h-0.9v-3.5l0,0c-0.4,0.6-1,0.9-1.7,0.9c-0.9,0-2.2-0.7-2.2-2.9c-0.1-1.5,1-2.8,2.5-2.9c0.6,0,1.1,0.3,1.5,0.7l0,0v-0.6
	h0.8L231,364.4z M230.1,357.6c-0.2-0.5-0.8-0.9-1.3-0.9c-1,0-1.6,1.1-1.6,2.2c0,1.5,0.7,2.2,1.4,2.2c0.6,0,1.2-0.4,1.5-1
	L230.1,357.6z M232.8,356.2h0.9v2.5c0,0.5,0,1,0,1.5s0.4,0.9,1,0.9c0.7-0.1,1.3-0.4,1.6-1v-3.8h0.9v5.5h-0.9v-0.9l0,0
	c-0.4,0.6-1.1,1-1.9,1c-1.3,0-1.7-0.6-1.7-1.7c0-0.4,0-0.8,0-1.3L232.8,356.2z M243.5,361.4c-0.3,0.2-0.6,0.4-1,0.4
	c-0.5,0-0.8-0.4-0.8-0.9c-0.4,0.5-1,0.9-1.6,0.9c-0.8,0-1.5-0.6-1.6-1.4c0-0.1,0-0.1,0-0.2c0-1.5,2-1.9,3.2-2c0-0.2,0-0.5,0-0.7
	c0-0.4-0.3-0.8-0.7-0.8c-0.1,0-0.1,0-0.2,0c-0.4,0-0.8,0.2-1.6,0.8l-0.4-0.6c1.1-0.7,1.4-0.9,2.2-0.9c0.7-0.1,1.3,0.4,1.4,1.1
	c0,0.1,0,0.2,0,0.3c0,1-0.1,2-0.1,3c0,0.4,0.1,0.8,0.4,0.8c0.2,0,0.3-0.1,0.5-0.2L243.5,361.4z M241.7,358.8
	c-1.5,0.2-2.3,0.5-2.3,1.4c0,0.5,0.3,0.9,0.8,0.9c0.1,0,0.2,0,0.2,0c0.5-0.1,1-0.4,1.3-0.8V358.8z M244.4,356.2h0.9v1.1l0,0
	c0.2-0.7,0.8-1.2,1.5-1.2c0.2,0,0.3,0,0.5,0.1L247,357c-0.1,0-0.2,0-0.4,0c-0.4,0-0.9,0.3-1.4,1.2l-0.1,3.6h-0.9L244.4,356.2z
	 M248.4,356.2v-2h0.9v2h1.5v0.7h-1.5v2.3c0,0.6,0,1,0,1.3c0,0.5,0.1,0.7,0.5,0.7c0.3,0,0.6-0.1,0.9-0.3l0.3,0.6
	c-0.4,0.3-0.9,0.4-1.4,0.5c-0.9,0-1.2-0.5-1.2-1.4c0-0.4,0-0.8,0-1.6v-2h-0.9v-0.7h0.9V356.2z M252.3,358.8v0.2
	c0,1.1,0.4,2.2,1.6,2.2c0.6,0,1.2-0.3,1.6-0.8l0.4,0.5c-0.5,0.6-1.3,1-2.1,1c-1.5,0-2.4-1.1-2.4-2.9c-0.1-1.5,1-2.8,2.5-2.9
	c1.5,0,2.1,1.1,2.1,2.6v0.2L252.3,358.8z M255.1,358.2c0-0.8-0.3-1.5-1.2-1.5c-0.8,0.1-1.4,0.7-1.5,1.5H255.1z M257.3,356.2h0.9v1.1
	l0,0c0.2-0.7,0.8-1.2,1.5-1.3c0.2,0,0.3,0,0.5,0.1l-0.3,0.8c-0.1,0-0.2,0-0.3,0c-0.4,0-1,0.3-1.4,1.2v3.6h-0.9L257.3,356.2z
	 M264.3,356.2v-2h0.9v2h1.5v0.7h-1.5v2.3c0,0.6,0,1,0,1.3c0,0.5,0.1,0.7,0.5,0.7c0.3,0,0.6-0.1,0.9-0.3l0.3,0.6
	c-0.4,0.3-0.9,0.4-1.4,0.5c-0.8,0-1.2-0.5-1.2-1.4c0-0.4,0-0.8,0-1.6v-2h-0.9v-0.7h0.9L264.3,356.2L264.3,356.2z M269.9,356.1
	c1.6,0,2.6,1.1,2.6,2.9c0.1,1.5-1,2.8-2.5,2.9h-0.1c-1.6,0-2.6-1.1-2.6-2.9c-0.1-1.5,1-2.8,2.5-2.9C269.8,356,269.8,356,269.9,356.1
	L269.9,356.1z M269.8,361.2c0.8,0,1.7-0.7,1.7-2.2s-0.7-2.2-1.6-2.2s-1.7,0.7-1.7,2.2S268.9,361.1,269.8,361.2L269.8,361.2z
	 M276.1,356.2h1.1c0-0.3,0-0.7,0-1c0.1-1.4,1-1.8,2.3-1.8v0.7h-0.4c-0.7,0-1.1,0.6-1.1,1.3v0.9h3.2v5.5h-0.9V357H278v4.8h-0.9V357
	H276L276.1,356.2L276.1,356.2z M280.3,354h1v1h-1V354z"/>
<text transform="matrix(1 0 0 1 279.01 361.65)" class="st26 st28 st18"> ve.</text>
<g>
	<g>
		<g>
			<g>
				<defs>
					<rect id="SVGID_17_" x="92.2" y="161.1" width="462.5" height="77.3"/>
				</defs>
				<clipPath id="SVGID_18_">
					<use xlink:href="#SVGID_17_"  style="overflow:visible;"/>
				</clipPath>
				<g class="st29">
					<g>
						<g>
							<g>
								<g>
									<defs>
										<rect id="SVGID_19_" x="92.2" y="161.1" width="462.5" height="77.3"/>
									</defs>
									<clipPath id="SVGID_20_">
										<use xlink:href="#SVGID_19_"  style="overflow:visible;"/>
									</clipPath>
									<g class="st30">
										
											<image style="overflow:visible;enable-background:new    ;" width="1928" height="323" xlink:href="A47521F3.png"  transform="matrix(0.2393 0 0 0.2393 92.7463 161.14)">
										</image>
									</g>
								</g>
							</g>
						</g>
					</g>
				</g>
			</g>
		</g>
	</g>
</g>
<line class="st31" x1="121" y1="255.8" x2="147.1" y2="255.8"/>
<text transform="matrix(1 0 0 1 102.69 254.68)" class="st26 st27 st18">1.</text>
<text transform="matrix(1 0 0 1 111.86 254.68)" class="st26 st28 st18">   </text>
<text transform="matrix(1 0 0 1 121.03 254.68)" class="st26 st28 st18">         </text>
<line class="st31" x1="315.7" y1="255.8" x2="341.7" y2="255.8"/>
<text transform="matrix(1 0 0 1 297.31 254.68)" class="st26 st27 st18">3.</text>
<text transform="matrix(1 0 0 1 306.49 254.68)" class="st26 st28 st18">   </text>
<text transform="matrix(1 0 0 1 315.66 254.68)" class="st26 st28 st18">         </text>
<line class="st31" x1="218.4" y1="255.8" x2="244.4" y2="255.8"/>
<text transform="matrix(1 0 0 1 200 254.68)" class="st26 st27 st18">2.</text>
<text transform="matrix(1 0 0 1 209.17 254.68)" class="st26 st28 st18">   </text>
<text transform="matrix(1 0 0 1 218.34 254.68)" class="st26 st28 st18">         </text>
<line class="st31" x1="413" y1="255.8" x2="439" y2="255.8"/>
<text transform="matrix(1 0 0 1 394.63 254.68)" class="st26 st27 st18">4.</text>
<text transform="matrix(1 0 0 1 403.8 254.68)" class="st26 st28 st18">   </text>
<text transform="matrix(1 0 0 1 412.97 254.68)" class="st26 st28 st18">         </text>
<line class="st31" x1="510.3" y1="255.8" x2="536.3" y2="255.8"/>
<text transform="matrix(1 0 0 1 491.94 254.68)" class="st26 st27 st18">5.</text>
<text transform="matrix(1 0 0 1 501.11 254.68)" class="st26 st28 st18">   </text>
<text transform="matrix(1 0 0 1 510.28 254.68)" class="st26 st28 st18">         </text>
<text transform="matrix(1 0 0 1 67.96 399.89)" class="st16 st17 st18">2.</text>
<polyline class="st19" points="97,392.7 97,398.9 110.3,403.8 120.1,399.8 120.1,391.8 110.3,387.8 97,392.7 "/>
<g>
	<g>
		<g>
			<g>
				<defs>
					<path id="SVGID_21_" d="M97,406.4c-5.8,0-10.6-4.7-10.6-10.6s4.7-10.6,10.6-10.6s10.6,4.7,10.6,10.6l0,0
						C107.6,401.6,102.8,406.4,97,406.4"/>
				</defs>
				<clipPath id="SVGID_22_">
					<use xlink:href="#SVGID_21_"  style="overflow:visible;"/>
				</clipPath>
				<g class="st32">
					<g>
						<g>
							<g>
								<g>
									<defs>
										<rect id="SVGID_23_" x="86.5" y="385.2" width="21.2" height="21.1"/>
									</defs>
									<clipPath id="SVGID_24_">
										<use xlink:href="#SVGID_23_"  style="overflow:visible;"/>
									</clipPath>
									<g class="st33">
										<g>
											<g>
												<g>
													<g>
														<defs>
															<rect id="SVGID_25_" x="86.5" y="385.2" width="21.2" height="21.1"/>
														</defs>
														<clipPath id="SVGID_26_">
															<use xlink:href="#SVGID_25_"  style="overflow:visible;"/>
														</clipPath>
														<g class="st34">
															
																<image style="overflow:visible;enable-background:new    ;" width="89" height="90" xlink:href="A47521F4.png"  transform="matrix(0.24 0 0 0.24 86.28 385.01)">
															</image>
														</g>
													</g>
												</g>
											</g>
										</g>
									</g>
								</g>
							</g>
						</g>
					</g>
				</g>
			</g>
		</g>
	</g>
</g>
<g>
	<g>
		<g>
			<g>
				<defs>
					<path id="SVGID_27_" d="M97,406.4c-5.8,0-10.6-4.7-10.6-10.6s4.7-10.6,10.6-10.6s10.6,4.7,10.6,10.6l0,0
						C107.6,401.6,102.8,406.4,97,406.4"/>
				</defs>
				<clipPath id="SVGID_28_">
					<use xlink:href="#SVGID_27_"  style="overflow:visible;"/>
				</clipPath>
				<g class="st35">
					<polyline class="st0" points="97,392.7 97,398.9 110.3,403.8 120.1,399.8 120.1,391.8 110.3,387.8 97,392.7 					"/>
				</g>
			</g>
		</g>
	</g>
</g>
<circle class="st24" cx="97" cy="395.8" r="10.6"/>
<path class="st0" d="M97,399c-1.7,0-3.2-1.4-3.2-3.1s1.4-3.2,3.1-3.2s3.2,1.4,3.2,3.1l0,0C100.2,397.6,98.7,399,97,399L97,399"/>
<path class="st25" d="M97,399c-1.7,0-3.2-1.4-3.2-3.1s1.4-3.2,3.1-3.2s3.2,1.4,3.2,3.1l0,0C100.2,397.6,98.7,399,97,399L97,399z"/>
<path class="st19" d="M97,397.2c-0.7,0-1.3-0.6-1.3-1.4c0-0.7,0.6-1.4,1.3-1.4c0.7,0,1.3,0.6,1.3,1.4S97.7,397.2,97,397.2L97,397.2"
	/>
<text transform="matrix(1 0 0 1 127.96 399.89)" class="st26 st27 st18">Read and listen to what M</text>
<text transform="matrix(1 0 0 1 255.08 399.89)" class="st26 st27 st18">r</text>
<text transform="matrix(1 0 0 1 258.15 399.89)" class="st26 st27 st18">. Green does on weekdays and complete his schedule. Compare</text>
<text transform="matrix(1 0 0 1 127.96 413.39)" class="st26 st27 st18">with a partne</text>
<text transform="matrix(1 0 0 1 191.53 413.39)" class="st26 st27 st18">r</text>
<text transform="matrix(1 0 0 1 194.6 413.39)" class="st26 st27 st18">. Read the script to check your answers</text>
<text transform="matrix(1 0 0 1 86.96 432.89)" class="st26 st27 st18">Operator:</text>
<text transform="matrix(1 0 0 1 160.96 432.89)" class="st26 st28 st18">Management, General Sto</text>
<text transform="matrix(1 0 0 1 285.64 432.89)" class="st26 st28 st18">r</text>
<text transform="matrix(1 0 0 1 289.2 432.89)" class="st26 st28 st18">es, how can we help you?</text>
<text transform="matrix(1 0 0 1 86.96 446.39)" class="st26 st27 st18">Mrs. Sanders:</text>
<text transform="matrix(1 0 0 1 160.95 446.39)" class="st26 st28 st18">Good afternoon, this is Mrs. Sanders again.</text>
<text transform="matrix(1 0 0 1 86.96 459.89)" class="st26 st27 st18">Operator:</text>
<text transform="matrix(1 0 0 1 160.96 459.89)" class="st26 st28 st18">Hello, Mrs. Sanders. I know you want to speak to M</text>
<text transform="matrix(1 0 0 1 407.91 459.89)" class="st26 st28 st18">r</text>
<text transform="matrix(1 0 0 1 410.69 459.89)" class="st26 st28 st18">.</text>
<text transform="matrix(1 0 0 1 160.96 473.39)" class="st26 st28 st18">G</text>
<text transform="matrix(1 0 0 1 168.9 473.39)" class="st26 st28 st18">r</text>
<text transform="matrix(1 0 0 1 172.45 473.39)" class="st26 st28 st18">een, but he</text>
<text transform="matrix(1 0 0 1 226.26 473.39)" class="st26 st28 st18">’</text>
<text transform="matrix(1 0 0 1 228.51 473.39)" class="st26 st28 st18">s not in.</text>
<text transform="matrix(1 0 0 1 86.96 486.89)" class="st26 st27 st18">Mrs. Sanders:</text>
<text transform="matrix(1 0 0 1 160.95 486.89)" class="st26 st28 st18">W</text>
<text transform="matrix(1 0 0 1 171.55 486.89)" class="st26 st28 st18">ell, when does he work? I call everyday and he</text>
<text transform="matrix(1 0 0 1 392.22 486.89)" class="st26 st28 st18">’</text>
<text transform="matrix(1 0 0 1 394.46 486.89)" class="st26 st28 st18">s</text>
<path class="st26" d="M161.8,494.9h0.9v0.9l0,0c0.4-0.6,1.1-1,1.9-1c1.3,0,1.7,0.6,1.7,1.7c0,0.4,0,0.8,0,1.3v2.7h-0.9V498
	c0-0.5,0-1,0-1.5s-0.4-0.9-1-0.9c-0.7,0.1-1.3,0.4-1.6,1v3.8h-0.9L161.8,494.9z M168.5,497.5v0.2c0,1.1,0.4,2.2,1.6,2.2
	c0.6-0.1,1.2-0.3,1.6-0.8l0.4,0.5c-0.5,0.6-1.3,1-2.1,1c-1.5,0-2.4-1.1-2.4-2.9c-0.1-1.5,1-2.8,2.5-2.9c1.5,0,2.1,1.1,2.1,2.6v0.2
	L168.5,497.5z M171.3,496.9c0-0.8-0.3-1.5-1.2-1.5c-0.8,0.1-1.4,0.7-1.5,1.5H171.3z M177.9,495l-2.2,5.4h-0.9l-2-5.4l0.9-0.2
	l1.6,4.6l0,0l1.7-4.6L177.9,495z M179.5,497.5v0.2c0,1.1,0.4,2.2,1.6,2.2c0.6-0.1,1.2-0.3,1.6-0.8l0.4,0.5c-0.5,0.6-1.3,1-2.1,1
	c-1.5,0-2.4-1.1-2.4-2.9c-0.1-1.5,1-2.8,2.5-2.9c1.5,0,2.1,1.1,2.1,2.6v0.2L179.5,497.5z M182.3,496.9c0-0.8-0.3-1.5-1.2-1.5
	c-0.8,0.1-1.4,0.7-1.5,1.5H182.3z M184.5,494.9h0.9v1.1l0,0c0.2-0.7,0.8-1.2,1.5-1.2c0.2,0,0.3,0,0.5,0.1l-0.3,0.8
	c-0.1,0-0.2-0.1-0.3-0.1c-0.4,0-0.9,0.3-1.4,1.2l-0.1,3.6h-0.9L184.5,494.9z M195.8,500.2c-0.3,0.2-0.6,0.4-1,0.4
	c-0.5,0-0.8-0.5-0.8-0.9c-0.4,0.5-1,0.9-1.6,0.9c-0.8,0-1.5-0.6-1.6-1.4c0-0.1,0-0.1,0-0.2c0-1.5,2-1.9,3.2-2c0-0.2,0-0.5,0-0.7
	c0-0.4-0.2-0.8-0.7-0.8c-0.1,0-0.1,0-0.2,0c-0.4,0-0.8,0.2-1.6,0.8l-0.4-0.6c1.1-0.7,1.4-0.9,2.2-0.9c0.7-0.1,1.3,0.4,1.4,1.1
	c0,0.1,0,0.2,0,0.3c0,1-0.1,2-0.1,3c0,0.4,0,0.8,0.4,0.8c0.2,0,0.3-0.1,0.5-0.2L195.8,500.2z M193.9,497.5c-1.5,0.2-2.3,0.5-2.3,1.4
	c0,0.5,0.3,0.9,0.8,0.9c0.1,0,0.1,0,0.2,0c0.5-0.1,1-0.4,1.3-0.8V497.5z M197,494.9v-2h0.9v2h1.5v0.7h-1.5v2.2c0,0.6,0,1,0,1.3
	c0,0.5,0.1,0.7,0.5,0.7c0.3,0,0.6-0.1,0.9-0.3l0.3,0.6c-0.4,0.3-0.9,0.4-1.4,0.5c-0.9,0-1.2-0.5-1.2-1.4c0-0.4,0-0.8,0-1.6v-2h-1
	v-0.7L197,494.9z M203.7,494.9v-2h0.9v2h1.5v0.7h-1.5v2.2c0,0.6,0,1,0,1.3c0,0.5,0.1,0.7,0.5,0.7c0.3,0,0.6-0.1,0.9-0.3l0.3,0.6
	c-0.4,0.3-0.9,0.4-1.4,0.5c-0.9,0-1.2-0.5-1.2-1.4c0-0.4,0-0.8,0-1.6v-2h-0.9v-0.7L203.7,494.9z M207.1,492.2h0.9v3.6l0,0
	c0.4-0.6,1.1-1,1.8-1c1.3,0,1.7,0.6,1.7,1.7c0,0.4,0,0.8,0,1.3v2.7h-0.9V498c0-0.5,0-1,0-1.5s-0.4-0.9-1-0.9c-0.7,0.1-1.3,0.4-1.6,1
	v3.8h-1L207.1,492.2z M213.7,497.6v0.2c0,1.1,0.4,2.2,1.6,2.2c0.6-0.1,1.2-0.3,1.6-0.8l0.4,0.5c-0.5,0.6-1.3,1-2.1,1
	c-1.5,0-2.4-1.1-2.4-2.9c-0.1-1.5,1-2.8,2.5-2.9c1.5,0,2.1,1.1,2.1,2.6v0.2L213.7,497.6z M216.5,497c0-0.8-0.3-1.5-1.2-1.5
	c-0.8,0.1-1.4,0.7-1.5,1.5H216.5z M224,494.8c1.6,0,2.6,1.1,2.6,2.9c0.1,1.5-1,2.8-2.5,2.9H224c-1.6,0-2.6-1.1-2.6-2.9
	c-0.1-1.5,1-2.8,2.5-2.9C223.9,494.8,223.9,494.8,224,494.8L224,494.8z M223.9,499.9c0.8,0,1.7-0.7,1.7-2.2s-0.7-2.2-1.6-2.2
	s-1.7,0.7-1.7,2.2S223,499.9,223.9,499.9L223.9,499.9z M227.2,494.9h1.1c0-0.4,0-0.7,0.1-1.1c0.1-1.3,1-1.8,2.3-1.8v0.7h-0.4
	c-0.7,0-1.1,0.6-1.1,1.3v0.9h1.5v0.7h-1.5v4.8h-0.9v-4.8h-1.1L227.2,494.9z M230.7,494.9h1.1c0-0.3,0-0.7,0-1.1
	c0.1-1.3,1.1-1.8,2.3-1.8v0.7h-0.4c-0.7,0-1,0.6-1.1,1.3v0.9h3.2v5.5h-0.9v-4.8h-2.3v4.8h-0.9l0.1-4.8h-1.1L230.7,494.9z
	 M234.9,492.8h0.9v1h-0.9V492.8z"/>
<text transform="matrix(1 0 0 1 233.5 500.39)" class="st26 st28 st18"> ce. What does he do?</text>
<text transform="matrix(1 0 0 1 86.96 513.89)" class="st26 st27 st18">Operator:  </text>
<text transform="matrix(1 0 0 1 160.96 513.89)" class="st26 st28 st18">Let me see. On Mondays, he visits the sto</text>
<text transform="matrix(1 0 0 1 359.01 513.89)" class="st26 st28 st18">r</text>
<text transform="matrix(1 0 0 1 362.57 513.89)" class="st26 st28 st18">es in the</text>
<text transform="matrix(1 0 0 1 160.96 527.39)" class="st26 st28 st18">suburbs. On </text>
<text transform="matrix(1 0 0 1 222.11 527.39)" class="st26 st28 st18">T</text>
<text transform="matrix(1 0 0 1 227.42 527.39)" class="st26 st28 st18">uesdays, he has meetings with his</text>
<text transform="matrix(1 0 0 1 160.96 540.89)" class="st26 st28 st18">business partners. On </text>
<text transform="matrix(1 0 0 1 266.11 540.89)" class="st26 st28 st18">W</text>
<text transform="matrix(1 0 0 1 276.7 540.89)" class="st26 st28 st18">ednesdays, he plays golf</text>
<path class="st26" d="M166.5,554.2c-0.3,0.2-0.6,0.4-1,0.4c-0.5,0-0.8-0.4-0.8-0.9c-0.4,0.5-1,0.9-1.6,0.9c-0.8,0.1-1.5-0.6-1.6-1.4
	c0-0.1,0-0.1,0-0.2c0-1.5,2-1.9,3.2-2c0-0.2,0-0.5,0-0.7c0-0.4-0.3-0.8-0.7-0.8h-0.1c-0.4,0-0.8,0.2-1.6,0.8l-0.4-0.6
	c1.1-0.7,1.4-0.9,2.3-0.9c0.7-0.1,1.3,0.4,1.4,1.1c0,0.1,0,0.2,0,0.3c0,1-0.1,2-0.1,3c0,0.4,0.1,0.8,0.4,0.8c0.2,0,0.3-0.1,0.5-0.2
	L166.5,554.2z M164.6,551.5c-1.5,0.2-2.3,0.5-2.3,1.4c0,0.5,0.3,0.9,0.8,0.9c0.1,0,0.1,0,0.2,0c0.5-0.1,1-0.4,1.3-0.8V551.5z
	 M167.3,546.1h0.9l-0.1,8.3h-0.9L167.3,546.1z M169.7,546.1h0.9l-0.1,8.3h-0.9L169.7,546.1z M178.8,546.1h0.9l-0.1,8.3h-0.9v-0.7
	l0,0c-0.4,0.6-1,0.9-1.7,0.9c-0.9,0-2.2-0.7-2.2-2.9c-0.1-1.5,1-2.8,2.5-2.9c0.6,0,1.1,0.2,1.4,0.7l0,0L178.8,546.1z M178.8,550.4
	c-0.2-0.5-0.8-0.9-1.3-0.9c-1,0-1.6,1.1-1.6,2.2c0,1.5,0.7,2.2,1.4,2.2c0.6,0,1.2-0.4,1.5-1L178.8,550.4z M186.1,554.1
	c-0.3,0.2-0.6,0.4-1,0.4c-0.5,0-0.8-0.5-0.8-0.9c-0.4,0.5-1,0.9-1.6,0.9c-0.8,0.1-1.5-0.6-1.6-1.4V553c0-1.5,2-1.9,3.2-2
	c0-0.2,0-0.5,0-0.7c0-0.4-0.3-0.8-0.7-0.8h-0.1c-0.4,0-0.8,0.2-1.6,0.8l-0.4-0.6c1.1-0.7,1.4-0.9,2.2-0.9c0.7-0.1,1.3,0.4,1.4,1.1
	c0,0.1,0,0.2,0,0.3c0,1-0.1,2-0.1,3c0,0.4,0.1,0.8,0.4,0.8c0.2,0,0.3-0.1,0.5-0.2L186.1,554.1z M184.2,551.5
	c-1.5,0.2-2.3,0.5-2.3,1.4c0,0.5,0.3,0.9,0.8,0.9c0.1,0,0.2,0,0.2,0c0.5-0.1,1-0.4,1.3-0.8V551.5z M186.4,556.3
	c0.9,0,1.1-0.2,1.3-0.7l0.6-1.3l-2-5.3l1-0.3l1.5,4.5l0,0l1.7-4.5l0.9,0.3l-2.4,6c-0.6,1.5-0.9,1.9-2.1,1.9h-0.4L186.4,556.3z
	 M191.6,553.3h1v1.1h-1V553.3z M201.3,546.6c2.1-0.1,3.9,1.5,4,3.6c0,0.1,0,0.3,0,0.4c0.1,2.1-1.6,3.9-3.8,4c-0.1,0-0.1,0-0.2,0
	c-2.1,0.1-3.9-1.5-4-3.6c0-0.1,0-0.3,0-0.4c-0.1-2.1,1.6-3.9,3.8-4C201.1,546.6,201.2,546.6,201.3,546.6L201.3,546.6z M201.3,553.7
	c1.7,0.1,3.2-1.2,3.3-3s-1.2-3.2-3-3.3c-1.7-0.1-3.2,1.2-3.3,3c0,0.1,0,0.1,0,0.2c-0.1,1.7,1.2,3.1,2.8,3.2
	C201.1,553.7,201.2,553.7,201.3,553.7L201.3,553.7z M206.7,548.9h0.9v0.9l0,0c0.4-0.6,1.1-1,1.9-1c1.3,0,1.7,0.7,1.7,1.7
	c0,0.4,0,0.8,0,1.3v2.7h-0.9V552c0-0.5,0-1,0-1.5s-0.4-0.9-1-0.9c-0.7,0.1-1.3,0.4-1.6,1v3.8h-0.9L206.7,548.9z M215.2,546.8h5.8
	v0.8h-2.4l-0.1,6.8h-1l0.1-6.8h-2.4L215.2,546.8z M222,546.1h0.9v3.6l0,0c0.4-0.6,1.1-1,1.8-1c1.3,0,1.7,0.7,1.7,1.7
	c0,0.4,0,0.8,0,1.3v2.7h-0.9v-2.5c0-0.5,0-1,0-1.5s-0.4-0.9-1-0.9c-0.7,0.1-1.3,0.4-1.6,1v3.8H222V546.1z M228.1,548.9h0.9v2.5
	c0,0.5,0,1,0,1.5s0.4,0.9,1,0.9c0.7-0.1,1.3-0.4,1.6-1V549h0.9l-0.1,5.5h-0.9v-0.9l0,0c-0.4,0.6-1.1,1-1.9,1c-1.3,0-1.7-0.6-1.7-1.7
	c0-0.4,0-0.8,0-1.3L228.1,548.9z M234.3,548.9h0.9v1.1l0,0c0.2-0.7,0.8-1.2,1.5-1.2c0.2,0,0.3,0,0.5,0.1l-0.3,0.8
	c-0.1,0-0.2,0-0.3,0c-0.4,0-1,0.3-1.4,1.2v3.6h-0.9V548.9z M237.8,553.4c0.3,0.3,0.8,0.4,1.2,0.5c0.5,0,1-0.4,1-0.9
	c0-1.4-2.5-0.8-2.5-2.6c0-0.9,0.8-1.7,1.7-1.6h0.1c0.6,0,1.1,0.2,1.6,0.5l-0.4,0.6c-0.3-0.2-0.6-0.3-1-0.4c-0.6,0-1.1,0.3-1.1,0.9
	c0,1.2,2.5,0.7,2.5,2.5c0,0.9-0.8,1.7-1.8,1.7l0,0c-0.6,0-1.2-0.2-1.7-0.5L237.8,553.4z M245.7,546.1h0.9l-0.1,8.3h-0.9v-0.7l0,0
	c-0.4,0.6-1,0.9-1.7,0.9c-0.9,0-2.2-0.7-2.2-2.9c-0.1-1.5,1-2.8,2.5-2.9c0.6,0,1.1,0.2,1.4,0.7l0,0L245.7,546.1z M245.7,550.4
	c-0.2-0.5-0.8-0.9-1.3-0.9c-1,0-1.6,1.1-1.6,2.2c0,1.5,0.7,2.2,1.4,2.2c0.6,0,1.2-0.4,1.5-1L245.7,550.4z M253,554.1
	c-0.3,0.2-0.6,0.4-1,0.4c-0.5,0-0.8-0.5-0.8-0.9c-0.4,0.5-1,0.9-1.6,0.9c-0.8,0-1.5-0.6-1.6-1.4c0-0.1,0-0.1,0-0.2
	c0-1.5,2-1.9,3.2-2c0-0.2,0-0.5,0-0.7c0-0.4-0.3-0.8-0.7-0.8h-0.1c-0.4,0-0.8,0.2-1.6,0.8l-0.4-0.6c1.1-0.7,1.4-0.9,2.2-0.9
	c0.7-0.1,1.3,0.4,1.4,1.1c0,0.1,0,0.2,0,0.3c0,1-0.1,2-0.1,3c0,0.4,0.1,0.8,0.4,0.8c0.2,0,0.3-0.1,0.5-0.2L253,554.1z M251,551.5
	c-1.5,0.2-2.3,0.5-2.3,1.4c0,0.5,0.3,0.9,0.8,0.9c0.1,0,0.2,0,0.2,0c0.5-0.1,1-0.4,1.3-0.8V551.5z M253.2,556.3
	c0.9,0,1.1-0.2,1.3-0.7l0.6-1.3l-2-5.3l1-0.3l1.5,4.5l0,0l1.7-4.5l0.9,0.3l-2.4,6c-0.6,1.5-0.9,1.9-2.1,1.9h-0.4L253.2,556.3z
	 M259.1,553.4c0.3,0.3,0.8,0.4,1.2,0.5c0.5,0,1-0.4,1.1-0.9c0-1.4-2.5-0.8-2.5-2.6c0-0.9,0.8-1.7,1.7-1.6h0.1c0.6,0,1.1,0.2,1.6,0.5
	l-0.4,0.6c-0.3-0.2-0.7-0.3-1-0.4c-0.6,0-1.1,0.3-1.1,0.9c0,1.2,2.5,0.7,2.5,2.5c0,0.9-0.8,1.7-1.8,1.7c0,0,0,0-0.1,0
	c-0.6,0-1.2-0.2-1.7-0.5L259.1,553.4z M263.7,553.3h1.3l-0.8,2.6h-0.4L263.7,553.3z M269.6,546.1h0.9v3.6l0,0c0.4-0.6,1.1-1,1.8-1
	c1.3,0,1.7,0.7,1.7,1.7c0,0.4,0,0.8,0,1.3v2.7h-0.9v-2.5c0-0.5,0-1,0-1.5s-0.4-0.9-1-0.9c-0.7,0.1-1.3,0.4-1.6,1v3.8h-0.9V546.1z
	 M276.3,551.5v0.2c0,1.1,0.4,2.2,1.5,2.2c0.6-0.1,1.2-0.3,1.6-0.8l0.4,0.5c-0.5,0.6-1.3,1-2.1,1c-1.5,0-2.4-1.1-2.4-2.9
	c-0.1-1.5,1-2.8,2.5-2.9c1.5,0,2.1,1.1,2.1,2.6v0.2L276.3,551.5z M279.1,550.9c0-0.8-0.3-1.5-1.2-1.5c-0.8,0.1-1.4,0.7-1.5,1.5
	H279.1z M287.7,550.1c-0.3-0.4-0.7-0.6-1.2-0.6c-0.8,0-1.6,0.8-1.6,2.3c-0.1,1,0.6,1.9,1.6,2l0,0c0.5,0,1-0.3,1.3-0.7l0.5,0.5
	c-0.4,0.6-1.1,0.9-1.9,0.9c-1.4,0-2.4-1.1-2.4-2.9c-0.1-1.5,1.1-2.8,2.6-2.9c0.7,0,1.4,0.3,1.8,0.9L287.7,550.1z M291.4,548.8
	c1.6,0,2.6,1.1,2.6,2.9c0.1,1.5-1.1,2.8-2.6,2.9h-0.1c-1.6,0-2.6-1.1-2.6-2.9c-0.1-1.5,1.1-2.8,2.6-2.9
	C291.4,548.8,291.4,548.8,291.4,548.8L291.4,548.8z M291.3,553.9c0.8,0,1.7-0.7,1.7-2.2s-0.7-2.2-1.6-2.2s-1.7,0.7-1.7,2.2
	S290.5,553.9,291.3,553.9L291.3,553.9z M295.3,548.9h0.9v0.8l0,0c0.4-0.6,1.1-1,1.8-1c0.6-0.1,1.2,0.4,1.4,1c0.5-0.6,1.2-0.9,1.9-1
	c1.1,0,1.5,0.7,1.5,1.7c0,0.4,0,0.8,0,1.3v2.7H302v-2.5c0-0.5,0-1,0-1.5c0-0.4-0.3-0.8-0.7-0.9h-0.1c-0.6,0.1-1.2,0.4-1.6,0.9
	l-0.1,3.9h-0.9v-2.5c0-0.5,0-1,0-1.5c0-0.4-0.3-0.8-0.7-0.9h-0.1c-0.6,0.1-1.2,0.4-1.6,0.9l-0.1,3.9h-0.9L295.3,548.9z M305,551.5
	v0.2c0,1.1,0.4,2.2,1.5,2.2c0.6,0,1.2-0.3,1.6-0.8l0.4,0.5c-0.5,0.6-1.3,1-2.1,1c-1.5,0-2.4-1.1-2.4-2.9c-0.1-1.5,1-2.8,2.5-2.9
	c1.5,0,2.1,1.1,2.1,2.6v0.2L305,551.5z M307.8,550.9c0-0.8-0.3-1.5-1.2-1.5c-0.8,0.1-1.4,0.7-1.5,1.5H307.8z M309.9,553.4
	c0.3,0.3,0.8,0.4,1.2,0.5c0.5,0,1-0.3,1.1-0.9c0-1.4-2.5-0.8-2.5-2.6c0-0.9,0.8-1.7,1.7-1.6h0.1c0.6,0,1.1,0.2,1.6,0.5l-0.4,0.6
	c-0.3-0.2-0.6-0.3-1-0.4c-0.6,0-1.1,0.3-1.1,0.9c0,1.2,2.5,0.7,2.5,2.5c0,0.9-0.8,1.7-1.8,1.7l0,0c-0.6,0-1.2-0.2-1.7-0.5
	L309.9,553.4z M317.7,548.9v-2h0.9v2h1.4v0.7h-1.5v2.3c0,0.6,0,1,0,1.3c0,0.5,0.1,0.7,0.5,0.7c0.3,0,0.6-0.1,0.9-0.3l0.3,0.6
	c-0.4,0.3-0.9,0.4-1.4,0.5c-0.9,0-1.2-0.5-1.2-1.4c0-0.4,0-0.8,0-1.6v-2h-0.9V549L317.7,548.9z M323.3,548.7c1.6,0,2.6,1.1,2.6,2.9
	c0.1,1.5-1.1,2.8-2.6,2.9h-0.1c-1.6,0-2.6-1.1-2.6-2.9C320.5,550.1,321.7,548.8,323.3,548.7C323.2,548.8,323.2,548.8,323.3,548.7
	L323.3,548.7z M323.2,553.8c0.8,0,1.7-0.7,1.7-2.2s-0.7-2.2-1.6-2.2s-1.7,0.7-1.7,2.2S322.3,553.9,323.2,553.8L323.2,553.8z
	 M330.5,548.8v-2h0.9v2h1.5v0.7h-1.5v2.3c0,0.6,0,1,0,1.3c0,0.5,0.1,0.7,0.5,0.7c0.3,0,0.6-0.1,0.9-0.3l0.3,0.6
	c-0.4,0.3-0.9,0.4-1.4,0.5c-0.9,0-1.2-0.5-1.2-1.4c0-0.4,0-0.8,0-1.6v-2h-0.9v-0.7L330.5,548.8z M333.9,546.1h0.9v3.6l0,0
	c0.4-0.6,1.1-1,1.8-1c1.3,0,1.7,0.7,1.7,1.7c0,0.4,0,0.8,0,1.3v2.7h-0.9v-2.5c0-0.5,0-1,0-1.5s-0.4-0.9-1-0.9
	c-0.7,0.1-1.3,0.4-1.6,1v3.8h-0.9V546.1z M340.5,551.5v0.2c0,1.1,0.4,2.2,1.5,2.2c0.6,0,1.2-0.3,1.6-0.8l0.4,0.5
	c-0.5,0.6-1.3,1-2.1,1c-1.5,0-2.4-1.1-2.4-2.9c-0.1-1.5,1-2.8,2.5-2.9c1.5,0,2.1,1.1,2.1,2.6v0.2L340.5,551.5z M343.3,550.9
	c0-0.8-0.3-1.5-1.2-1.5c-0.8,0.1-1.4,0.7-1.5,1.5H343.3z M350.8,548.7c1.6,0,2.6,1.1,2.6,2.9c0.1,1.5-1.1,2.8-2.6,2.9h-0.1
	c-1.6,0-2.6-1.1-2.6-2.9C348,550.1,349.2,548.8,350.8,548.7C350.7,548.8,350.8,548.8,350.8,548.7L350.8,548.7z M350.7,553.8
	c0.8,0,1.7-0.7,1.7-2.2s-0.7-2.2-1.6-2.2s-1.7,0.7-1.7,2.2S349.8,553.9,350.7,553.8L350.7,553.8z M354,548.8h1.1c0-0.3,0-0.7,0-1
	c0.1-1.3,1-1.8,2.3-1.8v0.7H357c-0.7,0-1.1,0.6-1.1,1.3v0.9h1.5v0.7H356v4.8h-1v-4.8h-1V548.8z M357.5,548.8h1.1c0-0.3,0-0.7,0-1
	c0.1-1.3,1-1.8,2.3-1.8v0.7h-0.4c-0.7,0-1.1,0.6-1.1,1.3v0.9h3.2v5.5h-0.9v-4.8h-2.3v4.8h-0.9v-4.8h-1.1L357.5,548.8z M361.6,546.7
	h1v1h-1V546.7z"/>
<text transform="matrix(1 0 0 1 360.29 554.39)" class="st26 st28 st18"> ce in the </text>
<text transform="matrix(1 0 0 1 160.96 567.89)" class="st26 st28 st18">afternoon, and on Fridays he visits the sto</text>
<text transform="matrix(1 0 0 1 358.4 567.89)" class="st26 st28 st18">r</text>
<text transform="matrix(1 0 0 1 361.95 567.89)" class="st26 st28 st18">es up north.</text>
<text transform="matrix(1 0 0 1 86.96 581.39)" class="st26 st27 st18">Mrs. Sanders:</text>
<text transform="matrix(1 0 0 1 160.95 581.39)" class="st26 st28 st18">W</text>
<text transform="matrix(1 0 0 1 171.55 581.39)" class="st26 st28 st18">ell, today is Thursday and …</text>
<text transform="matrix(1 0 0 1 86.96 594.89)" class="st26 st27 st18">M</text>
<text transform="matrix(1 0 0 1 97.34 594.89)" class="st26 st27 st18">r</text>
<text transform="matrix(1 0 0 1 100.4 594.89)" class="st26 st27 st18">. Green:</text>
<text transform="matrix(1 0 0 1 160.96 594.89)" class="st26 st28 st18">Good afternoon, Monica.</text>
<text transform="matrix(1 0 0 1 86.96 608.39)" class="st26 st27 st18">Operator:  </text>
<text transform="matrix(1 0 0 1 160.96 608.39)" class="st26 st28 st18">This is your lucky da</text>
<text transform="matrix(1 0 0 1 256.32 608.39)" class="st26 st28 st18">y</text>
<text transform="matrix(1 0 0 1 260.83 608.39)" class="st26 st28 st18">, Mrs. Sanders. M</text>
<text transform="matrix(1 0 0 1 344.56 608.39)" class="st26 st28 st18">r</text>
<text transform="matrix(1 0 0 1 347.34 608.39)" class="st26 st28 st18">. G</text>
<text transform="matrix(1 0 0 1 361.4 608.39)" class="st26 st28 st18">r</text>
<text transform="matrix(1 0 0 1 364.95 608.39)" class="st26 st28 st18">een is he</text>
<text transform="matrix(1 0 0 1 406.52 608.39)" class="st26 st28 st18">r</text>
<text transform="matrix(1 0 0 1 410.07 608.39)" class="st26 st28 st18">e no</text>
<text transform="matrix(1 0 0 1 430.86 608.39)" class="st26 st28 st18">w</text>
<text transform="matrix(1 0 0 1 438.62 608.39)" class="st26 st28 st18">.</text>
<text transform="matrix(1 0 0 1 86.96 621.89)" class="st26 st27 st18">Mrs. Sanders:</text>
<text transform="matrix(1 0 0 1 160.95 621.89)" class="st26 st28 st18">Just in time to catch him!</text>
<g>
	<g>
		<g>
			<g>
				<defs>
					<rect id="SVGID_29_" x="433.6" y="421.1" width="133.2" height="160.1"/>
				</defs>
				<clipPath id="SVGID_30_">
					<use xlink:href="#SVGID_29_"  style="overflow:visible;"/>
				</clipPath>
				<g class="st36">
					<g>
						<g>
							<g>
								<g>
									<defs>
										<rect id="SVGID_31_" x="433.6" y="421.1" width="133.2" height="160.1"/>
									</defs>
									<clipPath id="SVGID_32_">
										<use xlink:href="#SVGID_31_"  style="overflow:visible;"/>
									</clipPath>
									<g class="st37">
										
											<image style="overflow:visible;enable-background:new    ;" width="556" height="668" xlink:href="A47521F7.png"  transform="matrix(0.2396 0 0 0.2396 433.58 421.1342)">
										</image>
									</g>
								</g>
							</g>
						</g>
					</g>
				</g>
			</g>
		</g>
	</g>
</g>
<path class="st38" d="M467.3,641h99.8v26.3h-99.8V641z M367.5,641h99.8v26.3h-99.8V641z M267.8,641h99.8v26.3h-99.8V641z M168,641
	h99.8v26.3H168V641z M68.2,641H168v26.3H68.2V641z"/>
<path class="st31" d="M467.3,749.7h100 M67.9,749.7h399.4 M567.1,749.4v-82 M467.3,749.4v-82 M467.3,667.2h100 M367.5,749.4v-82
	 M367.5,667.1h99.8 M267.7,749.3v-82 M267.7,667.1h99.8 M168,749.4v-82 M168,667.2h99.8 M68.2,749.4v-82 M68,667.2h100 M567.1,667
	v-25.8 M467.3,667v-25.8 M467.3,641h100 M367.5,667v-25.8 M367.5,641h99.8 M267.8,667v-25.8 M267.8,641h99.8 M168,667v-25.8
	 M168,641h99.8 M68.2,667v-25.8 M68,641h100"/>
<text transform="matrix(1 0 0 1 98.24 658.24)" class="st26 st27 st18">Monda</text>
<text transform="matrix(1 0 0 1 132.47 658.24)" class="st26 st27 st18 st39">y</text>
<text transform="matrix(1 0 0 1 198.52 658.24)" class="st26 st27 st18">T</text>
<text transform="matrix(1 0 0 1 203.65 658.24)" class="st26 st27 st18">uesda</text>
<text transform="matrix(1 0 0 1 231.76 658.24)" class="st26 st27 st18 st40">y</text>
<text transform="matrix(1 0 0 1 289.76 658.24)" class="st26 st27 st18">W</text>
<text transform="matrix(1 0 0 1 300.35 658.24)" class="st26 st27 st18">ednesda</text>
<text transform="matrix(1 0 0 1 340.07 658.24)" class="st26 st27 st18 st41">y</text>
<text transform="matrix(1 0 0 1 395.44 658.24)" class="st26 st27 st18">Thursda</text>
<text transform="matrix(1 0 0 1 433.94 658.24)" class="st26 st27 st18 st42">y</text>
<text transform="matrix(1 0 0 1 502.54 658.24)" class="st26 st27 st18">Friday</text>
<text transform="matrix(1 0 0 1 275.77 684.49)" class="st19 st43 st18">Plays golf all da</text>
<text transform="matrix(1 0 0 1 350.97 684.49)" class="st19 st43 st18">y</text>
<text transform="matrix(1 0 0 1 355.66 684.49)" class="st19 st43 st18">.</text>
<g>
	
		<image style="overflow:visible;opacity:0.39;enable-background:new    ;" width="310" height="93" xlink:href="4BBD45EF.png"  transform="matrix(1 0 0 1 146 11)">
	</image>
	<g>
		
			<image style="overflow:visible;opacity:0.8;enable-background:new    ;" width="293" height="72" xlink:href="4BBD45E2.png"  transform="matrix(1 0 0 1 152 14)">
		</image>
		<g>
			<text transform="matrix(1 0 0 1 167.1798 45.0997)" class="st0 st44 st45">LISTENING AND WRITTING</text>
			<text transform="matrix(1 0 0 1 167.1798 66.6997)" class="st0 st44 st45">Clock and days of the week</text>
		</g>
	</g>
</g>
</svg>
