<?xml version="1.0" encoding="utf-8"?>
<!-- Generator: Adobe Illustrator 24.1.2, SVG Export Plug-In . SVG Version: 6.00 Build 0)  -->
<svg version="1.1" id="Capa_1" xmlns="http://www.w3.org/2000/svg" xmlns:xlink="http://www.w3.org/1999/xlink" x="0px" y="0px"
	 viewBox="0 0 652 822" style="enable-background:new 0 0 652 822;" xml:space="preserve">
<style type="text/css">
	.st0{fill:#FFFFFF;}
	.st1{clip-path:url(#SVGID_2_);}
	.st2{fill:#D6D087;}
	.st3{fill:#F6F2C2;}
	.st4{clip-path:url(#SVGID_4_);}
	.st5{clip-path:url(#SVGID_6_);}
	.st6{fill:#DB9600;}
	.st7{clip-path:url(#SVGID_8_);}
	.st8{clip-path:url(#SVGID_10_);}
	.st9{fill:#E7B700;}
	.st10{fill:#E6B500;}
	.st11{fill:#E1A600;}
	.st12{fill:#EBC000;}
	.st13{fill:#EABF00;}
	.st14{clip-path:url(#SVGID_12_);}
	.st15{fill:#CA7104;}
	.st16{fill:#E2AC52;}
	.st17{fill:#BF0811;}
	.st18{font-family:'SyntaxLTStd-Black';}
	.st19{font-size:11px;}
	.st20{fill:#5775B3;}
	.st21{clip-path:url(#SVGID_14_);}
	.st22{clip-path:url(#SVGID_16_);}
	.st23{clip-path:url(#SVGID_18_);}
	.st24{clip-path:url(#SVGID_20_);}
	.st25{fill:none;stroke:#5775B3;}
	.st26{fill:none;stroke:#5775B3;stroke-width:0.9;}
	.st27{font-size:7px;}
	.st28{fill:#211915;}
	.st29{font-family:'SyntaxLTStd-Bold';}
	.st30{font-size:10.9824px;}
	.st31{font-size:11.2693px;}
	.st32{clip-path:url(#SVGID_22_);}
	.st33{clip-path:url(#SVGID_24_);}
	.st34{fill:none;stroke:#9A999E;stroke-width:0.5;stroke-miterlimit:10;}
	.st35{fill:none;stroke:#211915;stroke-width:0.5;}
	.st36{clip-path:url(#SVGID_26_);}
	.st37{clip-path:url(#SVGID_28_);}
	.st38{clip-path:url(#SVGID_30_);}
	.st39{clip-path:url(#SVGID_32_);}
	.st40{clip-path:url(#SVGID_34_);}
	.st41{clip-path:url(#SVGID_36_);}
	.st42{clip-path:url(#SVGID_38_);}
	.st43{clip-path:url(#SVGID_40_);}
	.st44{clip-path:url(#SVGID_42_);}
	.st45{clip-path:url(#SVGID_44_);}
	.st46{clip-path:url(#SVGID_46_);}
	.st47{clip-path:url(#SVGID_48_);}
	.st48{clip-path:url(#SVGID_50_);}
	.st49{clip-path:url(#SVGID_52_);}
	.st50{clip-path:url(#SVGID_54_);}
	.st51{clip-path:url(#SVGID_56_);}
	.st52{clip-path:url(#SVGID_58_);}
	.st53{clip-path:url(#SVGID_60_);}
	.st54{font-family:'SyntaxLTStd-Roman';}
	.st55{font-family:'Gabriel-Sans-Bold';}
	.st56{font-size:18px;}
</style>
<rect x="-5.7" y="-6.1" class="st0" width="662.5" height="831.8"/>
<g>
	<g>
		<g>
			<g>
				<defs>
					<rect id="SVGID_1_" x="13.8" y="14.8" width="14.2" height="793.7"/>
				</defs>
				<clipPath id="SVGID_2_">
					<use xlink:href="#SVGID_1_"  style="overflow:visible;"/>
				</clipPath>
				<g class="st1">
					<rect x="13.8" y="84.3" class="st2" width="14.2" height="4"/>
				</g>
			</g>
		</g>
	</g>
</g>
<rect x="575.2" y="760.6" class="st3" width="15.9" height="47.9"/>
<rect x="559.2" y="760.6" class="st3" width="16" height="47.9"/>
<g>
	<g>
		<g>
			<g>
				<defs>
					<rect id="SVGID_3_" x="28" y="14.8" width="609.5" height="793.7"/>
				</defs>
				<clipPath id="SVGID_4_">
					<use xlink:href="#SVGID_3_"  style="overflow:visible;"/>
				</clipPath>
				<g class="st4">
					<rect x="591.1" y="760.6" class="st3" width="46.3" height="47.9"/>
					<rect x="28" y="84.3" class="st2" width="609.5" height="4"/>
				</g>
			</g>
		</g>
	</g>
</g>
<g>
	<g>
		<g>
			<g>
				<defs>
					<rect id="SVGID_5_" x="13.8" y="14.8" width="14.2" height="793.7"/>
				</defs>
				<clipPath id="SVGID_6_">
					<use xlink:href="#SVGID_5_"  style="overflow:visible;"/>
				</clipPath>
				<g class="st5">
					<rect x="13.8" y="14.8" class="st6" width="14.2" height="69.6"/>
				</g>
			</g>
		</g>
	</g>
</g>
<g>
	<g>
		<g>
			<g>
				<defs>
					<rect id="SVGID_7_" x="13.8" y="14.8" width="14.2" height="69.6"/>
				</defs>
				<clipPath id="SVGID_8_">
					<use xlink:href="#SVGID_7_"  style="overflow:visible;"/>
				</clipPath>
				<g class="st7">
					<polyline class="st6" points="7.4,84.3 -66.3,84.3 -66.3,68 -13,14.8 23.7,14.8 23.7,68 7.4,84.3 					"/>
				</g>
			</g>
		</g>
	</g>
</g>
<g>
	<g>
		<g>
			<g>
				<defs>
					<rect id="SVGID_9_" x="28" y="14.8" width="609.5" height="793.7"/>
				</defs>
				<clipPath id="SVGID_10_">
					<use xlink:href="#SVGID_9_"  style="overflow:visible;"/>
				</clipPath>
				<g class="st8">
					<rect x="130.5" y="14.8" class="st6" width="507" height="69.6"/>
				</g>
			</g>
		</g>
	</g>
</g>
<polyline class="st6" points="602.7,84.3 559,84.3 559,38 582.3,14.8 619,14.8 619,68 602.7,84.3 "/>
<polyline class="st9" points="478.2,84.3 478.2,84.3 511.8,50.8 478.2,84.3 "/>
<polyline class="st9" points="459.8,84.3 459.8,84.3 446.4,70.9 446.4,70.9 459.8,84.3 "/>
<polyline class="st9" points="511.8,50.8 511.8,50.8 547.7,14.8 511.8,50.8 "/>
<polyline class="st9" points="559,38 559,14.8 582.2,14.8 559,38 "/>
<polyline class="st6" points="379,84.3 368.3,84.3 368.3,59.1 368.3,59.1 379,48.4 379,84.3 "/>
<polyline class="st6" points="439,63.5 401.4,25.9 401.4,25.9 439,63.5 439,63.5 "/>
<polyline class="st9" points="446.4,70.9 439,63.5 439,63.5 446.4,70.9 446.4,70.9 "/>
<polyline class="st10" points="368.3,84.3 303.5,84.3 278.3,59.1 278.3,14.8 324,14.8 368.3,59.1 368.3,84.3 "/>
<path class="st10" d="M401.4,25.9l-11.2-11.2l0,0L401.4,25.9L401.4,25.9 M368.3,59.1L324,14.8h55v33.6L368.3,59.1"/>
<polyline class="st6" points="529,68 511.8,50.8 511.8,50.8 529,68 559,38 559,38 529,68 "/>
<polyline class="st6" points="559,84.3 529,84.3 529,68 529,68 559,38 559,84.3 "/>
<polyline class="st11" points="529,84.3 478.2,84.3 511.8,50.8 529,68 529,84.3 "/>
<polyline class="st11" points="529,68 511.8,50.8 547.7,14.8 559,14.8 559,38 529,68 "/>
<polyline class="st10" points="455.3,84.3 433,84.3 444.2,73.2 455.3,84.3 "/>
<polyline class="st12" points="459.8,84.3 455.3,84.3 444.2,73.2 446.4,70.9 459.8,84.3 "/>
<polyline class="st10" points="379,48.4 379,48.4 401.4,25.9 401.4,25.9 379,48.4 "/>
<polyline class="st10" points="433,84.3 379,84.3 379,48.4 401.4,25.9 439,63.5 439,68 444.2,73.2 433,84.3 "/>
<polyline class="st12" points="444.2,73.2 439,68 439,63.5 446.4,70.9 444.2,73.2 "/>
<polyline class="st13" points="379,48.4 379,14.8 390.3,14.8 401.4,25.9 379,48.4 "/>
<polyline class="st10" points="511.8,50.8 475.8,14.8 475.8,14.8 511.8,50.8 511.8,50.8 "/>
<polyline class="st12" points="478.2,84.3 459.8,84.3 446.4,70.9 458.3,59.1 458.3,14.8 475.8,14.8 511.8,50.8 478.2,84.3 "/>
<polyline class="st12" points="511.8,50.8 475.8,14.8 547.7,14.8 511.8,50.8 "/>
<polyline class="st10" points="401.4,25.9 401.4,25.9 412.6,14.8 412.6,14.8 401.4,25.9 "/>
<polyline class="st10" points="439,63.5 401.4,25.9 412.6,14.8 439,14.8 439,63.5 "/>
<polyline class="st12" points="446.4,70.9 439,63.5 439,14.8 458.3,14.8 458.3,59.1 446.4,70.9 "/>
<polyline class="st13" points="401.4,25.9 390.3,14.8 412.6,14.8 401.4,25.9 "/>
<g>
	<g>
		<g>
			<g>
				<defs>
					<rect id="SVGID_11_" x="28" y="14.8" width="609.5" height="793.7"/>
				</defs>
				<clipPath id="SVGID_12_">
					<use xlink:href="#SVGID_11_"  style="overflow:visible;"/>
				</clipPath>
				<g class="st14">
					<polyline class="st15" points="174.1,68.7 174.1,14.8 28,14.8 28,84.3 158.4,84.3 174.1,68.7 					"/>
				</g>
			</g>
		</g>
	</g>
</g>
<polyline class="st6" points="571.4,767.6 559.2,760.6 559.2,774.7 571.4,781.7 571.4,767.6 "/>
<polyline class="st15" points="571.4,781.7 583.6,774.7 583.6,760.6 571.4,767.6 571.4,781.7 "/>
<polyline class="st16" points="559.2,760.6 571.4,767.6 583.6,760.6 571.4,753.5 559.2,760.6 "/>
<text transform="matrix(1 0 0 1 84.7 138.84)" class="st17 st18 st19">1.  </text>
<polyline class="st20" points="113.8,131.4 113.8,137.6 127.1,142.5 136.8,138.5 136.8,130.5 127.1,126.5 113.8,131.4 "/>
<g>
	<g>
		<g>
			<g>
				<defs>
					<path id="SVGID_13_" d="M113.8,145.1c-5.8,0-10.6-4.7-10.6-10.6c0-5.8,4.7-10.6,10.6-10.6c5.8,0,10.6,4.7,10.6,10.6
						S119.6,145.1,113.8,145.1L113.8,145.1"/>
				</defs>
				<clipPath id="SVGID_14_">
					<use xlink:href="#SVGID_13_"  style="overflow:visible;"/>
				</clipPath>
				<g class="st21">
					<g>
						<g>
							<g>
								<g>
									<defs>
										<rect id="SVGID_15_" x="103.2" y="123.9" width="21.2" height="21.1"/>
									</defs>
									<clipPath id="SVGID_16_">
										<use xlink:href="#SVGID_15_"  style="overflow:visible;"/>
									</clipPath>
									<g class="st22">
										<g>
											<g>
												<g>
													<g>
														<defs>
															<rect id="SVGID_17_" x="103.2" y="123.9" width="21.2" height="21.1"/>
														</defs>
														<clipPath id="SVGID_18_">
															<use xlink:href="#SVGID_17_"  style="overflow:visible;"/>
														</clipPath>
														<g class="st23">
															
																<image style="overflow:visible;enable-background:new    ;" width="90" height="89" xlink:href="CB1BA1.png"  transform="matrix(0.24 0 0 0.24 102.98 123.89)">
															</image>
														</g>
													</g>
												</g>
											</g>
										</g>
									</g>
								</g>
							</g>
						</g>
					</g>
				</g>
			</g>
		</g>
	</g>
</g>
<g>
	<g>
		<g>
			<g>
				<defs>
					<path id="SVGID_19_" d="M113.8,145.1c-5.8,0-10.6-4.7-10.6-10.6c0-5.8,4.7-10.6,10.6-10.6c5.8,0,10.6,4.7,10.6,10.6
						S119.6,145.1,113.8,145.1L113.8,145.1"/>
				</defs>
				<clipPath id="SVGID_20_">
					<use xlink:href="#SVGID_19_"  style="overflow:visible;"/>
				</clipPath>
				<g class="st24">
					<polyline class="st0" points="113.8,131.4 113.8,137.6 127.1,142.5 136.8,138.5 136.8,130.5 127.1,126.5 113.8,131.4 					"/>
				</g>
			</g>
		</g>
	</g>
</g>
<circle class="st25" cx="113.8" cy="134.5" r="10.6"/>
<path class="st0" d="M113.8,137.7c-1.7,0-3.2-1.4-3.2-3.2s1.4-3.2,3.2-3.2c1.7,0,3.2,1.4,3.2,3.2S115.5,137.7,113.8,137.7
	L113.8,137.7"/>
<path class="st26" d="M113.8,137.7c-1.7,0-3.2-1.4-3.2-3.2s1.4-3.2,3.2-3.2c1.7,0,3.2,1.4,3.2,3.2S115.5,137.7,113.8,137.7
	L113.8,137.7z"/>
<path class="st20" d="M113.8,135.9c-0.7,0-1.3-0.6-1.3-1.4c0-0.7,0.6-1.3,1.4-1.3c0.7,0,1.3,0.6,1.3,1.3
	C115.1,135.3,114.5,135.9,113.8,135.9L113.8,135.9"/>
<text transform="matrix(1 0 0 1 125.59 136.76)" class="st0 st18 st27">29</text>
<text transform="matrix(0.9615 0 0 1 144.7002 138.8398)" class="st28 st29 st30">L</text>
<text transform="matrix(0.9615 0 0 1 149.9399 138.8398)" class="st28 st29 st30">i</text>
<text transform="matrix(0.9615 0 0 1 152.8198 138.8398)" class="st28 st29 st30">s</text>
<text transform="matrix(0.9615 0 0 1 157.46 138.8398)" class="st28 st29 st30">t</text>
<text transform="matrix(0.9615 0 0 1 160.9199 138.8398)" class="st28 st29 st30">en</text>
<text transform="matrix(0.9615 0 0 1 171.9902 138.8398)" class="st28 st29 st30"> </text>
<text transform="matrix(0.9615 0 0 1 174.8701 138.8398)" class="st28 st29 st30">and</text>
<text transform="matrix(0.9615 0 0 1 191.77 138.8398)" class="st28 st29 st30"> </text>
<text transform="matrix(0.9615 0 0 1 194.6499 138.8398)" class="st28 st29 st30">or</text>
<text transform="matrix(0.9615 0 0 1 203.9502 138.8398)" class="st28 st29 st30">d</text>
<text transform="matrix(0.9615 0 0 1 209.77 138.8398)" class="st28 st29 st30">e</text>
<text transform="matrix(0.9615 0 0 1 215.0098 138.8398)" class="st28 st29 st30">r</text>
<text transform="matrix(0.9615 0 0 1 218.4702 138.8398)" class="st28 st29 st30"> t</text>
<text transform="matrix(0.9615 0 0 1 224.8398 138.8398)" class="st28 st29 st30">h</text>
<text transform="matrix(0.9615 0 0 1 230.6602 138.8398)" class="st28 st29 st30">e</text>
<text transform="matrix(0.9615 0 0 1 235.8999 138.8398)" class="st28 st29 st30"> </text>
<text transform="matrix(0.9615 0 0 1 238.7798 138.8398)" class="st28 st29 st30">in</text>
<text transform="matrix(0.9615 0 0 1 247.5 138.8398)" class="st28 st29 st30">g</text>
<text transform="matrix(0.9615 0 0 1 253.3198 138.8398)" class="st28 st29 st30">re</text>
<text transform="matrix(0.9615 0 0 1 262.0298 138.8398)" class="st28 st29 st30">di</text>
<text transform="matrix(0.9615 0 0 1 270.73 138.8398)" class="st28 st29 st30">en</text>
<text transform="matrix(0.9615 0 0 1 281.7998 138.8398)" class="st28 st29 st30">t</text>
<text transform="matrix(0.9615 0 0 1 285.2598 138.8398)" class="st28 st29 st30">s</text>
<text transform="matrix(0.9615 0 0 1 289.8999 138.8398)" class="st28 st29 st30"> a</text>
<text transform="matrix(0.9615 0 0 1 298.0098 138.8398)" class="st28 st29 st30">s </text>
<text transform="matrix(0.9615 0 0 1 305.54 138.8398)" class="st28 st29 st30">t</text>
<text transform="matrix(0.9615 0 0 1 309 138.8398)" class="st28 st29 st30">h</text>
<text transform="matrix(0.9615 0 0 1 314.8301 138.8398)" class="st28 st29 st30">e</text>
<text transform="matrix(0.9615 0 0 1 320.0596 138.8398)" class="st28 st29 st30">y</text>
<text transform="matrix(0.9615 0 0 1 325.2998 138.8398)" class="st28 st29 st30"> </text>
<text transform="matrix(0.9615 0 0 1 328.1797 138.8398)" class="st28 st29 st30">a</text>
<text transform="matrix(0.9615 0 0 1 333.4199 138.8398)" class="st28 st29 st30">r</text>
<text transform="matrix(0.9615 0 0 1 336.8799 138.8398)" class="st28 st29 st30">e</text>
<text transform="matrix(0.9615 0 0 1 342.1201 138.8398)" class="st28 st29 st30"> </text>
<text transform="matrix(0.9615 0 0 1 345 138.8398)" class="st28 st29 st30">m</text>
<text transform="matrix(0.9615 0 0 1 353.7598 138.8398)" class="st28 st29 st30">e</text>
<text transform="matrix(0.9615 0 0 1 358.9805 138.8398)" class="st28 st29 st30">nti</text>
<text transform="matrix(0.9615 0 0 1 371.1797 138.8398)" class="st28 st29 st30">o</text>
<text transform="matrix(0.9615 0 0 1 377 138.8398)" class="st28 st29 st30">ned.</text>
<text transform="matrix(0.9615 0 0 1 396.79 138.8398)" class="st28 st29 st30"> </text>
<text transform="matrix(0.9615 0 0 1 399.6699 138.8398)" class="st28 st29 st30">W</text>
<text transform="matrix(0.9615 0 0 1 409.9902 138.8398)" class="st28 st29 st30">r</text>
<text transform="matrix(0.9615 0 0 1 413.46 138.8398)" class="st28 st29 st30">i</text>
<text transform="matrix(0.9615 0 0 1 416.3398 138.8398)" class="st28 st29 st30">te</text>
<text transform="matrix(0.9392 0 -0.2108 0.9775 427.55 138.8591)" class="st28 st29 st31">C</text>
<text transform="matrix(0.9615 0 0 1 434.54 138.8398)" class="st28 st29 st30"> (</text>
<text transform="matrix(0.9615 0 0 1 440.8896 138.8398)" class="st28 st29 st30">c</text>
<text transform="matrix(0.9615 0 0 1 445.5303 138.8398)" class="st28 st29 st30">o</text>
<text transform="matrix(0.9615 0 0 1 451.3496 138.8398)" class="st28 st29 st30">u</text>
<text transform="matrix(0.9615 0 0 1 457.1797 138.8398)" class="st28 st29 st30">nt</text>
<text transform="matrix(0.9615 0 0 1 466.46 138.8398)" class="st28 st29 st30">ab</text>
<text transform="matrix(0.9615 0 0 1 477.5303 138.8398)" class="st28 st29 st30">l</text>
<text transform="matrix(0.9615 0 0 1 480.4102 138.8398)" class="st28 st29 st30">e</text>
<text transform="matrix(0.9615 0 0 1 485.6504 138.8398)" class="st28 st29 st30">) </text>
<text transform="matrix(0.9615 0 0 1 492 138.8398)" class="st28 st29 st30">o</text>
<text transform="matrix(0.9615 0 0 1 497.8301 138.8398)" class="st28 st29 st30">r</text>
<text transform="matrix(0.9392 0 -0.2108 0.9775 504.1105 138.8591)" class="st28 st29 st31">U</text>
<text transform="matrix(0.9615 0 0 1 514.5596 138.8398)" class="st28 st29 st30">(</text>
<text transform="matrix(0.9615 0 0 1 518.04 138.8398)" class="st28 st29 st30">un</text>
<text transform="matrix(0.9615 0 0 1 529.6699 138.8398)" class="st28 st29 st30">c</text>
<text transform="matrix(0.9615 0 0 1 534.3203 138.8398)" class="st28 st29 st30">ou</text>
<text transform="matrix(0.9615 0 0 1 545.96 138.8398)" class="st28 st29 st30">n</text>
<text transform="matrix(0.9615 0 0 1 551.79 138.8398)" class="st28 st29 st30">t</text>
<text transform="matrix(0.9615 0 0 1 555.25 138.8398)" class="st28 st29 st30">a</text>
<text transform="matrix(0.9615 0 0 1 560.4902 138.8398)" class="st28 st29 st30">ble</text>
<text transform="matrix(0.9615 0 0 1 574.4199 138.8398)" class="st28 st29 st30">)</text>
<text transform="matrix(0.9615 0 0 1 577.8896 138.8398)" class="st28 st29 st30">.</text>
<g>
	<g>
		<g>
			<g>
				<defs>
					<rect id="SVGID_21_" x="97.5" y="158.7" width="98.6" height="76.9"/>
				</defs>
				<clipPath id="SVGID_22_">
					<use xlink:href="#SVGID_21_"  style="overflow:visible;"/>
				</clipPath>
				<g class="st32">
					<g>
						<g>
							<g>
								<g>
									<defs>
										<rect id="SVGID_23_" x="97.5" y="158.7" width="99.6" height="77.8"/>
									</defs>
									<clipPath id="SVGID_24_">
										<use xlink:href="#SVGID_23_"  style="overflow:visible;"/>
									</clipPath>
									<g class="st33">
										
											<image style="overflow:visible;enable-background:new    ;" width="455" height="355" xlink:href="CB1BA0.png"  transform="matrix(0.219 0 0 0.219 97.52 158.7816)">
										</image>
									</g>
								</g>
							</g>
						</g>
					</g>
				</g>
			</g>
		</g>
	</g>
</g>
<text transform="matrix(1 0 0 1 108.35 261.45)" class="st28 st29 st19">apples</text>
<line class="st34" x1="170.7" y1="261.7" x2="190.7" y2="261.7"/>
<rect x="144.6" y="244.2" class="st0" width="20.5" height="20.5"/>
<path class="st35" d="M165.1,244.2h-20.5v20.5h20.5V244.2z"/>
<g>
	<g>
		<g>
			<g>
				<defs>
					<rect id="SVGID_25_" x="97.5" y="286.4" width="98.5" height="76.7"/>
				</defs>
				<clipPath id="SVGID_26_">
					<use xlink:href="#SVGID_25_"  style="overflow:visible;"/>
				</clipPath>
				<g class="st36">
					<g>
						<g>
							<g>
								<g>
									<defs>
										<rect id="SVGID_27_" x="97.5" y="286.4" width="98.5" height="76.9"/>
									</defs>
									<clipPath id="SVGID_28_">
										<use xlink:href="#SVGID_27_"  style="overflow:visible;"/>
									</clipPath>
									<g class="st37">
										
											<image style="overflow:visible;enable-background:new    ;" width="457" height="357" xlink:href="CB1BAE.png"  transform="matrix(0.2194 0 0 0.2194 97.5508 286.43)">
										</image>
									</g>
								</g>
							</g>
						</g>
					</g>
				</g>
			</g>
		</g>
	</g>
</g>
<text transform="matrix(1 0 0 1 102.81 393.7)" class="st28 st29 st19">peaches</text>
<line class="st34" x1="174.4" y1="394" x2="194.4" y2="394"/>
<rect x="148.4" y="376.4" class="st0" width="20.5" height="20.5"/>
<path class="st35" d="M168.9,376.4h-20.5v20.5h20.5V376.4z"/>
<g>
	<g>
		<g>
			<g>
				<defs>
					<rect id="SVGID_29_" x="224.4" y="286.2" width="98.6" height="77"/>
				</defs>
				<clipPath id="SVGID_30_">
					<use xlink:href="#SVGID_29_"  style="overflow:visible;"/>
				</clipPath>
				<g class="st38">
					<g>
						<g>
							<g>
								<g>
									<defs>
										<rect id="SVGID_31_" x="224.4" y="286.2" width="99.4" height="78"/>
									</defs>
									<clipPath id="SVGID_32_">
										<use xlink:href="#SVGID_31_"  style="overflow:visible;"/>
									</clipPath>
									<g class="st39">
										
											<image style="overflow:visible;enable-background:new    ;" width="455" height="357" xlink:href="CB1BB8.png"  transform="matrix(0.2194 0 0 0.2194 224.4202 286.16)">
										</image>
									</g>
								</g>
							</g>
						</g>
					</g>
				</g>
			</g>
		</g>
	</g>
</g>
<path class="st28" d="M234,389.2h-0.9v-1h0.9v-0.7c-0.1-1.1,0.7-2,1.8-2.1c0.1,0,0.2,0,0.3,0h0.4v1.1h-0.3c-0.5,0-0.9,0.3-0.9,1v0.8
	h1.1v1h-1.2v4.5H234V389.2z M237.4,385.5h1.3l-0.1,8.3h-1.3L237.4,385.5z"/>
<text transform="matrix(1 0 0 1 239.54 393.7)" class="st28 st29 st19">our</text>
<line class="st34" x1="288.6" y1="394" x2="308.6" y2="394"/>
<rect x="262.5" y="376.4" class="st0" width="20.5" height="20.5"/>
<path class="st35" d="M283,376.4h-20.5v20.5H283V376.4z"/>
<g>
	<g>
		<g>
			<g>
				<defs>
					<rect id="SVGID_33_" x="351.3" y="286.2" width="98.5" height="76.9"/>
				</defs>
				<clipPath id="SVGID_34_">
					<use xlink:href="#SVGID_33_"  style="overflow:visible;"/>
				</clipPath>
				<g class="st40">
					<g>
						<g>
							<g>
								<g>
									<defs>
										<rect id="SVGID_35_" x="351.3" y="286.2" width="98.6" height="77"/>
									</defs>
									<clipPath id="SVGID_36_">
										<use xlink:href="#SVGID_35_"  style="overflow:visible;"/>
									</clipPath>
									<g class="st41">
										
											<image style="overflow:visible;enable-background:new    ;" width="457" height="357" xlink:href="CB1BB9.png"  transform="matrix(0.2194 0 0 0.2194 351.2908 286.16)">
										</image>
									</g>
								</g>
							</g>
						</g>
					</g>
				</g>
			</g>
		</g>
	</g>
</g>
<text transform="matrix(1 0 0 1 352.18 393.7)" class="st28 st29 st19">honey</text>
<line class="st34" x1="416.1" y1="394" x2="436.1" y2="394"/>
<rect x="390" y="376.4" class="st0" width="20.5" height="20.5"/>
<path class="st35" d="M410.5,376.4H390v20.5h20.5V376.4z"/>
<g>
	<g>
		<g>
			<g>
				<defs>
					<rect id="SVGID_37_" x="478.2" y="286.2" width="98.3" height="76.8"/>
				</defs>
				<clipPath id="SVGID_38_">
					<use xlink:href="#SVGID_37_"  style="overflow:visible;"/>
				</clipPath>
				<g class="st42">
					<g>
						<g>
							<g>
								<g>
									<defs>
										<rect id="SVGID_39_" x="478.2" y="286.2" width="98.4" height="76.8"/>
									</defs>
									<clipPath id="SVGID_40_">
										<use xlink:href="#SVGID_39_"  style="overflow:visible;"/>
									</clipPath>
									<g class="st43">
										
											<image style="overflow:visible;enable-background:new    ;" width="457" height="357" xlink:href="CB1BBA.png"  transform="matrix(0.2194 0 0 0.2194 478.1908 286.16)">
										</image>
									</g>
								</g>
							</g>
						</g>
					</g>
				</g>
			</g>
		</g>
	</g>
</g>
<text transform="matrix(1 0 0 1 478.03 393.7)" class="st28 st29 st19">sugar</text>
<line class="st34" x1="538.8" y1="394" x2="558.8" y2="394"/>
<rect x="512.7" y="376.4" class="st0" width="20.5" height="20.5"/>
<path class="st35" d="M533.2,376.4h-20.5v20.5h20.5V376.4z"/>
<g>
	<g>
		<g>
			<g>
				<defs>
					<rect id="SVGID_41_" x="351.3" y="158.7" width="98.6" height="76.9"/>
				</defs>
				<clipPath id="SVGID_42_">
					<use xlink:href="#SVGID_41_"  style="overflow:visible;"/>
				</clipPath>
				<g class="st44">
					<g>
						<g>
							<g>
								<g>
									<defs>
										<rect id="SVGID_43_" x="351.3" y="158.7" width="99.6" height="77.7"/>
									</defs>
									<clipPath id="SVGID_44_">
										<use xlink:href="#SVGID_43_"  style="overflow:visible;"/>
									</clipPath>
									<g class="st45">
										
											<image style="overflow:visible;enable-background:new    ;" width="458" height="358" xlink:href="CB1BBB.png"  transform="matrix(0.2188 0 0 0.2188 351.3215 158.72)">
										</image>
									</g>
								</g>
							</g>
						</g>
					</g>
				</g>
			</g>
		</g>
	</g>
</g>
<text transform="matrix(1 0 0 1 354.83 261.45)" class="st28 st29 st19">eggs</text>
<line class="st34" x1="412.9" y1="261.7" x2="432.9" y2="261.7"/>
<rect x="386.8" y="244.2" class="st0" width="20.5" height="20.5"/>
<path class="st35" d="M407.3,244.2h-20.5v20.5h20.5V244.2z"/>
<g>
	<g>
		<g>
			<g>
				<defs>
					<rect id="SVGID_45_" x="224.4" y="158.7" width="98.6" height="76.9"/>
				</defs>
				<clipPath id="SVGID_46_">
					<use xlink:href="#SVGID_45_"  style="overflow:visible;"/>
				</clipPath>
				<g class="st46">
					<g>
						<g>
							<g>
								<g>
									<defs>
										<rect id="SVGID_47_" x="224.4" y="158.7" width="99.4" height="77.6"/>
									</defs>
									<clipPath id="SVGID_48_">
										<use xlink:href="#SVGID_47_"  style="overflow:visible;"/>
									</clipPath>
									<g class="st47">
										
											<image style="overflow:visible;enable-background:new    ;" width="456" height="357" xlink:href="CB1BBC.png"  transform="matrix(0.2194 0 0 0.2194 224.5305 158.72)">
										</image>
									</g>
								</g>
							</g>
						</g>
					</g>
				</g>
			</g>
		</g>
	</g>
</g>
<text transform="matrix(1 0 0 1 223.73 253.1)" class="st28 st29 st19">cottage</text>
<text transform="matrix(1 0 0 1 223.73 266.6)" class="st28 st29 st19">cheese</text>
<line class="st34" x1="294.7" y1="261.7" x2="314.7" y2="261.7"/>
<rect x="268.6" y="244.2" class="st0" width="20.5" height="20.5"/>
<path class="st35" d="M289.1,244.2h-20.5v20.5h20.5V244.2z"/>
<g>
	<g>
		<g>
			<g>
				<defs>
					<rect id="SVGID_49_" x="478.2" y="158.7" width="98.5" height="76.9"/>
				</defs>
				<clipPath id="SVGID_50_">
					<use xlink:href="#SVGID_49_"  style="overflow:visible;"/>
				</clipPath>
				<g class="st48">
					<g>
						<g>
							<g>
								<g>
									<defs>
										<rect id="SVGID_51_" x="478.2" y="158.7" width="98.5" height="76.9"/>
									</defs>
									<clipPath id="SVGID_52_">
										<use xlink:href="#SVGID_51_"  style="overflow:visible;"/>
									</clipPath>
									<g class="st49">
										
											<image style="overflow:visible;enable-background:new    ;" width="457" height="356" xlink:href="CB1BBD.png"  transform="matrix(0.2195 0 0 0.2195 478.16 158.8057)">
										</image>
									</g>
								</g>
							</g>
						</g>
					</g>
				</g>
			</g>
		</g>
	</g>
</g>
<text transform="matrix(1 0 0 1 479.99 261.45)" class="st28 st29 st19">milk</text>
<line class="st34" x1="533" y1="261.7" x2="553" y2="261.7"/>
<rect x="506.9" y="244.2" class="st0" width="20.5" height="20.5"/>
<path class="st35" d="M527.4,244.2h-20.5v20.5h20.5V244.2z"/>
<path class="st34" d="M175.5,620.9h119.3 M399.7,601.4h104 M165,601.4h104 M366.6,581.9h113.1 M162.6,581.9h119.3 M224.2,562.4
	h119.3 M173.6,542.9h119.3 M166.3,523.4h119.3 M134.5,503.9h119.2 M216.4,484.4h119.3 M418.7,464.9H538 M237.4,464.9h119.2"/>
<text transform="matrix(1 0 0 1 84.7 430.77)" class="st17 st18 st19">2.  </text>
<polyline class="st20" points="113.8,423.4 113.8,429.5 127.1,434.4 136.8,430.4 136.8,422.5 127.1,418.5 113.8,423.4 "/>
<g>
	<g>
		<g>
			<g>
				<defs>
					<path id="SVGID_53_" d="M113.8,437c-5.8,0-10.6-4.7-10.6-10.6c0-5.8,4.7-10.6,10.6-10.6c5.8,0,10.6,4.7,10.6,10.6l0,0
						C124.4,432.3,119.6,437,113.8,437L113.8,437"/>
				</defs>
				<clipPath id="SVGID_54_">
					<use xlink:href="#SVGID_53_"  style="overflow:visible;"/>
				</clipPath>
				<g class="st50">
					<g>
						<g>
							<g>
								<g>
									<defs>
										<rect id="SVGID_55_" x="103.2" y="415.9" width="21.2" height="21.1"/>
									</defs>
									<clipPath id="SVGID_56_">
										<use xlink:href="#SVGID_55_"  style="overflow:visible;"/>
									</clipPath>
									<g class="st51">
										<g>
											<g>
												<g>
													<g>
														<defs>
															<rect id="SVGID_57_" x="103.2" y="415.9" width="21.2" height="21.1"/>
														</defs>
														<clipPath id="SVGID_58_">
															<use xlink:href="#SVGID_57_"  style="overflow:visible;"/>
														</clipPath>
														<g class="st52">
															
																<image style="overflow:visible;enable-background:new    ;" width="90" height="89" xlink:href="1D5AFF02.png"  transform="matrix(0.24 0 0 0.24 102.98 415.73)">
															</image>
														</g>
													</g>
												</g>
											</g>
										</g>
									</g>
								</g>
							</g>
						</g>
					</g>
				</g>
			</g>
		</g>
	</g>
</g>
<g>
	<g>
		<g>
			<g>
				<defs>
					<path id="SVGID_59_" d="M113.8,437c-5.8,0-10.6-4.7-10.6-10.6c0-5.8,4.7-10.6,10.6-10.6c5.8,0,10.6,4.7,10.6,10.6l0,0
						C124.4,432.3,119.6,437,113.8,437L113.8,437"/>
				</defs>
				<clipPath id="SVGID_60_">
					<use xlink:href="#SVGID_59_"  style="overflow:visible;"/>
				</clipPath>
				<g class="st53">
					<polyline class="st0" points="113.8,423.4 113.8,429.5 127.1,434.4 136.8,430.4 136.8,422.5 127.1,418.5 113.8,423.4 					"/>
				</g>
			</g>
		</g>
	</g>
</g>
<circle class="st25" cx="113.8" cy="426.4" r="10.6"/>
<path class="st0" d="M113.8,429.6c-1.7,0-3.2-1.4-3.2-3.2c0-1.7,1.4-3.2,3.2-3.2c1.7,0,3.2,1.4,3.2,3.2l0,0
	C116.9,428.2,115.5,429.6,113.8,429.6L113.8,429.6"/>
<path class="st26" d="M113.8,429.6c-1.7,0-3.2-1.4-3.2-3.2c0-1.7,1.4-3.2,3.2-3.2c1.7,0,3.2,1.4,3.2,3.2l0,0
	C116.9,428.2,115.5,429.6,113.8,429.6L113.8,429.6z"/>
<path class="st20" d="M113.8,427.8c-0.7,0-1.3-0.6-1.3-1.4c0-0.7,0.6-1.3,1.4-1.3c0.7,0,1.3,0.6,1.3,1.3
	C115.1,427.2,114.5,427.8,113.8,427.8L113.8,427.8"/>
<text transform="matrix(1 0 0 1 125.59 428.69)" class="st0 st18 st27">29</text>
<text transform="matrix(1 0 0 1 144.7 430.77)" class="st28 st29 st19">Listen again and complete. Compare with a partne</text>
<text transform="matrix(1 0 0 1 386.74 430.77)" class="st28 st29 st19">r</text>
<text transform="matrix(1 0 0 1 389.81 430.77)" class="st28 st29 st19">. Check against the text in the scripts</text>
<text transform="matrix(1 0 0 1 144.7 444.27)" class="st28 st29 st19">section.</text>
<text transform="matrix(1 0 0 1 102.7 463.77)" class="st28 st54 st19">W</text>
<text transform="matrix(1 0 0 1 113.3 463.77)" class="st28 st54 st19">e need milk. Do you have                                        ? </text>
<text transform="matrix(1 0 0 1 365.22 463.77)" class="st28 st54 st19">Y</text>
<text transform="matrix(1 0 0 1 371.02 463.77)" class="st28 st54 st19">es, I have                                         milk.</text>
<text transform="matrix(1 0 0 1 102.7 483.27)" class="st28 st54 st19">I need eggs. I also have                                        .</text>
<path class="st28" d="M103.8,495.2h0.9l-0.1,7.6h-1L103.8,495.2z M109.7,494.5h0.9v3.6l0,0c0.4-0.6,1.1-1,1.8-1
	c1.3,0,1.7,0.6,1.7,1.7c0,0.4,0,0.8,0,1.3v2.7h-0.9v-2.5c0-0.5,0-1,0-1.5s-0.4-0.9-1-0.9c-0.7,0.1-1.3,0.4-1.6,1v3.8h-0.9V494.5z
	 M120.4,502.5c-0.3,0.2-0.6,0.4-1,0.4c-0.5,0-0.8-0.4-0.8-0.9c-0.4,0.5-1,0.9-1.7,0.9c-0.8,0.1-1.5-0.6-1.6-1.4c0-0.1,0-0.1,0-0.2
	c0-1.5,2-1.9,3.2-2c0-0.2,0-0.5,0-0.7c0-0.4-0.3-0.8-0.7-0.8c-0.1,0-0.1,0-0.2,0c-0.4,0-0.8,0.2-1.6,0.8l-0.4-0.6
	c1.1-0.7,1.4-0.9,2.3-0.9c0.7-0.1,1.3,0.4,1.4,1.1c0,0.1,0,0.2,0,0.3c0,1-0.1,2-0.1,3c0,0.4,0.1,0.8,0.4,0.8c0.2,0,0.3-0.1,0.5-0.2
	L120.4,502.5z M118.6,499.9c-1.5,0.2-2.3,0.5-2.3,1.4c0,0.5,0.3,0.9,0.8,0.9c0.1,0,0.1,0,0.2,0c0.5-0.1,1-0.4,1.3-0.8V499.9z
	 M125.7,497.4l-2.2,5.4h-0.9l-2-5.4l0.9-0.2l1.6,4.6l0,0l1.7-4.6L125.7,497.4z M127.3,499.9v0.2c0,1.1,0.4,2.2,1.6,2.2
	c0.6,0,1.2-0.3,1.6-0.8l0.4,0.5c-0.5,0.6-1.3,1-2.1,1c-1.5,0-2.4-1.1-2.4-2.9c-0.1-1.5,1-2.8,2.5-2.9c1.5,0,2.1,1.1,2.1,2.6v0.2
	L127.3,499.9z M130.1,499.3c0-0.8-0.3-1.5-1.2-1.5c-0.8,0.1-1.4,0.7-1.5,1.5H130.1z M257,497.3h1.1c0-0.3,0-0.7,0-1.1
	c0.1-1.3,1-1.8,2.3-1.8v0.7H260c-0.7,0-1.1,0.6-1.1,1.3v0.9h1.5v0.7H259v4.8h-0.9V498H257V497.3z M261.3,494.5h0.9l-0.1,8.3h-0.9
	L261.3,494.5z"/>
<text transform="matrix(1 0 0 1 259.87 502.77)" class="st28 st54 st19"> ou</text>
<text transform="matrix(1 0 0 1 275.16 502.77)" class="st28 st54 st19">r</text>
<text transform="matrix(1 0 0 1 277.95 502.77)" class="st28 st54 st19">, too.</text>
<text transform="matrix(1 0 0 1 102.7 522.27)" class="st28 st54 st19">Do you have                                         apples?</text>
<text transform="matrix(1 0 0 1 102.7 541.77)" class="st28 st54 st19">No, but I have                                         peaches. How many do you want?</text>
<text transform="matrix(1 0 0 1 102.7 561.27)" class="st28 st54 st19">I need th</text>
<text transform="matrix(1 0 0 1 144.89 561.27)" class="st28 st54 st19">r</text>
<text transform="matrix(1 0 0 1 148.44 561.27)" class="st28 st54 st19">ee peaches and                                         suga</text>
<text transform="matrix(1 0 0 1 368.57 561.27)" class="st28 st54 st19">r</text>
<text transform="matrix(1 0 0 1 371.36 561.27)" class="st28 st54 st19">.</text>
<text transform="matrix(1 0 0 1 102.7 580.77)" class="st28 st54 st19">I don’t have                                         suga</text>
<text transform="matrix(1 0 0 1 306.95 580.77)" class="st28 st54 st19">r</text>
<text transform="matrix(1 0 0 1 309.74 580.77)" class="st28 st54 st19">, but I have                                       hone</text>
<text transform="matrix(1 0 0 1 506.65 580.77)" class="st28 st54 st19">y</text>
<text transform="matrix(1 0 0 1 511.17 580.77)" class="st28 st54 st19">.</text>
<text transform="matrix(1 0 0 1 102.7 600.27)" class="st28 st54 st19">No p</text>
<text transform="matrix(1 0 0 1 125.93 600.27)" class="st28 st54 st19">r</text>
<text transform="matrix(1 0 0 1 129.48 600.27)" class="st28 st54 st19">oblem,                                    honey is OK. Do you have                                    cottage cheese?</text>
<text transform="matrix(1 0 0 1 102.7 619.77)" class="st28 st54 st19">Oops! I have a                                        .</text>
<g>
	
		<image style="overflow:visible;opacity:0.39;enable-background:new    ;" width="312" height="91" xlink:href="4AC83193.png"  transform="matrix(1 0 0 1 161 11)">
	</image>
	<g>
		
			<image style="overflow:visible;opacity:0.8;enable-background:new    ;" width="294" height="72" xlink:href="4AC83195.png"  transform="matrix(1 0 0 1 167 14)">
		</image>
		<g>
			<text transform="matrix(1 0 0 1 182.4944 44.717)" class="st0 st55 st56">LISTENING AND SPEAKING </text>
			<text transform="matrix(1 0 0 1 182.4944 66.317)" class="st0 st55 st56">To have, simple present</text>
		</g>
	</g>
</g>
</svg>
