<?xml version="1.0" encoding="utf-8"?>
<!-- Generator: Adobe Illustrator 24.1.2, SVG Export Plug-In . SVG Version: 6.00 Build 0)  -->
<svg version="1.1" id="Capa_1" xmlns="http://www.w3.org/2000/svg" xmlns:xlink="http://www.w3.org/1999/xlink" x="0px" y="0px"
	 viewBox="0 0 652 822" style="enable-background:new 0 0 652 822;" xml:space="preserve">
<style type="text/css">
	.st0{fill:#FFFFFF;}
	.st1{fill:#D6D087;}
	.st2{fill:#F6F2C2;}
	.st3{clip-path:url(#SVGID_2_);}
	.st4{fill:#DB9600;}
	.st5{fill:#E7B700;}
	.st6{fill:#E6B500;}
	.st7{fill:#E1A600;}
	.st8{fill:#EBC000;}
	.st9{fill:#EABF00;}
	.st10{fill:#CA7104;}
	.st11{fill:#E2AC52;}
	.st12{clip-path:url(#SVGID_4_);}
	.st13{fill:#F7F7F8;}
	.st14{clip-path:url(#SVGID_6_);}
	.st15{clip-path:url(#SVGID_8_);}
	.st16{fill:none;stroke:#9A999E;stroke-width:0.5;stroke-miterlimit:10;}
	.st17{fill:#BF0811;}
	.st18{font-family:'SyntaxLTStd-Black';}
	.st19{font-size:11px;}
	.st20{fill:#211915;}
	.st21{font-family:'SyntaxLTStd-Bold';}
	.st22{fill:none;stroke:#211915;stroke-width:0.45;stroke-miterlimit:10;}
	.st23{font-size:14px;}
	.st24{font-family:'SyntaxLTStd-Roman';}
	.st25{font-size:9px;}
	.st26{font-family:'Gabriel-Sans-Bold';}
	.st27{font-size:18px;}
</style>
<rect x="-4.6" y="-4.7" class="st0" width="662.5" height="831.8"/>
<rect x="60.5" y="760.2" class="st1" width="15.9" height="47.9"/>
<rect x="76.4" y="760.2" class="st2" width="16.1" height="47.9"/>
<g>
	<g>
		<g>
			<defs>
				<rect id="SVGID_1_" x="14.2" y="14.3" width="623.6" height="793.7"/>
			</defs>
			<clipPath id="SVGID_2_">
				<use xlink:href="#SVGID_1_"  style="overflow:visible;"/>
			</clipPath>
			<g class="st3">
				<rect x="14.2" y="760.2" class="st1" width="46.3" height="47.9"/>
			</g>
		</g>
	</g>
</g>
<rect x="130.9" y="14.3" class="st4" width="492.8" height="69.6"/>
<polyline class="st4" points="603,83.9 559.3,83.9 559.3,37.6 582.6,14.3 619.3,14.3 619.3,67.6 603,83.9 "/>
<polyline class="st5" points="478.5,83.9 478.5,83.9 512.1,50.3 478.5,83.9 "/>
<polyline class="st5" points="460.1,83.9 460.1,83.9 446.8,70.5 446.8,70.5 460.1,83.9 "/>
<polyline class="st5" points="512.1,50.3 512.1,50.3 548.1,14.3 512.1,50.3 "/>
<polyline class="st5" points="559.3,37.6 559.3,14.3 582.6,14.3 559.3,37.6 "/>
<polyline class="st4" points="379.4,83.9 368.6,83.9 368.6,58.7 368.6,58.7 379.4,47.9 379.4,83.9 "/>
<polyline class="st4" points="439.4,63.1 401.8,25.5 401.8,25.5 439.4,63.1 439.4,63.1 "/>
<polyline class="st5" points="446.8,70.5 439.4,63.1 439.4,63.1 446.8,70.5 446.8,70.5 "/>
<polyline class="st6" points="368.6,83.9 303.9,83.9 278.6,58.7 278.6,14.3 324.3,14.3 368.6,58.7 368.6,83.9 "/>
<path class="st6" d="M401.8,25.5l-11.2-11.2l0,0L401.8,25.5L401.8,25.5 M368.6,58.7l-44.3-44.3h55V48L368.6,58.7"/>
<polyline class="st4" points="529.3,67.6 512.1,50.3 512.1,50.3 529.3,67.6 559.3,37.6 559.3,37.6 529.3,67.6 "/>
<polyline class="st4" points="559.3,83.9 529.3,83.9 529.3,67.6 529.3,67.6 559.3,37.6 559.3,83.9 "/>
<polyline class="st7" points="529.3,83.9 478.5,83.9 512.1,50.3 529.3,67.6 529.3,83.9 "/>
<polyline class="st7" points="529.3,67.6 512.1,50.3 548.1,14.3 559.3,14.3 559.3,37.6 529.3,67.6 "/>
<polyline class="st6" points="455.6,83.9 433.4,83.9 444.5,72.8 455.6,83.9 "/>
<polyline class="st8" points="460.1,83.9 455.6,83.9 444.5,72.8 446.8,70.5 460.1,83.9 "/>
<polyline class="st6" points="379.4,47.9 379.4,47.9 401.8,25.5 401.8,25.5 379.4,47.9 "/>
<polyline class="st6" points="433.4,83.9 379.4,83.9 379.4,47.9 401.8,25.5 439.4,63.1 439.4,67.6 444.5,72.8 433.4,83.9 "/>
<polyline class="st8" points="444.5,72.8 439.4,67.6 439.4,63.1 446.8,70.5 444.5,72.8 "/>
<polyline class="st9" points="379.4,47.9 379.4,14.3 390.6,14.3 401.8,25.5 379.4,47.9 "/>
<polyline class="st6" points="512.1,50.3 476.1,14.3 476.1,14.3 512.1,50.3 512.1,50.3 "/>
<polyline class="st8" points="478.5,83.9 460.1,83.9 446.8,70.5 458.6,58.7 458.6,14.3 476.1,14.3 512.1,50.3 478.5,83.9 "/>
<polyline class="st8" points="512.1,50.3 476.1,14.3 548.1,14.3 512.1,50.3 "/>
<polyline class="st6" points="401.8,25.5 401.8,25.5 412.9,14.3 412.9,14.3 401.8,25.5 "/>
<polyline class="st6" points="439.4,63.1 401.8,25.5 412.9,14.3 439.4,14.3 439.4,63.1 "/>
<polyline class="st8" points="446.8,70.5 439.4,63.1 439.4,14.3 458.6,14.3 458.6,58.7 446.8,70.5 "/>
<polyline class="st9" points="401.8,25.5 390.6,14.3 412.9,14.3 401.8,25.5 "/>
<polyline class="st10" points="157.2,68.3 157.2,14.3 14.2,14.3 14.2,83.9 141.6,83.9 157.2,68.3 "/>
<polyline class="st4" points="80.3,767.2 68,760.1 68,774.3 80.3,781.3 80.3,767.2 "/>
<polyline class="st10" points="80.3,781.3 92.5,774.3 92.5,760.1 80.3,767.2 80.3,781.3 "/>
<polyline class="st11" points="68,760.1 80.3,767.2 92.5,760.1 80.3,753.1 68,760.1 "/>
<g>
	<g>
		<g>
			<defs>
				<rect id="SVGID_3_" x="14.2" y="14.3" width="623.6" height="793.7"/>
			</defs>
			<clipPath id="SVGID_4_">
				<use xlink:href="#SVGID_3_"  style="overflow:visible;"/>
			</clipPath>
			<g class="st12">
				<polyline class="st10" points="769.7,68.3 769.7,14.3 623.6,14.3 623.6,83.9 754,83.9 769.7,68.3 				"/>
			</g>
		</g>
	</g>
</g>
<rect x="184.4" y="188.8" class="st13" width="266.3" height="252"/>
<g>
	<g>
		<g>
			<defs>
				<rect id="SVGID_5_" x="184.4" y="188.8" width="266.2" height="252"/>
			</defs>
			<clipPath id="SVGID_6_">
				<use xlink:href="#SVGID_5_"  style="overflow:visible;"/>
			</clipPath>
			<g class="st14">
				<g>
					<g>
						<g>
							<defs>
								<rect id="SVGID_7_" x="184.4" y="188.8" width="266.2" height="252"/>
							</defs>
							<clipPath id="SVGID_8_">
								<use xlink:href="#SVGID_7_"  style="overflow:visible;"/>
							</clipPath>
							<g class="st15">
								
									<image style="overflow:visible;enable-background:new    ;" width="1110" height="1051" xlink:href="1891CA83.png"  transform="matrix(0.2398 0 0 0.2398 184.3568 188.75)">
								</image>
							</g>
						</g>
					</g>
				</g>
			</g>
		</g>
	</g>
</g>
<line class="st16" x1="86" y1="158.5" x2="566.9" y2="158.5"/>
<text transform="matrix(1 0 0 1 68.03 138.76)" class="st17 st18 st19">1.  </text>
<text transform="matrix(1 0 0 1 86.03 138.76)" class="st20 st21 st19">Read and answe</text>
<text transform="matrix(1 0 0 1 164.26 138.76)" class="st20 st21 st19">r</text>
<text transform="matrix(1 0 0 1 167.33 138.76)" class="st20 st21 st19">. What do US and Canada citizens can use instead of a passport?</text>
<line class="st22" x1="145" y1="442.2" x2="409.7" y2="442.2"/>
<path class="st16" d="M104,642.5h462.9 M104,603.5h462.9 M104,564.5h462.9 M104,545h462.9 M104,506h462.9"/>
<text transform="matrix(1 0 0 1 86.03 187.3)" class="st20 st21 st23">Visiting Mexico?</text>
<path class="st20" d="M93.1,201.7v4.7c0.1,1.5-1,2.9-2.5,3c-0.2,0-0.4,0-0.6,0c-1.7,0-3-0.7-3-3c0-0.6,0-1.3,0-2.1v-2.6h1v2.8
	c0,0.7,0,1.4,0,2.1c-0.1,1,0.6,1.9,1.6,2c0.2,0,0.3,0,0.5,0c1.1,0,2.1-0.6,2.1-2.3v-4.7L93.1,201.7z M94.9,208.2
	c0.5,0.3,1,0.5,1.6,0.6c0.8,0.1,1.4-0.5,1.5-1.2c0-0.1,0-0.1,0-0.2c0-1.9-3.4-1.1-3.4-3.8c0-1.2,1-2.1,2.2-2h0.1
	c0.7,0,1.4,0.2,2,0.6l-0.4,0.7c-0.5-0.4-1-0.6-1.6-0.6c-0.7,0-1.4,0.5-1.4,1.2v0.1c0,1.7,3.4,1.3,3.4,3.7c0,1.2-1,2.2-2.2,2.2
	c-0.1,0-0.2,0-0.3,0c-0.7,0-1.5-0.2-2.1-0.6L94.9,208.2z M108,209.1c-0.3,0.2-0.6,0.4-1,0.4c-0.5,0-0.8-0.4-0.8-0.9
	c-0.4,0.5-1,0.9-1.7,0.9c-0.8,0.1-1.5-0.6-1.6-1.4c0-0.1,0-0.1,0-0.2c0-1.6,2-1.9,3.2-2c0-0.2,0-0.5,0-0.7c0-0.4-0.3-0.8-0.7-0.8
	c-0.1,0-0.1,0-0.2,0c-0.4,0-0.8,0.2-1.6,0.8l-0.4-0.6c1.1-0.7,1.4-0.9,2.3-0.9c0.7-0.1,1.3,0.4,1.4,1.1c0,0.1,0,0.2,0,0.3
	c0,1-0.1,2-0.1,3c0,0.4,0.1,0.8,0.4,0.8c0.2,0,0.3-0.1,0.5-0.2L108,209.1z M106.2,206.4c-1.5,0.2-2.3,0.5-2.3,1.4
	c0,0.5,0.3,0.9,0.8,0.9c0.1,0,0.1,0,0.2,0c0.5-0.1,1-0.4,1.3-0.8V206.4z M108.9,203.8h0.9v0.9l0,0c0.4-0.6,1.1-1,1.9-1
	c1.3,0,1.7,0.6,1.7,1.7c0,0.4,0,0.8,0,1.3v2.7h-0.9v-2.5c0-0.5,0-1,0-1.5s-0.4-0.9-1-0.9c-0.7,0.1-1.3,0.4-1.6,1v3.8H109
	L108.9,203.8z M118.5,201.1h0.9l-0.1,8.3h-0.9v-0.7l0,0c-0.4,0.6-1,0.9-1.7,0.9c-0.9,0-2.2-0.7-2.2-2.9c-0.1-1.5,1-2.8,2.5-2.9
	c0.6,0,1.1,0.2,1.4,0.7l0,0L118.5,201.1z M118.5,205.3c-0.2-0.5-0.8-0.9-1.3-0.9c-1,0-1.6,1.1-1.6,2.2c0,1.5,0.7,2.2,1.5,2.2
	c0.6,0,1.2-0.4,1.5-1L118.5,205.3z M129.9,202.9c-0.6-0.4-1.3-0.6-2-0.6c-1.7,0.1-3.1,1.6-3,3.3c0.1,1.6,1.4,2.9,3,3
	c0.7,0,1.4-0.2,2-0.6l0.4,0.7c-0.7,0.4-1.5,0.7-2.3,0.7c-2.1,0.1-3.9-1.5-4-3.6c0-0.1,0-0.3,0-0.4c-0.1-2.2,1.6-3.9,3.8-4
	c0.1,0,0.1,0,0.2,0c0.8,0,1.6,0.2,2.4,0.6L129.9,202.9z M136.2,209.1c-0.3,0.2-0.6,0.4-1,0.4c-0.5,0-0.8-0.4-0.8-0.9
	c-0.4,0.5-1,0.9-1.6,0.9c-0.8,0-1.5-0.6-1.6-1.4c0-0.1,0-0.1,0-0.2c0-1.6,2-1.9,3.2-2c0-0.2,0-0.5,0-0.7c0-0.4-0.3-0.8-0.7-0.8h-0.1
	c-0.4,0-0.8,0.2-1.6,0.8l-0.4-0.6c1.1-0.7,1.4-0.9,2.2-0.9c0.7-0.1,1.3,0.4,1.4,1.1c0,0.1,0,0.2,0,0.3c0,1-0.1,2-0.1,3
	c0,0.4,0.1,0.8,0.4,0.8c0.2,0,0.3-0.1,0.5-0.2L136.2,209.1z M134.3,206.4c-1.5,0.2-2.3,0.5-2.3,1.4c0,0.5,0.3,0.9,0.8,0.9
	c0.1,0,0.2,0,0.2,0c0.5-0.1,1-0.4,1.3-0.8V206.4z M137.1,203.8h0.9v0.9l0,0c0.4-0.6,1.1-1,1.9-1c1.3,0,1.7,0.6,1.7,1.7
	c0,0.4,0,0.8,0,1.3v2.7h-0.9v-2.5c0-0.5,0-1,0-1.5s-0.4-0.9-1-0.9c-0.7,0.1-1.3,0.4-1.6,1v3.8h-1L137.1,203.8z M147.8,209.1
	c-0.3,0.2-0.6,0.4-1,0.4c-0.5,0-0.8-0.4-0.8-0.9c-0.4,0.5-1,0.9-1.6,0.9c-0.8,0.1-1.5-0.6-1.6-1.4c0-0.1,0-0.1,0-0.2
	c0-1.6,2-1.9,3.2-2c0-0.2,0-0.5,0-0.7c0-0.4-0.3-0.8-0.7-0.8c-0.1,0-0.1,0-0.2,0c-0.4,0-0.8,0.2-1.6,0.8l-0.4-0.6
	c1.1-0.7,1.5-0.9,2.3-0.9c0.7-0.1,1.3,0.4,1.4,1.1c0,0.1,0,0.2,0,0.3c0,1-0.1,2-0.1,3c0,0.4,0.1,0.8,0.4,0.8c0.2,0,0.3-0.1,0.5-0.2
	L147.8,209.1z M146,206.4c-1.5,0.2-2.3,0.5-2.3,1.4c0,0.5,0.3,0.9,0.8,0.9c0.1,0,0.1,0,0.2,0c0.5-0.1,1-0.4,1.3-0.8V206.4z
	 M152.2,201.1h0.9l-0.1,8.2h-0.9v-0.7l0,0c-0.4,0.6-1,0.9-1.7,0.9c-0.9,0-2.2-0.7-2.2-2.9c-0.1-1.5,1-2.8,2.5-2.9
	c0.6,0,1.1,0.2,1.4,0.7l0,0L152.2,201.1z M152.2,205.3c-0.2-0.5-0.8-0.9-1.3-0.9c-1,0-1.6,1.1-1.6,2.2c0,1.5,0.7,2.2,1.4,2.2
	c0.6,0,1.2-0.4,1.5-1L152.2,205.3z M154.7,201.7h0.9v1h-0.9V201.7z M154.7,203.8h0.9v5.5h-0.9V203.8z M161.9,209.1
	c-0.3,0.2-0.6,0.4-1,0.4c-0.5,0-0.8-0.4-0.8-0.9c-0.4,0.5-1,0.9-1.6,0.9c-0.8,0.1-1.5-0.6-1.6-1.4c0-0.1,0-0.1,0-0.2
	c0-1.6,2-1.9,3.2-2c0-0.2,0-0.5,0-0.7c0-0.4-0.3-0.8-0.7-0.8c-0.1,0-0.1,0-0.2,0c-0.4,0-0.8,0.2-1.6,0.8l-0.4-0.6
	c1.1-0.7,1.5-0.9,2.3-0.9c0.7-0.1,1.3,0.4,1.4,1.1c0,0.1,0,0.2,0,0.3c0,1-0.1,2-0.1,3c0,0.4,0.1,0.8,0.4,0.8c0.2,0,0.3-0.1,0.5-0.2
	L161.9,209.1z M160,206.4c-1.5,0.2-2.3,0.5-2.3,1.4c0,0.5,0.3,0.9,0.8,0.9c0.1,0,0.1,0,0.2,0c0.5-0.1,1-0.4,1.3-0.8V206.4z
	 M162.7,203.8h0.9v0.9l0,0c0.4-0.6,1.1-1,1.9-1c1.3,0,1.7,0.6,1.7,1.7c0,0.4,0,0.8,0,1.3v2.7h-0.9v-2.5c0-0.5,0-1,0-1.5
	s-0.4-0.9-1-0.9c-0.7,0.1-1.3,0.4-1.6,1v3.8h-0.9L162.7,203.8z M172.2,203.8v-2h0.9v2h1.5v0.7h-1.5v2.3c0,0.6,0,1,0,1.3
	c0,0.5,0.1,0.7,0.5,0.7c0.3,0,0.6-0.1,0.9-0.3l0.3,0.6c-0.4,0.3-0.9,0.4-1.4,0.5c-0.9,0-1.2-0.5-1.2-1.4c0-0.4,0-0.8,0-1.6v-2h-0.9
	v-0.7h0.9V203.8z M177.8,203.7c1.6,0,2.6,1.1,2.6,2.9c0.1,1.5-1.1,2.8-2.6,2.9h-0.1c-1.6,0-2.6-1.1-2.6-2.9c-0.1-1.5,1-2.8,2.5-2.9
	C177.7,203.7,177.7,203.7,177.8,203.7L177.8,203.7z M177.7,208.8c0.8,0,1.7-0.7,1.7-2.2s-0.7-2.2-1.6-2.2s-1.7,0.7-1.7,2.2
	S176.8,208.8,177.7,208.8L177.7,208.8z M181.7,203.8h0.9v2.5c0,0.5,0,1,0,1.5s0.4,0.9,1,0.9c0.7-0.1,1.3-0.4,1.6-1v-3.8h0.9
	l-0.1,5.5h-0.9v-0.9l0,0c-0.4,0.6-1.1,1-1.9,1c-1.3,0-1.7-0.6-1.7-1.7c0-0.4,0-0.8,0-1.3L181.7,203.8z M187.8,203.8h0.9v1.1l0,0
	c0.2-0.7,0.8-1.2,1.5-1.2c0.2,0,0.3,0,0.5,0.1l-0.3,0.8c-0.1,0-0.2,0-0.3-0.1c-0.4,0-1,0.3-1.4,1.2v3.6h-0.9V203.8z M191.3,201.7
	h0.9v1h-0.9V201.7z M191.4,203.8h0.9l-0.1,5.5h-0.9L191.4,203.8z M193.8,208.3c0.3,0.3,0.8,0.4,1.2,0.5c0.5,0,1-0.3,1.1-0.9
	c0-1.4-2.5-0.8-2.5-2.6c0-0.9,0.8-1.7,1.7-1.6h0.1c0.6,0,1.1,0.2,1.6,0.5l-0.4,0.6c-0.3-0.2-0.7-0.3-1.1-0.4c-0.6,0-1.1,0.3-1.1,0.9
	c0,1.2,2.5,0.7,2.5,2.6c0,0.9-0.8,1.7-1.8,1.7c0,0,0,0-0.1,0c-0.6,0-1.2-0.2-1.7-0.5L193.8,208.3z M198.5,203.8v-2h0.9v2h1.5v0.7
	h-1.5v2.3c0,0.6,0,1,0,1.3c0,0.5,0.1,0.7,0.5,0.7c0.3,0,0.6-0.1,0.9-0.3l0.3,0.6c-0.4,0.3-0.9,0.4-1.4,0.5c-0.9,0-1.2-0.5-1.2-1.4
	c0-0.4,0-0.8,0-1.6v-2h-0.9v-0.7h0.9V203.8z M201.7,208.3c0.3,0.3,0.8,0.4,1.2,0.5c0.5,0,1-0.4,1.1-0.9c0-1.4-2.5-0.8-2.5-2.6
	c0-0.9,0.8-1.7,1.7-1.6h0.1c0.6,0,1.1,0.2,1.6,0.5l-0.4,0.6c-0.3-0.2-0.7-0.3-1.1-0.4c-0.6,0-1.1,0.3-1.1,0.9c0,1.2,2.5,0.7,2.5,2.6
	c0,0.9-0.8,1.7-1.8,1.7c0,0,0,0-0.1,0c-0.6,0-1.2-0.2-1.7-0.5L201.7,208.3z M212.5,205c-0.3-0.4-0.7-0.6-1.2-0.6
	c-0.8,0-1.6,0.8-1.6,2.3c-0.1,1,0.6,1.9,1.6,2l0,0c0.5,0,1-0.3,1.2-0.7l0.5,0.5c-0.4,0.6-1.1,0.9-1.9,0.9c-1.4,0-2.4-1.1-2.4-2.9
	c-0.1-1.5,1.1-2.8,2.6-2.9c0.7,0,1.4,0.3,1.8,0.9L212.5,205z M218.7,209c-0.3,0.2-0.6,0.4-1,0.4c-0.5,0-0.8-0.4-0.8-0.9
	c-0.4,0.5-1,0.9-1.6,0.9c-0.8,0-1.5-0.6-1.6-1.4c0-0.1,0-0.1,0-0.2c0-1.6,2-1.9,3.2-2c0-0.2,0-0.5,0-0.7c0-0.4-0.3-0.8-0.7-0.8h-0.1
	c-0.4,0-0.8,0.2-1.6,0.8l-0.4-0.6c1.1-0.7,1.4-0.9,2.2-0.9c0.7-0.1,1.3,0.4,1.4,1.1c0,0.1,0,0.2,0,0.3c0,1-0.1,2-0.1,3
	c0,0.4,0.1,0.8,0.4,0.8c0.2,0,0.3-0.1,0.5-0.2L218.7,209z M216.8,206.4c-1.5,0.2-2.3,0.5-2.3,1.4c0,0.5,0.3,0.9,0.8,0.9
	c0.1,0,0.2,0,0.2,0c0.5-0.1,1-0.4,1.3-0.8V206.4z M219.6,203.8h0.9v0.9l0,0c0.4-0.6,1.1-1,1.9-1c1.3,0,1.7,0.6,1.7,1.7
	c0,0.4,0,0.8,0,1.3v2.7h-1v-2.5c0-0.5,0-1,0-1.5s-0.4-0.9-1-0.9c-0.7,0.1-1.3,0.4-1.6,1v3.8h-0.9L219.6,203.8z M229.3,206.4v0.2
	c0,1.1,0.4,2.2,1.6,2.2c0.6,0,1.2-0.3,1.6-0.8l0.4,0.5c-0.5,0.6-1.3,1-2.1,1c-1.5,0-2.4-1.1-2.4-2.9c-0.1-1.5,1-2.8,2.5-2.9
	c1.5,0,2.1,1.1,2.1,2.6v0.2L229.3,206.4z M232.1,205.8c0-0.8-0.3-1.5-1.2-1.5c-0.8,0.1-1.4,0.7-1.5,1.5H232.1z M234.3,203.8h0.9v0.9
	l0,0c0.4-0.6,1.1-1,1.9-1c1.3,0,1.7,0.6,1.7,1.7c0,0.4,0,0.8,0,1.3v2.7h-0.9v-2.5c0-0.5,0-1,0-1.5s-0.4-0.9-1-0.9
	c-0.7,0.1-1.3,0.4-1.6,1v3.8h-0.9L234.3,203.8z M240.7,203.8v-2h0.9v2h1.4v0.7h-1.5v2.3c0,0.6,0,1,0,1.3c0,0.5,0.1,0.7,0.5,0.7
	c0.3,0,0.6-0.1,0.9-0.3l0.3,0.6c-0.4,0.3-0.9,0.4-1.4,0.5c-0.9,0-1.2-0.5-1.2-1.4c0-0.4,0-0.8,0-1.6v-2h-0.9v-0.7h1V203.8z
	 M244.5,206.4v0.2c0,1.1,0.4,2.2,1.6,2.2c0.6,0,1.2-0.3,1.6-0.8l0.4,0.5c-0.5,0.6-1.3,1-2.1,1c-1.5,0-2.4-1.1-2.4-2.9
	c-0.1-1.5,1-2.8,2.5-2.9c1.5,0,2.1,1.1,2.1,2.6v0.2L244.5,206.4z M247.3,205.8c0-0.8-0.3-1.5-1.2-1.5c-0.8,0.1-1.4,0.7-1.5,1.5
	H247.3z M249.5,203.8h0.9v1.1l0,0c0.2-0.7,0.8-1.2,1.5-1.2c0.2,0,0.3,0,0.5,0.1l-0.3,0.8c-0.1,0-0.2,0-0.3-0.1
	c-0.4,0-0.9,0.3-1.4,1.2v3.6h-0.9V203.8z M257.3,201.7h1l2.3,6.4l2.5-6.4h1l1.2,7.6l-0.9,0.1l-1-6.5l0,0l-2.4,6.4h-1l-2.2-6.4l0,0
	l-1,6.5l-0.9-0.1L257.3,201.7z M267.1,206.4v0.2c0,1.1,0.4,2.2,1.5,2.2c0.6-0.1,1.2-0.3,1.6-0.8l0.4,0.5c-0.5,0.6-1.3,1-2.1,1
	c-1.5,0-2.4-1.1-2.4-2.9c-0.1-1.5,1-2.8,2.5-2.9c1.5,0,2.1,1.1,2.1,2.6v0.2L267.1,206.4z M269.9,205.9c0-0.8-0.3-1.5-1.2-1.5
	c-0.8,0.1-1.4,0.7-1.5,1.5H269.9z M273.9,207.1l-1.6,2.4l-0.7-0.5l1.9-2.5l-1.8-2.4l0.8-0.4l1.5,2.2l1.6-2.2l0.7,0.4l-1.8,2.4
	l1.9,2.5l-0.8,0.5L273.9,207.1z M277.5,201.7h0.9v1h-0.9V201.7z M277.5,203.8h0.9v5.5h-0.9V203.8z M283.3,205
	c-0.3-0.4-0.7-0.6-1.2-0.6c-0.8,0-1.6,0.8-1.6,2.3c-0.1,1,0.6,1.9,1.6,2l0,0c0.5,0,1-0.3,1.3-0.7l0.5,0.5c-0.4,0.6-1.1,0.9-1.9,0.9
	c-1.4,0-2.4-1.1-2.4-2.9c-0.1-1.5,1.1-2.8,2.6-2.9c0.7,0,1.4,0.3,1.8,0.9L283.3,205z M287.1,203.7c1.6,0,2.6,1.1,2.6,2.9
	c0.1,1.5-1,2.8-2.5,2.9h-0.1c-1.6,0-2.6-1.1-2.6-2.9C284.4,205.1,285.6,203.8,287.1,203.7L287.1,203.7L287.1,203.7z M287,208.8
	c0.8,0,1.7-0.7,1.7-2.2s-0.7-2.2-1.6-2.2s-1.7,0.7-1.7,2.2S286.2,208.8,287,208.8L287,208.8z M293.5,203.9l0.9-0.3l1.2,4.6l0,0
	l1.5-4.4h1l1.2,4.4l0,0l1.5-4.6l0.9,0.3l-2,5.4h-0.9l-1.2-4.4l0,0l-1.5,4.4h-0.9L293.5,203.9z M302.5,201.7h1v1h-1V201.7z
	 M302.5,203.8h0.9v5.5h-0.9V203.8z M305.3,203.8v-2h0.9v2h1.5v0.7h-1.5v2.3c0,0.6,0,1,0,1.3c0,0.5,0.1,0.7,0.5,0.7
	c0.3,0,0.6-0.1,0.9-0.3l0.3,0.6c-0.4,0.3-0.9,0.4-1.4,0.5c-0.9,0-1.2-0.5-1.2-1.4c0-0.4,0-0.8,0-1.6v-2h-0.9v-0.7h0.9L305.3,203.8
	L305.3,203.8z M308.7,201.1h0.9v3.6l0,0c0.4-0.6,1.1-1,1.8-1c1.3,0,1.7,0.6,1.7,1.7c0,0.4,0,0.8,0,1.3v2.7h-0.9v-2.5
	c0-0.5,0-1,0-1.5s-0.4-0.9-1-0.9c-0.7,0.1-1.3,0.4-1.6,1v3.8h-0.9V201.1z M317,203.7c1.6,0,2.6,1.1,2.6,2.9c0.1,1.5-1,2.8-2.5,2.9
	H317c-1.6,0-2.6-1.1-2.6-2.9c-0.1-1.5,1-2.8,2.5-2.9C317,203.7,317.1,203.7,317,203.7L317,203.7z M316.9,208.8
	c0.8,0,1.7-0.7,1.7-2.2s-0.7-2.2-1.6-2.2s-1.7,0.7-1.7,2.2S316.1,208.8,316.9,208.8L316.9,208.8z M320.9,203.8h0.9v2.5
	c0,0.5,0,1,0,1.5s0.4,0.9,1,0.9c0.7-0.1,1.3-0.4,1.6-1v-3.8h0.9v5.5h-0.9v-0.9l0,0c-0.4,0.6-1.1,1-1.9,1c-1.3,0-1.7-0.6-1.7-1.7
	c0-0.4,0-0.8,0-1.3L320.9,203.8z M327.4,203.8v-2h0.9v2h1.5v0.7h-1.5v2.3c0,0.6,0,1,0,1.3c0,0.5,0.1,0.7,0.5,0.7
	c0.3,0,0.6-0.1,0.9-0.3l0.3,0.6c-0.4,0.3-0.9,0.4-1.4,0.5c-0.9,0-1.2-0.5-1.2-1.4c0-0.4,0-0.8,0-1.6v-2h-0.9v-0.7h0.9L327.4,203.8
	L327.4,203.8z M338.4,209c-0.3,0.2-0.6,0.4-1,0.4c-0.5,0-0.8-0.4-0.8-0.9c-0.4,0.5-1,0.9-1.6,0.9c-0.8,0-1.5-0.6-1.6-1.4
	c0-0.1,0-0.1,0-0.2c0-1.6,2-1.9,3.2-2c0-0.2,0-0.5,0-0.7c0-0.4-0.3-0.8-0.7-0.8h-0.1c-0.4,0-0.8,0.2-1.6,0.8l-0.4-0.6
	c1.1-0.7,1.5-0.9,2.2-0.9c0.7-0.1,1.3,0.4,1.4,1.1c0,0.1,0,0.2,0,0.3c0,1-0.1,2-0.1,3c0,0.4,0.1,0.8,0.4,0.8c0.2,0,0.3-0.1,0.5-0.2
	L338.4,209z M336.5,206.4c-1.5,0.2-2.3,0.5-2.3,1.4c0,0.5,0.3,0.9,0.8,0.9c0.1,0,0.2,0,0.2,0c0.5-0.1,1-0.4,1.3-0.8V206.4z
	 M342.3,203.8h0.9v0.7l0,0c0.4-0.6,1-0.9,1.7-0.9c0.9,0,2.2,0.7,2.2,2.9c0,1.5-1,2.9-2.4,2.9c-0.6,0-1.2-0.2-1.6-0.7l0,0v3.3h-0.9
	L342.3,203.8z M343.1,207.8c0.3,0.5,0.8,0.8,1.4,0.9c1,0,1.6-1.1,1.6-2.2c0-1.5-0.7-2.2-1.5-2.2c-0.7,0-1.2,0.4-1.5,1V207.8z
	 M353.1,209c-0.3,0.2-0.6,0.4-1,0.4c-0.5,0-0.8-0.4-0.8-0.9c-0.4,0.5-1,0.9-1.6,0.9c-0.8,0.1-1.5-0.6-1.6-1.4c0-0.1,0-0.1,0-0.2
	c0-1.6,2-1.9,3.2-2c0-0.2,0-0.5,0-0.7c0-0.4-0.3-0.8-0.7-0.8c-0.1,0-0.1,0-0.2,0c-0.4,0-0.8,0.2-1.6,0.8l-0.4-0.6
	c1.1-0.7,1.5-0.9,2.3-0.9c0.7-0.1,1.3,0.4,1.4,1.1c0,0.1,0,0.2,0,0.3c0,1-0.1,2-0.1,3c0,0.4,0.1,0.8,0.4,0.8c0.2,0,0.3-0.1,0.5-0.2
	L353.1,209z M351.2,206.4c-1.5,0.2-2.3,0.5-2.3,1.4c0,0.5,0.3,0.9,0.8,0.9c0.1,0,0.1,0,0.2,0c0.5-0.1,1-0.4,1.3-0.8V206.4z
	 M353.8,208.3c0.3,0.3,0.8,0.4,1.2,0.5c0.5,0,1-0.3,1.1-0.9c0-1.4-2.5-0.8-2.5-2.6c0-0.9,0.8-1.7,1.7-1.6h0.1c0.6,0,1.1,0.2,1.6,0.5
	l-0.4,0.6c-0.3-0.2-0.6-0.3-1-0.4c-0.6,0-1.1,0.3-1.1,0.9c0,1.2,2.5,0.7,2.5,2.6c0,0.9-0.8,1.7-1.8,1.7l0,0c-0.6,0-1.2-0.2-1.7-0.5
	L353.8,208.3z M358.1,208.3c0.3,0.3,0.8,0.4,1.2,0.5c0.5,0,1-0.3,1.1-0.9c0-1.4-2.5-0.8-2.5-2.6c0-0.9,0.8-1.7,1.7-1.6h0.1
	c0.6,0,1.1,0.2,1.6,0.5l-0.4,0.6c-0.3-0.2-0.6-0.3-1-0.4c-0.6,0-1.1,0.3-1.1,0.9c0,1.2,2.5,0.7,2.5,2.6c0,0.9-0.8,1.7-1.8,1.7l0,0
	c-0.6,0-1.2-0.2-1.7-0.5L358.1,208.3z M362.5,203.8h0.9v0.7l0,0c0.4-0.6,1-0.9,1.7-0.9c0.9,0,2.2,0.7,2.2,2.9c0,1.5-1,2.9-2.4,2.9
	c-0.6,0-1.2-0.2-1.5-0.7l0,0v3.3h-0.9L362.5,203.8z M363.3,207.8c0.3,0.5,0.8,0.9,1.4,0.9c1,0,1.6-1.1,1.6-2.2
	c0-1.5-0.7-2.2-1.5-2.2c-0.7,0-1.2,0.4-1.5,1V207.8z M370.8,203.6c1.6,0,2.6,1.1,2.6,2.9c0.1,1.5-1,2.8-2.5,2.9h-0.1
	c-1.6,0-2.6-1.1-2.6-2.9C368.1,205,369.3,203.7,370.8,203.6C370.8,203.7,370.9,203.7,370.8,203.6L370.8,203.6z M370.7,208.7
	c0.8,0,1.7-0.7,1.7-2.2s-0.7-2.2-1.6-2.2s-1.7,0.7-1.7,2.2S369.9,208.8,370.7,208.7L370.7,208.7z M374.7,203.7h0.9v1.1l0,0
	c0.2-0.7,0.8-1.2,1.5-1.2c0.2,0,0.3,0,0.5,0.1l-0.3,0.8c-0.1,0-0.2,0-0.3-0.1c-0.4,0-0.9,0.3-1.4,1.2v3.6h-0.9L374.7,203.7z
	 M378.7,203.7v-2h0.9v2h1.5v0.7h-1.5v2.3c0,0.6,0,1,0,1.3c0,0.5,0.1,0.7,0.5,0.7c0.3,0,0.6-0.1,0.9-0.3l0.3,0.6
	c-0.4,0.3-0.9,0.4-1.4,0.5c-0.9,0-1.2-0.5-1.2-1.4c0-0.4,0-0.8,0-1.6v-2h-0.9v-0.7h0.9L378.7,203.7L378.7,203.7z M385,201.6h1v1
	h-0.9L385,201.6z M385,203.7h1v5.5h-0.9L385,203.7z M386.9,203.7h1.1c0-0.3,0-0.7,0-1c0.1-1.4,1-1.8,2.3-1.8v0.7H390
	c-0.7,0-1.1,0.6-1.1,1.3v0.9h1.5v0.7H389v4.8h-1v-4.8h-1L386.9,203.7z M394.6,203.7v-2h0.9v2h1.5v0.7h-1.5v2.3c0,0.6,0,1,0,1.3
	c0,0.5,0.1,0.7,0.5,0.7c0.3,0,0.6-0.1,0.9-0.3l0.3,0.6c-0.4,0.3-0.9,0.4-1.4,0.5c-0.9,0-1.2-0.5-1.2-1.4c0-0.4,0-0.8,0-1.6v-2h-0.9
	v-0.7h0.9L394.6,203.7L394.6,203.7z M397.9,200.9h0.9v3.6l0,0c0.4-0.6,1.1-1,1.8-1c1.3,0,1.7,0.6,1.7,1.7c0,0.4,0,0.8,0,1.3v2.7
	h-0.9v-2.5c0-0.5,0-1,0-1.5s-0.4-0.9-1-0.9c-0.7,0.1-1.3,0.4-1.6,1v3.8H398L397.9,200.9z M404.6,206.3v0.2c0,1.1,0.4,2.2,1.5,2.2
	c0.6-0.1,1.2-0.3,1.6-0.8l0.4,0.5c-0.5,0.6-1.3,1-2.1,1c-1.5,0-2.4-1.1-2.4-2.9c-0.1-1.5,1-2.8,2.5-2.9c1.5,0,2.1,1.1,2.1,2.6v0.2
	L404.6,206.3z M407.4,205.7c0-0.8-0.3-1.5-1.2-1.5c-0.8,0.1-1.4,0.7-1.5,1.5H407.4z M409,211.1c0.9,0,1.1-0.2,1.3-0.7l0.6-1.3
	l-2-5.3l1-0.3l1.5,4.4l0,0l1.7-4.4l0.9,0.3l-2.4,6c-0.6,1.5-0.9,1.9-2.1,1.9H409V211.1z M418.1,200.9h0.9v3.6l0,0
	c0.4-0.6,1.1-1,1.8-1c1.3,0,1.7,0.6,1.7,1.7c0,0.4,0,0.8,0,1.3v2.7h-0.9v-2.5c0-0.5,0-1,0-1.5s-0.4-0.9-1-0.9
	c-0.7,0.1-1.3,0.4-1.6,1v3.9h-0.9V200.9z M428.9,208.9c-0.3,0.2-0.6,0.4-1,0.4c-0.5,0-0.8-0.4-0.8-0.9c-0.4,0.5-1,0.9-1.6,0.9
	c-0.8,0.1-1.5-0.6-1.6-1.4c0-0.1,0-0.1,0-0.2c0-1.6,2-1.9,3.2-2c0-0.2,0-0.5,0-0.7c0-0.4-0.3-0.8-0.7-0.8c-0.1,0-0.1,0-0.2,0
	c-0.4,0-0.8,0.2-1.6,0.8l-0.4-0.6c1.1-0.7,1.5-0.9,2.3-0.9c0.7-0.1,1.3,0.4,1.4,1.1c0,0.1,0,0.2,0,0.3c0,1-0.1,2-0.1,3
	c0,0.4,0.1,0.8,0.4,0.8c0.2,0,0.3-0.1,0.5-0.2L428.9,208.9z M427,206.3c-1.5,0.2-2.3,0.5-2.3,1.4c0,0.5,0.3,0.9,0.8,0.9
	c0.1,0,0.1,0,0.2,0c0.5-0.1,1-0.4,1.3-0.8V206.3z M434.1,203.8l-2.1,5.5h-0.9l-2-5.4l0.9-0.2l1.5,4.6l0,0l1.7-4.6L434.1,203.8z
	 M435.7,206.3v0.2c0,1.1,0.4,2.2,1.5,2.2c0.6,0,1.2-0.3,1.6-0.8l0.4,0.5c-0.5,0.6-1.3,1-2.1,1c-1.5,0-2.4-1.1-2.4-2.9
	c-0.1-1.5,1-2.8,2.5-2.9c1.5,0,2.1,1.1,2.1,2.6v0.2L435.7,206.3z M438.5,205.7c0-0.8-0.3-1.5-1.2-1.5c-0.8,0.1-1.4,0.7-1.5,1.5
	H438.5z M448.4,208.9c-0.3,0.2-0.6,0.4-1,0.4c-0.5,0-0.8-0.4-0.8-0.9c-0.4,0.5-1,0.9-1.6,0.9c-0.8,0.1-1.5-0.6-1.6-1.4
	c0-0.1,0-0.1,0-0.2c0-1.6,2-1.9,3.2-2c0-0.2,0-0.5,0-0.7c0-0.4-0.3-0.8-0.7-0.8h-0.1c-0.4,0-0.8,0.2-1.6,0.8l-0.4-0.6
	c1.1-0.7,1.5-0.9,2.3-0.9c0.7-0.1,1.3,0.4,1.4,1.1c0,0.1,0,0.2,0,0.3c0,1-0.1,2-0.1,3c0,0.4,0.1,0.8,0.4,0.8c0.2,0,0.3-0.1,0.5-0.2
	L448.4,208.9z M446.5,206.3c-1.5,0.2-2.3,0.5-2.3,1.4c0,0.5,0.3,0.9,0.8,0.9c0.1,0,0.1,0,0.2,0c0.5-0.1,1-0.4,1.3-0.8V206.3z
	 M449.3,203.7h0.9v0.9l0,0c0.4-0.6,1.1-1,1.9-1c1.3,0,1.7,0.6,1.7,1.7c0,0.4,0,0.8,0,1.3v2.7h-0.9v-2.5c0-0.5,0-1,0-1.5
	s-0.4-0.9-1-0.9c-0.7,0.1-1.3,0.4-1.6,1v3.8h-0.9L449.3,203.7z M460.7,203.5c1.6,0,2.6,1.1,2.6,2.9c0.1,1.5-1,2.8-2.5,2.9h-0.1
	c-1.6,0-2.6-1.1-2.6-2.9c0-1.5,1.2-2.7,2.7-2.8c0,0,0,0,0.1,0L460.7,203.5z M460.6,208.7c0.8,0,1.7-0.7,1.7-2.2s-0.7-2.2-1.6-2.2
	s-1.7,0.8-1.7,2.4s0.8,2.2,1.7,2.2L460.6,208.7z M463.9,203.7h1.1c0-0.3,0-0.7,0-1c0.1-1.4,1-1.8,2.3-1.8v0.7H467
	c-0.7,0-1.1,0.6-1.1,1.3v0.9h1.5v0.7H466v4.8h-1v-4.8h-1L463.9,203.7z M467.4,203.7h1.1c0-0.3,0-0.7,0-1c0.1-1.4,1-1.8,2.3-1.8v0.7
	h-0.4c-0.7,0-1.1,0.6-1.1,1.3v0.9h3.2v5.5h-0.9v-4.8h-2.3v4.8h-0.9v-4.8h-1.1L467.4,203.7z M471.6,201.5h1v1h-1V201.5z"/>
<text transform="matrix(1 0 0 1 470.29 209.3)" class="st20 st24 st19"> cial photo ID, such </text>
<path class="st20" d="M91.5,225.1c-0.3,0.2-0.6,0.4-1,0.4c-0.5,0-0.8-0.4-0.8-0.9c-0.4,0.5-1,0.9-1.7,0.9c-0.8,0.1-1.5-0.6-1.6-1.4
	c0-0.1,0-0.1,0-0.2c0-1.6,2-1.9,3.2-2c0-0.2,0-0.5,0-0.7c0-0.4-0.3-0.8-0.7-0.8c-0.1,0-0.1,0-0.2,0c-0.4,0-0.8,0.2-1.6,0.8l-0.4-0.6
	c1.1-0.7,1.4-0.9,2.3-0.9c0.7-0.1,1.3,0.4,1.4,1.1c0,0.1,0,0.2,0,0.3c0,1-0.1,2-0.1,3c0,0.4,0.1,0.8,0.4,0.8c0.2,0,0.3-0.1,0.5-0.2
	L91.5,225.1z M89.7,222.4c-1.5,0.2-2.3,0.5-2.3,1.4c0,0.5,0.3,0.9,0.8,0.9c0.1,0,0.1,0,0.2,0c0.5-0.1,1-0.4,1.3-0.8V222.4z
	 M92.3,224.3c0.3,0.3,0.8,0.4,1.2,0.5c0.5,0,1-0.3,1.1-0.9c0-1.4-2.6-0.8-2.6-2.6c0-0.9,0.8-1.7,1.7-1.6h0.1c0.6,0,1.1,0.2,1.6,0.5
	l-0.4,0.6c-0.3-0.2-0.6-0.3-1-0.4c-0.6,0-1.1,0.3-1.1,0.9c0,1.2,2.6,0.7,2.6,2.6c0,0.9-0.8,1.7-1.8,1.7l0,0c-0.6,0-1.2-0.2-1.7-0.5
	L92.3,224.3z M104.4,225.1c-0.3,0.2-0.6,0.4-1,0.4c-0.5,0-0.8-0.4-0.8-0.9c-0.4,0.5-1,0.9-1.7,0.9c-0.8,0-1.5-0.6-1.6-1.4
	c0-0.1,0-0.1,0-0.2c0-1.6,2-1.9,3.2-2c0-0.2,0-0.5,0-0.7c0-0.4-0.3-0.8-0.7-0.8h-0.1c-0.4,0-0.8,0.2-1.6,0.8l-0.4-0.6
	c1.1-0.7,1.4-0.9,2.2-0.9c0.7-0.1,1.3,0.4,1.4,1.1c0,0.1,0,0.2,0,0.3c0,1-0.1,2-0.1,3c0,0.4,0.1,0.8,0.4,0.8c0.2,0,0.3-0.1,0.5-0.2
	L104.4,225.1z M102.5,222.4c-1.5,0.2-2.3,0.5-2.3,1.4c0,0.5,0.3,0.9,0.8,0.9c0.1,0,0.1,0,0.2,0c0.5-0.1,1-0.4,1.3-0.8V222.4z
	 M111.8,217.1h0.9l-0.1,8.3h-0.9v-0.7l0,0c-0.4,0.6-1,0.9-1.7,0.9c-0.9,0-2.2-0.7-2.2-2.9c-0.1-1.5,1-2.8,2.5-2.9
	c0.6,0,1.1,0.2,1.4,0.7l0,0L111.8,217.1z M111.8,221.3c-0.2-0.5-0.8-0.9-1.3-0.9c-1,0-1.6,1.1-1.6,2.2c0,1.5,0.7,2.2,1.5,2.2
	c0.6,0,1.2-0.4,1.5-1L111.8,221.3z M114.5,219.8h0.9v1.1l0,0c0.2-0.7,0.8-1.2,1.5-1.2c0.2,0,0.3,0,0.5,0.1l-0.3,0.8
	c-0.1,0-0.2,0-0.3-0.1c-0.4,0-0.9,0.3-1.4,1.2v3.6h-0.9L114.5,219.8z M118,217.7h1v1h-1V217.7z M118,219.8h0.9v5.5H118V219.8z
	 M124.9,219.9l-2.2,5.4h-0.9l-2-5.4l0.9-0.2l1.6,4.6l0,0l1.7-4.6L124.9,219.9z M126.5,222.4v0.2c0,1.1,0.4,2.2,1.6,2.2
	c0.6-0.1,1.2-0.3,1.6-0.8l0.4,0.5c-0.5,0.6-1.3,1-2.1,1c-1.5,0-2.4-1.1-2.4-2.9c-0.1-1.5,1-2.8,2.5-2.9c1.5,0,2.1,1.1,2.1,2.6v0.2
	L126.5,222.4z M129.3,221.9c0-0.8-0.3-1.5-1.2-1.5c-0.8,0.1-1.4,0.7-1.5,1.5H129.3z M131.5,219.9h0.9v1.1l0,0
	c0.2-0.7,0.8-1.2,1.5-1.2c0.2,0,0.3,0,0.5,0.1l-0.3,0.8c-0.1,0-0.2,0-0.3-0.1c-0.4,0-1,0.3-1.4,1.2v3.6h-0.9V219.9z M135.3,217.7
	h1.2l-0.8,2.6h-0.4V217.7z M137.3,224.4c0.3,0.3,0.8,0.4,1.2,0.5c0.5,0,1-0.3,1.1-0.9c0-1.4-2.5-0.8-2.5-2.6c0-0.9,0.8-1.7,1.7-1.6
	h0.1c0.6,0,1.1,0.2,1.6,0.5l-0.4,0.6c-0.3-0.2-0.6-0.3-1-0.4c-0.6,0-1.1,0.3-1.1,0.9c0,1.2,2.5,0.7,2.5,2.6c0,0.9-0.8,1.7-1.8,1.7
	l0,0c-0.6,0-1.2-0.2-1.7-0.5L137.3,224.4z M144.7,217.1h0.9l-0.1,8.3h-0.9L144.7,217.1z M147.1,217.7h0.9v1h-0.9V217.7z
	 M147.1,219.9h0.9v5.5h-0.9V219.9z M153,221c-0.3-0.4-0.7-0.6-1.2-0.6c-0.8,0-1.6,0.8-1.6,2.3c-0.1,1,0.6,1.9,1.6,2l0,0
	c0.5-0.1,0.9-0.3,1.2-0.7l0.5,0.5c-0.4,0.6-1.1,0.9-1.9,0.9c-1.4,0-2.4-1.1-2.4-2.9c-0.1-1.5,1.1-2.8,2.6-2.9c0.7,0,1.4,0.3,1.8,0.9
	L153,221z M155.1,222.4v0.2c0,1.1,0.4,2.2,1.6,2.2c0.6-0.1,1.2-0.3,1.6-0.8l0.4,0.5c-0.5,0.6-1.3,1-2.1,1c-1.5,0-2.4-1.1-2.4-2.9
	c-0.1-1.5,1-2.8,2.5-2.9c1.5,0,2.1,1.1,2.1,2.6v0.2L155.1,222.4z M157.8,221.8c0-0.8-0.3-1.5-1.2-1.5c-0.8,0.1-1.4,0.7-1.5,1.5
	H157.8z M160,219.8h0.9v0.9l0,0c0.4-0.6,1.1-1,1.9-1c1.3,0,1.7,0.6,1.7,1.7c0,0.4,0,0.8,0,1.3v2.7h-0.9v-2.5c0-0.5,0-1,0-1.5
	s-0.4-0.9-1-0.9c-0.7,0.1-1.3,0.4-1.6,1v3.8h-1L160,219.8L160,219.8z M166,224.3c0.3,0.3,0.8,0.4,1.2,0.5c0.5,0,1-0.3,1.1-0.9
	c0-1.4-2.5-0.8-2.5-2.6c0-0.9,0.8-1.7,1.7-1.6h0.1c0.6,0,1.1,0.2,1.6,0.5l-0.4,0.6c-0.3-0.2-0.6-0.3-1-0.4c-0.6,0-1.1,0.3-1.1,0.9
	c0,1.2,2.5,0.7,2.5,2.6c0,0.9-0.8,1.7-1.8,1.7l0,0c-0.6,0-1.2-0.2-1.7-0.5L166,224.3z M171,222.4v0.2c0,1.1,0.4,2.2,1.6,2.2
	c0.6,0,1.2-0.3,1.6-0.8l0.4,0.5c-0.5,0.6-1.3,1-2.1,1c-1.5,0-2.4-1.1-2.4-2.9c-0.1-1.5,1-2.8,2.5-2.9c1.5,0,2.1,1.1,2.1,2.6v0.2
	L171,222.4z M173.8,221.9c0-0.8-0.3-1.5-1.2-1.5c-0.8,0.1-1.4,0.7-1.5,1.5H173.8z M176.2,224.2h1.2l-0.8,2.6h-0.4V224.2z
	 M182.1,219.8h0.9v0.7l0,0c0.4-0.6,1-0.9,1.7-0.9c0.9,0,2.2,0.7,2.2,2.9c0,1.5-1,2.9-2.4,2.9c-0.6,0-1.2-0.2-1.6-0.7l0,0v3.3H182
	L182.1,219.8z M182.9,223.8c0.3,0.5,0.8,0.9,1.4,0.9c1,0,1.6-1.1,1.6-2.2c0-1.5-0.7-2.2-1.4-2.2s-1.2,0.4-1.5,1L182.9,223.8z
	 M188.1,217h0.9l-0.1,8.3H188L188.1,217z M190.6,219.8h0.9v2.5c0,0.5,0,1,0,1.5s0.4,0.9,1,0.9c0.7-0.1,1.3-0.4,1.6-1v-3.8h0.8v5.5
	H194v-0.9l0,0c-0.4,0.6-1.1,1-1.9,1c-1.3,0-1.7-0.6-1.7-1.7c0-0.4,0-0.8,0-1.3L190.6,219.8z M196.6,224.3c0.3,0.3,0.8,0.4,1.2,0.5
	c0.5,0,1-0.3,1.1-0.9c0-1.4-2.5-0.8-2.5-2.6c0-0.9,0.8-1.7,1.7-1.6h0.1c0.6,0,1.1,0.2,1.6,0.5l-0.4,0.6c-0.3-0.2-0.6-0.3-1-0.4
	c-0.6,0-1.1,0.3-1.1,0.9c0,1.2,2.5,0.7,2.5,2.6c0,0.9-0.8,1.7-1.8,1.7l0,0c-0.6,0-1.2-0.2-1.7-0.5L196.6,224.3z M204,224.3
	c0.3,0.3,0.8,0.4,1.2,0.5c0.5,0,1-0.3,1.1-0.9c0-1.4-2.6-0.8-2.6-2.6c0-0.9,0.8-1.7,1.7-1.6h0.1c0.6,0,1.1,0.2,1.6,0.5l-0.4,0.6
	c-0.3-0.2-0.6-0.3-1-0.4c-0.6,0-1.1,0.3-1.1,0.9c0,1.2,2.6,0.7,2.6,2.6c0,0.9-0.8,1.7-1.8,1.7l0,0c-0.6,0-1.2-0.2-1.7-0.5L204,224.3
	z M210.6,219.6c1.6,0,2.6,1.1,2.6,2.9c0.1,1.5-1.1,2.8-2.6,2.9h-0.1c-1.6,0-2.6-1.1-2.6-2.9C207.9,221,209,219.7,210.6,219.6
	C210.6,219.7,210.6,219.7,210.6,219.6L210.6,219.6z M210.5,224.8c0.8,0,1.7-0.7,1.7-2.2s-0.7-2.2-1.6-2.2s-1.7,0.7-1.7,2.2
	S209.6,224.8,210.5,224.8L210.5,224.8z M214.5,219.8h0.9v0.8l0,0c0.4-0.6,1.1-1,1.8-1c0.6-0.1,1.2,0.4,1.4,1c0.5-0.6,1.2-0.9,1.9-1
	c1.1,0,1.5,0.6,1.5,1.7c0,0.4,0,0.8,0,1.3v2.7h-0.9v-2.5c0-0.5,0-1,0-1.5c0-0.4-0.3-0.8-0.7-0.9h-0.1c-0.6,0.1-1.2,0.4-1.6,0.9
	l-0.1,3.9h-0.9v-2.5c0-0.5,0-1,0-1.5c0-0.4-0.3-0.8-0.7-0.9h-0.1c-0.6,0.1-1.2,0.4-1.6,0.9l-0.1,3.9h-0.9L214.5,219.8z M224.2,222.4
	v0.2c0,1.1,0.4,2.2,1.6,2.2c0.6,0,1.2-0.3,1.6-0.8l0.4,0.5c-0.5,0.6-1.3,1-2.1,1c-1.5,0-2.4-1.1-2.4-2.9c-0.1-1.5,1-2.8,2.5-2.9
	c1.5,0,2.1,1.1,2.1,2.6v0.2L224.2,222.4z M227,221.8c0-0.8-0.3-1.5-1.2-1.5c-0.8,0.1-1.4,0.7-1.5,1.5H227z M232.3,219.8h0.9v0.7l0,0
	c0.4-0.6,1-0.9,1.7-0.9c0.9,0,2.2,0.7,2.2,2.9c0,1.5-1,2.9-2.4,2.9c-0.6,0-1.2-0.2-1.6-0.7l0,0v3.3h-0.9L232.3,219.8z M233.1,223.8
	c0.3,0.5,0.8,0.9,1.4,0.9c1,0,1.6-1.1,1.6-2.2c0-1.5-0.7-2.2-1.4-2.2s-1.2,0.4-1.5,1L233.1,223.8z M238.4,219.8h0.9v1.1l0,0
	c0.2-0.7,0.8-1.2,1.5-1.2c0.2,0,0.3,0,0.5,0.1l-0.3,0.8c-0.1,0-0.2,0-0.4-0.1c-0.4,0-0.9,0.3-1.4,1.2l-0.1,3.6h-0.9L238.4,219.8z
	 M244.2,219.6c1.6,0,2.6,1.1,2.6,2.9c0.1,1.5-1,2.8-2.5,2.9h-0.1c-1.6,0-2.6-1.1-2.6-2.9C241.5,221,242.7,219.7,244.2,219.6
	L244.2,219.6z M244.1,224.8c0.8,0,1.7-0.7,1.7-2.2s-0.7-2.2-1.6-2.2s-1.7,0.7-1.7,2.2S243.1,224.8,244.1,224.8L244.1,224.8z
	 M250.3,219.6c1.6,0,2.6,1.1,2.6,2.9c0.1,1.5-1.1,2.8-2.6,2.9h-0.1c-1.6,0-2.6-1.1-2.6-2.9c-0.1-1.5,1.1-2.8,2.6-2.9H250.3z
	 M250.2,224.8c0.8,0,1.7-0.7,1.7-2.2s-0.7-2.2-1.6-2.2s-1.7,0.7-1.7,2.2s0.6,2.3,1.5,2.3L250.2,224.8z M253.6,219.8h1.1
	c0-0.3,0-0.7,0-1c0.1-1.4,1.1-1.8,2.3-1.8v0.7h-0.4c-0.7,0-1.1,0.6-1.1,1.3v0.9h1.5v0.7h-1.6l-0.1,4.8h-0.9l0.1-4.8h-1.1
	L253.6,219.8z M263.1,219.6c1.6,0,2.6,1.1,2.6,2.9c0.1,1.5-1.1,2.8-2.6,2.9H263c-1.6,0-2.6-1.1-2.6-2.9c-0.1-1.5,1.1-2.7,2.5-2.8
	L263.1,219.6z M263,224.7c0.8,0,1.7-0.7,1.7-2.2s-0.7-2.2-1.6-2.2s-1.7,0.7-1.7,2.2s0.6,2.3,1.5,2.3L263,224.7z M266.4,219.7h1.1
	c0-0.3,0-0.7,0-1c0.1-1.4,1-1.8,2.3-1.8v0.7h-0.4c-0.7,0-1,0.6-1.1,1.3v0.9h1.5v0.7h-1.5v4.8h-0.9v-4.8h-1.1L266.4,219.7z
	 M274.1,219.7v-2h0.9v2h1.5v0.7H275v2.3c0,0.6,0,1,0,1.3c0,0.4,0.1,0.7,0.5,0.7c0.3,0,0.6-0.1,0.9-0.3l0.3,0.6
	c-0.4,0.3-0.9,0.4-1.4,0.5c-0.9,0-1.2-0.5-1.2-1.4c0-0.4,0-0.8,0-1.6v-2h-1v-0.7h1L274.1,219.7L274.1,219.7z M277.4,217h0.9v3.6l0,0
	c0.4-0.6,1.1-1,1.8-1c1.3,0,1.7,0.6,1.7,1.7c0,0.4,0,0.8,0,1.3v2.7H281v-2.5c0-0.5,0-1,0-1.5s-0.4-0.9-1-0.9c-0.7,0.1-1.3,0.4-1.6,1
	v3.8h-0.9L277.4,217z M284,222.3v0.2c0,1.1,0.4,2.2,1.5,2.2c0.6-0.1,1.2-0.3,1.6-0.8l0.4,0.5c-0.5,0.6-1.3,1-2.1,1
	c-1.5,0-2.4-1.1-2.4-2.9c-0.1-1.5,1-2.8,2.5-2.9c1.5,0,2.1,1.1,2.1,2.6v0.2L284,222.3z M286.8,221.8c0-0.8-0.3-1.5-1.2-1.5
	c-0.8,0.1-1.4,0.7-1.5,1.5H286.8z M288.9,217.6h1v1h-1V217.6z M288.9,219.7h0.9v5.5h-0.9V219.7z M291.4,219.7h0.9v1.1l0,0
	c0.2-0.7,0.8-1.2,1.5-1.2c0.2,0,0.3,0,0.5,0.1l-0.3,0.8c-0.1,0-0.2,0-0.3-0.1c-0.4,0-1,0.3-1.4,1.2v3.6h-0.9L291.4,219.7z
	 M301.4,221c-0.3-0.4-0.7-0.6-1.2-0.6c-0.8,0-1.6,0.8-1.6,2.3c-0.1,1,0.6,1.9,1.6,2l0,0c0.5,0,1-0.3,1.3-0.7l0.5,0.5
	c-0.4,0.6-1.1,0.9-1.9,0.9c-1.4,0-2.4-1.1-2.4-2.9c-0.1-1.5,1.1-2.8,2.6-2.9c0.7,0,1.4,0.3,1.8,0.9L301.4,221z M302.8,217.7h1v1h-1
	V217.7z M302.8,219.8h0.9v5.5h-0.9V219.8z M305.7,219.8v-2h0.9v2h1.5v0.7h-1.5v2.3c0,0.6,0,1,0,1.3c0,0.4,0.1,0.7,0.5,0.7
	c0.3,0,0.6-0.1,0.9-0.3l0.3,0.6c-0.4,0.3-0.9,0.4-1.4,0.5c-0.9,0-1.2-0.5-1.2-1.4c0-0.4,0-0.8,0-1.6v-2h-0.9v-0.7h0.9L305.7,219.8
	L305.7,219.8z M308.9,217.7h0.9v1H309L308.9,217.7z M308.9,219.8h0.9v5.5H309L308.9,219.8z M315,225.3h-4l-0.2-0.5l3.1-4.2h-2.8
	v-0.8h3.9l0.2,0.4l-3.1,4.4h2.9V225.3z M316.8,222.4v0.2c0,1.1,0.4,2.2,1.5,2.2c0.6,0,1.2-0.3,1.6-0.8l0.4,0.5c-0.5,0.6-1.3,1-2.1,1
	c-1.5,0-2.4-1.1-2.4-2.9c-0.1-1.5,1-2.8,2.5-2.9c1.5,0,2.1,1.1,2.1,2.6v0.2L316.8,222.4z M319.6,221.8c0-0.8-0.3-1.5-1.2-1.5
	c-0.8,0.1-1.4,0.7-1.5,1.5H319.6z M321.8,219.8h0.9v0.9l0,0c0.4-0.6,1.1-1,1.9-1c1.3,0,1.7,0.6,1.7,1.7c0,0.4,0,0.8,0,1.3v2.7h-0.9
	v-2.5c0-0.5,0-1,0-1.5s-0.4-0.9-1-0.9c-0.7,0.1-1.3,0.4-1.6,1v3.8h-0.9L321.8,219.8z M327.8,224.3c0.3,0.3,0.8,0.4,1.2,0.5
	c0.5,0,1-0.4,1.1-0.9c0-1.4-2.5-0.8-2.5-2.6c0-0.9,0.8-1.7,1.7-1.6h0.1c0.6,0,1.1,0.2,1.6,0.5l-0.4,0.6c-0.3-0.2-0.6-0.3-1-0.4
	c-0.6,0-1.1,0.3-1.1,0.9c0,1.2,2.5,0.7,2.5,2.6c0,0.9-0.8,1.7-1.8,1.7c0,0,0,0-0.1,0c-0.6,0-1.2-0.2-1.7-0.5L327.8,224.3z
	 M332.2,217.1h0.9v3.6l0,0c0.4-0.6,1.1-1,1.8-1c1.3,0,1.7,0.6,1.7,1.7c0,0.4,0,0.8,0,1.3v2.7h-0.9v-2.5c0-0.5,0-1,0-1.5
	s-0.4-0.9-1-0.9c-0.7,0.1-1.3,0.4-1.6,1v3.8h-0.9V217.1z M338.2,217.7h1v1h-1V217.7z M338.3,219.8h0.9v5.5h-0.9V219.8z M340.8,219.8
	h0.9v0.7l0,0c0.4-0.6,1-0.9,1.7-0.9c0.9,0,2.2,0.7,2.2,2.9c0,1.5-1,2.9-2.4,2.9c-0.6,0-1.2-0.2-1.5-0.7l0,0v3.3h-0.9L340.8,219.8z
	 M341.6,223.8c0.3,0.5,0.8,0.8,1.4,0.9c1,0,1.6-1.1,1.6-2.2c0-1.5-0.7-2.2-1.5-2.2c-0.6,0.1-1.2,0.4-1.5,1V223.8z M347.1,224.2h1.2
	l-0.8,2.6h-0.4L347.1,224.2z M352.9,224.3c0.3,0.3,0.8,0.4,1.2,0.5c0.5,0,1-0.4,1.1-0.9c0-1.4-2.5-0.8-2.5-2.6
	c0-0.9,0.8-1.7,1.7-1.6h0.1c0.6,0,1.1,0.2,1.6,0.5l-0.4,0.6c-0.3-0.2-0.7-0.3-1-0.4c-0.6,0-1.1,0.3-1.1,0.9c0,1.2,2.5,0.7,2.5,2.6
	c0,0.9-0.8,1.7-1.8,1.7c0,0,0,0-0.1,0c-0.6,0-1.2-0.2-1.7-0.5L352.9,224.3z M357.3,219.8h0.9v2.5c0,0.5,0,1,0,1.5s0.4,0.9,1,0.9
	c0.7-0.1,1.3-0.4,1.6-1v-3.8h0.9v5.5h-0.9v-0.9l0,0c-0.4,0.6-1.1,1-1.9,1c-1.3,0-1.7-0.6-1.7-1.7c0-0.4,0-0.8,0-1.3L357.3,219.8z
	 M366.8,221c-0.3-0.4-0.7-0.6-1.2-0.6c-0.8,0-1.6,0.8-1.6,2.3c-0.1,1,0.6,1.9,1.6,2l0,0c0.5,0,1-0.3,1.2-0.7l0.5,0.5
	c-0.4,0.6-1.1,0.9-1.9,0.9c-1.4,0-2.4-1.1-2.4-2.9c-0.1-1.5,1.1-2.8,2.6-2.9c0.7,0,1.4,0.3,1.8,0.9L366.8,221z M368.3,217h0.9v3.6
	l0,0c0.4-0.6,1.1-1,1.8-1c1.3,0,1.7,0.6,1.7,1.7c0,0.4,0,0.8,0,1.3v2.7h-0.9v-2.5c0-0.5,0-1,0-1.5s-0.4-0.9-1-0.9
	c-0.7,0.1-1.3,0.4-1.6,1v3.8h-0.9V217z M382.1,225c-0.3,0.2-0.6,0.4-1,0.4c-0.5,0-0.8-0.4-0.8-0.9c-0.4,0.5-1,0.9-1.6,0.9
	c-0.8,0.1-1.5-0.6-1.6-1.4c0-0.1,0-0.1,0-0.2c0-1.6,2-1.9,3.2-2c0-0.2,0-0.5,0-0.7c0-0.4-0.3-0.8-0.7-0.8h-0.1
	c-0.4,0-0.8,0.2-1.6,0.8l-0.4-0.6c1.1-0.7,1.5-0.9,2.3-0.9c0.7-0.1,1.3,0.4,1.4,1.1c0,0.1,0,0.2,0,0.3c0,1-0.1,2-0.1,3
	c0,0.4,0.1,0.8,0.4,0.8c0.2,0,0.3-0.1,0.5-0.2L382.1,225z M380.3,222.4c-1.5,0.2-2.3,0.5-2.3,1.4c0,0.5,0.3,0.9,0.8,0.9
	c0.1,0,0.1,0,0.2,0c0.5-0.1,1-0.4,1.3-0.8V222.4z M382.9,224.3c0.3,0.3,0.8,0.4,1.2,0.5c0.5,0,1-0.3,1.1-0.9c0-1.4-2.5-0.8-2.5-2.6
	c0-0.9,0.8-1.7,1.7-1.6h0.1c0.6,0,1.1,0.2,1.6,0.5l-0.4,0.6c-0.3-0.2-0.6-0.3-1-0.4c-0.6,0-1.1,0.3-1.1,0.9c0,1.2,2.5,0.7,2.5,2.6
	c0,0.9-0.8,1.7-1.8,1.7l0,0c-0.6,0-1.2-0.2-1.7-0.5L382.9,224.3z M395,225c-0.3,0.2-0.6,0.4-1,0.4c-0.5,0-0.8-0.4-0.8-0.9
	c-0.4,0.5-1,0.9-1.6,0.9c-0.8,0-1.5-0.6-1.6-1.4c0-0.1,0-0.1,0-0.2c0-1.6,2-1.9,3.2-2c0-0.2,0-0.5,0-0.7c0-0.4-0.3-0.8-0.7-0.8h-0.1
	c-0.4,0-0.8,0.2-1.6,0.8l-0.4-0.6c1.1-0.7,1.5-0.9,2.2-0.9c0.7-0.1,1.3,0.4,1.4,1.1c0,0.1,0,0.2,0,0.3c0,1-0.1,2-0.1,3
	c0,0.4,0.1,0.8,0.4,0.8c0.2,0,0.3-0.1,0.5-0.2L395,225z M393.1,222.4c-1.5,0.2-2.3,0.5-2.3,1.4c0,0.5,0.3,0.9,0.8,0.9
	c0.1,0,0.1,0,0.2,0c0.5-0.1,1-0.4,1.3-0.8V222.4z M395.8,219.8h0.9v0.9l0,0c0.4-0.6,1.1-1,1.9-1c1.3,0,1.7,0.6,1.7,1.7
	c0,0.4,0,0.8,0,1.3v2.7h-0.9v-2.5c0-0.5,0-1,0-1.5s-0.4-0.9-1-0.9c-0.7,0.1-1.3,0.4-1.6,1v3.8h-0.9L395.8,219.8z M407.2,219.6
	c1.6,0,2.6,1.1,2.6,2.9c0.1,1.5-1.1,2.8-2.6,2.9h-0.1c-1.6,0-2.6-1.1-2.6-2.9C404.5,221,405.7,219.7,407.2,219.6
	C407.2,219.7,407.3,219.7,407.2,219.6L407.2,219.6z M407.1,224.7c0.8,0,1.7-0.7,1.7-2.2s-0.7-2.2-1.6-2.2s-1.7,0.7-1.7,2.2
	S406.3,224.8,407.1,224.7L407.1,224.7z M411.1,219.7h0.9v1.1l0,0c0.2-0.7,0.8-1.2,1.5-1.2c0.2,0,0.3,0,0.5,0.1l-0.3,0.8
	c-0.1,0-0.2,0-0.3-0.1c-0.4,0-1,0.3-1.4,1.2v3.6h-0.9L411.1,219.7z M414.7,217.6h1v1h-1V217.6z M414.7,219.7h0.9v5.5h-0.9V219.7z
	 M422.3,220.4H421c0.3,0.3,0.4,0.7,0.4,1.1c0,1-0.8,1.8-1.9,1.8c0,0,0,0-0.1,0c-0.3,0-0.7-0.1-1-0.2c-0.5,0.4-0.6,0.5-0.6,0.6
	s0.2,0.4,1.7,0.6s2.4,0.6,2.4,1.5c0,1.3-1.6,2-2.7,2c-1,0-2.5-0.3-2.5-1.5c0-0.8,0.9-1.2,1.5-1.5l0,0c-1-0.1-1.3-0.4-1.3-0.7
	s0.3-0.6,1.3-1.1c-0.5-0.3-0.7-0.9-0.7-1.5c0-1,0.9-1.8,1.9-1.8h0.1c0.3,0,0.7,0.1,1,0.3h1.8L422.3,220.4z M419.3,227.3
	c0.7,0,1.8-0.4,1.8-1.3c0-0.6-0.5-0.8-2.2-1.1c-1,0.5-1.2,0.9-1.2,1.4C417.7,227.1,418.7,227.4,419.3,227.3L419.3,227.3z
	 M419.4,220.2c-0.6,0.1-1.1,0.6-1.1,1.2c0,0,0,0,0,0.1c-0.1,0.6,0.3,1.1,0.9,1.2c0,0,0,0,0.1,0c0.8,0,1.1-0.6,1.1-1.2
	S420.3,220.3,419.4,220.2L419.4,220.2z M423.2,217.6h0.9v1h-0.9V217.6z M423.2,219.7h0.9v5.5h-0.9V219.7z M425.7,219.7h0.9v0.9l0,0
	c0.4-0.6,1.1-1,1.9-1c1.3,0,1.7,0.6,1.7,1.7c0,0.4,0,0.8,0,1.3v2.7h-0.9v-2.5c0-0.5,0-1,0-1.5s-0.4-0.9-1-0.9
	c-0.7,0.1-1.3,0.4-1.6,1v3.8h-0.9L425.7,219.7z M436.5,225c-0.3,0.2-0.6,0.4-1,0.4c-0.5,0-0.8-0.4-0.8-0.9c-0.4,0.5-1,0.9-1.6,0.9
	c-0.8,0-1.5-0.6-1.6-1.4c0-0.1,0-0.1,0-0.2c0-1.6,2-1.9,3.2-2c0-0.2,0-0.5,0-0.7c0-0.4-0.3-0.8-0.7-0.8c-0.1,0-0.1,0-0.2,0
	c-0.4,0-0.8,0.2-1.6,0.8l-0.4-0.6c1.1-0.7,1.5-0.9,2.2-0.9c0.7-0.1,1.3,0.4,1.4,1.1c0,0.1,0,0.2,0,0.3c0,1-0.1,2-0.1,3
	c0,0.4,0,0.8,0.4,0.8c0.2,0,0.3-0.1,0.5-0.2L436.5,225z M434.6,222.4c-1.5,0.2-2.3,0.5-2.3,1.4c0,0.5,0.3,0.9,0.8,0.9
	c0.1,0,0.1,0,0.2,0c0.5-0.1,1-0.4,1.3-0.8V222.4z M437.3,217h0.9l-0.1,8.3h-0.9L437.3,217z M442.9,217h0.9v3.5l0,0
	c0.4-0.6,1-0.9,1.7-0.9c0.9,0,2.2,0.7,2.2,2.9c0,1.5-1,2.9-2.4,2.9c-0.6,0-1.2-0.2-1.6-0.7l0,0v0.6h-0.8L442.9,217z M443.7,223.8
	c0.3,0.5,0.8,0.8,1.4,0.9c1,0,1.6-1.1,1.6-2.2c0-1.5-0.7-2.2-1.5-2.2c-0.7,0-1.2,0.4-1.5,1V223.8z M448.8,217.6h1v1h-1V217.6z
	 M448.9,219.7h0.9v5.5h-0.9V219.7z M451.4,219.7h0.9v1.1l0,0c0.2-0.7,0.8-1.2,1.5-1.2c0.2,0,0.3,0,0.5,0.1l-0.3,0.8
	c-0.1,0-0.2,0-0.4-0.1c-0.4,0-0.9,0.3-1.4,1.2v3.6h-0.9L451.4,219.7z M455.4,219.7v-2h0.9v2h1.5v0.7h-1.5v2.3c0,0.6,0,1,0,1.3
	c0,0.4,0.1,0.7,0.5,0.7c0.3,0,0.6-0.1,0.9-0.3l0.3,0.6c-0.4,0.3-0.9,0.4-1.4,0.5c-0.9,0-1.2-0.5-1.2-1.4c0-0.4,0-0.8,0-1.6v-2h-0.9
	v-0.7h0.9L455.4,219.7L455.4,219.7z M458.8,217h0.9v3.6l0,0c0.4-0.6,1.1-1,1.8-1c1.3,0,1.7,0.6,1.7,1.7c0,0.4,0,0.8,0,1.3v2.7h-0.9
	v-2.5c0-0.5,0-1,0-1.5s-0.4-0.9-1-0.9c-0.7,0.1-1.3,0.4-1.6,1v3.8h-0.9V217z M471.3,221c-0.3-0.4-0.7-0.6-1.2-0.6
	c-0.8,0-1.6,0.8-1.6,2.3c-0.1,1,0.6,1.9,1.6,2l0,0c0.5,0,1-0.3,1.2-0.7l0.5,0.5c-0.4,0.6-1.1,0.9-1.8,0.9c-1.4,0-2.4-1.1-2.4-2.9
	c-0.1-1.5,1.1-2.8,2.6-2.9c0.7,0,1.4,0.3,1.8,0.9L471.3,221z M473.3,222.4v0.2c0,1.1,0.4,2.2,1.5,2.2c0.6-0.1,1.2-0.3,1.6-0.8
	l0.4,0.5c-0.5,0.6-1.3,1-2.1,1c-1.5,0-2.4-1.1-2.4-2.9c-0.1-1.5,1-2.8,2.5-2.9c1.5,0,2.1,1.1,2.1,2.6v0.2L473.3,222.4z M476.1,221.8
	c0-0.8-0.3-1.5-1.2-1.5c-0.8,0.1-1.4,0.7-1.5,1.5H476.1z M478.3,219.8h0.9v1.1l0,0c0.2-0.7,0.8-1.2,1.5-1.2c0.2,0,0.3,0,0.5,0.1
	l-0.3,0.8c-0.1,0-0.2,0-0.3-0.1c-0.4,0-1,0.3-1.4,1.2v3.6h-0.9L478.3,219.8z M482.3,219.8v-2h0.9v2h1.5v0.7h-1.5v2.3
	c0,0.6,0,1,0,1.3c0,0.4,0.1,0.7,0.5,0.7c0.3,0,0.6-0.1,0.9-0.3l0.3,0.6c-0.4,0.3-0.9,0.4-1.4,0.5c-0.8,0-1.2-0.5-1.2-1.4
	c0-0.4,0-0.8,0-1.6v-2h-0.9v-0.7h0.9L482.3,219.8L482.3,219.8z M485.5,217.7h1v1h-1V217.7z M485.5,219.8h0.9v5.5h-0.9V219.8z
	 M487.4,219.8h1.1c0-0.3,0-0.7,0-1c0.1-1.4,1-1.8,2.3-1.8v0.7h-0.4c-0.7,0-1,0.6-1.1,1.3v0.9h3.2v5.5h-0.9v-4.8h-2.3v4.8h-0.9v-4.8
	h-1.1L487.4,219.8z M491.6,217.7h1v1h-1V217.7z"/>
<text transform="matrix(1 0 0 1 490.33 225.3)" class="st20 st24 st19"> cate. But to </text>
<text transform="matrix(1 0 0 1 86.03 241.3)" class="st20 st24 st19">r</text>
<text transform="matrix(1 0 0 1 89.58 241.3)" class="st20 st24 st19">eturn to or transit the US by ai</text>
<text transform="matrix(1 0 0 1 233.21 241.3)" class="st20 st24 st19">r</text>
<text transform="matrix(1 0 0 1 235.99 241.3)" class="st20 st24 st19">, a passport or other secu</text>
<text transform="matrix(1 0 0 1 355.19 241.3)" class="st20 st24 st19">r</text>
<text transform="matrix(1 0 0 1 358.74 241.3)" class="st20 st24 st19">e travel document such as a Nexus ca</text>
<text transform="matrix(1 0 0 1 535.99 241.3)" class="st20 st24 st19">r</text>
<text transform="matrix(1 0 0 1 539.56 241.3)" class="st20 st24 st19">d is</text>
<text transform="matrix(1 0 0 1 86.03 257.3)" class="st20 st24 st19">r</text>
<text transform="matrix(1 0 0 1 89.58 257.3)" class="st20 st24 st19">equi</text>
<text transform="matrix(1 0 0 1 109.76 257.3)" class="st20 st24 st19">r</text>
<text transform="matrix(1 0 0 1 113.31 257.3)" class="st20 st24 st19">ed. </text>
<text transform="matrix(1 0 0 1 131.04 257.3)" class="st20 st24 st19">T</text>
<text transform="matrix(1 0 0 1 136.16 257.3)" class="st20 st24 st19">o </text>
<text transform="matrix(1 0 0 1 145.33 257.3)" class="st20 st24 st19">r</text>
<text transform="matrix(1 0 0 1 148.88 257.3)" class="st20 st24 st19">eturn to or transit the US by land or sea, Americans and Canadians must p</text>
<text transform="matrix(1 0 0 1 499.14 257.3)" class="st20 st24 st19">r</text>
<text transform="matrix(1 0 0 1 502.7 257.3)" class="st20 st24 st19">esent either a</text>
<path class="st20" d="M86.9,267.8h0.9v0.7l0,0c0.4-0.6,1-0.9,1.7-0.9c0.9,0,2.2,0.7,2.2,2.9c0,1.5-1,2.9-2.4,2.9
	c-0.6,0-1.2-0.2-1.6-0.7l0,0v3.3h-0.9L86.9,267.8z M87.8,271.8c0.3,0.5,0.8,0.9,1.4,0.9c1,0,1.6-1.1,1.6-2.2c0-1.5-0.7-2.2-1.4-2.2
	c-0.6,0.1-1.2,0.4-1.5,1L87.8,271.8z M97.7,273c-0.3,0.2-0.6,0.4-1,0.4c-0.5,0-0.8-0.5-0.8-0.9c-0.4,0.5-1,0.9-1.7,0.9
	c-0.8,0-1.5-0.6-1.6-1.4c0-0.1,0-0.1,0-0.2c0-1.5,2-1.9,3.2-2c0-0.2,0-0.5,0-0.7c0-0.4-0.2-0.8-0.7-0.8c-0.1,0-0.1,0-0.2,0
	c-0.4,0-0.8,0.2-1.6,0.8l-0.4-0.6c1.1-0.7,1.4-0.9,2.2-0.9c0.7-0.1,1.3,0.4,1.4,1.1c0,0.1,0,0.2,0,0.3c0,1-0.1,2-0.1,3
	c0,0.4,0,0.8,0.4,0.8c0.2,0,0.3-0.1,0.5-0.2L97.7,273z M95.8,270.4c-1.5,0.2-2.3,0.5-2.3,1.4c0,0.5,0.3,0.9,0.8,0.9
	c0.1,0,0.1,0,0.2,0c0.5-0.1,1-0.4,1.3-0.8V270.4z M98.4,272.3c0.3,0.3,0.8,0.4,1.2,0.5c0.5,0,1-0.3,1.1-0.9c0-1.4-2.5-0.8-2.5-2.6
	c0-0.9,0.8-1.7,1.7-1.6h0.1c0.6,0,1.1,0.2,1.6,0.5l-0.4,0.6c-0.3-0.2-0.6-0.3-1-0.4c-0.6,0-1.1,0.3-1.1,0.9c0,1.2,2.5,0.7,2.5,2.5
	c0,0.9-0.8,1.7-1.8,1.7c0,0,0,0-0.1,0c-0.6,0-1.2-0.2-1.7-0.5L98.4,272.3z M102.7,272.3c0.3,0.3,0.8,0.4,1.2,0.5
	c0.5,0,1-0.3,1.1-0.9c0-1.4-2.5-0.8-2.5-2.6c0-0.9,0.8-1.7,1.7-1.6h0.1c0.6,0,1.1,0.2,1.6,0.5l-0.4,0.6c-0.3-0.2-0.6-0.3-1-0.4
	c-0.6,0-1.1,0.3-1.1,0.9c0,1.2,2.5,0.7,2.5,2.5c0,0.9-0.8,1.7-1.8,1.7c0,0,0,0-0.1,0c-0.6,0-1.2-0.2-1.7-0.5L102.7,272.3z
	 M107.1,267.8h0.9v0.7l0,0c0.4-0.6,1-0.9,1.7-0.9c0.9,0,2.2,0.7,2.2,2.9c0,1.5-1,2.9-2.4,2.9c-0.6,0-1.2-0.2-1.6-0.7l0,0v3.3H107
	L107.1,267.8z M107.9,271.8c0.3,0.5,0.8,0.8,1.4,0.9c1,0,1.6-1.1,1.6-2.2c0-1.5-0.7-2.2-1.5-2.2c-0.6,0.1-1.2,0.4-1.5,1V271.8z
	 M115.4,267.6c1.6,0,2.6,1.1,2.6,2.9c0.1,1.5-1.1,2.8-2.6,2.9h-0.1c-1.6,0-2.6-1.1-2.6-2.9C112.7,269,113.9,267.7,115.4,267.6
	C115.4,267.7,115.4,267.7,115.4,267.6L115.4,267.6z M115.3,272.7c0.8,0,1.7-0.7,1.7-2.2s-0.7-2.2-1.6-2.2s-1.7,0.7-1.7,2.2
	S114.4,272.8,115.3,272.7L115.3,272.7z M119.3,267.7h0.9v1.1l0,0c0.2-0.7,0.8-1.2,1.5-1.2c0.2,0,0.3,0,0.5,0.1l-0.3,0.8
	c-0.1,0-0.2-0.1-0.3-0.1c-0.4,0-1,0.3-1.4,1.2v3.6h-0.9L119.3,267.7z M123.3,267.7v-2h0.9v2h1.5v0.7h-1.5v2.2c0,0.6,0,1,0,1.3
	c0,0.5,0.1,0.7,0.5,0.7c0.3,0,0.6-0.1,0.9-0.3l0.3,0.6c-0.4,0.3-0.9,0.4-1.4,0.5c-0.8,0-1.2-0.5-1.2-1.4c0-0.4,0-0.8,0-1.6v-2h-0.9
	v-0.7L123.3,267.7z M126.9,272.2h1.1l-0.8,2.6h-0.4L126.9,272.2z M135,267.6c1.6,0,2.6,1.1,2.6,2.9c0.1,1.5-1.1,2.8-2.6,2.9h-0.1
	c-1.6,0-2.6-1.1-2.6-2.9C132.3,269,133.5,267.7,135,267.6L135,267.6z M134.9,272.7c0.8,0,1.7-0.7,1.7-2.2s-0.7-2.2-1.6-2.2
	s-1.7,0.7-1.7,2.2S134,272.8,134.9,272.7L134.9,272.7z M138.9,267.7h0.9v1.1l0,0c0.2-0.7,0.8-1.2,1.5-1.2c0.2,0,0.3,0,0.5,0.1
	l-0.3,0.8c-0.1,0-0.2-0.1-0.3-0.1c-0.4,0-1,0.3-1.4,1.2v3.6h-0.9V267.7z M147.9,267.6c1.6,0,2.6,1.1,2.6,2.9c0.1,1.5-1,2.8-2.5,2.9
	h-0.1c-1.6,0-2.6-1.1-2.6-2.9c0-1.5,1.1-2.7,2.6-2.8V267.6z M147.8,272.7c0.8,0,1.7-0.7,1.7-2.2s-0.7-2.2-1.6-2.2s-1.7,0.7-1.7,2.2
	s0.6,2.4,1.5,2.4L147.8,272.7z M152.1,267.7v-2h0.9v2h1.5v0.7H153v2.2c0,0.6,0,1,0,1.3c0,0.5,0.1,0.7,0.5,0.7c0.3,0,0.6-0.1,0.9-0.3
	l0.3,0.6c-0.4,0.3-0.9,0.4-1.4,0.5c-0.8,0-1.2-0.5-1.2-1.4c0-0.4,0-0.8,0-1.6v-2h-0.9v-0.7L152.1,267.7z M155.5,264.9h0.9v3.6l0,0
	c0.4-0.6,1.1-1,1.8-1c1.3,0,1.7,0.6,1.7,1.7c0,0.4,0,0.8,0,1.3v2.7H159v-2.5c0-0.5,0-1,0-1.5s-0.4-0.9-1-0.9c-0.7,0.1-1.3,0.4-1.6,1
	v3.8h-0.9V264.9z M162.1,270.3v0.2c0,1.1,0.4,2.2,1.6,2.2c0.6,0,1.2-0.3,1.6-0.8l0.4,0.5c-0.5,0.6-1.3,1-2.1,1
	c-1.5,0-2.4-1.1-2.4-2.9c-0.1-1.5,1-2.8,2.5-2.9c1.5,0,2.1,1.1,2.1,2.6v0.2L162.1,270.3z M164.9,269.7c0-0.8-0.3-1.5-1.2-1.5
	c-0.8,0.1-1.4,0.7-1.5,1.5H164.9z M167.1,267.7h0.9v1.1l0,0c0.2-0.7,0.8-1.2,1.5-1.2c0.2,0,0.3,0,0.5,0.1l-0.3,0.8
	c-0.1,0-0.2-0.1-0.3-0.1c-0.4,0-0.9,0.3-1.4,1.2v3.6h-1L167.1,267.7z M177.3,264.9h0.9l-0.2,8.4h-0.9v-0.7l0,0
	c-0.4,0.6-1,0.9-1.7,0.9c-0.9,0-2.2-0.7-2.2-2.9c-0.1-1.5,1-2.8,2.5-2.9c0.6,0,1.1,0.2,1.4,0.7l0,0L177.3,264.9z M177.3,269.1
	c-0.2-0.5-0.8-0.9-1.3-0.9c-1,0-1.6,1.1-1.6,2.2c0,1.5,0.7,2.2,1.4,2.2c0.6,0,1.2-0.4,1.5-1L177.3,269.1z M182.2,267.5
	c1.6,0,2.6,1.1,2.6,2.9c0.1,1.5-1.1,2.8-2.6,2.9h-0.1c-1.6,0-2.6-1.1-2.6-2.9c0-1.4,1.1-2.7,2.5-2.8L182.2,267.5z M182.1,272.7
	c0.8,0,1.7-0.7,1.7-2.2s-0.7-2.2-1.6-2.2s-1.7,0.7-1.7,2.2s0.6,2.4,1.5,2.4L182.1,272.7z M189.4,268.9c-0.3-0.4-0.7-0.6-1.2-0.6
	c-0.8,0-1.6,0.8-1.6,2.3c-0.1,1,0.6,1.9,1.6,2l0,0c0.5,0,0.9-0.3,1.2-0.7l0.4,0.5c-0.4,0.6-1.1,0.9-1.8,0.9c-1.4,0-2.4-1.1-2.4-2.9
	c-0.1-1.5,1.1-2.8,2.6-2.9c0.7,0,1.4,0.3,1.8,0.9L189.4,268.9z M191,267.7h0.9v2.5c0,0.5,0,1,0,1.5s0.4,0.9,1,0.9
	c0.7-0.1,1.3-0.4,1.6-1v-3.8h0.9v5.5h-0.9v-0.9l0,0c-0.4,0.6-1.1,1-1.9,1c-1.3,0-1.7-0.6-1.7-1.7c0-0.4,0-0.8,0-1.3L191,267.7z
	 M197.1,267.7h0.9v0.8l0,0c0.4-0.6,1.1-0.9,1.8-1c0.6-0.1,1.2,0.4,1.4,1c0.5-0.6,1.2-0.9,1.9-1c1.1,0,1.5,0.6,1.5,1.7
	c0,0.4,0,0.8,0,1.3v2.7h-0.9v-2.5c0-0.5,0-1,0-1.5c0-0.4-0.3-0.8-0.7-0.9h-0.1c-0.6,0-1.2,0.4-1.6,0.9l-0.1,3.9h-0.9v-2.5
	c0-0.5,0-1,0-1.5c0-0.4-0.3-0.8-0.7-0.9h-0.1c-0.6,0-1.2,0.4-1.6,0.9l-0.1,3.9H197L197.1,267.7z M206.8,270.3v0.2
	c0,1.1,0.4,2.2,1.6,2.2c0.6-0.1,1.2-0.3,1.6-0.8l0.4,0.5c-0.5,0.6-1.3,1-2.1,1c-1.5,0-2.4-1.1-2.4-2.9c-0.1-1.5,1-2.8,2.5-2.9
	c1.5,0,2.1,1.1,2.1,2.6v0.2L206.8,270.3z M209.6,269.7c0-0.8-0.3-1.5-1.2-1.5c-0.8,0.1-1.4,0.7-1.5,1.5H209.6z M211.8,267.7h0.9v0.9
	l0,0c0.4-0.6,1.1-1,1.9-1c1.3,0,1.7,0.6,1.7,1.7c0,0.4,0,0.8,0,1.3v2.7h-0.9v-2.5c0-0.5,0-1,0-1.5s-0.4-0.9-1-0.9
	c-0.7,0.1-1.3,0.4-1.6,1l-0.1,3.8h-0.9L211.8,267.7z M218.2,267.7v-2h0.9v2h1.5v0.7H219v2.2c0,0.6,0,1,0,1.3c0,0.5,0.1,0.7,0.5,0.7
	c0.3,0,0.6-0.1,0.9-0.3l0.3,0.6c-0.4,0.3-0.9,0.4-1.4,0.5c-0.9,0-1.2-0.5-1.2-1.4c0-0.4,0-0.8,0-1.6v-2h-0.9v-0.7L218.2,267.7z
	 M221.4,272.2c0.3,0.3,0.8,0.4,1.2,0.5c0.5,0,1-0.3,1.1-0.9c0-1.4-2.5-0.8-2.5-2.6c0-0.9,0.8-1.7,1.7-1.6h0.1c0.6,0,1.1,0.2,1.6,0.5
	l-0.4,0.6c-0.3-0.2-0.7-0.3-1.1-0.4c-0.6,0-1.1,0.3-1.1,0.9c0,1.2,2.5,0.7,2.5,2.5c0,0.9-0.8,1.7-1.8,1.7c0,0,0,0-0.1,0
	c-0.6,0-1.2-0.2-1.7-0.5L221.4,272.2z M228.9,267.7h0.9v0.7l0,0c0.4-0.6,1-0.9,1.7-0.9c0.9,0,2.2,0.7,2.2,2.9c0,1.5-1,2.9-2.4,2.9
	c-0.6,0-1.2-0.2-1.6-0.7l0,0v3.3h-0.9L228.9,267.7z M229.7,271.7c0.3,0.5,0.8,0.8,1.4,0.9c1,0,1.6-1.1,1.6-2.2
	c0-1.5-0.7-2.2-1.5-2.2c-0.6,0.1-1.2,0.4-1.5,1V271.7z M235,267.7h0.9v1.1l0,0c0.2-0.7,0.8-1.2,1.5-1.2c0.2,0,0.3,0,0.5,0.1
	l-0.3,0.8c-0.1,0-0.2-0.1-0.3-0.1c-0.4,0-1,0.3-1.4,1.2v3.6H235V267.7z M240.8,267.6c1.6,0,2.6,1.1,2.6,2.9c0.1,1.5-1.1,2.8-2.6,2.9
	h-0.1c-1.6,0-2.6-1.1-2.6-2.9c0-1.5,1.1-2.7,2.5-2.8L240.8,267.6z M240.7,272.7c0.8,0,1.7-0.7,1.7-2.2s-0.7-2.2-1.6-2.2
	s-1.7,0.7-1.7,2.2s0.6,2.3,1.5,2.3L240.7,272.7z M249.1,267.8l-2.2,5.4H246l-2-5.4l0.9-0.2l1.6,4.6l0,0l1.7-4.6L249.1,267.8z
	 M250.1,265.6h0.9v1h-0.9V265.6z M250.1,267.7h0.9v5.5h-0.9V267.7z M252.6,267.7h0.9v0.9l0,0c0.4-0.6,1.1-1,1.9-1
	c1.3,0,1.7,0.6,1.7,1.7c0,0.4,0,0.8,0,1.3v2.7h-1v-2.5c0-0.5,0-1,0-1.5s-0.4-0.9-1-0.9c-0.7,0.1-1.3,0.4-1.6,1v3.8h-0.9V267.7z
	 M263.8,268.4h-1.3c0.3,0.3,0.4,0.7,0.4,1.1c0,1-0.8,1.8-1.9,1.8c0,0,0,0-0.1,0c-0.3,0-0.7-0.1-1-0.2c-0.5,0.4-0.6,0.5-0.6,0.6
	s0.2,0.4,1.7,0.6s2.4,0.6,2.4,1.5c0,1.4-1.6,2-2.7,2s-2.5-0.3-2.5-1.5c0-0.8,0.9-1.2,1.5-1.5l0,0c-1-0.1-1.3-0.4-1.3-0.7
	s0.3-0.6,1.3-1.1c-0.5-0.3-0.7-0.9-0.7-1.5c0-1,0.9-1.8,1.9-1.8h0.1c0.3,0,0.7,0.1,1,0.3h1.8L263.8,268.4z M260.8,275.3
	c0.7,0,1.8-0.4,1.8-1.3c0-0.6-0.5-0.8-2.2-1.1c-1,0.5-1.2,0.9-1.2,1.4c-0.2,0.9,0.8,1.1,1.5,1.1L260.8,275.3z M260.9,268.2
	c-0.6,0.1-1.1,0.6-1.1,1.2c0,0,0,0,0,0.1c-0.1,0.6,0.4,1.1,1,1.2l0,0c0.8,0,1.1-0.6,1.1-1.2s-0.4-1.2-1.2-1.2L260.9,268.2z
	 M267.8,265.6h0.9v1h-0.9V265.6z M267.8,267.7h0.9v5.5h-0.9V267.7z M273.8,264.9h0.9l-0.1,8.3h-0.9v-0.7l0,0c-0.4,0.6-1,0.9-1.7,0.9
	c-0.9,0-2.2-0.7-2.2-2.9c-0.1-1.5,1-2.8,2.5-2.9c0.6,0,1.1,0.2,1.4,0.7l0,0L273.8,264.9z M273.8,269.2c-0.2-0.5-0.8-0.9-1.3-0.9
	c-1,0-1.6,1.1-1.6,2.2c0,1.5,0.7,2.2,1.5,2.2c0.6,0,1.2-0.4,1.5-1L273.8,269.2z M276.9,270.3v0.2c0,1.1,0.4,2.2,1.5,2.2
	c0.6-0.1,1.2-0.3,1.6-0.8l0.4,0.5c-0.5,0.6-1.3,1-2.1,1c-1.5,0-2.4-1.1-2.4-2.9c-0.1-1.5,1-2.8,2.5-2.9c1.5,0,2.1,1.1,2.1,2.6v0.2
	L276.9,270.3z M279.7,269.7c0-0.8-0.3-1.5-1.2-1.5c-0.8,0.1-1.4,0.7-1.5,1.5H279.7z M281.9,267.7h0.9v0.9l0,0c0.4-0.6,1.1-1,1.9-1
	c1.3,0,1.7,0.6,1.7,1.7c0,0.4,0,0.8,0,1.3v2.7h-0.9v-2.5c0-0.5,0-1,0-1.5s-0.4-0.9-1-0.9c-0.7,0.1-1.3,0.4-1.6,1v3.8H282
	L281.9,267.7z M288.3,267.7v-2h0.9v2h1.5v0.7h-1.6v2.2c0,0.6,0,1,0,1.3c0,0.5,0.1,0.7,0.5,0.7c0.3,0,0.6-0.1,0.9-0.3l0.3,0.6
	c-0.4,0.3-0.9,0.4-1.4,0.5c-0.8,0-1.2-0.5-1.2-1.4c0-0.4,0-0.8,0-1.6v-2h-0.9v-0.7L288.3,267.7z M291.5,265.6h1v1h-1V265.6z
	 M291.6,267.7h0.9v5.5h-0.9V267.7z M294.4,267.7v-2h0.9v2h1.5v0.7h-1.5v2.2c0,0.6,0,1,0,1.3c0,0.5,0.1,0.7,0.5,0.7
	c0.3,0,0.6-0.1,0.9-0.3l0.3,0.6c-0.4,0.3-0.9,0.4-1.4,0.5c-0.9,0-1.2-0.5-1.2-1.4c0-0.4,0-0.8,0-1.6v-2h-0.9v-0.7L294.4,267.7z
	 M297.2,275.1c0.9,0,1.1-0.2,1.3-0.7l0.6-1.3l-2-5.3l1-0.3l1.5,4.5l0,0l1.7-4.5l0.9,0.3l-2.5,6.2c-0.6,1.5-0.9,1.9-2.1,1.9h-0.4
	V275.1z M311,273c-0.3,0.2-0.6,0.4-1,0.4c-0.5,0-0.8-0.5-0.8-0.9c-0.4,0.5-1,0.9-1.6,0.9c-0.8,0-1.5-0.6-1.6-1.4c0-0.1,0-0.1,0-0.2
	c0-1.5,2-1.9,3.2-2c0-0.2,0-0.5,0-0.7c0-0.4-0.2-0.8-0.7-0.8c-0.1,0-0.1,0-0.2,0c-0.4,0-0.8,0.2-1.6,0.8l-0.4-0.6
	c1.1-0.7,1.5-0.9,2.2-0.9c0.7-0.1,1.3,0.4,1.4,1.1c0,0.1,0,0.2,0,0.3c0,1-0.1,2-0.1,3c0,0.4,0.1,0.8,0.4,0.8c0.2,0,0.3-0.1,0.5-0.2
	L311,273z M309,270.4c-1.5,0.2-2.3,0.5-2.3,1.4c0,0.5,0.3,0.9,0.8,0.9c0.1,0,0.1,0,0.2,0c0.5-0.1,1-0.4,1.3-0.8V270.4z M311.7,267.8
	h0.9v0.9l0,0c0.4-0.6,1.1-1,1.9-1c1.3,0,1.7,0.6,1.7,1.7c0,0.4,0,0.8,0,1.3v2.7h-0.9v-2.5c0-0.5,0-1,0-1.5s-0.4-0.9-1-0.9
	c-0.7,0.1-1.3,0.4-1.6,1v3.8h-0.9L311.7,267.8z M321.4,265.1h0.9l-0.1,8.3h-0.9v-0.7l0,0c-0.4,0.6-1,0.9-1.7,0.9
	c-0.9,0-2.2-0.7-2.2-2.9c-0.1-1.5,1-2.8,2.5-2.9c0.6,0,1.1,0.2,1.4,0.7l0,0L321.4,265.1z M321.4,269.3c-0.2-0.5-0.8-0.9-1.3-0.9
	c-1,0-1.6,1.1-1.6,2.2c0,1.5,0.7,2.2,1.5,2.2c0.6,0,1.2-0.4,1.5-1L321.4,269.3z M330.4,269c-0.3-0.4-0.7-0.6-1.2-0.6
	c-0.8,0-1.6,0.8-1.6,2.3c-0.1,1,0.6,1.9,1.6,2l0,0c0.5,0,1-0.3,1.3-0.7l0.5,0.5c-0.4,0.6-1.1,0.9-1.9,0.9c-1.4,0-2.4-1.1-2.4-2.9
	c-0.1-1.5,1.1-2.8,2.6-2.9c0.7,0,1.4,0.3,1.8,0.9L330.4,269z M331.8,265.7h1v1h-1V265.7z M331.8,267.8h0.9v5.5h-0.9V267.8z
	 M334.6,267.8v-2h0.9v2h1.5v0.7h-1.5v2.2c0,0.6,0,1,0,1.3c0,0.5,0.1,0.7,0.5,0.7c0.3,0,0.6-0.1,0.9-0.3l0.3,0.6
	c-0.4,0.3-0.9,0.4-1.4,0.5c-0.9,0-1.2-0.5-1.2-1.4c0-0.4,0-0.8,0-1.6v-2h-0.9v-0.7L334.6,267.8z M337.8,265.7h0.9v1h-0.9V265.7z
	 M337.8,267.8h0.9v5.5h-0.9V267.8z M344,273.3h-4l-0.2-0.5l3.1-4.2h-2.8v-0.8h3.9l0.2,0.4l-3.1,4.4h2.9V273.3z M345.8,270.4v0.2
	c0,1.1,0.4,2.2,1.5,2.2c0.6,0,1.2-0.3,1.6-0.8l0.4,0.5c-0.5,0.6-1.3,1-2.1,1c-1.5,0-2.4-1.1-2.4-2.9c-0.1-1.5,1-2.8,2.5-2.9
	c1.5,0,2.1,1.1,2.1,2.6v0.2L345.8,270.4z M348.6,269.8c0-0.8-0.3-1.5-1.2-1.5c-0.8,0.1-1.4,0.7-1.5,1.5H348.6z M350.8,267.8h0.9v0.9
	l0,0c0.4-0.6,1.1-1,1.9-1c1.3,0,1.7,0.6,1.7,1.7c0,0.4,0,0.8,0,1.3v2.7h-0.9v-2.5c0-0.5,0-1,0-1.5s-0.4-0.9-1-0.9
	c-0.7,0.1-1.3,0.4-1.6,1v3.8h-0.9L350.8,267.8z M356.8,272.4c0.3,0.3,0.8,0.4,1.2,0.5c0.5,0,1-0.4,1.1-0.9c0-1.4-2.5-0.8-2.5-2.6
	c0-0.9,0.8-1.7,1.7-1.6h0.1c0.6,0,1.1,0.2,1.6,0.5l-0.4,0.6c-0.3-0.2-0.7-0.3-1-0.4c-0.6,0-1.1,0.3-1.1,0.9c0,1.2,2.5,0.7,2.5,2.5
	c0,0.9-0.8,1.7-1.8,1.7c0,0,0,0-0.1,0c-0.6,0-1.2-0.2-1.7-0.5L356.8,272.4z M361.3,265.1h0.9v3.6l0,0c0.4-0.6,1.1-1,1.8-1
	c1.3,0,1.7,0.6,1.7,1.7c0,0.4,0,0.8,0,1.3v2.7h-0.9v-2.5c0-0.5,0-1,0-1.5s-0.4-0.9-1-0.9c-0.7,0.1-1.3,0.4-1.6,1v3.8h-0.9V265.1z
	 M367.3,265.7h1v1h-1V265.7z M367.3,267.8h0.9v5.5h-0.9V267.8z M369.8,267.8h0.9v0.7l0,0c0.4-0.6,1-0.9,1.7-0.9
	c0.9,0,2.2,0.7,2.2,2.9c0,1.5-1,2.9-2.4,2.9c-0.6,0-1.2-0.2-1.6-0.7l0,0v3.3h-0.9L369.8,267.8z M370.6,271.8
	c0.3,0.5,0.8,0.8,1.4,0.9c1,0,1.6-1.1,1.6-2.2c0-1.5-0.7-2.2-1.5-2.2c-0.7,0-1.2,0.4-1.5,1V271.8z M380.8,274.7
	c-1.2-1.2-1.9-2.9-2-4.6c0-1.8,0.8-3.5,2.1-4.8l0.5,0.5c-1.1,1.1-1.8,2.7-1.8,4.3c0.1,1.5,0.7,2.9,1.7,4L380.8,274.7z M384.9,267.7
	c1.6,0,2.6,1.1,2.6,2.9c0.1,1.5-1,2.8-2.5,2.9h-0.1c-1.6,0-2.6-1.1-2.6-2.9C382.1,269,383.3,267.8,384.9,267.7
	C384.8,267.7,384.8,267.7,384.9,267.7L384.9,267.7z M384.8,272.8c0.8,0,1.7-0.7,1.7-2.2s-0.7-2.2-1.6-2.2s-1.7,0.7-1.7,2.2
	S383.9,272.8,384.8,272.8L384.8,272.8z M388.1,267.8h1.1c0-0.3,0-0.7,0-1.1c0.1-1.3,1-1.8,2.3-1.8v0.7h-0.4c-0.7,0-1.1,0.6-1.1,1.3
	v0.9h1.5v0.7H390v4.8h-0.9v-4.8H388L388.1,267.8z M391.5,267.8h1.1c0-0.3,0-0.7,0-1.1c0.1-1.3,1-1.8,2.3-1.8v0.7h-0.4
	c-0.7,0-1.1,0.6-1.1,1.3v0.9h3.2v5.5h-0.9v-4.8h-2.3v4.8h-0.9v-4.8h-1.1L391.5,267.8z M395.7,265.6h1v1h-1V265.6z"/>
<path class="st20" d="M401.7,269c-0.3-0.4-0.7-0.6-1.2-0.6c-0.8,0-1.6,0.8-1.6,2.3c-0.1,1,0.6,1.9,1.6,2l0,0
	c0.5-0.1,0.9-0.3,1.2-0.7l0.5,0.5c-0.4,0.6-1.1,0.9-1.9,0.9c-1.4,0-2.4-1.1-2.4-2.9c-0.1-1.5,1.1-2.8,2.6-2.9c0.7,0,1.4,0.3,1.8,0.9
	L401.7,269z M403.1,265.7h1v1h-1V265.7z M403.1,267.8h0.9v5.5h-0.9V267.8z M410.3,273c-0.3,0.2-0.6,0.4-1,0.4
	c-0.5,0-0.8-0.4-0.8-0.9c-0.4,0.5-1,0.9-1.6,0.9c-0.8,0-1.5-0.6-1.6-1.4c0-0.1,0-0.1,0-0.2c0-1.5,2-1.9,3.2-2c0-0.2,0-0.5,0-0.7
	c0-0.4-0.3-0.8-0.7-0.8c-0.1,0-0.1,0-0.2,0c-0.4,0-0.8,0.2-1.6,0.8l-0.4-0.6c1.1-0.7,1.5-0.9,2.2-0.9c0.7-0.1,1.3,0.4,1.4,1.1
	c0,0.1,0,0.2,0,0.3c0,1-0.1,2-0.1,3c0,0.4,0,0.8,0.4,0.8c0.2,0,0.3-0.1,0.5-0.2L410.3,273z M408.4,270.4c-1.5,0.2-2.3,0.5-2.3,1.4
	c0,0.5,0.3,0.9,0.8,0.9c0.1,0,0.1,0,0.2,0c0.5-0.1,1-0.4,1.3-0.8V270.4z M411.1,265h0.9l-0.1,8.3H411L411.1,265z M416.7,267.8h0.9
	v0.7l0,0c0.4-0.6,1-0.9,1.7-0.9c0.9,0,2.2,0.7,2.2,2.9c0,1.5-1,2.9-2.4,2.9c-0.6,0-1.2-0.2-1.5-0.7l0,0v3.3h-0.9L416.7,267.8z
	 M417.5,271.8c0.3,0.5,0.8,0.8,1.4,0.9c1,0,1.6-1.1,1.6-2.2c0-1.5-0.7-2.2-1.5-2.2c-0.6,0.1-1.2,0.4-1.5,1V271.8z M422.8,265h0.9
	v3.6l0,0c0.4-0.6,1.1-1,1.8-1c1.3,0,1.7,0.6,1.7,1.7c0,0.4,0,0.8,0,1.3v2.7h-0.9v-2.5c0-0.5,0-1,0-1.5s-0.4-0.9-1-0.9
	c-0.7,0.1-1.3,0.4-1.6,1v3.8h-0.9V265z M431.1,267.6c1.6,0,2.6,1.1,2.6,2.9c0.1,1.5-1.1,2.8-2.6,2.9H431c-1.6,0-2.6-1.1-2.6-2.9
	C428.4,269,429.6,267.7,431.1,267.6C431.1,267.7,431.1,267.7,431.1,267.6L431.1,267.6z M431,272.7c0.8,0,1.7-0.7,1.7-2.2
	s-0.7-2.2-1.6-2.2s-1.7,0.7-1.7,2.2S430.1,272.8,431,272.7L431,272.7z M435.3,267.7v-2h0.9v2h1.5v0.7h-1.5v2.2c0,0.6,0,1,0,1.3
	c0,0.5,0.1,0.7,0.5,0.7c0.3,0,0.6-0.1,0.9-0.3l0.3,0.6c-0.4,0.3-0.9,0.4-1.4,0.5c-0.9,0-1.2-0.5-1.2-1.4c0-0.4,0-0.8,0-1.6v-2h-0.9
	v-0.7L435.3,267.7z M440.9,267.6c1.6,0,2.6,1.1,2.6,2.9c0.1,1.5-1,2.8-2.5,2.9h-0.1c-1.6,0-2.6-1.1-2.6-2.9
	C438.2,269,439.4,267.7,440.9,267.6C440.9,267.7,440.9,267.7,440.9,267.6L440.9,267.6z M440.8,272.7c0.8,0,1.7-0.7,1.7-2.2
	s-0.7-2.2-1.6-2.2s-1.7,0.7-1.7,2.2S439.9,272.8,440.8,272.7L440.8,272.7z M448.1,265.6h0.9l-0.1,7.6H448L448.1,265.6z M451.1,265.6
	h2.3c2.9,0,4.1,1.8,4.1,3.7c0,2.6-1.9,3.9-4.4,3.9H451L451.1,265.6z M451.9,272.5h1c2.2,0,3.6-1,3.6-3.1c0-1.9-1.3-3-3.4-3H452
	L451.9,272.5z M466.6,273c-0.3,0.2-0.6,0.4-1,0.4c-0.5,0-0.8-0.5-0.8-0.9c-0.4,0.5-1,0.9-1.6,0.9c-0.8,0-1.5-0.6-1.6-1.4
	c0-0.1,0-0.1,0-0.2c0-1.5,2-1.9,3.2-2c0-0.2,0-0.5,0-0.7c0-0.4-0.2-0.8-0.7-0.8c-0.1,0-0.1,0-0.2,0c-0.4,0-0.8,0.2-1.6,0.8l-0.4-0.6
	c1.1-0.7,1.5-0.9,2.2-0.9c0.7-0.1,1.3,0.4,1.4,1.1c0,0.1,0,0.2,0,0.3c0,1-0.1,2-0.1,3c0,0.4,0.1,0.8,0.4,0.8c0.2,0,0.3-0.1,0.5-0.2
	L466.6,273z M464.7,270.3c-1.5,0.2-2.3,0.5-2.3,1.4c0,0.5,0.3,0.9,0.8,0.9c0.1,0,0.1,0,0.2,0c0.5-0.1,1-0.4,1.3-0.8V270.3z
	 M467.5,267.7h0.9v0.9l0,0c0.4-0.6,1.1-1,1.9-1c1.3,0,1.7,0.6,1.7,1.7c0,0.4,0,0.8,0,1.3v2.7h-1v-2.5c0-0.5,0-1,0-1.5
	s-0.4-0.9-1-0.9c-0.7,0.1-1.3,0.4-1.6,1v3.8h-0.9V267.7z M477.1,265h0.9l-0.1,8.3H477v-0.7l0,0c-0.4,0.6-1,0.9-1.7,0.9
	c-0.9,0-2.2-0.7-2.2-2.9c-0.1-1.5,1-2.8,2.5-2.9c0.6,0,1.1,0.2,1.4,0.7l0,0L477.1,265z M477.1,269.2c-0.2-0.5-0.8-0.9-1.3-0.9
	c-1,0-1.6,1.1-1.6,2.2c0,1.5,0.7,2.2,1.5,2.2c0.6,0,1.2-0.4,1.5-1L477.1,269.2z M482.8,265h0.9v3.5l0,0c0.4-0.6,1-0.9,1.7-0.9
	c0.9,0,2.2,0.7,2.2,2.9c0,1.5-1,2.9-2.4,2.9c-0.6,0-1.2-0.2-1.6-0.7l0,0v0.6h-0.8L482.8,265z M483.6,271.8c0.3,0.5,0.8,0.9,1.4,0.9
	c1,0,1.6-1.1,1.6-2.2c0-1.5-0.7-2.2-1.5-2.2c-0.7,0-1.2,0.4-1.5,1V271.8z M488.8,265.6h1v1h-1V265.6z M488.8,267.7h0.9v5.5h-0.9
	V267.7z M491.3,267.7h0.9v1.1l0,0c0.2-0.7,0.8-1.2,1.5-1.2c0.2,0,0.3,0,0.5,0.1l-0.3,0.8c-0.1,0-0.2-0.1-0.3-0.1
	c-0.4,0-1,0.3-1.4,1.2v3.6h-0.9L491.3,267.7z M495.3,267.7v-2h0.9v2h1.5v0.7h-1.5v2.2c0,0.6,0,1,0,1.3c0,0.5,0.1,0.7,0.5,0.7
	c0.3,0,0.6-0.1,0.9-0.3l0.3,0.6c-0.4,0.3-0.9,0.4-1.4,0.5c-0.9,0-1.2-0.5-1.2-1.4c0-0.4,0-0.8,0-1.6v-2h-0.9v-0.7L495.3,267.7z
	 M498.7,265h0.9v3.6l0,0c0.4-0.6,1.1-1,1.8-1c1.3,0,1.7,0.6,1.7,1.7c0,0.4,0,0.8,0,1.3v2.7h-0.9v-2.5c0-0.5,0-1,0-1.5
	s-0.4-0.9-1-0.9c-0.7,0.1-1.3,0.4-1.6,1v3.8h-0.9V265z M511.2,269c-0.3-0.4-0.7-0.6-1.2-0.6c-0.8,0-1.6,0.8-1.6,2.3
	c-0.1,1,0.6,1.9,1.6,2l0,0c0.5,0,1-0.3,1.3-0.7l0.5,0.5c-0.4,0.6-1.1,0.9-1.9,0.9c-1.4,0-2.4-1.1-2.4-2.9c-0.1-1.5,1.1-2.8,2.6-2.9
	c0.7,0,1.4,0.3,1.8,0.9L511.2,269z M513.2,270.4v0.2c0,1.1,0.4,2.2,1.5,2.2c0.6,0,1.2-0.3,1.6-0.8l0.4,0.5c-0.5,0.6-1.3,1-2.1,1
	c-1.5,0-2.4-1.1-2.4-2.9c-0.1-1.5,1-2.8,2.5-2.9c1.5,0,2.1,1.1,2.1,2.6v0.2L513.2,270.4z M516,269.8c0-0.8-0.3-1.5-1.2-1.5
	c-0.8,0.1-1.4,0.7-1.5,1.5H516z M518.2,267.8h0.9v1.1l0,0c0.2-0.7,0.8-1.2,1.5-1.2c0.2,0,0.3,0,0.5,0.1l-0.3,0.8
	c-0.1,0-0.2-0.1-0.3-0.1c-0.4,0-1,0.3-1.4,1.2v3.6h-0.9V267.8z M522.2,267.8v-2h0.8v2h1.5v0.7H523v2.2c0,0.6,0,1,0,1.3
	c0,0.5,0.1,0.7,0.5,0.7c0.3,0,0.6-0.1,0.9-0.3l0.3,0.6c-0.4,0.3-0.9,0.4-1.4,0.5c-0.8,0-1.2-0.5-1.2-1.4c0-0.4,0-0.8,0-1.6v-2h-0.9
	v-0.7L522.2,267.8z M525.4,265.6h0.9v1h-0.9V265.6z M525.4,267.8h0.9v5.5h-0.9V267.8z M527.3,267.8h1.1c0-0.3,0-0.7,0-1.1
	c0.1-1.3,1-1.8,2.3-1.8v0.7h-0.4c-0.7,0-1.1,0.6-1.1,1.3v0.9h3.2v5.5h-0.9v-4.8h-2.3v4.8h-0.9v-4.8h-1.1L527.3,267.8z M531.5,265.6
	h1v1h-1V265.6z"/>
<text transform="matrix(1 0 0 1 530.09 273.3)" class="st20 st24 st19"> cate), </text>
<text transform="matrix(1 0 0 1 86.03 289.3)" class="st20 st24 st19">or the </text>
<text transform="matrix(1 0 0 1 117.2 289.3)" class="st20 st24 st19">r</text>
<text transform="matrix(1 0 0 1 120.76 289.3)" class="st20 st24 st19">ecently int</text>
<text transform="matrix(1 0 0 1 169.64 289.3)" class="st20 st24 st19">r</text>
<text transform="matrix(1 0 0 1 173.19 289.3)" class="st20 st24 st19">oduced US passport ca</text>
<text transform="matrix(1 0 0 1 280.77 289.3)" class="st20 st24 st19">r</text>
<text transform="matrix(1 0 0 1 284.32 289.3)" class="st20 st24 st19">d, or a Nexus or other trusted traveler ca</text>
<text transform="matrix(1 0 0 1 482.35 289.3)" class="st20 st24 st19">r</text>
<text transform="matrix(1 0 0 1 485.9 289.3)" class="st20 st24 st19">d. Canadians</text>
<path class="st20" d="M86.3,299.8h1.1c0-0.3,0-0.7,0-1.1c0.1-1.3,1.1-1.8,2.3-1.8v0.7h-0.3c-0.7,0-1.1,0.6-1.1,1.3v0.9h1.5v0.7h-1.5
	v4.8h-0.9v-4.8h-1L86.3,299.8L86.3,299.8z M90.5,297.1h0.9l-0.1,8.3h-0.9L90.5,297.1z"/>
<text transform="matrix(1 0 0 1 89.09 305.3)" class="st20 st24 st19"> ying back f</text>
<text transform="matrix(1 0 0 1 144.1 305.3)" class="st20 st24 st19">r</text>
<text transform="matrix(1 0 0 1 147.65 305.3)" class="st20 st24 st19">om Mexico to Canada a</text>
<text transform="matrix(1 0 0 1 261.35 305.3)" class="st20 st24 st19">r</text>
<text transform="matrix(1 0 0 1 264.9 305.3)" class="st20 st24 st19">e advised to carry a passport.</text>
<path class="st20" d="M87.1,319.7H88l-0.1,7.6h-1L87.1,319.7z M90,321.8h0.9v0.9l0,0c0.4-0.6,1.1-1,1.9-1c1.3,0,1.7,0.6,1.7,1.7
	c0,0.4,0,0.8,0,1.3v2.7h-0.9v-2.5c0-0.5,0-1,0-1.5s-0.4-0.9-1-0.9c-0.7,0.1-1.3,0.4-1.6,1v3.8h-1V321.8z M103.8,327.1
	c-0.3,0.2-0.6,0.4-1,0.4c-0.5,0-0.8-0.4-0.8-0.9c-0.4,0.5-1,0.9-1.7,0.9c-0.8,0.1-1.5-0.6-1.6-1.4c0-0.1,0-0.1,0-0.2
	c0-1.5,2-1.9,3.2-2c0-0.2,0-0.5,0-0.7c0-0.4-0.3-0.8-0.7-0.8c-0.1,0-0.1,0-0.2,0c-0.4,0-0.8,0.1-1.6,0.8l-0.4-0.6
	c1.1-0.7,1.5-0.9,2.3-0.9c0.7-0.1,1.3,0.4,1.4,1.1c0,0.1,0,0.2,0,0.3c0,1-0.1,2-0.1,3c0,0.4,0,0.8,0.4,0.8c0.2,0,0.3-0.1,0.5-0.2
	L103.8,327.1z M101.9,324.4c-1.5,0.2-2.3,0.5-2.3,1.4c0,0.5,0.3,0.9,0.8,0.9c0.1,0,0.1,0,0.2,0c0.5-0.1,1-0.4,1.3-0.8V324.4z
	 M104.7,321.8h0.9v0.9l0,0c0.4-0.6,1.1-1,1.9-1c1.3,0,1.7,0.6,1.7,1.7c0,0.4,0,0.8,0,1.3v2.7h-0.9v-2.5c0-0.5,0-1,0-1.5
	s-0.4-0.9-1-0.9c-0.7,0.1-1.3,0.4-1.6,1v3.8h-0.9L104.7,321.8z M110.3,329.2c0.9,0,1.1-0.2,1.3-0.7l0.6-1.3l-2-5.3l0.9-0.3l1.5,4.5
	l0,0l1.7-4.5l0.9,0.3l-2.5,6.1c-0.6,1.5-0.9,1.9-2.1,1.9h-0.3V329.2z M122.7,323c-0.3-0.4-0.7-0.6-1.2-0.6c-0.8,0-1.7,0.8-1.7,2.3
	c-0.1,1,0.6,1.9,1.6,2l0,0c0.5,0,1-0.3,1.3-0.7l0.4,0.5c-0.4,0.6-1.1,0.9-1.8,0.9c-1.4,0-2.4-1.1-2.4-2.9c-0.1-1.5,1.1-2.8,2.6-2.9
	c0.7,0,1.4,0.4,1.8,0.9L122.7,323z M128.9,327c-0.3,0.2-0.6,0.4-1,0.4c-0.5,0-0.8-0.4-0.8-0.9c-0.4,0.5-1,0.9-1.7,0.9
	c-0.8,0.1-1.5-0.6-1.6-1.4c0-0.1,0-0.1,0-0.2c0-1.5,2-1.9,3.2-2c0-0.2,0-0.5,0-0.7c0-0.4-0.3-0.8-0.7-0.8c-0.1,0-0.1,0-0.2,0
	c-0.4,0-0.8,0.1-1.6,0.8l-0.4-0.6c1.1-0.7,1.4-0.9,2.3-0.9c0.7-0.1,1.3,0.4,1.4,1.1c0,0.1,0,0.2,0,0.3c0,1-0.1,2-0.1,3
	c0,0.4,0.1,0.8,0.4,0.8c0.2,0,0.3-0.1,0.5-0.2L128.9,327z M127,324.4c-1.5,0.2-2.3,0.5-2.3,1.4c0,0.5,0.3,0.9,0.8,0.9
	c0.1,0,0.1,0,0.2,0c0.5-0.1,1-0.4,1.3-0.8V324.4z M129.6,326.3c0.3,0.3,0.8,0.4,1.2,0.5c0.5,0,1-0.3,1.1-0.9c0-1.4-2.6-0.8-2.6-2.6
	c0-0.9,0.8-1.7,1.7-1.6h0.1c0.6,0,1.1,0.2,1.6,0.5l-0.4,0.6c-0.3-0.2-0.6-0.3-1-0.4c-0.6,0-1.1,0.3-1.1,0.9c0,1.2,2.6,0.7,2.6,2.5
	c0,0.9-0.8,1.7-1.8,1.7l0,0c-0.6,0-1.2-0.2-1.7-0.5L129.6,326.3z M134.5,324.4v0.2c0,1.1,0.4,2.2,1.6,2.2c0.6,0,1.2-0.3,1.6-0.8
	l0.4,0.5c-0.5,0.6-1.3,1-2.1,1c-1.5,0-2.4-1.1-2.4-2.9c-0.1-1.5,1-2.8,2.5-2.9c1.5,0,2.1,1.1,2.1,2.6v0.2L134.5,324.4z M137.3,323.8
	c0-0.8-0.3-1.5-1.2-1.5c-0.8,0.1-1.4,0.7-1.5,1.5H137.3z M139.7,326.2h1.2l-0.8,2.6h-0.4V326.2z M145.5,319.7h0.9v1h-0.9V319.7z
	 M145.5,321.8h0.9v5.5h-0.9V321.8z M148.3,321.8v-2h0.9v2h1.5v0.7h-1.5v2.2c0,0.6,0,1,0,1.3c0,0.5,0.1,0.7,0.5,0.7
	c0.3,0,0.6-0.1,0.9-0.3l0.3,0.6c-0.4,0.3-0.9,0.4-1.4,0.5c-0.9,0-1.2-0.5-1.2-1.4c0-0.4,0-0.8,0-1.6v-2h-0.9v-0.7L148.3,321.8z
	 M151.8,319.7h1.2l-0.8,2.6h-0.4V319.7z M153.8,326.3c0.3,0.3,0.8,0.4,1.2,0.5c0.5,0,1-0.3,1.1-0.9c0-1.4-2.5-0.8-2.5-2.6
	c0-0.9,0.8-1.7,1.7-1.6h0.1c0.6,0,1.1,0.2,1.6,0.5l-0.4,0.6c-0.3-0.2-0.7-0.3-1.1-0.4c-0.6,0-1.1,0.3-1.1,0.9c0,1.2,2.5,0.7,2.5,2.5
	c0,0.9-0.8,1.7-1.8,1.7l0,0c-0.6,0-1.2-0.2-1.7-0.5L153.8,326.3z M161.3,321.8h0.9v0.8l0,0c0.4-0.6,1.1-1,1.8-1
	c0.6-0.1,1.2,0.4,1.4,1c0.5-0.6,1.2-0.9,1.9-1c1.1,0,1.5,0.6,1.5,1.7c0,0.4,0,0.8,0,1.3v2.7h-0.9v-2.5c0-0.5,0-1,0-1.5
	c0-0.4-0.3-0.8-0.7-0.9h-0.1c-0.6,0-1.2,0.4-1.6,0.9l-0.1,3.9h-0.9v-2.5c0-0.5,0-1,0-1.5c0-0.4-0.3-0.8-0.7-0.9h-0.1
	c-0.6,0-1.2,0.4-1.6,0.9l-0.1,3.9h-0.9L161.3,321.8z M170.4,321.8h0.9v2.5c0,0.5,0,1,0,1.5s0.4,0.9,1,0.9c0.7-0.1,1.3-0.4,1.6-1
	l0.1-3.8h0.9l-0.1,5.5H174v-0.9l0,0c-0.4,0.6-1.1,1-1.9,1c-1.3,0-1.7-0.6-1.7-1.7c0-0.4,0-0.8,0-1.3L170.4,321.8z M179.9,323
	c-0.3-0.4-0.7-0.6-1.2-0.6c-0.8,0-1.6,0.8-1.6,2.3c-0.1,1,0.6,1.9,1.6,2l0,0c0.5,0,1-0.3,1.3-0.7l0.4,0.5c-0.4,0.6-1.1,0.9-1.9,0.9
	c-1.4,0-2.4-1.1-2.4-2.9c-0.1-1.5,1.1-2.8,2.6-2.9c0.7,0,1.4,0.4,1.8,0.9L179.9,323z M181.4,319h0.9v3.6l0,0c0.4-0.6,1.1-1,1.8-1
	c1.3,0,1.7,0.6,1.7,1.7c0,0.4,0,0.8,0,1.3v2.7H185v-2.5c0-0.5,0-1,0-1.5s-0.4-0.9-1-0.9c-0.7,0.1-1.3,0.4-1.6,1l-0.1,3.8h-0.9V319z
	 M190.6,319h0.9v3.5l0,0c0.4-0.6,1-0.9,1.7-0.9c0.9,0,2.2,0.7,2.2,2.9c0,1.5-1,2.9-2.4,2.9c-0.6,0-1.2-0.2-1.6-0.7l0,0v0.6h-0.8
	L190.6,319z M191.5,325.8c0.3,0.5,0.8,0.9,1.4,0.9c1,0,1.6-1.1,1.6-2.2c0-1.5-0.7-2.2-1.4-2.2c-0.6,0.1-1.2,0.4-1.5,1L191.5,325.8z
	 M197.2,324.4v0.2c0,1.1,0.4,2.2,1.6,2.2c0.6-0.1,1.2-0.3,1.6-0.8l0.4,0.5c-0.5,0.6-1.3,1-2.1,1c-1.5,0-2.4-1.1-2.4-2.9
	c-0.1-1.5,1-2.8,2.5-2.9c1.5,0,2.1,1.1,2.1,2.6v0.2L197.2,324.4z M200,323.8c0-0.8-0.3-1.5-1.2-1.5c-0.8,0.1-1.4,0.7-1.5,1.5H200z
	 M202.5,321.8v-2h0.9v2h1.5v0.7h-1.5v2.2c0,0.6,0,1,0,1.3c0,0.5,0.1,0.7,0.5,0.7c0.3,0,0.6-0.1,0.9-0.3l0.3,0.6
	c-0.4,0.3-0.9,0.4-1.4,0.5c-0.9,0-1.2-0.5-1.2-1.4c0-0.4,0-0.8,0-1.6v-2h-0.9v-0.7L202.5,321.8z M206.2,321.8v-2h0.9v2h1.5v0.7h-1.5
	v2.2c0,0.6,0,1,0,1.3c0,0.5,0.1,0.7,0.5,0.7c0.3,0,0.6-0.1,0.9-0.3l0.3,0.6c-0.4,0.3-0.9,0.4-1.4,0.5c-0.9,0-1.2-0.5-1.2-1.4
	c0-0.4,0-0.8,0-1.6v-2h-0.9v-0.7L206.2,321.8z M210.1,324.4v0.2c0,1.1,0.4,2.2,1.6,2.2c0.6,0,1.2-0.3,1.6-0.8l0.4,0.5
	c-0.5,0.6-1.3,1-2.1,1c-1.5,0-2.4-1.1-2.4-2.9c-0.1-1.5,1-2.8,2.5-2.9c1.5,0,2.1,1.1,2.1,2.6v0.2L210.1,324.4z M212.9,323.8
	c0-0.8-0.3-1.5-1.2-1.5c-0.8,0.1-1.4,0.7-1.5,1.5H212.9z M215.1,321.8h0.9v1.1l0,0c0.2-0.7,0.8-1.2,1.5-1.3c0.2,0,0.3,0,0.5,0.1
	l-0.3,0.8c-0.1,0-0.2-0.1-0.3-0.1c-0.4,0-0.9,0.3-1.4,1.2v3.6h-1L215.1,321.8z M222.1,321.8v-2h0.9v2h1.5v0.7H223v2.2
	c0,0.6,0,1,0,1.3c0,0.5,0.1,0.7,0.5,0.7c0.3,0,0.6-0.1,0.9-0.3l0.3,0.6c-0.4,0.3-0.9,0.4-1.4,0.5c-0.8,0-1.2-0.5-1.2-1.4
	c0-0.4,0-0.8,0-1.6v-2h-0.9v-0.7L222.1,321.8z M227.6,321.7c1.6,0,2.6,1.1,2.6,2.9c0.1,1.5-1,2.8-2.5,2.9h-0.1
	c-1.6,0-2.6-1.1-2.6-2.9c-0.1-1.5,1-2.8,2.5-2.9C227.6,321.7,227.6,321.7,227.6,321.7L227.6,321.7z M227.5,326.8
	c0.8,0,1.7-0.7,1.7-2.2s-0.7-2.2-1.6-2.2s-1.6,0.7-1.6,2.2S226.7,326.8,227.5,326.8L227.5,326.8z M234.9,321.8v-2h0.9v2h1.5v0.7
	h-1.5v2.2c0,0.6,0,1,0,1.3c0,0.5,0.1,0.7,0.5,0.7c0.3,0,0.6-0.1,0.9-0.3l0.3,0.6c-0.4,0.3-0.9,0.4-1.4,0.5c-0.9,0-1.2-0.5-1.2-1.4
	c0-0.4,0-0.8,0-1.6v-2H234v-0.7L234.9,321.8z M238.3,321.8h0.9v1.1l0,0c0.2-0.7,0.8-1.2,1.5-1.3c0.2,0,0.3,0,0.5,0.1l-0.3,0.8
	c-0.1,0-0.2-0.1-0.3-0.1c-0.4,0-0.9,0.3-1.4,1.2v3.6h-0.9V321.8z M246.6,327c-0.3,0.2-0.6,0.4-1,0.4c-0.5,0-0.8-0.4-0.8-0.9
	c-0.4,0.5-1,0.9-1.6,0.9c-0.8,0-1.5-0.6-1.6-1.4c0-0.1,0-0.1,0-0.2c0-1.5,2-1.9,3.2-2c0-0.2,0-0.5,0-0.7c0-0.4-0.3-0.8-0.7-0.8
	c-0.1,0-0.1,0-0.2,0c-0.4,0-0.8,0.1-1.6,0.8l-0.4-0.6c1.1-0.7,1.4-0.9,2.2-0.9c0.7-0.1,1.3,0.4,1.4,1.1c0,0.1,0,0.2,0,0.3
	c0,1-0.1,2-0.1,3c0,0.4,0,0.8,0.4,0.8c0.2,0,0.3-0.1,0.5-0.2L246.6,327z M244.7,324.4c-1.5,0.2-2.3,0.5-2.3,1.4
	c0,0.5,0.3,0.9,0.8,0.9c0.1,0,0.1,0,0.2,0c0.5-0.1,1-0.4,1.3-0.8V324.4z M251.8,321.9l-2.2,5.4h-0.9l-2-5.4l0.9-0.3l1.6,4.6l0,0
	l1.7-4.6L251.8,321.9z M253.4,324.4v0.2c0,1.1,0.4,2.2,1.6,2.2c0.6-0.1,1.2-0.3,1.6-0.8l0.4,0.5c-0.5,0.6-1.3,1-2.1,1
	c-1.5,0-2.4-1.1-2.4-2.9c-0.1-1.5,1-2.8,2.5-2.9c1.5,0,2.1,1.1,2.1,2.6v0.2L253.4,324.4z M256.2,323.8c0-0.8-0.3-1.5-1.2-1.5
	c-0.8,0.1-1.4,0.7-1.5,1.5H256.2z M258.4,319h0.9l-0.1,8.3h-0.9L258.4,319z M264.2,321.8v-2h0.9v2h1.5v0.7h-1.5v2.2c0,0.6,0,1,0,1.3
	c0,0.5,0.1,0.7,0.5,0.7c0.3,0,0.6-0.1,0.9-0.3l0.3,0.6c-0.4,0.3-0.9,0.4-1.4,0.5c-0.9,0-1.2-0.5-1.2-1.4c0-0.4,0-0.8,0-1.6v-2h-0.9
	v-0.7L264.2,321.8z M269.8,321.6c1.6,0,2.6,1.1,2.6,2.9c0.1,1.5-1.1,2.8-2.6,2.9h-0.1c-1.6,0-2.6-1.1-2.6-2.9
	c-0.1-1.5,1.1-2.8,2.6-2.9C269.8,321.7,269.8,321.7,269.8,321.6L269.8,321.6z M269.7,326.8c0.8,0,1.7-0.7,1.7-2.2s-0.7-2.2-1.6-2.2
	s-1.7,0.7-1.7,2.2S268.9,326.8,269.7,326.8L269.7,326.8z M277.8,319.7h1l2.3,6.4l2.5-6.4h1l1.2,7.6l-0.9,0.1l-1-6.5l0,0l-2.4,6.4
	h-0.9l-2.2-6.4l0,0l-1,6.5l-0.9-0.1L277.8,319.7z M287.6,324.4v0.2c0,1.1,0.4,2.2,1.5,2.2c0.6-0.1,1.2-0.3,1.6-0.8l0.4,0.5
	c-0.5,0.6-1.3,1-2.1,1c-1.5,0-2.4-1.1-2.4-2.9c-0.1-1.5,1-2.8,2.5-2.9c1.5,0,2.1,1.1,2.1,2.6v0.2L287.6,324.4z M290.4,323.8
	c0-0.8-0.3-1.5-1.2-1.5c-0.8,0.1-1.4,0.7-1.5,1.5H290.4z M294.4,325.1l-1.6,2.4l-0.7-0.5l1.9-2.5l-1.8-2.4l0.8-0.4l1.5,2.2l1.6-2.2
	l0.7,0.4l-1.8,2.4l1.9,2.5l-0.8,0.5L294.4,325.1z M298,319.7h1v1h-0.9L298,319.7z M298,321.8h1v5.5h-0.9L298,321.8z M304,323
	c-0.3-0.4-0.7-0.6-1.2-0.6c-0.8,0-1.6,0.8-1.6,2.3c-0.1,1,0.6,1.9,1.6,2l0,0c0.5-0.1,0.9-0.3,1.2-0.7l0.5,0.5
	c-0.4,0.6-1.1,0.9-1.9,0.9c-1.4,0-2.4-1.1-2.4-2.9c-0.1-1.5,1.1-2.8,2.6-2.9c0.7,0,1.4,0.4,1.8,0.9L304,323z M307.8,321.6
	c1.6,0,2.6,1.1,2.6,2.9c0.1,1.5-1.1,2.8-2.6,2.9h-0.1c-1.6,0-2.6-1.1-2.6-2.9C305,323,306.2,321.7,307.8,321.6
	C307.7,321.7,307.7,321.7,307.8,321.6L307.8,321.6z M307.7,326.8c0.8,0,1.7-0.7,1.7-2.2s-0.7-2.2-1.6-2.2s-1.8,0.7-1.8,2.3
	S306.8,326.8,307.7,326.8L307.7,326.8z M314.1,321.9l0.9-0.3l1.2,4.6l0,0l1.5-4.4h0.9l1.2,4.4l0,0l1.5-4.6l0.9,0.3l-2,5.4h-0.9
	l-1.2-4.4l0,0l-1.5,4.4h-0.9L314.1,321.9z M323.1,319.7h1v1h-1V319.7z M323.1,321.8h0.9v5.5h-0.9V321.8z M326,321.8v-2h0.9v2h1.5
	v0.7h-1.5v2.2c0,0.6,0,1,0,1.3c0,0.5,0.1,0.7,0.5,0.7c0.3,0,0.6-0.1,0.9-0.3l0.3,0.6c-0.4,0.3-0.9,0.4-1.4,0.5
	c-0.9,0-1.2-0.5-1.2-1.4c0-0.4,0-0.8,0-1.6v-2h-1v-0.7L326,321.8z M329.3,319h0.9v3.6l0,0c0.4-0.6,1.1-1,1.8-1
	c1.3,0,1.7,0.6,1.7,1.7c0,0.4,0,0.8,0,1.3v2.7h-0.9v-2.5c0-0.5,0-1,0-1.5s-0.4-0.9-1-0.9c-0.7,0.1-1.3,0.4-1.6,1v3.8h-0.9V319z
	 M343.1,327c-0.3,0.2-0.6,0.4-1,0.4c-0.5,0-0.8-0.4-0.8-0.9c-0.4,0.5-1,0.9-1.6,0.9c-0.8,0.1-1.5-0.6-1.6-1.4c0-0.1,0-0.1,0-0.2
	c0-1.5,2-1.9,3.2-2c0-0.2,0-0.5,0-0.7c0-0.4-0.3-0.8-0.7-0.8c-0.1,0-0.1,0-0.2,0c-0.4,0-0.8,0.1-1.6,0.8l-0.4-0.6
	c1.1-0.7,1.5-0.9,2.3-0.9c0.7-0.1,1.3,0.4,1.4,1.1c0,0.1,0,0.2,0,0.3c0,1-0.1,2-0.1,3c0,0.4,0,0.8,0.4,0.8c0.2,0,0.3-0.1,0.5-0.2
	L343.1,327z M341.3,324.4c-1.5,0.2-2.3,0.5-2.3,1.4c0,0.5,0.3,0.9,0.8,0.9c0.1,0,0.1,0,0.2,0c0.5-0.1,1-0.4,1.3-0.8V324.4z
	 M347,321.8h0.9v0.7l0,0c0.4-0.6,1-0.9,1.7-0.9c0.9,0,2.2,0.7,2.2,2.9c0,1.5-1,2.9-2.4,2.9c-0.6,0-1.2-0.2-1.5-0.7l0,0v3.3H347
	V321.8z M347.9,325.8c0.3,0.5,0.8,0.9,1.4,0.9c1,0,1.6-1.1,1.6-2.2c0-1.5-0.7-2.2-1.5-2.2c-0.6,0.1-1.2,0.4-1.5,1V325.8z M357.8,327
	c-0.3,0.2-0.6,0.4-1,0.4c-0.5,0-0.8-0.5-0.8-0.9c-0.4,0.5-1,0.9-1.6,0.9c-0.8,0-1.5-0.6-1.6-1.4c0-0.1,0-0.1,0-0.2
	c0-1.5,2-1.9,3.2-2c0-0.2,0-0.5,0-0.7c0-0.4-0.2-0.8-0.7-0.8c-0.1,0-0.1,0-0.2,0c-0.4,0-0.8,0.1-1.6,0.8l-0.4-0.6
	c1.1-0.7,1.5-0.9,2.2-0.9c0.7-0.1,1.3,0.4,1.4,1.1c0,0.1,0,0.2,0,0.3c0,1-0.1,2-0.1,3c0,0.4,0,0.8,0.4,0.8c0.2,0,0.3-0.1,0.5-0.2
	L357.8,327z M356,324.4c-1.5,0.2-2.3,0.5-2.3,1.4c0,0.5,0.3,0.9,0.8,0.9c0.1,0,0.1,0,0.2,0c0.5-0.1,1-0.4,1.3-0.8V324.4z
	 M358.6,326.3c0.3,0.3,0.8,0.4,1.2,0.5c0.5,0,1-0.4,1.1-0.9c0-1.4-2.5-0.8-2.5-2.6c0-0.9,0.8-1.7,1.7-1.6h0.1c0.6,0,1.1,0.2,1.6,0.5
	l-0.4,0.6c-0.3-0.2-0.7-0.3-1-0.4c-0.6,0-1.1,0.3-1.1,0.9c0,1.2,2.5,0.7,2.5,2.5c0,0.9-0.8,1.7-1.8,1.7c0,0,0,0-0.1,0
	c-0.6,0-1.2-0.2-1.7-0.5L358.6,326.3z M362.9,326.3c0.3,0.3,0.8,0.4,1.2,0.5c0.5,0,1-0.3,1.1-0.9c0-1.4-2.5-0.8-2.5-2.6
	c0-0.9,0.8-1.7,1.7-1.6h0.1c0.6,0,1.1,0.2,1.6,0.5l-0.4,0.6c-0.3-0.2-0.7-0.3-1-0.4c-0.6,0-1.1,0.3-1.1,0.9c0,1.2,2.5,0.7,2.5,2.5
	c0,0.9-0.8,1.7-1.8,1.7c0,0,0,0-0.1,0c-0.6,0-1.2-0.2-1.7-0.5L362.9,326.3z M367.3,321.8h0.9v0.7l0,0c0.4-0.6,1-0.9,1.7-0.9
	c0.9,0,2.2,0.7,2.2,2.9c0,1.5-1,2.9-2.4,2.9c-0.6,0-1.2-0.2-1.5-0.7l0,0v3.3h-0.9L367.3,321.8z M368.1,325.8
	c0.3,0.5,0.8,0.8,1.4,0.9c1,0,1.6-1.1,1.6-2.2c0-1.5-0.7-2.2-1.5-2.2c-0.6,0.1-1.2,0.4-1.5,1V325.8z M375.6,321.6
	c1.6,0,2.6,1.1,2.6,2.9c0.1,1.5-1.1,2.8-2.6,2.9h-0.1c-1.6,0-2.6-1.1-2.6-2.9C372.9,323,374.1,321.7,375.6,321.6
	C375.6,321.7,375.6,321.7,375.6,321.6L375.6,321.6z M375.5,326.8c0.8,0,1.7-0.7,1.7-2.2s-0.7-2.2-1.6-2.2s-1.7,0.7-1.7,2.2
	S374.6,326.8,375.5,326.8L375.5,326.8z M379.5,321.8h0.9v1.1l0,0c0.2-0.7,0.8-1.2,1.5-1.3c0.2,0,0.3,0,0.5,0.1l-0.3,0.8
	c-0.1,0-0.2-0.1-0.3-0.1c-0.4,0-1,0.3-1.4,1.2v3.6h-0.9L379.5,321.8z M383.5,321.8v-2h0.9v2h1.5v0.7h-1.5v2.2c0,0.6,0,1,0,1.3
	c0,0.5,0.1,0.7,0.5,0.7c0.3,0,0.6-0.1,0.9-0.3l0.3,0.6c-0.4,0.3-0.9,0.4-1.4,0.5c-0.8,0-1.2-0.5-1.2-1.4c0-0.4,0-0.8,0-1.6v-2h-0.9
	v-0.7L383.5,321.8z M390,319h0.9v3.5l0,0c0.4-0.6,1-0.9,1.7-0.9c0.9,0,2.2,0.7,2.2,2.9c0,1.5-1,2.9-2.4,2.9c-0.6,0-1.2-0.2-1.6-0.7
	l0,0v0.6H390V319z M390.8,325.8c0.3,0.5,0.8,0.9,1.4,0.9c1,0,1.6-1.1,1.6-2.2c0-1.5-0.7-2.2-1.5-2.2c-0.6,0.1-1.2,0.4-1.5,1V325.8z
	 M396.6,324.4v0.2c0,1.1,0.4,2.2,1.6,2.2c0.6-0.1,1.2-0.3,1.6-0.8l0.4,0.5c-0.5,0.6-1.3,1-2.1,1c-1.5,0-2.4-1.1-2.4-2.9
	c-0.1-1.5,1-2.8,2.5-2.9c1.5,0,2.1,1.1,2.1,2.6v0.2L396.6,324.4z M399.4,323.8c0-0.8-0.3-1.5-1.2-1.5c-0.8,0.1-1.4,0.7-1.5,1.5
	H399.4z M404.9,323c-0.3-0.4-0.7-0.6-1.2-0.6c-0.8,0-1.6,0.8-1.6,2.3c-0.1,1,0.6,1.9,1.6,2l0,0c0.5,0,1-0.3,1.3-0.7l0.5,0.5
	c-0.4,0.6-1.1,0.9-1.9,0.9c-1.4,0-2.4-1.1-2.4-2.9c-0.1-1.5,1.1-2.8,2.6-2.9c0.7,0,1.4,0.4,1.8,0.9L404.9,323z M411.1,327
	c-0.3,0.2-0.6,0.4-1,0.4c-0.5,0-0.8-0.4-0.8-0.9c-0.4,0.5-1,0.9-1.6,0.9c-0.8,0.1-1.5-0.6-1.6-1.4c0-0.1,0-0.1,0-0.2
	c0-1.5,2-1.9,3.2-2c0-0.2,0-0.5,0-0.7c0-0.4-0.3-0.8-0.7-0.8c-0.1,0-0.1,0-0.2,0c-0.4,0-0.8,0.1-1.6,0.8l-0.4-0.6
	c1.1-0.7,1.5-0.9,2.3-0.9c0.7-0.1,1.3,0.4,1.4,1.1c0,0.1,0,0.2,0,0.3c0,1-0.1,2-0.1,3c0,0.4,0.1,0.8,0.4,0.8c0.2,0,0.3-0.1,0.5-0.2
	L411.1,327z M409.2,324.4c-1.5,0.2-2.3,0.5-2.3,1.4c0,0.5,0.3,0.9,0.8,0.9c0.1,0,0.1,0,0.2,0c0.5-0.1,1-0.4,1.3-0.8V324.4z
	 M412,321.7h0.9v2.5c0,0.5,0,1,0,1.5s0.4,0.9,1,0.9c0.7-0.1,1.3-0.4,1.6-1v-3.8h0.9v5.5h-0.9v-0.9l0,0c-0.4,0.6-1.1,1-1.9,1
	c-1.3,0-1.7-0.6-1.7-1.7c0-0.4,0-0.8,0-1.3L412,321.7z M418,326.2c0.3,0.3,0.8,0.4,1.2,0.5c0.5,0,1-0.4,1.1-0.9
	c0-1.4-2.5-0.8-2.5-2.6c0-0.9,0.8-1.7,1.7-1.6h0.1c0.6,0,1.1,0.2,1.6,0.5l-0.4,0.6c-0.3-0.2-0.7-0.3-1-0.4c-0.6,0-1.1,0.3-1.1,0.9
	c0,1.2,2.5,0.7,2.5,2.5c0,0.9-0.8,1.7-1.8,1.7c0,0,0,0-0.1,0c-0.6,0-1.2-0.2-1.7-0.5L418,326.2z M422.9,324.4v0.2
	c0,1.1,0.4,2.2,1.5,2.2c0.6-0.1,1.2-0.3,1.6-0.8l0.4,0.5c-0.5,0.6-1.3,1-2.1,1c-1.5,0-2.4-1.1-2.4-2.9c-0.1-1.5,1-2.8,2.5-2.9
	c1.5,0,2.1,1.1,2.1,2.6v0.2L422.9,324.4z M425.7,323.8c0-0.8-0.3-1.5-1.2-1.5c-0.8,0.1-1.4,0.7-1.5,1.5H425.7z M433.2,321.6
	c1.6,0,2.6,1.1,2.6,2.9c0.1,1.5-1,2.8-2.5,2.9h-0.1c-1.6,0-2.6-1.1-2.6-2.9c0-1.5,1.1-2.7,2.6-2.8V321.6z M433.1,326.7
	c0.8,0,1.7-0.7,1.7-2.2s-0.7-2.2-1.6-2.2s-1.7,0.7-1.7,2.2S432.1,326.8,433.1,326.7L433.1,326.7z M436.4,321.7h1.1
	c0-0.3,0-0.7,0-1.1c0.1-1.3,1-1.8,2.3-1.8v0.7h-0.4c-0.7,0-1.1,0.6-1.1,1.3v0.9h1.5v0.7h-1.5v4.8h-0.9v-4.8h-1.1L436.4,321.7z
	 M439.9,321.7h1.1c0-0.3,0-0.7,0-1.1c0.1-1.3,1-1.8,2.3-1.8v0.7h-0.4c-0.7,0-1.1,0.6-1.1,1.3v0.9h3.2v5.5h-1v-4.8h-2.4v4.8h-0.9
	v-4.8h-1.1L439.9,321.7z M444,319.6h1v1h-1V319.6z"/>
<text transform="matrix(1 0 0 1 442.57 327.3)" class="st20 st24 st19"> cials of all countries a</text>
<text transform="matrix(1 0 0 1 545.85 327.3)" class="st20 st24 st19">r</text>
<text transform="matrix(1 0 0 1 549.4 327.3)" class="st20 st24 st19">e</text>
<text transform="matrix(1 0 0 1 86.03 343.3)" class="st20 st24 st19">used to passports and may delay people who have other documents. In Mexico you often need your</text>
<text transform="matrix(1 0 0 1 86.03 359.3)" class="st20 st24 st19">passport to change money and to check into hotels.</text>
<text transform="matrix(1 0 0 1 86.03 381.3)" class="st20 st24 st19">All citizens of countries other than the US and Canada need to have a passport that</text>
<text transform="matrix(1 0 0 1 479.66 381.3)" class="st20 st24 st19"></text>
<text transform="matrix(1 0 0 1 481.91 381.3)" class="st20 st24 st19">s valid for at least</text>
<text transform="matrix(1 0 0 1 86.03 397.3)" class="st20 st24 st19">six months after they arrive in Mexico.</text>
<text transform="matrix(1 0 0 1 86.03 419.3)" class="st20 st24 st19">T</text>
<text transform="matrix(1 0 0 1 91.33 419.3)" class="st20 st24 st19">ravelers under 18 who a</text>
<text transform="matrix(1 0 0 1 205.64 419.3)" class="st20 st24 st19">r</text>
<text transform="matrix(1 0 0 1 209.2 419.3)" class="st20 st24 st19">e not accompanied by both their pa</text>
<text transform="matrix(1 0 0 1 377.91 419.3)" class="st20 st24 st19">r</text>
<text transform="matrix(1 0 0 1 381.47 419.3)" class="st20 st24 st19">ents may need special documentation.</text>
<text transform="matrix(1 0 0 1 86.03 441.3)" class="st20 st24 st25">Adapted f</text>
<text transform="matrix(1 0 0 1 124.54 441.3)" class="st20 st24 st25">r</text>
<text transform="matrix(1 0 0 1 127.45 441.3)" class="st20 st24 st25">om: http://ww</text>
<text transform="matrix(1 0 0 1 185.46 441.3)" class="st20 st24 st25">w</text>
<text transform="matrix(1 0 0 1 191.8 441.3)" class="st20 st24 st25">.lonelyplanet.com/mexico/transport/getting-the</text>
<text transform="matrix(1 0 0 1 378.31 441.3)" class="st20 st24 st25">r</text>
<text transform="matrix(1 0 0 1 381.22 441.3)" class="st20 st24 st25">e-away</text>
<text transform="matrix(1 0 0 1 68.03 466.8)" class="st17 st18 st19">2  </text>
<text transform="matrix(1 0 0 1 86.03 466.8)" class="st20 st21 st19">Read again and answe</text>
<text transform="matrix(1 0 0 1 193.61 466.8)" class="st20 st21 st19">r</text>
<text transform="matrix(1 0 0 1 196.67 466.8)" class="st20 st21 st19">.</text>
<text transform="matrix(1 0 0 1 85.36 486.3)" class="st20 st21 st19">1.</text>
<text transform="matrix(1 0 0 1 104.03 486.3)" class="st20 st24 st19">Which a</text>
<text transform="matrix(1 0 0 1 143.15 486.3)" class="st20 st24 st19">r</text>
<text transform="matrix(1 0 0 1 146.7 486.3)" class="st20 st24 st19">e the th</text>
<text transform="matrix(1 0 0 1 183.37 486.3)" class="st20 st24 st19">r</text>
<text transform="matrix(1 0 0 1 186.93 486.3)" class="st20 st24 st19">ee ways of traveling mentioned?</text>
<text transform="matrix(1 0 0 1 85.36 525.3)" class="st20 st21 st19">2.</text>
<text transform="matrix(1 0 0 1 104.03 525.3)" class="st20 st24 st19">Which p</text>
<text transform="matrix(1 0 0 1 143.76 525.3)" class="st20 st24 st19">r</text>
<text transform="matrix(1 0 0 1 147.31 525.3)" class="st20 st24 st19">oofs of citizenship a</text>
<text transform="matrix(1 0 0 1 240.82 525.3)" class="st20 st24 st19">r</text>
<text transform="matrix(1 0 0 1 244.38 525.3)" class="st20 st24 st19">e mentioned?</text>
<text transform="matrix(1 0 0 1 85.36 583.8)" class="st20 st21 st19">3.</text>
<text transform="matrix(1 0 0 1 104.03 583.8)" class="st20 st24 st19">What do you often need a passport for?</text>
<text transform="matrix(1 0 0 1 85.36 622.8)" class="st20 st21 st19">4.</text>
<text transform="matrix(1 0 0 1 104.03 622.8)" class="st20 st24 st19">What do underage travelers need when they travel alone?</text>
<g>
	
		<image style="overflow:visible;opacity:0.41;enable-background:new    ;" width="170" height="117" xlink:href="BFD9EE7B.png"  transform="matrix(1 0 0 1 154 5)">
	</image>
	<g>
		
			<image style="overflow:visible;opacity:0.37;enable-background:new    ;" width="142" height="91" xlink:href="BFD9EE7C.png"  transform="matrix(1 0 0 1 162 11)">
		</image>
		<g>
			
				<image style="overflow:visible;opacity:0.8;enable-background:new    ;" width="127" height="72" xlink:href="BFD9EE7E.png"  transform="matrix(1 0 0 1 166 14)">
			</image>
			<g>
				<text transform="matrix(1 0 0 1 181.9132 44.7173)" class="st0 st26 st27">READING</text>
				<text transform="matrix(1 0 0 1 181.9132 66.3173)" class="st0 st26 st27">Trips</text>
			</g>
		</g>
	</g>
</g>
</svg>
