<?xml version="1.0" encoding="utf-8"?>
<!-- Generator: Adobe Illustrator 24.1.2, SVG Export Plug-In . SVG Version: 6.00 Build 0)  -->
<svg version="1.1" id="Capa_1" xmlns="http://www.w3.org/2000/svg" xmlns:xlink="http://www.w3.org/1999/xlink" x="0px" y="0px"
	 viewBox="0 0 652 822" style="enable-background:new 0 0 652 822;" xml:space="preserve">
<style type="text/css">
	.st0{fill:#FFFFFF;}
	.st1{fill:#F6F2C2;}
	.st2{clip-path:url(#SVGID_2_);}
	.st3{fill:#D6D087;}
	.st4{clip-path:url(#SVGID_4_);}
	.st5{fill:none;stroke:#D6D087;stroke-width:4;}
	.st6{fill:#DB9600;}
	.st7{fill:#E7B700;}
	.st8{fill:#E6B500;}
	.st9{fill:#E1A600;}
	.st10{fill:#EBC000;}
	.st11{fill:#EABF00;}
	.st12{clip-path:url(#SVGID_6_);}
	.st13{fill:#CA7104;}
	.st14{fill:#E2AC52;}
	.st15{clip-path:url(#SVGID_8_);}
	.st16{fill:#BF0811;}
	.st17{font-family:'SyntaxLTStd-Black';}
	.st18{font-size:11px;}
	.st19{fill:#5775B3;}
	.st20{clip-path:url(#SVGID_10_);}
	.st21{clip-path:url(#SVGID_12_);}
	.st22{clip-path:url(#SVGID_14_);}
	.st23{clip-path:url(#SVGID_16_);}
	.st24{fill:none;stroke:#5775B3;}
	.st25{clip-path:url(#SVGID_18_);}
	.st26{fill:#D8E0F1;}
	.st27{fill:none;stroke:#5775B3;stroke-width:0.96;stroke-linecap:round;}
	.st28{fill:#211915;}
	.st29{font-family:'SyntaxLTStd-Bold';}
	.st30{fill:none;stroke:#211915;stroke-width:0.5;}
	.st31{font-family:'SyntaxLTStd-Roman';}
	.st32{clip-path:url(#SVGID_20_);}
	.st33{clip-path:url(#SVGID_22_);}
	.st34{font-size:10px;}
	.st35{font-family:'Gabriel-Sans-Bold';}
	.st36{font-size:18px;}
</style>
<rect x="-4" y="-4.4" class="st0" width="662.5" height="831.8"/>
<rect x="60.7" y="760.3" class="st1" width="15.9" height="47.9"/>
<rect x="76.6" y="760.3" class="st1" width="16.1" height="47.9"/>
<g>
	<g>
		<g>
			<g>
				<defs>
					<rect id="SVGID_1_" x="14.4" y="14.5" width="609.5" height="793.7"/>
				</defs>
				<clipPath id="SVGID_2_">
					<use xlink:href="#SVGID_1_"  style="overflow:visible;"/>
				</clipPath>
				<g class="st2">
					<rect x="44.8" y="760.3" class="st1" width="15.9" height="47.9"/>
					<rect x="14.4" y="760.3" class="st3" width="30.4" height="47.9"/>
				</g>
			</g>
		</g>
	</g>
</g>
<rect x="14.4" y="84" class="st3" width="609.5" height="4"/>
<g>
	<g>
		<g>
			<g>
				<defs>
					<rect id="SVGID_3_" x="623.8" y="14.5" width="14.2" height="793.7"/>
				</defs>
				<clipPath id="SVGID_4_">
					<use xlink:href="#SVGID_3_"  style="overflow:visible;"/>
				</clipPath>
				<g class="st4">
					<line class="st5" x1="623.8" y1="86" x2="1233.3" y2="86"/>
				</g>
			</g>
		</g>
	</g>
</g>
<rect x="131.1" y="14.5" class="st6" width="492.8" height="69.6"/>
<polyline class="st6" points="603.3,84 559.6,84 559.6,37.7 582.8,14.5 619.6,14.5 619.6,67.7 603.3,84 "/>
<polyline class="st7" points="478.8,84 478.8,84 512.3,50.5 478.8,84 "/>
<polyline class="st7" points="460.4,84 460.4,84 447,70.7 447,70.7 460.4,84 "/>
<polyline class="st7" points="512.3,50.5 512.3,50.5 544.6,18.2 512.3,50.5 "/>
<polyline class="st7" points="559.6,37.7 559.6,14.5 582.8,14.5 559.6,37.7 "/>
<polyline class="st6" points="379.6,84 368.9,84 368.9,58.8 368.9,58.8 379.6,48.1 379.6,84 "/>
<polyline class="st6" points="439.6,63.2 402,25.6 402,25.6 439.6,63.2 439.6,63.2 "/>
<polyline class="st7" points="447,70.7 439.6,63.2 439.6,63.2 447,70.7 447,70.7 "/>
<polyline class="st8" points="368.9,84 304.1,84 278.9,58.8 278.9,14.5 324.5,14.5 368.9,58.8 368.9,84 "/>
<path class="st8" d="M402,25.6l-11.2-11.2l0,0L402,25.6L402,25.6 M368.9,58.8l-44.3-44.3h55v33.6L368.9,58.8"/>
<polyline class="st6" points="529.6,67.7 512.3,50.5 512.3,50.5 529.6,67.7 559.6,37.7 559.6,37.7 529.6,67.7 "/>
<polyline class="st6" points="559.6,84 529.6,84 529.6,67.7 529.6,67.7 559.6,37.7 559.6,84 "/>
<polyline class="st9" points="529.6,84 478.8,84 512.3,50.5 529.6,67.7 529.6,84 "/>
<polyline class="st9" points="529.6,67.7 512.3,50.5 548.3,14.5 559.6,14.5 559.6,37.7 529.6,67.7 "/>
<polyline class="st8" points="455.9,84 433.6,84 444.7,72.9 455.9,84 "/>
<polyline class="st10" points="460.4,84 455.9,84 444.7,72.9 447,70.7 460.4,84 "/>
<polyline class="st8" points="379.6,48.1 379.6,48.1 402,25.6 402,25.6 379.6,48.1 "/>
<polyline class="st8" points="433.6,84 379.6,84 379.6,48.1 402,25.6 439.6,63.2 439.6,67.7 444.7,72.9 433.6,84 "/>
<polyline class="st10" points="444.7,72.9 439.6,67.7 439.6,63.2 447,70.7 444.7,72.9 "/>
<polyline class="st11" points="379.6,48.1 379.6,14.5 390.8,14.5 402,25.6 379.6,48.1 "/>
<polyline class="st8" points="512.3,50.5 476.3,14.5 476.3,14.5 512.3,50.5 512.3,50.5 "/>
<polyline class="st10" points="478.8,84 460.4,84 447,70.7 458.8,58.8 458.8,14.5 476.3,14.5 512.3,50.5 478.8,84 "/>
<polyline class="st10" points="512.3,50.5 476.3,14.5 548.3,14.5 512.3,50.5 "/>
<polyline class="st8" points="402,25.6 402,25.6 413.2,14.5 413.2,14.5 402,25.6 "/>
<polyline class="st8" points="439.6,63.2 402,25.6 413.2,14.5 439.6,14.5 439.6,63.2 "/>
<polyline class="st10" points="447,70.7 439.6,63.2 439.6,14.5 458.8,14.5 458.8,58.8 447,70.7 "/>
<polyline class="st11" points="402,25.6 390.8,14.5 413.2,14.5 402,25.6 "/>
<g>
	<g>
		<g>
			<g>
				<defs>
					<rect id="SVGID_5_" x="14.4" y="14.5" width="609.5" height="793.7"/>
				</defs>
				<clipPath id="SVGID_6_">
					<use xlink:href="#SVGID_5_"  style="overflow:visible;"/>
				</clipPath>
				<g class="st12">
					<polyline class="st13" points="157.4,68.4 157.4,14.5 14.4,14.5 14.4,84 141.8,84 157.4,68.4 					"/>
				</g>
			</g>
		</g>
	</g>
</g>
<polyline class="st6" points="80.5,767.3 68.3,760.3 68.3,774.4 80.5,781.5 80.5,767.3 "/>
<polyline class="st13" points="80.5,781.5 92.7,774.4 92.7,760.3 80.5,767.3 80.5,781.5 "/>
<polyline class="st14" points="68.3,760.3 80.5,767.3 92.7,760.3 80.5,753.2 68.3,760.3 "/>
<g>
	<g>
		<g>
			<g>
				<defs>
					<rect id="SVGID_7_" x="623.8" y="14.5" width="14.2" height="793.7"/>
				</defs>
				<clipPath id="SVGID_8_">
					<use xlink:href="#SVGID_7_"  style="overflow:visible;"/>
				</clipPath>
				<g class="st15">
					<polyline class="st13" points="769.9,68.4 769.9,14.5 623.8,14.5 623.8,84 754.2,84 769.9,68.4 					"/>
				</g>
			</g>
		</g>
	</g>
</g>
<text transform="matrix(1 0 0 1 68.25 138.6)" class="st16 st17 st18">1.</text>
<polyline class="st19" points="97.3,131.8 97.3,138 110.6,142.9 120.3,138.9 120.3,130.9 110.6,126.9 97.3,131.8 "/>
<g>
	<g>
		<g>
			<g>
				<defs>
					<path id="SVGID_9_" d="M97.3,145.4c-5.8,0-10.6-4.7-10.6-10.6c0-5.8,4.7-10.6,10.6-10.6c5.8,0,10.6,4.7,10.6,10.6l0,0
						C107.9,140.7,103.2,145.4,97.3,145.4"/>
				</defs>
				<clipPath id="SVGID_10_">
					<use xlink:href="#SVGID_9_"  style="overflow:visible;"/>
				</clipPath>
				<g class="st20">
					<g>
						<g>
							<g>
								<g>
									<defs>
										<rect id="SVGID_11_" x="86.8" y="124.3" width="21.2" height="21.1"/>
									</defs>
									<clipPath id="SVGID_12_">
										<use xlink:href="#SVGID_11_"  style="overflow:visible;"/>
									</clipPath>
									<g class="st21">
										<g>
											<g>
												<g>
													<g>
														<defs>
															<rect id="SVGID_13_" x="86.8" y="124.3" width="21.2" height="21.1"/>
														</defs>
														<clipPath id="SVGID_14_">
															<use xlink:href="#SVGID_13_"  style="overflow:visible;"/>
														</clipPath>
														<g class="st22">
															
																<image style="overflow:visible;enable-background:new    ;" width="89" height="89" xlink:href="46BCC75D.png"  transform="matrix(0.24 0 0 0.24 86.63 124.13)">
															</image>
														</g>
													</g>
												</g>
											</g>
										</g>
									</g>
								</g>
							</g>
						</g>
					</g>
				</g>
			</g>
		</g>
	</g>
</g>
<g>
	<g>
		<g>
			<g>
				<defs>
					<path id="SVGID_15_" d="M97.3,145.4c-5.8,0-10.6-4.7-10.6-10.6c0-5.8,4.7-10.6,10.6-10.6c5.8,0,10.6,4.7,10.6,10.6l0,0
						C107.9,140.7,103.2,145.4,97.3,145.4"/>
				</defs>
				<clipPath id="SVGID_16_">
					<use xlink:href="#SVGID_15_"  style="overflow:visible;"/>
				</clipPath>
				<g class="st23">
					<polyline class="st0" points="97.3,131.8 97.3,138 110.6,142.9 120.3,138.9 120.3,130.9 110.6,126.9 97.3,131.8 					"/>
				</g>
			</g>
		</g>
	</g>
</g>
<path class="st24" d="M97.3,145.4c-5.8,0-10.6-4.7-10.6-10.6c0-5.8,4.7-10.6,10.6-10.6c5.8,0,10.6,4.7,10.6,10.6l0,0
	C107.9,140.7,103.2,145.4,97.3,145.4z"/>
<path class="st0" d="M97,137.2c-3.7,3.1-8.8,0.4-8.8,0.4c5.4-2.2,5.4-4,7.2-6.1c1.2-1.5,3-2.4,4.9-2.5c2.9,0.1,5.1,2.6,5,5.4
	c-0.1,2.7-2.3,4.8-5,5C98.8,139.5,97.5,138.6,97,137.2L97,137.2"/>
<g>
	<g>
		<g>
			<g>
				<defs>
					<path id="SVGID_17_" d="M97,137.2c-3.7,3.1-8.8,0.4-8.8,0.4c5.4-2.2,5.4-4,7.2-6.1c1.2-1.5,3-2.4,4.9-2.5
						c2.9,0.1,5.1,2.6,5,5.4c-0.1,2.7-2.3,4.8-5,5C98.8,139.5,97.5,138.6,97,137.2L97,137.2"/>
				</defs>
				<clipPath id="SVGID_18_">
					<use xlink:href="#SVGID_17_"  style="overflow:visible;"/>
				</clipPath>
				<g class="st25">
					<path class="st26" d="M94.2,138.4c0,0,0.3-5.2,4.7-6.2c0,0-3.2,3.1-1.9,5.1L94.2,138.4"/>
				</g>
			</g>
		</g>
	</g>
</g>
<path class="st26" d="M99.7,134.3c0,0,1-0.1,1,1.6c0,0-0.9,0.3-1.3-0.3S99.8,134.3,99.7,134.3"/>
<path class="st27" d="M97,137.2c-3.7,3-8.8,0.4-8.8,0.4c5.4-2.2,5.4-4,7.1-6.1c1.2-1.5,3-2.4,4.9-2.5c2.9,0,5.2,2.3,5.2,5.2
	s-2.3,5.2-5.2,5.2c-1.9,0-3.5-1.5-3.5-3.4l0,0c0-2,1.5-3.6,3.5-3.7c1-0.1,1.9,0.7,2,1.7s-0.7,1.9-1.7,2c-0.1,0-0.2,0-0.3,0
	c-0.8,0-1.4-1.1-0.7-1.5"/>
<text transform="matrix(1 0 0 1 128.25 138.6)" class="st28 st29 st18">Match each food word to its corresponding picture as you listen. Which words are similar</text>
<text transform="matrix(1 0 0 1 128.25 152.1)" class="st28 st29 st18">in Spanish? </text>
<text transform="matrix(1 0 0 1 186.32 152.1)" class="st28 st29 st18">T</text>
<text transform="matrix(1 0 0 1 191.84 152.1)" class="st28 st29 st18">ick (</text>
<path class="st16" d="M220.9,145.1c0,0.5-0.2,0.9-0.6,1.2l-0.1,0.1l-3.3,3.5c-0.6,0.6-1.2,1.2-1.8,1.7c-0.3,0.3-0.7,0.5-1.1,0.6
	c-0.3,0-0.6-0.1-0.8-0.3c-0.3-0.1-0.5-0.4-0.6-0.6c-0.1-0.4-0.2-0.8-0.2-1.1c-0.1-0.6-0.1-1.3-0.1-1.9c0-0.4,0.2-0.7,0.5-1
	s0.6-0.5,1-0.5s0.6,0.3,0.6,1v0.2c0,0.4,0.1,0.7,0.2,1.1c0.1,0.2,0.2,0.3,0.3,0.3s0.2-0.1,0.3-0.2c0.1-0.1,0.3-0.3,0.5-0.5l3.4-3.4
	c0.2-0.2,0.5-0.5,0.8-0.6c0.2-0.1,0.4-0.2,0.6-0.2c0.1,0,0.2,0,0.3,0.1S220.9,144.9,220.9,145.1L220.9,145.1L220.9,145.1z"/>
<text transform="matrix(1 0 0 1 221.3 152.1)" class="st28 st29 st18">) the food you like. Listen again and repeat the words.</text>
<rect x="481.1" y="180.2" class="st0" width="20.5" height="20.5"/>
<path class="st30" d="M501.6,180.2h-20.5v20.5h20.5V180.2z"/>
<text transform="matrix(1 0 0 1 507.32 194.64)" class="st28 st31 st18">b</text>
<text transform="matrix(1 0 0 1 513.44 194.64)" class="st28 st31 st18">r</text>
<text transform="matrix(1 0 0 1 516.99 194.64)" class="st28 st31 st18">ead</text>
<rect x="481.1" y="206.7" class="st0" width="20.5" height="20.5"/>
<path class="st30" d="M501.6,206.7h-20.5v20.5h20.5V206.7z"/>
<text transform="matrix(1 0 0 1 507.32 221.14)" class="st28 st31 st18">eggs</text>
<rect x="481.1" y="233.2" class="st0" width="20.5" height="20.5"/>
<path class="st30" d="M501.6,233.2h-20.5v20.5h20.5V233.2z"/>
<path class="st28" d="M508.2,242.2h0.9v0.8l0,0c0.4-0.6,1.1-1,1.8-1c0.6-0.1,1.2,0.4,1.4,1c0.5-0.6,1.2-0.9,1.9-1
	c1.1,0,1.5,0.6,1.5,1.7c0,0.4,0,0.8,0,1.3v2.7h-0.9v-2.5c0-0.5,0-1,0-1.5c0-0.4-0.3-0.8-0.7-0.9H514c-0.6,0-1.2,0.4-1.6,0.9
	l-0.1,3.9h-0.9v-2.5c0-0.5,0-1,0-1.5c0-0.4-0.3-0.8-0.7-0.9h-0.1c-0.6,0-1.2,0.4-1.6,0.9l-0.1,3.9H508L508.2,242.2z M517.9,244.8
	v0.2c0,1.1,0.4,2.2,1.5,2.2c0.6-0.1,1.2-0.3,1.6-0.8l0.4,0.5c-0.5,0.6-1.3,1-2.1,1c-1.5,0-2.4-1.1-2.4-2.9c-0.1-1.5,1-2.8,2.5-2.9
	c1.5,0,2.1,1.1,2.1,2.6v0.2L517.9,244.8z M520.7,244.2c0-0.8-0.3-1.5-1.2-1.5c-0.8,0.1-1.4,0.7-1.5,1.5H520.7z M527.5,247.4
	c-0.3,0.2-0.6,0.4-1,0.4c-0.5,0-0.8-0.4-0.8-0.9c-0.4,0.5-1,0.9-1.7,0.9c-0.8,0-1.5-0.6-1.6-1.4c0-0.1,0-0.1,0-0.2
	c0-1.6,2-1.9,3.2-2c0-0.2,0-0.5,0-0.7c0-0.4-0.3-0.8-0.7-0.8c-0.1,0-0.1,0-0.2,0c-0.4,0-0.8,0.1-1.6,0.8l-0.4-0.6
	c1.1-0.7,1.5-0.9,2.2-0.9c0.7-0.1,1.3,0.4,1.4,1.1c0,0.1,0,0.2,0,0.3c0,1-0.1,2-0.1,3c0,0.4,0.1,0.8,0.4,0.8c0.2,0,0.3-0.1,0.5-0.2
	L527.5,247.4z M525.6,244.8c-1.5,0.2-2.3,0.5-2.3,1.4c0,0.5,0.3,0.9,0.8,0.9c0.1,0,0.1,0,0.2,0c0.5-0.1,1-0.4,1.3-0.8V244.8z
	 M528.6,242.2v-2h0.9v2h1.5v0.7h-1.5v2.2c0,0.6,0,1,0,1.3c0,0.4,0.1,0.7,0.5,0.7c0.3,0,0.6-0.1,0.9-0.3l0.3,0.6
	c-0.4,0.3-0.9,0.4-1.4,0.5c-0.8,0-1.2-0.5-1.2-1.4c0-0.4,0-0.8,0-1.6v-2h-0.9v-0.7H528.6z M531.3,242.2h1.1c0-0.4,0-0.7,0-1.1
	c0.1-1.3,1-1.8,2.3-1.8v0.7h-0.4c-0.7,0-1.1,0.6-1.1,1.3v0.9h3.2v5.5h-0.9v-4.8h-2.3v4.8h-0.9v-4.8h-1.1L531.3,242.2z M535.5,240
	h0.9v1h-0.9V240z"/>
<text transform="matrix(1 0 0 1 534.21 247.64)" class="st28 st31 st18"> sh</text>
<rect x="481.1" y="259.7" class="st0" width="20.5" height="20.5"/>
<path class="st30" d="M501.6,259.7h-20.5v20.5h20.5V259.7z"/>
<text transform="matrix(1 0 0 1 507.32 274.14)" class="st28 st31 st18">watermelon</text>
<rect x="481.1" y="286.2" class="st0" width="20.5" height="20.5"/>
<path class="st30" d="M501.6,286.2h-20.5v20.5h20.5V286.2z"/>
<text transform="matrix(1 0 0 1 507.32 300.64)" class="st28 st31 st18">banana</text>
<rect x="481.1" y="312.7" class="st0" width="20.5" height="20.5"/>
<path class="st30" d="M501.6,312.7h-20.5v20.5h20.5V312.7z"/>
<text transform="matrix(1 0 0 1 507.32 327.14)" class="st28 st31 st18">rice</text>
<rect x="481.1" y="339.2" class="st0" width="20.5" height="20.5"/>
<path class="st30" d="M501.6,339.2h-20.5v20.5h20.5V339.2z"/>
<text transform="matrix(1 0 0 1 507.32 353.64)" class="st28 st31 st18">apple</text>
<rect x="481.1" y="365.7" class="st0" width="20.5" height="20.5"/>
<path class="st30" d="M501.6,365.7h-20.5v20.5h20.5V365.7z"/>
<text transform="matrix(1 0 0 1 507.32 380.14)" class="st28 st31 st18">potato</text>
<rect x="481.1" y="392.2" class="st0" width="20.5" height="20.5"/>
<path class="st30" d="M501.6,392.2h-20.5v20.5h20.5V392.2z"/>
<text transform="matrix(1 0 0 1 507.32 406.64)" class="st28 st31 st18">lettuce</text>
<rect x="481.1" y="418.7" class="st0" width="20.5" height="20.5"/>
<path class="st30" d="M501.6,418.7h-20.5v20.5h20.5V418.7z"/>
<text transform="matrix(1 0 0 1 507.32 433.14)" class="st28 st31 st18">avocado</text>
<rect x="481.1" y="445.2" class="st0" width="20.5" height="20.5"/>
<path class="st30" d="M501.6,445.2h-20.5v20.5h20.5V445.2z"/>
<text transform="matrix(1 0 0 1 507.32 459.64)" class="st28 st31 st18">grapes</text>
<rect x="481.1" y="471.7" class="st0" width="20.5" height="20.5"/>
<path class="st30" d="M501.6,471.7h-20.5v20.5h20.5V471.7z"/>
<text transform="matrix(1 0 0 1 507.32 486.14)" class="st28 st31 st18">pear</text>
<rect x="481.1" y="498.2" class="st0" width="20.5" height="20.5"/>
<path class="st30" d="M501.6,498.2h-20.5v20.5h20.5V498.2z"/>
<text transform="matrix(1 0 0 1 507.32 512.64)" class="st28 st31 st18">chicken</text>
<rect x="481.1" y="524.7" class="st0" width="20.5" height="20.5"/>
<path class="st30" d="M501.6,524.7h-20.5v20.5h20.5V524.7z"/>
<text transform="matrix(1 0 0 1 507.32 539.14)" class="st28 st31 st18">oil</text>
<rect x="481.1" y="551.2" class="st0" width="20.5" height="20.5"/>
<path class="st30" d="M501.6,551.2h-20.5v20.5h20.5V551.2z"/>
<text transform="matrix(1 0 0 1 507.32 565.64)" class="st28 st31 st18">cookie</text>
<rect x="481.1" y="577.7" class="st0" width="20.5" height="20.5"/>
<path class="st30" d="M501.6,577.7h-20.5v20.5h20.5V577.7z"/>
<text transform="matrix(1 0 0 1 507.32 592.14)" class="st28 st31 st18">milk</text>
<rect x="481.1" y="604.2" class="st0" width="20.5" height="20.5"/>
<path class="st30" d="M501.6,604.2h-20.5v20.5h20.5V604.2z"/>
<text transform="matrix(1 0 0 1 507.32 618.64)" class="st28 st31 st18">ice c</text>
<text transform="matrix(1 0 0 1 528.09 618.64)" class="st28 st31 st18">r</text>
<text transform="matrix(1 0 0 1 531.64 618.64)" class="st28 st31 st18">eam</text>
<rect x="481.1" y="630.7" class="st0" width="20.5" height="20.5"/>
<path class="st30" d="M501.6,630.7h-20.5v20.5h20.5V630.7z"/>
<text transform="matrix(1 0 0 1 507.32 645.14)" class="st28 st31 st18">candy</text>
<g>
	<g>
		<g>
			<g>
				<defs>
					<rect id="SVGID_19_" x="65.3" y="160.1" width="397.4" height="510.2"/>
				</defs>
				<clipPath id="SVGID_20_">
					<use xlink:href="#SVGID_19_"  style="overflow:visible;"/>
				</clipPath>
				<g class="st32">
					<g>
						<g>
							<g>
								<g>
									<defs>
										<rect id="SVGID_21_" x="65.3" y="160" width="397.5" height="510.3"/>
									</defs>
									<clipPath id="SVGID_22_">
										<use xlink:href="#SVGID_21_"  style="overflow:visible;"/>
									</clipPath>
									<g class="st33">
										
											<image style="overflow:visible;enable-background:new    ;" width="1657" height="2127" xlink:href="46BCC75F.png"  transform="matrix(0.2399 0 0 0.2399 65.29 160.064)">
										</image>
									</g>
								</g>
							</g>
						</g>
					</g>
				</g>
			</g>
		</g>
	</g>
</g>
<rect x="68.6" y="172" class="st0" width="14.2" height="14.2"/>
<text transform="matrix(1 0 0 1 72.9 182.83)" class="st28 st29 st34">1</text>
<path class="st30" d="M82.8,172H68.6v14.2h14.2C82.8,186.2,82.8,172,82.8,172z"/>
<rect x="68.6" y="278.7" class="st0" width="14.2" height="14.2"/>
<text transform="matrix(1 0 0 1 72.9 289.58)" class="st28 st29 st34">5</text>
<path class="st30" d="M82.8,278.7H68.6v14.2h14.2C82.8,292.9,82.8,278.7,82.8,278.7z"/>
<rect x="68.6" y="372.1" class="st0" width="14.2" height="14.2"/>
<text transform="matrix(1 0 0 1 72.9 382.99)" class="st28 st29 st34">9</text>
<path class="st30" d="M82.8,372.1H68.6v14.2h14.2C82.8,386.3,82.8,372.1,82.8,372.1z"/>
<rect x="228.1" y="369.4" class="st0" width="14.2" height="14.2"/>
<text transform="matrix(1 0 0 1 229.62 380.24)" class="st28 st29 st34">10</text>
<path class="st30" d="M242.3,369.4h-14.2v14.2h14.2V369.4z"/>
<rect x="254.6" y="369.4" class="st0" width="14.2" height="14.2"/>
<text transform="matrix(1 0 0 1 256.12 380.24)" class="st28 st29 st34">11</text>
<path class="st30" d="M268.8,369.4h-14.2v14.2h14.2V369.4z"/>
<rect x="334.6" y="369.4" class="st0" width="14.2" height="14.2"/>
<text transform="matrix(1 0 0 1 336.12 380.24)" class="st28 st29 st34">12</text>
<path class="st30" d="M348.8,369.4h-14.2v14.2h14.2V369.4z"/>
<rect x="77.2" y="483.4" class="st0" width="14.2" height="14.2"/>
<text transform="matrix(1 0 0 1 78.71 494.24)" class="st28 st29 st34">13</text>
<path class="st30" d="M91.3,483.4H77.2v14.2h14.2L91.3,483.4L91.3,483.4z"/>
<rect x="188.4" y="495.4" class="st0" width="14.2" height="14.2"/>
<text transform="matrix(1 0 0 1 189.87 506.24)" class="st28 st29 st34">14</text>
<path class="st30" d="M202.5,495.4h-14.2v14.2h14.2V495.4z"/>
<rect x="275.2" y="484.4" class="st0" width="14.2" height="14.2"/>
<text transform="matrix(1 0 0 1 276.71 495.24)" class="st28 st29 st34">15</text>
<path class="st30" d="M289.4,484.4h-14.2v14.2h14.2V484.4z"/>
<rect x="359.2" y="484.4" class="st0" width="14.2" height="14.2"/>
<text transform="matrix(1 0 0 1 360.71 495.24)" class="st28 st29 st34">16</text>
<path class="st30" d="M373.4,484.4h-14.2v14.2h14.2V484.4z"/>
<rect x="160.1" y="582.1" class="st0" width="14.2" height="14.2"/>
<text transform="matrix(1 0 0 1 161.62 592.94)" class="st28 st29 st34">17</text>
<path class="st30" d="M174.3,582.1h-14.2v14.2h14.2V582.1z"/>
<rect x="244.6" y="582.1" class="st0" width="14.2" height="14.2"/>
<text transform="matrix(1 0 0 1 246.12 592.94)" class="st28 st29 st34">18</text>
<path class="st30" d="M258.8,582.1h-14.2v14.2h14.2V582.1z"/>
<rect x="338.6" y="582.1" class="st0" width="14.2" height="14.2"/>
<text transform="matrix(1 0 0 1 340.12 592.94)" class="st28 st29 st34">19</text>
<path class="st30" d="M352.8,582.1h-14.2v14.2h14.2V582.1z"/>
<rect x="178.1" y="274.7" class="st0" width="14.2" height="14.2"/>
<text transform="matrix(1 0 0 1 182.4 285.58)" class="st28 st29 st34">6</text>
<path class="st30" d="M192.3,274.7h-14.2v14.2h14.2V274.7z"/>
<rect x="294.4" y="269.7" class="st0" width="14.2" height="14.2"/>
<text transform="matrix(1 0 0 1 298.65 280.58)" class="st28 st29 st34">7</text>
<path class="st30" d="M308.5,269.7h-14.2v14.2h14.2V269.7z"/>
<rect x="377.9" y="269.7" class="st0" width="14.2" height="14.2"/>
<text transform="matrix(1 0 0 1 382.15 280.58)" class="st28 st29 st34">8</text>
<path class="st30" d="M392,269.7h-14.2v14.2H392V269.7z"/>
<rect x="174.9" y="172" class="st0" width="14.2" height="14.2"/>
<text transform="matrix(1 0 0 1 179.15 182.83)" class="st28 st29 st34">2</text>
<path class="st30" d="M174.9,172H189H174.9v14.2H189L174.9,172z"/>
<rect x="290.4" y="177.2" class="st0" width="14.2" height="14.2"/>
<text transform="matrix(1 0 0 1 294.65 188.08)" class="st28 st29 st34">3</text>
<path class="st30" d="M304.5,177.2h-14.2v14.2h14.2V177.2z"/>
<rect x="403.6" y="172.5" class="st0" width="14.2" height="14.2"/>
<text transform="matrix(1 0 0 1 407.9 183.33)" class="st28 st29 st34">4</text>
<path class="st30" d="M417.8,172.5h-14.2v14.2h14.2V172.5z"/>
<g>
	
		<image style="overflow:visible;opacity:0.39;enable-background:new    ;" width="312" height="90" xlink:href="EE04EB57.png"  transform="matrix(1 0 0 1 146 11)">
	</image>
	<g>
		
			<image style="overflow:visible;opacity:0.8;enable-background:new    ;" width="294" height="72" xlink:href="EE04EB51.png"  transform="matrix(1 0 0 1 152 14)">
		</image>
		<g>
			<text transform="matrix(1 0 0 1 167.4134 44.7172)" class="st0 st35 st36">LISTENING AND SPEAKING </text>
			<text transform="matrix(1 0 0 1 167.4134 66.3173)" class="st0 st35 st36">Food</text>
		</g>
	</g>
</g>
</svg>
