<?xml version="1.0" encoding="utf-8"?>
<!-- Generator: Adobe Illustrator 24.1.2, SVG Export Plug-In . SVG Version: 6.00 Build 0)  -->
<svg version="1.1" id="Capa_1" xmlns="http://www.w3.org/2000/svg" xmlns:xlink="http://www.w3.org/1999/xlink" x="0px" y="0px"
	 viewBox="0 0 652 822" style="enable-background:new 0 0 652 822;" xml:space="preserve">
<style type="text/css">
	.st0{fill:#FFFFFF;}
	.st1{fill:#F6F2C2;}
	.st2{clip-path:url(#SVGID_2_);}
	.st3{fill:#D6D087;}
	.st4{clip-path:url(#SVGID_4_);}
	.st5{fill:none;stroke:#D6D087;stroke-width:4;}
	.st6{fill:#DB9600;}
	.st7{fill:#E7B700;}
	.st8{fill:#E6B500;}
	.st9{fill:#E1A600;}
	.st10{fill:#EBC000;}
	.st11{fill:#EABF00;}
	.st12{fill:#CA7104;}
	.st13{fill:#E2AC52;}
	.st14{clip-path:url(#SVGID_6_);}
	.st15{fill:#BF0811;}
	.st16{font-family:'SyntaxLTStd-Black';}
	.st17{font-size:11px;}
	.st18{fill:#211915;}
	.st19{font-family:'SyntaxLTStd-Bold';}
	.st20{clip-path:url(#SVGID_8_);}
	.st21{clip-path:url(#SVGID_10_);}
	.st22{clip-path:url(#SVGID_12_);}
	.st23{clip-path:url(#SVGID_14_);}
	.st24{clip-path:url(#SVGID_16_);}
	.st25{fill:#F1F3F9;}
	.st26{fill:none;stroke:#87868A;stroke-width:0.75;}
	.st27{fill:none;stroke:#211915;stroke-width:0.5;stroke-miterlimit:10;}
	.st28{font-family:'Helvetica';}
	.st29{font-size:10px;}
	.st30{fill:#87868A;}
	.st31{clip-path:url(#SVGID_18_);}
	.st32{clip-path:url(#SVGID_20_);}
	.st33{fill:#5775B3;}
	.st34{clip-path:url(#SVGID_22_);}
	.st35{clip-path:url(#SVGID_24_);}
	.st36{clip-path:url(#SVGID_26_);}
	.st37{clip-path:url(#SVGID_28_);}
	.st38{fill:none;stroke:#5775B3;stroke-width:1;stroke-miterlimit:4.0002;}
	.st39{clip-path:url(#SVGID_30_);}
	.st40{fill:#D8E0F1;}
	.st41{fill:none;stroke:#5775B3;stroke-width:0.96;stroke-linecap:round;}
	.st42{fill:none;stroke:#9A999E;stroke-width:0.5;stroke-miterlimit:10;}
	.st43{fill:#C2C3C9;}
	.st44{clip-path:url(#SVGID_32_);}
	.st45{clip-path:url(#SVGID_34_);}
	.st46{clip-path:url(#SVGID_36_);}
	.st47{clip-path:url(#SVGID_38_);}
	.st48{clip-path:url(#SVGID_40_);}
	.st49{clip-path:url(#SVGID_42_);}
	.st50{clip-path:url(#SVGID_44_);}
	.st51{clip-path:url(#SVGID_46_);}
	.st52{clip-path:url(#SVGID_48_);}
	.st53{clip-path:url(#SVGID_50_);}
	.st54{clip-path:url(#SVGID_52_);}
	.st55{clip-path:url(#SVGID_54_);}
	.st56{clip-path:url(#SVGID_56_);}
	.st57{clip-path:url(#SVGID_58_);}
	.st58{clip-path:url(#SVGID_60_);}
	.st59{clip-path:url(#SVGID_62_);}
	.st60{font-family:'Gabriel-Sans-Bold';}
	.st61{font-size:18px;}
</style>
<rect x="-5.2" y="-5.3" class="st0" width="662.5" height="831.8"/>
<rect x="60.5" y="760.6" class="st1" width="15.9" height="47.9"/>
<rect x="76.4" y="760.6" class="st1" width="16.1" height="47.9"/>
<g>
	<g>
		<g>
			<defs>
				<rect id="SVGID_1_" x="14.2" y="14.8" width="609.5" height="793.7"/>
			</defs>
			<clipPath id="SVGID_2_">
				<use xlink:href="#SVGID_1_"  style="overflow:visible;"/>
			</clipPath>
			<g class="st2">
				<rect x="44.6" y="760.6" class="st1" width="15.9" height="47.9"/>
				<rect x="14.2" y="760.6" class="st3" width="30.4" height="47.9"/>
			</g>
		</g>
	</g>
</g>
<rect x="14.2" y="84.3" class="st3" width="609.5" height="4"/>
<g>
	<g>
		<g>
			<defs>
				<rect id="SVGID_3_" x="623.6" y="14.8" width="14.2" height="793.7"/>
			</defs>
			<clipPath id="SVGID_4_">
				<use xlink:href="#SVGID_3_"  style="overflow:visible;"/>
			</clipPath>
			<g class="st4">
				<line class="st5" x1="623.6" y1="86.3" x2="1233.1" y2="86.3"/>
			</g>
		</g>
	</g>
</g>
<rect x="130.9" y="14.8" class="st6" width="492.8" height="69.6"/>
<polyline class="st6" points="603,84.3 559.3,84.3 559.3,38 582.6,14.8 619.3,14.8 619.3,68 603,84.3 "/>
<polyline class="st7" points="478.5,84.3 478.5,84.3 512.1,50.8 478.5,84.3 "/>
<polyline class="st7" points="460.1,84.3 460.1,84.3 446.8,70.9 446.8,70.9 460.1,84.3 "/>
<polyline class="st7" points="512.1,50.8 512.1,50.8 544.3,18.5 512.1,50.8 "/>
<polyline class="st7" points="559.3,38 559.3,14.8 582.6,14.8 559.3,38 "/>
<polyline class="st6" points="379.4,84.3 368.6,84.3 368.6,59.1 368.6,59.1 379.4,48.4 379.4,84.3 "/>
<polyline class="st6" points="439.4,63.5 401.8,25.9 401.8,25.9 439.4,63.5 439.4,63.5 "/>
<polyline class="st7" points="446.8,70.9 439.4,63.5 439.4,63.5 446.8,70.9 446.8,70.9 "/>
<polyline class="st8" points="368.6,84.3 303.9,84.3 278.6,59.1 278.6,14.8 324.3,14.8 368.6,59.1 368.6,84.3 "/>
<path class="st8" d="M401.8,25.9l-11.2-11.2l0,0L401.8,25.9L401.8,25.9 M368.6,59.1l-44.3-44.3h55v33.6L368.6,59.1"/>
<polyline class="st6" points="529.3,68 512.1,50.8 512.1,50.8 529.3,68 559.3,38 559.3,38 529.3,68 "/>
<polyline class="st6" points="559.3,84.3 529.3,84.3 529.3,68 529.3,68 559.3,38 559.3,84.3 "/>
<polyline class="st9" points="529.3,84.3 478.5,84.3 512.1,50.8 529.3,68 529.3,84.3 "/>
<polyline class="st9" points="529.3,68 512.1,50.8 548.1,14.8 559.3,14.8 559.3,38 529.3,68 "/>
<polyline class="st8" points="455.6,84.3 433.4,84.3 444.5,73.2 455.6,84.3 "/>
<polyline class="st10" points="460.1,84.3 455.6,84.3 444.5,73.2 446.8,70.9 460.1,84.3 "/>
<polyline class="st8" points="379.4,48.4 379.4,48.4 401.8,25.9 401.8,25.9 379.4,48.4 "/>
<polyline class="st8" points="433.4,84.3 379.4,84.3 379.4,48.4 401.8,25.9 439.4,63.5 439.4,68 444.5,73.2 433.4,84.3 "/>
<polyline class="st10" points="444.5,73.2 439.4,68 439.4,63.5 446.8,70.9 444.5,73.2 "/>
<polyline class="st11" points="379.4,48.4 379.4,14.8 390.6,14.8 401.8,25.9 379.4,48.4 "/>
<polyline class="st8" points="512.1,50.8 476.1,14.8 476.1,14.8 512.1,50.8 512.1,50.8 "/>
<polyline class="st10" points="478.5,84.3 460.1,84.3 446.8,70.9 458.6,59.1 458.6,14.8 476.1,14.8 512.1,50.8 478.5,84.3 "/>
<polyline class="st10" points="512.1,50.8 476.1,14.8 548.1,14.8 512.1,50.8 "/>
<polyline class="st8" points="401.8,25.9 401.8,25.9 412.9,14.8 412.9,14.8 401.8,25.9 "/>
<polyline class="st8" points="439.4,63.5 401.8,25.9 412.9,14.8 439.4,14.8 439.4,63.5 "/>
<polyline class="st10" points="446.8,70.9 439.4,63.5 439.4,14.8 458.6,14.8 458.6,59.1 446.8,70.9 "/>
<polyline class="st11" points="401.8,25.9 390.6,14.8 412.9,14.8 401.8,25.9 "/>
<polyline class="st12" points="157.2,68.7 157.2,14.8 14.2,14.8 14.2,84.3 141.6,84.3 157.2,68.7 "/>
<polyline class="st6" points="80.3,767.6 68,760.6 68,774.7 80.3,781.7 80.3,767.6 "/>
<polyline class="st12" points="80.3,781.7 92.5,774.7 92.5,760.6 80.3,767.6 80.3,781.7 "/>
<polyline class="st13" points="68,760.6 80.3,767.6 92.5,760.6 80.3,753.5 68,760.6 "/>
<g>
	<g>
		<g>
			<defs>
				<rect id="SVGID_5_" x="623.6" y="14.8" width="14.2" height="793.7"/>
			</defs>
			<clipPath id="SVGID_6_">
				<use xlink:href="#SVGID_5_"  style="overflow:visible;"/>
			</clipPath>
			<g class="st14">
				<polyline class="st12" points="769.7,68.7 769.7,14.8 623.6,14.8 623.6,84.3 754,84.3 769.7,68.7 				"/>
			</g>
		</g>
	</g>
</g>
<text transform="matrix(1 0 0 1 68.03 139.1899)" class="st15 st16 st17">1.</text>
<text transform="matrix(1 0 0 1 86.03 139.1899)" class="st18 st19 st17">Read Jessie</text>
<text transform="matrix(1 0 0 1 141.01 139.1899)" class="st18 st19 st17">’</text>
<text transform="matrix(1 0 0 1 143.26 139.1899)" class="st18 st19 st17">s e-mail. Which is her bed?</text>
<g>
	<g>
		<g>
			<defs>
				<rect id="SVGID_7_" x="85" y="155.6" width="243.8" height="244.3"/>
			</defs>
			<clipPath id="SVGID_8_">
				<use xlink:href="#SVGID_7_"  style="overflow:visible;"/>
			</clipPath>
			<g class="st20">
				<g>
					<g>
						<g>
							<defs>
								<rect id="SVGID_9_" x="84.5" y="155.1" width="244.4" height="245.3"/>
							</defs>
							<clipPath id="SVGID_10_">
								<use xlink:href="#SVGID_9_"  style="overflow:visible;"/>
							</clipPath>
							<g class="st21">
								
									<image style="overflow:visible;enable-background:new    ;" width="1020" height="1023" xlink:href="D2B1551E.png"  transform="matrix(0.2395 0 0 0.2395 84.51 155.2107)">
								</image>
							</g>
						</g>
					</g>
				</g>
			</g>
		</g>
	</g>
</g>
<g>
	<g>
		<g>
			<defs>
				<rect id="SVGID_11_" x="328.4" y="155.6" width="243.8" height="244.3"/>
			</defs>
			<clipPath id="SVGID_12_">
				<use xlink:href="#SVGID_11_"  style="overflow:visible;"/>
			</clipPath>
			<g class="st22">
				<g>
					<g>
						<g>
							<defs>
								<rect id="SVGID_13_" x="328.4" y="155.1" width="244.4" height="245.3"/>
							</defs>
							<clipPath id="SVGID_14_">
								<use xlink:href="#SVGID_13_"  style="overflow:visible;"/>
							</clipPath>
							<g class="st23">
								
									<image style="overflow:visible;enable-background:new    ;" width="1020" height="1023" xlink:href="D2B15522.png"  transform="matrix(0.2395 0 0 0.2395 328.35 155.2107)">
								</image>
							</g>
						</g>
					</g>
				</g>
			</g>
		</g>
	</g>
</g>
<rect x="86.7" y="157.3" class="st0" width="479.8" height="236.8"/>
<g>
	<g>
		<g>
			<defs>
				<polyline id="SVGID_15_" points="86.7,157.3 86.7,394.1 566.5,394.1 566.5,157.3 86.7,157.3 				"/>
			</defs>
			<clipPath id="SVGID_16_">
				<use xlink:href="#SVGID_15_"  style="overflow:visible;"/>
			</clipPath>
			<g class="st24">
				<path class="st25" d="M523.2,158.1l-17,4.5l-0.2,12.1c-7.6-9.5-19.2-10.4-28.1-8c-27.3,7.3-38,38.8-31,64.8
					c5.2,19.2,24.2,31.4,42,26.7c8.7-2.3,16.4-8.4,19.1-18l0.4-0.1c2.3,6.7,9.6,10.1,18.3,7.7c13.2-3.5,44-30.4,32.5-73
					c-10.2-38-51.2-53.9-88.9-43.8c-43,11.5-69.6,54.8-57.9,98.4c11.9,44.3,56.3,67.8,100.4,56c25.9-6.9,45.8-25.3,54.1-50.4
					l-17.4,4.7c-7.9,13.6-22.5,24.2-39.9,28.9c-35.6,9.5-67.5-7.9-77.2-44c-9.4-35,6.5-67.4,42.1-76.9c31.5-8.4,60.9,3,69.7,35.9
					c5.9,22.1-2.4,41.4-14.2,44.6c-5.2,1.4-5.7-7.1-5.5-13.2L523.2,158.1 M467.3,223.2c-3.6-13.6,2.6-33.3,17.5-37.3
					c8.9-2.4,17.9,3.2,20.6,13.3c3.8,14.3-2.2,34.1-17.1,38.1C478.9,239.8,470.2,234.1,467.3,223.2L467.3,223.2z"/>
			</g>
		</g>
	</g>
</g>
<path class="st26" d="M566.5,157.3H86.7v236.8h479.8V157.3z"/>
<path class="st27" d="M206.4,309.3h43.7 M216.2,279.3h40 M181.6,249.3h26.3 M390.3,219.3h47 M316.4,219.3h22.2 M241,219.3h14.6
	 M314.3,204.3h26.9 M190.6,204.3h34.6"/>
<text transform="matrix(1 0 0 1 102.31 188.33)" class="st18 st28 st29">Hi, Thomas! I love my new house! My sister and I have a big bed</text>
<text transform="matrix(1 0 0 1 389.78 188.33)" class="st18 st28 st29">r</text>
<text transform="matrix(1 0 0 1 392.94 188.33)" class="st18 st28 st29">oom. Everything is pink and</text>
<text transform="matrix(1 0 0 1 102.31 203.33)" class="st18 st28 st29">purple! The</text>
<text transform="matrix(1 0 0 1 152.69 203.33)" class="st18 st28 st29">r</text>
<text transform="matrix(1 0 0 1 155.84 203.33)" class="st18 st28 st29">e is big window and the</text>
<text transform="matrix(1 0 0 1 261.77 203.33)" class="st18 st28 st29">r</text>
<text transform="matrix(1 0 0 1 264.93 203.33)" class="st18 st28 st29">e</text>
<text transform="matrix(1 0 0 1 270.3 203.33)" class="st18 st28 st29">’</text>
<text transform="matrix(1 0 0 1 272.35 203.33)" class="st18 st28 st29">s a small closet next to my sister</text>
<text transform="matrix(1 0 0 1 418.12 203.33)" class="st18 st28 st29">’</text>
<text transform="matrix(1 0 0 1 420.16 203.33)" class="st18 st28 st29">s bed. </text>
<text transform="matrix(1 0 0 1 450.72 203.33)" class="st18 st28 st29">W</text>
<text transform="matrix(1 0 0 1 459.41 203.33)" class="st18 st28 st29">e have clothes</text>
<text transform="matrix(1 0 0 1 102.31 218.33)" class="st18 st28 st29">and shoes in it. The</text>
<text transform="matrix(1 0 0 1 189.56 218.33)" class="st18 st28 st29">r</text>
<text transform="matrix(1 0 0 1 192.72 218.33)" class="st18 st28 st29">e is a long rug between the beds. The</text>
<text transform="matrix(1 0 0 1 360.9 218.33)" class="st18 st28 st29">r</text>
<text transform="matrix(1 0 0 1 364.05 218.33)" class="st18 st28 st29">e is a night table, with a drawer and a</text>
<text transform="matrix(1 0 0 1 102.31 233.33)" class="st18 st28 st29">lamp on it. And under the drawer I have my photo</text>
<text transform="matrix(1 0 0 1 102.31 248.33)" class="st18 st28 st29">album. The</text>
<text transform="matrix(1 0 0 1 152.15 248.33)" class="st18 st28 st29">r</text>
<text transform="matrix(1 0 0 1 155.3 248.33)" class="st18 st28 st29">e is a mir</text>
<text transform="matrix(1 0 0 1 195.68 248.33)" class="st18 st28 st29">r</text>
<text transform="matrix(1 0 0 1 198.83 248.33)" class="st18 st28 st29">or on the wall. The</text>
<text transform="matrix(1 0 0 1 281.24 248.33)" class="st18 st28 st29">r</text>
<text transform="matrix(1 0 0 1 284.39 248.33)" class="st18 st28 st29">e isn</text>
<text transform="matrix(1 0 0 1 305.32 248.33)" class="st18 st28 st29">’</text>
<text transform="matrix(1 0 0 1 307.93 248.33)" class="st18 st28 st29">t a</text>
<path class="st18" d="M104.7,257h-2.4v-0.8h5.7v0.8h-2.4v6.3h-1L104.7,257z M111.6,263.3h-1.1l-2.6-7.1h1l2,6.2l0,0l2.1-6.2h1
	L111.6,263.3z M118.5,257.2h-0.8v-1h0.8V257.2z M117.6,258.2h0.8v5.2h-0.8V258.2z M119.8,258.2h0.8v0.8l0,0c0.3-0.6,1-1,1.7-0.9
	c1.4,0,1.8,0.8,1.8,1.9v3.4h-0.8v-3.5c0-0.6-0.4-1-1-1c-0.8,0-1.5,0.6-1.5,1.4c0,0.1,0,0.2,0,0.3v2.9H120L119.8,258.2z M128.1,258.2
	h0.8v0.8l0,0c0.4-0.6,1-0.9,1.7-0.9c0.6-0.1,1.2,0.3,1.4,0.9c0.4-0.6,1-0.9,1.6-0.9c1,0,1.7,0.4,1.7,1.5v3.8h-0.9V260
	c0-0.6-0.2-1.1-1-1.1c-0.7-0.1-1.3,0.5-1.3,1.1c0,0.1,0,0.1,0,0.2v3.2h-0.9V260c0-0.7-0.2-1.1-1-1.1c-0.7,0-1.3,0.6-1.4,1.3v3.2
	h-0.9L128.1,258.2z M138.7,264c-0.4,1-0.7,1.4-1.5,1.4c-0.2,0-0.4,0-0.6-0.1v-0.8c0.2,0.1,0.3,0.1,0.5,0.1c0.3,0,0.6-0.2,0.7-0.5
	l0.4-0.9l-2-5.1h1l1.5,4.2l0,0l1.4-4.2h0.9L138.7,264z M144.4,258.1h0.8v1.1l0,0c0.3-0.8,1.1-1.3,1.9-1.2v0.9
	c-1.4,0-1.9,0.8-1.9,2.1v2.3h-0.9L144.4,258.1z M149.8,258c1.5-0.1,2.8,1,2.9,2.5s-1,2.8-2.5,2.9s-2.8-1-2.9-2.5c0-0.1,0-0.1,0-0.2
	c-0.2-1.3,0.8-2.6,2.2-2.7C149.6,258,149.7,258,149.8,258L149.8,258z M149.8,262.7c0.9,0,1.6-0.7,1.6-2s-0.7-2-1.6-2s-1.6,0.7-1.6,2
	S148.9,262.7,149.8,262.7L149.8,262.7z M155.6,258c1.5-0.1,2.8,1,2.9,2.5s-1,2.8-2.5,2.9s-2.8-1-2.9-2.5c0-0.1,0-0.1,0-0.2
	c-0.2-1.3,0.8-2.6,2.2-2.7C155.3,258,155.5,258,155.6,258L155.6,258z M155.6,262.7c0.9,0,1.6-0.7,1.6-2s-0.7-2-1.6-2s-1.6,0.7-1.6,2
	S154.7,262.7,155.6,262.7L155.6,262.7z M159.1,258.1h0.8v0.8l0,0c0.4-0.6,1-0.9,1.7-0.9c0.6-0.1,1.2,0.3,1.4,0.9
	c0.4-0.6,1-0.9,1.6-0.9c1,0,1.7,0.4,1.7,1.5v3.8h-0.9v-3.4c0-0.6-0.2-1.1-1-1.1c-0.7-0.1-1.3,0.5-1.3,1.1c0,0.1,0,0.1,0,0.2v3.2
	h-0.9v-3.4c0-0.7-0.2-1.1-1-1.1c-0.7,0-1.3,0.6-1.4,1.3v3.2H159L159.1,258.1z M167.8,262.2h1.1v1.1h-1.1V262.2z M174.9,257h-2.4
	v-0.8h5.7v0.8h-2.4v6.3h-0.9L174.9,257L174.9,257z M178.9,256.2h0.9v2.7l0,0c0.3-0.6,1-0.9,1.6-0.9c1.4,0,1.8,0.8,1.8,1.9v3.4h-0.9
	v-3.5c0-0.6-0.4-1-1-1c0,0,0,0-0.1,0c-0.8,0-1.5,0.6-1.5,1.4c0,0.1,0,0.2,0,0.3v2.9h-0.9L178.9,256.2z M188.9,261.7
	c-0.2,1.1-1.1,1.8-2.2,1.8c-1.6,0-2.4-1.1-2.5-2.7c-0.1-1.4,0.9-2.6,2.3-2.7h0.1c1.8,0,2.4,1.7,2.3,3H185c-0.1,0.8,0.5,1.6,1.3,1.7
	c0.1,0,0.2,0,0.3,0c0.6,0.1,1.2-0.4,1.3-1L188.9,261.7z M188.1,260.2c0-0.8-0.7-1.5-1.5-1.5s-1.5,0.6-1.5,1.5l0,0H188.1z
	 M189.9,258.1h0.8v1.1l0,0c0.3-0.8,1.1-1.3,1.9-1.2v0.9c-1.4,0-1.9,0.8-1.9,2.1v2.3h-0.9L189.9,258.1z M197.4,261.7
	c-0.2,1.1-1.1,1.8-2.2,1.8c-1.6,0-2.4-1.1-2.5-2.7c-0.1-1.4,0.9-2.6,2.3-2.7h0.1c1.8,0,2.4,1.7,2.3,3h-3.9c-0.1,0.8,0.5,1.6,1.3,1.7
	c0.1,0,0.2,0,0.3,0c0.6,0.1,1.2-0.4,1.3-1L197.4,261.7z M196.6,260.2c0-0.8-0.7-1.5-1.5-1.5s-1.5,0.6-1.5,1.5l0,0H196.6z
	 M205.8,263.3c-0.2,0.1-0.4,0.2-0.6,0.1c-0.4,0-0.7-0.2-0.7-0.8c-0.5,0.5-1.1,0.8-1.8,0.8c-0.9,0-1.7-0.4-1.7-1.5s0.9-1.4,1.8-1.6
	s1.7-0.1,1.7-0.8s-0.6-0.9-1.1-0.9c-0.7,0-1.3,0.2-1.3,1h-0.9c0.1-1.3,1-1.7,2.2-1.7c0.9,0,1.9,0.2,1.9,1.4v2.7c0,0.4,0,0.6,0.3,0.6
	c0.1,0,0.2,0,0.3,0L205.8,263.3L205.8,263.3z M204.4,260.6c-0.5,0.2-1,0.3-1.5,0.4c-0.6,0.1-1,0.3-1,0.9s0.5,0.8,1,0.8
	c1.1,0,1.6-0.7,1.6-1.2L204.4,260.6z M206.5,258.1h0.8v1.1l0,0c0.3-0.8,1.1-1.3,1.9-1.2v0.9c-1.4,0-1.9,0.8-1.9,2.1v2.3h-0.9
	L206.5,258.1z M214.1,261.7c-0.2,1.1-1.1,1.8-2.2,1.8c-1.6,0-2.4-1.1-2.5-2.7c-0.1-1.4,0.9-2.6,2.3-2.7h0.1c1.8,0,2.4,1.7,2.3,3
	h-3.9c-0.1,0.8,0.5,1.6,1.3,1.7c0.1,0,0.2,0,0.3,0c0.6,0.1,1.2-0.4,1.3-1L214.1,261.7z M213.3,260.2c0-0.8-0.7-1.5-1.5-1.5
	s-1.5,0.6-1.5,1.5l0,0H213.3z M217.9,256.2h0.9v2.7l0,0c0.3-0.6,1-0.9,1.6-0.8c1.3,0,2.4,1.1,2.4,2.4c0,0.1,0,0.2,0,0.3
	c0,1.5-0.8,2.7-2.4,2.7c-0.7,0-1.3-0.3-1.7-0.8l0,0v0.7h-0.9L217.9,256.2L217.9,256.2z M220.3,258.8c-1.1,0-1.6,1-1.6,2s0.5,2,1.6,2
	s1.6-1,1.6-2S221.3,258.8,220.3,258.8L220.3,258.8z M224.7,257.2h-0.9v-1h0.9V257.2z M223.8,258.1h0.9v5.2h-0.9V258.1z M230.5,262.9
	c0,1.7-0.8,2.5-2.4,2.5c-1,0-2.1-0.4-2.1-1.5h0.9c0,0.6,0.8,0.8,1.3,0.8c1.1,0,1.6-0.8,1.6-2v-0.3l0,0c-0.3,0.6-0.9,1-1.6,0.9
	c-1.3,0-2.3-1.1-2.3-2.4c0-0.1,0-0.2,0-0.3c-0.2-1.3,0.8-2.6,2.1-2.7c0.1,0,0.2,0,0.3,0c0.6,0,1.2,0.3,1.5,0.9l0,0v-0.7h0.8
	L230.5,262.9z M229.6,260.6c0-0.9-0.4-1.9-1.5-1.9s-1.5,0.9-1.5,1.9s0.3,2,1.5,2S229.6,261.6,229.6,260.6L229.6,260.6z M234.9,258.9
	H234v-0.8h0.9v-0.8c0-0.8,0.5-1.3,1.4-1.3c0.2,0,0.4,0,0.6,0.1v0.7c-0.2,0-0.3-0.1-0.5-0.1c-0.4,0-0.6,0.1-0.6,0.6v0.7h1v0.8h-1v4.4
	h-0.9V258.9z M237.5,256.2h0.9v7.1h-0.9V256.2z"/>
<text transform="matrix(1 0 0 1 239.02 263.33)" class="st18 st28 st29">owers on the wall,</text>
<text transform="matrix(1 0 0 1 102.31 278.33)" class="st18 st28 st29">above my bed. The</text>
<text transform="matrix(1 0 0 1 188.27 278.33)" class="st18 st28 st29">r</text>
<text transform="matrix(1 0 0 1 191.43 278.33)" class="st18 st28 st29">e a</text>
<text transform="matrix(1 0 0 1 204.95 278.33)" class="st18 st28 st29">r</text>
<text transform="matrix(1 0 0 1 208.1 278.33)" class="st18 st28 st29">e cushions on the beds</text>
<path class="st18" d="M107.5,293.3c-0.2,0.1-0.4,0.2-0.6,0.1c-0.4,0-0.7-0.2-0.7-0.8c-0.5,0.5-1.1,0.8-1.8,0.8
	c-0.9,0-1.7-0.4-1.7-1.5s0.9-1.4,1.8-1.6s1.7-0.1,1.7-0.8s-0.6-0.9-1.2-0.9c-0.7,0-1.3,0.2-1.3,1h-0.8c0-1.3,1-1.7,2.2-1.7
	c0.9,0,1.9,0.2,1.9,1.4v2.7c0,0.4,0,0.6,0.3,0.6c0.1,0,0.2,0,0.3,0v0.7L107.5,293.3L107.5,293.3z M106.2,290.7
	c-0.5,0.2-1,0.3-1.5,0.4c-0.6,0.1-1,0.3-1,0.9s0.5,0.8,1,0.8c1.1,0,1.6-0.7,1.6-1.2L106.2,290.7z M108.3,288.2h0.8v0.8l0,0
	c0.3-0.6,1-1,1.7-0.9c1.4,0,1.8,0.8,1.8,1.9v3.4h-0.8v-3.5c0-0.6-0.4-1-1-1c-0.8,0-1.5,0.6-1.5,1.4c0,0.1,0,0.2,0,0.3v2.9h-0.8
	L108.3,288.2z M118.5,293.3h-0.8v-0.7l0,0c-0.3,0.6-1,0.9-1.7,0.8c-1.3,0-2.4-1.1-2.4-2.4c0-0.1,0-0.2,0-0.3c0-1.5,0.8-2.7,2.4-2.7
	c0.7,0,1.3,0.3,1.7,0.8l0,0v-2.7h0.8V293.3z M116.1,292.7c1.1,0,1.6-1,1.6-2s-0.5-2-1.6-2s-1.6,1-1.6,2S115,292.7,116.1,292.7z
	 M124.8,288c1.5-0.1,2.8,1,2.9,2.5s-1,2.8-2.5,2.9s-2.8-1-2.9-2.5c0-0.1,0-0.1,0-0.2c-0.2-1.3,0.8-2.6,2.1-2.7
	C124.6,288,124.7,288,124.8,288L124.8,288z M124.8,292.7c0.9,0,1.6-0.7,1.6-2s-0.7-2-1.6-2s-1.6,0.7-1.6,2S123.9,292.7,124.8,292.7z
	 M128.3,288.2h0.8v0.8l0,0c0.3-0.6,1-1,1.7-0.9c1.4,0,1.8,0.8,1.8,1.9v3.4h-0.9v-3.5c0-0.6-0.4-1-1-1c-0.8,0-1.5,0.6-1.5,1.4
	c0,0.1,0,0.2,0,0.3v2.9h-0.9L128.3,288.2z M137.9,288.2h1v0.8h-1v3.2c0,0.4,0.1,0.5,0.6,0.5h0.4v0.8h-0.6c-0.9,0-1.2-0.2-1.2-1.1
	v-3.3h-0.9v-0.8h0.9v-1.5h0.9L137.9,288.2L137.9,288.2z M139.9,286.2h0.9v2.7l0,0c0.3-0.6,1-0.9,1.6-0.9c1.4,0,1.8,0.8,1.8,1.9v3.4
	h-0.9v-3.5c0-0.6-0.4-1-1-1c0,0,0,0-0.1,0c-0.8,0-1.5,0.6-1.5,1.4c0,0.1,0,0.2,0,0.3v2.9h-0.9L139.9,286.2z M149.9,291.7
	c-0.2,1.1-1.1,1.8-2.2,1.8c-1.6,0-2.4-1.1-2.5-2.7c-0.1-1.4,0.9-2.6,2.3-2.7h0.1c1.8,0,2.4,1.7,2.3,3H146c-0.1,0.8,0.5,1.6,1.3,1.7
	c0.1,0,0.2,0,0.3,0c0.6,0.1,1.2-0.4,1.3-1L149.9,291.7z M149,290.2c0-0.8-0.7-1.5-1.5-1.5s-1.5,0.6-1.5,1.5l0,0H149z M153.9,288.9
	H153v-0.8h0.9v-0.8c0-0.8,0.5-1.3,1.4-1.3c0.2,0,0.4,0,0.6,0.1v0.7c-0.2,0-0.3-0.1-0.5-0.1c-0.4,0-0.6,0.1-0.6,0.6v0.7h1v0.8h-1v4.4
	h-0.9V288.9z M156.6,286.2h0.9v7.1h-0.9V286.2z"/>
<text transform="matrix(1 0 0 1 158.07 293.33)" class="st18 st28 st29">oo</text>
<text transform="matrix(1 0 0 1 169.55 293.33)" class="st18 st28 st29">r</text>
<text transform="matrix(1 0 0 1 171.97 293.33)" class="st18 st28 st29">. The</text>
<text transform="matrix(1 0 0 1 194.2 293.33)" class="st18 st28 st29">r</text>
<text transform="matrix(1 0 0 1 197.35 293.33)" class="st18 st28 st29">e a</text>
<text transform="matrix(1 0 0 1 210.87 293.33)" class="st18 st28 st29">r</text>
<text transform="matrix(1 0 0 1 214.03 293.33)" class="st18 st28 st29">en</text>
<text transform="matrix(1 0 0 1 224.96 293.33)" class="st18 st28 st29">’</text>
<text transform="matrix(1 0 0 1 227.57 293.33)" class="st18 st28 st29">t books in my </text>
<text transform="matrix(1 0 0 1 290.75 293.33)" class="st18 st28 st29">r</text>
<text transform="matrix(1 0 0 1 293.91 293.33)" class="st18 st28 st29">oom,</text>
<text transform="matrix(1 0 0 1 102.31 308.33)" class="st18 st28 st29">because I don</text>
<text transform="matrix(1 0 0 1 165.66 308.33)" class="st18 st28 st29">’</text>
<text transform="matrix(1 0 0 1 168.26 308.33)" class="st18 st28 st29">t have a bookshelf. The</text>
<text transform="matrix(1 0 0 1 272.36 308.33)" class="st18 st28 st29">r</text>
<text transform="matrix(1 0 0 1 275.51 308.33)" class="st18 st28 st29">e a</text>
<text transform="matrix(1 0 0 1 289.03 308.33)" class="st18 st28 st29">r</text>
<text transform="matrix(1 0 0 1 292.18 308.33)" class="st18 st28 st29">e beds</text>
<text transform="matrix(1 0 0 1 102.31 323.33)" class="st18 st28 st29">under the beds! Look at the photo.</text>
<text transform="matrix(1 0 0 1 102.31 344.33)" class="st18 st28 st29">Jessie</text>
<path class="st26" d="M566.6,157.4h-11.3V394h11.3V157.4z"/>
<path class="st26" d="M566.5,371.8h-11.2V383h11.2V371.8z"/>
<polyline class="st30" points="560.9,375.3 558.4,379.8 563.5,379.8 560.9,375.3 "/>
<path class="st26" d="M566.5,394.1h-11.2v-11.2h11.2V394.1z"/>
<polyline class="st30" points="560.9,390.6 558.4,386.1 563.5,386.1 560.9,390.6 "/>
<g>
	<g>
		<g>
			<defs>
				<rect id="SVGID_17_" x="343.6" y="239.6" width="197.7" height="133.6"/>
			</defs>
			<clipPath id="SVGID_18_">
				<use xlink:href="#SVGID_17_"  style="overflow:visible;"/>
			</clipPath>
			<g class="st31">
				<g>
					<g>
						<g>
							<defs>
								<rect id="SVGID_19_" x="343.6" y="239.6" width="197.8" height="133.7"/>
							</defs>
							<clipPath id="SVGID_20_">
								<use xlink:href="#SVGID_19_"  style="overflow:visible;"/>
							</clipPath>
							<g class="st32">
								
									<image style="overflow:visible;enable-background:new    ;" width="825" height="558" xlink:href="D2B15525.png"  transform="matrix(0.2396 0 0 0.2396 343.6774 239.6)">
								</image>
							</g>
						</g>
					</g>
				</g>
			</g>
		</g>
	</g>
</g>
<text transform="matrix(1 0 0 1 68.03 425.44)" class="st15 st16 st17">2.  </text>
<polyline class="st33" points="97.1,418.5 97.1,424.7 110.4,429.6 120.1,425.6 120.1,417.6 110.4,413.6 97.1,418.5 "/>
<g>
	<g>
		<g>
			<defs>
				<path id="SVGID_21_" d="M97.1,432.2c-5.8,0-10.6-4.7-10.6-10.6c0-5.8,4.7-10.6,10.6-10.6c5.8,0,10.6,4.7,10.6,10.6l0,0
					C107.7,427.5,102.9,432.2,97.1,432.2"/>
			</defs>
			<clipPath id="SVGID_22_">
				<use xlink:href="#SVGID_21_"  style="overflow:visible;"/>
			</clipPath>
			<g class="st34">
				<g>
					<g>
						<g>
							<defs>
								<rect id="SVGID_23_" x="86.5" y="411" width="21.2" height="21.1"/>
							</defs>
							<clipPath id="SVGID_24_">
								<use xlink:href="#SVGID_23_"  style="overflow:visible;"/>
							</clipPath>
							<g class="st35">
								<g>
									<g>
										<g>
											<defs>
												<rect id="SVGID_25_" x="86.5" y="411" width="21.2" height="21.1"/>
											</defs>
											<clipPath id="SVGID_26_">
												<use xlink:href="#SVGID_25_"  style="overflow:visible;"/>
											</clipPath>
											<g class="st36">
												
													<image style="overflow:visible;enable-background:new    ;" width="89" height="89" xlink:href="D2B15526.png"  transform="matrix(0.24 0 0 0.24 86.45 410.93)">
												</image>
											</g>
										</g>
									</g>
								</g>
							</g>
						</g>
					</g>
				</g>
			</g>
		</g>
	</g>
</g>
<g>
	<g>
		<g>
			<defs>
				<path id="SVGID_27_" d="M97.1,432.2c-5.8,0-10.6-4.7-10.6-10.6c0-5.8,4.7-10.6,10.6-10.6c5.8,0,10.6,4.7,10.6,10.6l0,0
					C107.7,427.5,102.9,432.2,97.1,432.2"/>
			</defs>
			<clipPath id="SVGID_28_">
				<use xlink:href="#SVGID_27_"  style="overflow:visible;"/>
			</clipPath>
			<g class="st37">
				<polyline class="st0" points="97.1,418.5 97.1,424.7 110.4,429.6 120.1,425.6 120.1,417.6 110.4,413.6 97.1,418.5 				"/>
			</g>
		</g>
	</g>
</g>
<ellipse transform="matrix(7.097214e-02 -0.9975 0.9975 7.097214e-02 -330.3456 488.5969)" class="st38" cx="97.1" cy="421.6" rx="10.6" ry="10.6"/>
<path class="st0" d="M96.8,424c-3.7,3.1-8.8,0.5-8.8,0.5c5.4-2.2,5.4-4,7.2-6.1c1.2-1.5,3-2.4,4.9-2.5c2.9,0.1,5.1,2.6,5,5.4
	c-0.1,2.7-2.3,4.8-5,5C98.6,426.2,97.3,425.4,96.8,424L96.8,424"/>
<g>
	<g>
		<g>
			<defs>
				<path id="SVGID_29_" d="M96.8,424c-3.7,3.1-8.8,0.5-8.8,0.5c5.4-2.2,5.4-4,7.2-6.1c1.2-1.5,3-2.4,4.9-2.5c2.9,0.1,5.1,2.6,5,5.4
					c-0.1,2.7-2.3,4.8-5,5C98.6,426.2,97.3,425.4,96.8,424L96.8,424"/>
			</defs>
			<clipPath id="SVGID_30_">
				<use xlink:href="#SVGID_29_"  style="overflow:visible;"/>
			</clipPath>
			<g class="st39">
				<path class="st40" d="M94,425.2c0,0,0.3-5.2,4.7-6.2c0,0-3.2,3.1-1.9,5.1L94,425.2"/>
			</g>
		</g>
	</g>
</g>
<path class="st40" d="M99.5,421c0,0,1-0.1,1,1.5c0,0-0.9,0.3-1.3-0.3S99.5,421,99.5,421"/>
<path class="st41" d="M96.8,424c-3.7,3-8.8,0.4-8.8,0.4c5.4-2.2,5.4-4,7.1-6.1c1.2-1.5,3-2.4,4.9-2.5c2.9,0,5.2,2.3,5.2,5.2
	c0,2.9-2.3,5.2-5.2,5.2c-1.9,0-3.5-1.5-3.5-3.4l0,0c0-2,1.5-3.6,3.5-3.7c1-0.1,1.9,0.7,2,1.7s-0.7,1.9-1.7,2c-0.1,0-0.2,0-0.3,0
	c-0.8,0-1.4-1.1-0.7-1.5"/>
<text transform="matrix(1 0 0 1 128.03 425.44)" class="st18 st19 st17">Read the description of the room. Look at the underlined words and write them under the</text>
<text transform="matrix(1 0 0 1 128.03 438.94)" class="st18 st19 st17">corresponding pictures. Now listen and circle the stressed syllable. Which one is it?</text>
<line class="st42" x1="331.7" y1="560.3" x2="432.6" y2="560.3"/>
<line class="st42" x1="215" y1="560.3" x2="315.9" y2="560.3"/>
<line class="st42" x1="99.4" y1="560.3" x2="200.4" y2="560.3"/>
<line class="st42" x1="448.3" y1="560.3" x2="549.2" y2="560.3"/>
<line class="st42" x1="98.4" y1="675.5" x2="199.3" y2="675.5"/>
<line class="st42" x1="331.7" y1="675.5" x2="432.6" y2="675.5"/>
<line class="st42" x1="215" y1="675.5" x2="315.9" y2="675.5"/>
<rect x="214.4" y="578.4" class="st43" width="102.6" height="72"/>
<line class="st42" x1="448.3" y1="675.5" x2="549.2" y2="675.5"/>
<g>
	<g>
		<g>
			<defs>
				<rect id="SVGID_31_" x="99.3" y="463.2" width="102.2" height="72.2"/>
			</defs>
			<clipPath id="SVGID_32_">
				<use xlink:href="#SVGID_31_"  style="overflow:visible;"/>
			</clipPath>
			<g class="st44">
				<g>
					<g>
						<g>
							<defs>
								<rect id="SVGID_33_" x="99.3" y="463.2" width="102.3" height="72.3"/>
							</defs>
							<clipPath id="SVGID_34_">
								<use xlink:href="#SVGID_33_"  style="overflow:visible;"/>
							</clipPath>
							<g class="st45">
								
									<image style="overflow:visible;enable-background:new    ;" width="427" height="302" xlink:href="D2B15524.png"  transform="matrix(0.2392 0 0 0.2392 99.3797 463.16)">
								</image>
							</g>
						</g>
					</g>
				</g>
			</g>
		</g>
	</g>
</g>
<g>
	<g>
		<g>
			<defs>
				<rect id="SVGID_35_" x="213.6" y="463.2" width="102.2" height="72"/>
			</defs>
			<clipPath id="SVGID_36_">
				<use xlink:href="#SVGID_35_"  style="overflow:visible;"/>
			</clipPath>
			<g class="st46">
				<g>
					<g>
						<g>
							<defs>
								<rect id="SVGID_37_" x="213.6" y="463.2" width="102.3" height="72"/>
							</defs>
							<clipPath id="SVGID_38_">
								<use xlink:href="#SVGID_37_"  style="overflow:visible;"/>
							</clipPath>
							<g class="st47">
								
									<image style="overflow:visible;enable-background:new    ;" width="427" height="301" xlink:href="D2B15523.png"  transform="matrix(0.2392 0 0 0.2392 213.6202 463.16)">
								</image>
							</g>
						</g>
					</g>
				</g>
			</g>
		</g>
	</g>
</g>
<g>
	<g>
		<g>
			<defs>
				<rect id="SVGID_39_" x="329.9" y="463.2" width="103.4" height="72"/>
			</defs>
			<clipPath id="SVGID_40_">
				<use xlink:href="#SVGID_39_"  style="overflow:visible;"/>
			</clipPath>
			<g class="st48">
				<g>
					<g>
						<g>
							<defs>
								<rect id="SVGID_41_" x="329.9" y="463.2" width="103.5" height="72"/>
							</defs>
							<clipPath id="SVGID_42_">
								<use xlink:href="#SVGID_41_"  style="overflow:visible;"/>
							</clipPath>
							<g class="st49">
								
									<image style="overflow:visible;enable-background:new    ;" width="432" height="301" xlink:href="D2B1552D.png"  transform="matrix(0.2392 0 0 0.2392 329.9322 463.16)">
								</image>
							</g>
						</g>
					</g>
				</g>
			</g>
		</g>
	</g>
</g>
<g>
	<g>
		<g>
			<defs>
				<rect id="SVGID_43_" x="447.4" y="463.2" width="103" height="72"/>
			</defs>
			<clipPath id="SVGID_44_">
				<use xlink:href="#SVGID_43_"  style="overflow:visible;"/>
			</clipPath>
			<g class="st50">
				<g>
					<g>
						<g>
							<defs>
								<rect id="SVGID_45_" x="447.4" y="463.2" width="103" height="72"/>
							</defs>
							<clipPath id="SVGID_46_">
								<use xlink:href="#SVGID_45_"  style="overflow:visible;"/>
							</clipPath>
							<g class="st51">
								
									<image style="overflow:visible;enable-background:new    ;" width="430" height="301" xlink:href="D2B1552E.png"  transform="matrix(0.2392 0 0 0.2392 447.4114 463.16)">
								</image>
							</g>
						</g>
					</g>
				</g>
			</g>
		</g>
	</g>
</g>
<g>
	<g>
		<g>
			<defs>
				<rect id="SVGID_47_" x="99.4" y="578.4" width="101.8" height="72.2"/>
			</defs>
			<clipPath id="SVGID_48_">
				<use xlink:href="#SVGID_47_"  style="overflow:visible;"/>
			</clipPath>
			<g class="st52">
				<g>
					<g>
						<g>
							<defs>
								<rect id="SVGID_49_" x="99.4" y="578.4" width="101.8" height="72.3"/>
							</defs>
							<clipPath id="SVGID_50_">
								<use xlink:href="#SVGID_49_"  style="overflow:visible;"/>
							</clipPath>
							<g class="st53">
								
									<image style="overflow:visible;enable-background:new    ;" width="425" height="302" xlink:href="D2B1552C.png"  transform="matrix(0.2392 0 0 0.2392 99.4689 578.36)">
								</image>
							</g>
						</g>
					</g>
				</g>
			</g>
		</g>
	</g>
</g>
<g>
	<g>
		<g>
			<defs>
				<rect id="SVGID_51_" x="214.7" y="578.4" width="103.2" height="72.2"/>
			</defs>
			<clipPath id="SVGID_52_">
				<use xlink:href="#SVGID_51_"  style="overflow:visible;"/>
			</clipPath>
			<g class="st54">
				<g>
					<g>
						<g>
							<defs>
								<rect id="SVGID_53_" x="214.7" y="578.4" width="103.2" height="72.3"/>
							</defs>
							<clipPath id="SVGID_54_">
								<use xlink:href="#SVGID_53_"  style="overflow:visible;"/>
							</clipPath>
							<g class="st55">
								
									<image style="overflow:visible;enable-background:new    ;" width="431" height="302" xlink:href="73A14DA1.png"  transform="matrix(0.2392 0 0 0.2392 214.7312 578.36)">
								</image>
							</g>
						</g>
					</g>
				</g>
			</g>
		</g>
	</g>
</g>
<g>
	<g>
		<g>
			<defs>
				<rect id="SVGID_55_" x="331.4" y="578.4" width="102.7" height="72.2"/>
			</defs>
			<clipPath id="SVGID_56_">
				<use xlink:href="#SVGID_55_"  style="overflow:visible;"/>
			</clipPath>
			<g class="st56">
				<g>
					<g>
						<g>
							<defs>
								<rect id="SVGID_57_" x="331.4" y="578.4" width="102.8" height="72.3"/>
							</defs>
							<clipPath id="SVGID_58_">
								<use xlink:href="#SVGID_57_"  style="overflow:visible;"/>
							</clipPath>
							<g class="st57">
								
									<image style="overflow:visible;enable-background:new    ;" width="429" height="302" xlink:href="73A14DA7.png"  transform="matrix(0.2392 0 0 0.2392 331.4305 578.36)">
								</image>
							</g>
						</g>
					</g>
				</g>
			</g>
		</g>
	</g>
</g>
<g>
	<g>
		<g>
			<defs>
				<rect id="SVGID_59_" x="447.6" y="578.4" width="102.7" height="72.2"/>
			</defs>
			<clipPath id="SVGID_60_">
				<use xlink:href="#SVGID_59_"  style="overflow:visible;"/>
			</clipPath>
			<g class="st58">
				<g>
					<g>
						<g>
							<defs>
								<rect id="SVGID_61_" x="447.6" y="578.4" width="102.8" height="72.3"/>
							</defs>
							<clipPath id="SVGID_62_">
								<use xlink:href="#SVGID_61_"  style="overflow:visible;"/>
							</clipPath>
							<g class="st59">
								
									<image style="overflow:visible;enable-background:new    ;" width="429" height="302" xlink:href="73A14DA0.png"  transform="matrix(0.2392 0 0 0.2392 447.6505 578.36)">
								</image>
							</g>
						</g>
					</g>
				</g>
			</g>
		</g>
	</g>
</g>
<g>
	
		<image style="overflow:visible;opacity:0.39;enable-background:new    ;" width="295" height="91" xlink:href="F3DA6CED.png"  transform="matrix(1 0 0 1 159 11)">
	</image>
	<g>
		
			<image style="overflow:visible;opacity:0.8;enable-background:new    ;" width="278" height="72" xlink:href="F3DA6CEF.png"  transform="matrix(1 0 0 1 164 14)">
		</image>
		<g>
			<text transform="matrix(1 0 0 1 179.9104 44.717)" class="st0 st60 st61">READING AND WRITTING </text>
			<text transform="matrix(1 0 0 1 179.9104 66.317)" class="st0 st60 st61">Descriptions</text>
		</g>
	</g>
</g>
</svg>
