<?xml version="1.0" encoding="utf-8"?>
<!-- Generator: Adobe Illustrator 24.1.2, SVG Export Plug-In . SVG Version: 6.00 Build 0)  -->
<svg version="1.1" id="Capa_1" xmlns="http://www.w3.org/2000/svg" xmlns:xlink="http://www.w3.org/1999/xlink" x="0px" y="0px"
	 viewBox="0 0 652 822" style="enable-background:new 0 0 652 822;" xml:space="preserve">
<style type="text/css">
	.st0{fill:#FFFFFF;}
	.st1{fill:#BF0811;}
	.st2{font-family:'SyntaxLTStd-Black';}
	.st3{font-size:11px;}
	.st4{fill:#211915;}
	.st5{font-family:'SyntaxLTStd-Bold';}
	.st6{fill:#E7F2FB;}
	.st7{fill:none;stroke:#9A999E;stroke-width:0.5;stroke-miterlimit:10;}
	.st8{font-family:'SyntaxLTStd-Roman';}
	.st9{clip-path:url(#SVGID_2_);}
	.st10{clip-path:url(#SVGID_4_);}
	.st11{clip-path:url(#SVGID_6_);}
	.st12{clip-path:url(#SVGID_8_);}
	.st13{clip-path:url(#SVGID_10_);}
	.st14{clip-path:url(#SVGID_12_);}
	.st15{fill:#D6D087;}
	.st16{fill:#F6F2C2;}
	.st17{clip-path:url(#SVGID_14_);}
	.st18{fill:#DB9600;}
	.st19{fill:#E7B700;}
	.st20{fill:#E6B500;}
	.st21{fill:#E1A600;}
	.st22{fill:#EBC000;}
	.st23{fill:#EABF00;}
	.st24{fill:#CA7104;}
	.st25{fill:#E2AC52;}
	.st26{clip-path:url(#SVGID_16_);}
	.st27{enable-background:new    ;}
	.st28{font-family:'Gabriel-Sans-Bold';}
	.st29{font-size:18px;}
</style>
<rect x="-3.6" y="-3" class="st0" width="662.5" height="831.8"/>
<text transform="matrix(1 0 0 1 77.63 146.41)" class="st1 st2 st3">1.</text>
<text transform="matrix(1 0 0 1 95.63 146.41)" class="st4 st5 st3">Look at the pictures. </text>
<text transform="matrix(1 0 0 1 196.47 146.41)" class="st4 st5 st3">W</text>
<text transform="matrix(1 0 0 1 207.28 146.41)" class="st4 st5 st3">rite the occupation and where the people work. Then, write what they do in</text>
<text transform="matrix(1 0 0 1 95.63 159.91)" class="st4 st5 st3">their jobs.</text>
<path class="st6" d="M361.9,178.6h214.3v21.8H361.9V178.6z M223.9,178.6h138v21.8h-138V178.6z M77.9,178.6H224v21.8H77.9V178.6z"/>
<path class="st7" d="M361.9,596.6h214.6 M77.6,596.6h284.3 M576.3,596.3V464.8 M361.9,596.3V464.8 M361.9,464.5h214.6 M223.9,596.3
	V464.8 M223.9,464.5h138 M77.9,596.3V464.8 M77.6,464.5h146.3 M576.3,464.3V332.8 M361.9,464.3V332.8 M361.9,332.5h214.6
	 M223.9,464.3V332.8 M223.9,332.5h138 M77.9,464.3V332.8 M77.6,332.5h146.3 M576.3,332.3V200.7 M361.9,332.3V200.7 M361.9,200.5
	h214.6 M223.9,332.3V200.7 M223.9,200.5h138 M77.9,332.3V200.7 M77.6,200.5h146.3 M576.3,200.2v-21.3 M361.9,200.2v-21.3
	 M361.9,178.6h214.6 M223.9,200.2v-21.3 M223.9,178.6h138 M77.9,200.2v-21.3 M77.6,178.6h146.3"/>
<text transform="matrix(1 0 0 1 495.4 193.67)" class="st4 st5 st3">s</text>
<text transform="matrix(1 0 0 1 489.9 193.67)" class="st4 st5 st3">e</text>
<text transform="matrix(1 0 0 1 486.84 193.67)" class="st4 st5 st3">i</text>
<text transform="matrix(1 0 0 1 483.18 193.67)" class="st4 st5 st3">t</text>
<text transform="matrix(1 0 0 1 480.12 193.67)" class="st4 st5 st3">i</text>
<text transform="matrix(1 0 0 1 474.62 193.67)" class="st4 st5 st3">v</text>
<text transform="matrix(1 0 0 1 471.57 193.67)" class="st4 st5 st3">i</text>
<text transform="matrix(1 0 0 1 467.9 193.67)" class="st4 st5 st3">t</text>
<text transform="matrix(1 0 0 1 463.02 193.67)" class="st4 st5 st3">c</text>
<text transform="matrix(1 0 0 1 457.52 193.67)" class="st4 st5 st3">a</text>
<text transform="matrix(1 0 0 1 448.34 193.67)" class="st4 st5 st3">b</text>
<text transform="matrix(1 0 0 1 442.23 193.67)" class="st4 st5 st3">o</text>
<text transform="matrix(1 0 0 1 437.95 193.67)" class="st4 st5 st3">J</text>
<text transform="matrix(1 0 0 1 314.44 193.67)" class="st4 st5 st3">e</text>
<text transform="matrix(1 0 0 1 309.56 193.67)" class="st4 st5 st3">c</text>
<text transform="matrix(1 0 0 1 304.06 193.67)" class="st4 st5 st3">a</text>
<text transform="matrix(1 0 0 1 301 193.67)" class="st4 st5 st3">l</text>
<text transform="matrix(1 0 0 1 294.88 193.67)" class="st4 st5 st3">p</text>
<text transform="matrix(1 0 0 1 286.32 193.67)" class="st4 st5 st3">k</text>
<text transform="matrix(1 0 0 1 282.66 193.67)" class="st4 st5 st3">r</text>
<text transform="matrix(1 0 0 1 276.54 193.67)" class="st4 st5 st3">o</text>
<text transform="matrix(1 0 0 1 265.95 193.67)" class="st4 st5 st3">W</text>
<text transform="matrix(1 0 0 1 232.95 217.71)" class="st4 st8 st3">nurse</text>
<text transform="matrix(1 0 0 1 232.95 231.21)" class="st4 st8 st3">hospital</text>
<g>
	<g>
		<g>
			<defs>
				<rect id="SVGID_1_" x="86.3" y="210.8" width="129.1" height="110.2"/>
			</defs>
			<clipPath id="SVGID_2_">
				<use xlink:href="#SVGID_1_"  style="overflow:visible;"/>
			</clipPath>
			<g class="st9">
				<g>
					<g>
						<g>
							<defs>
								<rect id="SVGID_3_" x="86.3" y="210.8" width="129.2" height="110.2"/>
							</defs>
							<clipPath id="SVGID_4_">
								<use xlink:href="#SVGID_3_"  style="overflow:visible;"/>
							</clipPath>
							<g class="st10">
								
									<image style="overflow:visible;enable-background:new    ;" width="539" height="460" xlink:href="D2A01EC8.png"  transform="matrix(0.2395 0 0 0.2395 86.2706 210.78)">
								</image>
							</g>
						</g>
					</g>
				</g>
			</g>
		</g>
	</g>
</g>
<g>
	<g>
		<g>
			<defs>
				<rect id="SVGID_5_" x="86.3" y="343.5" width="129.1" height="110.2"/>
			</defs>
			<clipPath id="SVGID_6_">
				<use xlink:href="#SVGID_5_"  style="overflow:visible;"/>
			</clipPath>
			<g class="st11">
				<g>
					<g>
						<g>
							<defs>
								<rect id="SVGID_7_" x="86.3" y="343.4" width="129.2" height="110.2"/>
							</defs>
							<clipPath id="SVGID_8_">
								<use xlink:href="#SVGID_7_"  style="overflow:visible;"/>
							</clipPath>
							<g class="st12">
								
									<image style="overflow:visible;enable-background:new    ;" width="539" height="460" xlink:href="D2A01ECE.png"  transform="matrix(0.2395 0 0 0.2395 86.2706 343.44)">
								</image>
							</g>
						</g>
					</g>
				</g>
			</g>
		</g>
	</g>
</g>
<g>
	<g>
		<g>
			<defs>
				<rect id="SVGID_9_" x="86.3" y="476.5" width="129.1" height="110.2"/>
			</defs>
			<clipPath id="SVGID_10_">
				<use xlink:href="#SVGID_9_"  style="overflow:visible;"/>
			</clipPath>
			<g class="st13">
				<g>
					<g>
						<g>
							<defs>
								<rect id="SVGID_11_" x="86.3" y="476.4" width="129.2" height="110.2"/>
							</defs>
							<clipPath id="SVGID_12_">
								<use xlink:href="#SVGID_11_"  style="overflow:visible;"/>
							</clipPath>
							<g class="st14">
								
									<image style="overflow:visible;enable-background:new    ;" width="539" height="460" xlink:href="D2A01ECA.png"  transform="matrix(0.2395 0 0 0.2395 86.2706 476.43)">
								</image>
							</g>
						</g>
					</g>
				</g>
			</g>
		</g>
	</g>
</g>
<rect x="60" y="761.9" class="st15" width="15.9" height="47.9"/>
<rect x="75.9" y="761.9" class="st16" width="16" height="47.9"/>
<g>
	<g>
		<g>
			<defs>
				<rect id="SVGID_13_" x="13.7" y="16.1" width="623.6" height="793.7"/>
			</defs>
			<clipPath id="SVGID_14_">
				<use xlink:href="#SVGID_13_"  style="overflow:visible;"/>
			</clipPath>
			<g class="st17">
				<rect x="13.7" y="761.9" class="st15" width="46.3" height="47.9"/>
			</g>
		</g>
	</g>
</g>
<rect x="130.4" y="16.1" class="st18" width="492.8" height="69.6"/>
<polyline class="st18" points="602.5,85.6 558.8,85.6 558.8,39.3 582.1,16.1 618.8,16.1 618.8,69.3 602.5,85.6 "/>
<polyline class="st19" points="478,85.6 478,85.6 511.6,52.1 478,85.6 "/>
<polyline class="st19" points="459.7,85.6 459.7,85.6 446.3,72.3 446.3,72.3 459.7,85.6 "/>
<polyline class="st19" points="511.6,52.1 511.6,52.1 547.6,16.1 511.6,52.1 "/>
<polyline class="st19" points="558.8,39.3 558.8,16.1 582.1,16.1 558.8,39.3 "/>
<polyline class="st18" points="378.9,85.6 368.1,85.6 368.1,60.4 368.1,60.4 378.9,49.7 378.9,85.6 "/>
<polyline class="st18" points="438.9,64.8 401.3,27.3 401.3,27.3 438.9,64.8 438.9,64.8 "/>
<polyline class="st19" points="446.3,72.3 438.9,64.8 438.9,64.8 446.3,72.3 446.3,72.3 "/>
<polyline class="st20" points="368.1,85.6 303.4,85.6 278.1,60.4 278.1,16.1 323.8,16.1 368.1,60.4 368.1,85.6 "/>
<path class="st20" d="M401.3,27.3l-11.2-11.2l0,0L401.3,27.3L401.3,27.3 M368.1,60.4l-44.3-44.3h55v33.6L368.1,60.4"/>
<polyline class="st18" points="528.8,69.3 511.6,52.1 511.6,52.1 528.8,69.3 558.8,39.3 558.8,39.3 528.8,69.3 "/>
<polyline class="st18" points="558.8,85.6 528.9,85.6 528.9,69.3 528.8,69.3 558.8,39.3 558.8,85.6 "/>
<polyline class="st21" points="528.9,85.6 478,85.6 511.6,52.1 528.9,69.3 528.9,85.6 "/>
<polyline class="st21" points="528.8,69.3 511.6,52.1 547.6,16.1 558.8,16.1 558.8,39.3 528.8,69.3 "/>
<polyline class="st20" points="455.2,85.6 432.9,85.6 444,74.5 455.2,85.6 "/>
<polyline class="st22" points="459.7,85.6 455.2,85.6 444,74.5 446.3,72.3 459.7,85.6 "/>
<polyline class="st20" points="378.9,49.7 378.9,49.7 401.3,27.3 401.3,27.3 378.9,49.7 "/>
<polyline class="st20" points="432.9,85.6 378.9,85.6 378.9,49.7 401.3,27.3 438.9,64.8 438.9,69.3 444,74.5 432.9,85.6 "/>
<polyline class="st22" points="444,74.5 438.9,69.3 438.9,64.8 446.3,72.3 444,74.5 "/>
<polyline class="st23" points="378.9,49.7 378.9,16.1 390.1,16.1 401.3,27.3 378.9,49.7 "/>
<polyline class="st20" points="511.6,52.1 475.6,16.1 475.6,16.1 511.6,52.1 511.6,52.1 "/>
<polyline class="st22" points="478,85.6 459.7,85.6 446.3,72.3 458.1,60.4 458.1,16.1 475.6,16.1 511.6,52.1 478,85.6 "/>
<polyline class="st22" points="511.6,52.1 475.6,16.1 547.6,16.1 511.6,52.1 "/>
<polyline class="st20" points="401.3,27.3 401.3,27.3 412.5,16.1 412.5,16.1 401.3,27.3 "/>
<polyline class="st20" points="438.9,64.8 401.3,27.3 412.5,16.1 438.9,16.1 438.9,64.8 "/>
<polyline class="st22" points="446.3,72.3 438.9,64.8 438.9,16.1 458.1,16.1 458.1,60.4 446.3,72.3 "/>
<polyline class="st23" points="401.3,27.3 390.1,16.1 412.5,16.1 401.3,27.3 "/>
<polyline class="st24" points="156.7,70 156.7,16.1 13.7,16.1 13.7,85.6 141.1,85.6 156.7,70 "/>
<polyline class="st18" points="79.8,768.9 67.5,761.9 67.5,776 79.8,783 79.8,768.9 "/>
<polyline class="st24" points="79.8,783 92,776 92,761.9 79.8,768.9 79.8,783 "/>
<polyline class="st25" points="67.5,761.9 79.8,768.9 92,761.9 79.8,754.8 67.5,761.9 "/>
<g>
	<g>
		<g>
			<defs>
				<rect id="SVGID_15_" x="13.7" y="16.1" width="623.6" height="793.7"/>
			</defs>
			<clipPath id="SVGID_16_">
				<use xlink:href="#SVGID_15_"  style="overflow:visible;"/>
			</clipPath>
			<g class="st26">
				<polyline class="st24" points="769.2,70 769.2,16.1 623.1,16.1 623.1,85.6 753.5,85.6 769.2,70 				"/>
			</g>
		</g>
	</g>
</g>
<g class="st27">
	
		<image style="overflow:visible;opacity:0.37;enable-background:new    ;" width="156" height="90" xlink:href="79E842C6.png"  transform="matrix(1 0 0 1 155 11)">
	</image>
	<g>
		
			<image style="overflow:visible;opacity:0.8;enable-background:new    ;" width="140" height="72" xlink:href="79E842C2.png"  transform="matrix(1 0 0 1 160 14)">
		</image>
		<g>
			<text transform="matrix(1 0 0 1 175.4247 44.7173)" class="st0 st28 st29">SPEAKING </text>
			<text transform="matrix(1 0 0 1 175.4247 66.3173)" class="st0 st28 st29">Jobs</text>
		</g>
	</g>
</g>
</svg>
