<?xml version="1.0" encoding="utf-8"?>
<!-- Generator: Adobe Illustrator 24.1.2, SVG Export Plug-In . SVG Version: 6.00 Build 0)  -->
<svg version="1.1" id="Capa_1" xmlns="http://www.w3.org/2000/svg" xmlns:xlink="http://www.w3.org/1999/xlink" x="0px" y="0px"
	 viewBox="0 0 652 822" style="enable-background:new 0 0 652 822;" xml:space="preserve">
<style type="text/css">
	.st0{fill:#FFFFFF;}
	.st1{fill:#D6D087;}
	.st2{clip-path:url(#SVGID_2_);}
	.st3{fill:none;stroke:#D6D087;stroke-width:4;}
	.st4{fill:#F6F2C2;}
	.st5{clip-path:url(#SVGID_4_);}
	.st6{fill:#DB9600;}
	.st7{fill:#E7B700;}
	.st8{fill:#E6B500;}
	.st9{fill:#E1A600;}
	.st10{fill:#EBC000;}
	.st11{fill:#EABF00;}
	.st12{fill:#CA7104;}
	.st13{fill:#E2AC52;}
	.st14{clip-path:url(#SVGID_6_);}
	.st15{fill:#BF0811;}
	.st16{font-family:'SyntaxLTStd-Black';}
	.st17{font-size:11px;}
	.st18{fill:#5775B3;}
	.st19{clip-path:url(#SVGID_8_);}
	.st20{clip-path:url(#SVGID_10_);}
	.st21{clip-path:url(#SVGID_12_);}
	.st22{clip-path:url(#SVGID_14_);}
	.st23{fill:none;stroke:#5775B3;}
	.st24{fill:none;stroke:#5775B3;stroke-width:0.9;}
	.st25{fill:#211915;}
	.st26{font-family:'SyntaxLTStd-Bold';}
	.st27{clip-path:url(#SVGID_16_);}
	.st28{clip-path:url(#SVGID_18_);}
	.st29{clip-path:url(#SVGID_20_);}
	.st30{clip-path:url(#SVGID_22_);}
	.st31{clip-path:url(#SVGID_24_);}
	.st32{clip-path:url(#SVGID_26_);}
	.st33{clip-path:url(#SVGID_28_);}
	.st34{clip-path:url(#SVGID_30_);}
	.st35{clip-path:url(#SVGID_32_);}
	.st36{clip-path:url(#SVGID_34_);}
	.st37{clip-path:url(#SVGID_36_);}
	.st38{clip-path:url(#SVGID_38_);}
	.st39{clip-path:url(#SVGID_40_);}
	.st40{clip-path:url(#SVGID_42_);}
	.st41{clip-path:url(#SVGID_44_);}
	.st42{clip-path:url(#SVGID_46_);}
	.st43{fill:none;stroke:#211915;stroke-width:0.5;}
	.st44{fill:#E7F2FB;}
	.st45{fill:none;stroke:#9A999E;stroke-width:0.5;stroke-miterlimit:10;}
	.st46{font-family:'SyntaxLTStd-Roman';}
	.st47{clip-path:url(#SVGID_48_);}
	.st48{clip-path:url(#SVGID_50_);}
	.st49{clip-path:url(#SVGID_52_);}
	.st50{clip-path:url(#SVGID_54_);}
	.st51{clip-path:url(#SVGID_56_);}
	.st52{clip-path:url(#SVGID_58_);}
	.st53{clip-path:url(#SVGID_60_);}
	.st54{clip-path:url(#SVGID_62_);}
	.st55{clip-path:url(#SVGID_64_);}
	.st56{clip-path:url(#SVGID_66_);}
	.st57{clip-path:url(#SVGID_68_);}
	.st58{clip-path:url(#SVGID_70_);}
	.st59{clip-path:url(#SVGID_72_);}
	.st60{clip-path:url(#SVGID_74_);}
	.st61{clip-path:url(#SVGID_76_);}
	.st62{clip-path:url(#SVGID_78_);}
	.st63{clip-path:url(#SVGID_80_);}
	.st64{clip-path:url(#SVGID_82_);}
	.st65{clip-path:url(#SVGID_84_);}
	.st66{clip-path:url(#SVGID_86_);}
	.st67{clip-path:url(#SVGID_88_);}
	.st68{clip-path:url(#SVGID_90_);}
	.st69{enable-background:new    ;}
	.st70{font-family:'Gabriel-Sans-Bold';}
	.st71{font-size:18px;}
</style>
<rect x="-6.7" y="-1.2" class="st0" width="662.5" height="831.8"/>
<rect x="14.2" y="82.8" class="st1" width="609.5" height="4"/>
<g>
	<g>
		<g>
			<g>
				<defs>
					<rect id="SVGID_1_" x="623.6" y="13.2" width="14.2" height="793.7"/>
				</defs>
				<clipPath id="SVGID_2_">
					<use xlink:href="#SVGID_1_"  style="overflow:visible;"/>
				</clipPath>
				<g class="st2">
					<line class="st3" x1="623.6" y1="84.8" x2="1233.1" y2="84.8"/>
				</g>
			</g>
		</g>
	</g>
</g>
<rect x="60.5" y="759" class="st1" width="15.9" height="47.9"/>
<rect x="76.4" y="759" class="st4" width="16.1" height="47.9"/>
<g>
	<g>
		<g>
			<g>
				<defs>
					<rect id="SVGID_3_" x="14.2" y="13.2" width="623.6" height="793.7"/>
				</defs>
				<clipPath id="SVGID_4_">
					<use xlink:href="#SVGID_3_"  style="overflow:visible;"/>
				</clipPath>
				<g class="st5">
					<rect x="14.2" y="759" class="st1" width="46.3" height="47.9"/>
				</g>
			</g>
		</g>
	</g>
</g>
<rect x="130.9" y="13.2" class="st6" width="492.8" height="69.6"/>
<polyline class="st6" points="603,82.8 559.3,82.8 559.3,36.5 582.6,13.2 619.3,13.2 619.3,66.4 603,82.8 "/>
<polyline class="st7" points="478.5,82.8 478.5,82.8 512.1,49.2 478.5,82.8 "/>
<polyline class="st7" points="460.1,82.8 460.1,82.8 446.8,69.4 446.8,69.4 460.1,82.8 "/>
<polyline class="st7" points="512.1,49.2 512.1,49.2 544.3,17 512.1,49.2 "/>
<polyline class="st7" points="559.3,36.5 559.3,13.2 582.6,13.2 559.3,36.5 "/>
<polyline class="st6" points="379.4,82.8 368.6,82.8 368.6,57.5 368.6,57.5 379.4,46.8 379.4,82.8 "/>
<polyline class="st6" points="439.4,62 401.8,24.4 401.8,24.4 439.4,62 439.4,62 "/>
<polyline class="st7" points="446.8,69.4 439.4,62 439.4,62 446.8,69.4 446.8,69.4 "/>
<polyline class="st8" points="368.6,82.8 303.9,82.8 278.6,57.5 278.6,13.2 324.3,13.2 368.6,57.5 368.6,82.8 "/>
<path class="st8" d="M401.8,24.4l-11.2-11.2l0,0L401.8,24.4L401.8,24.4 M368.6,57.5l-44.3-44.3h55v33.6L368.6,57.5"/>
<polyline class="st6" points="529.3,66.4 512.1,49.2 512.1,49.2 529.3,66.4 559.3,36.5 559.3,36.5 529.3,66.4 "/>
<polyline class="st6" points="559.3,82.8 529.3,82.8 529.3,66.4 529.3,66.4 559.3,36.5 559.3,82.8 "/>
<polyline class="st9" points="529.3,82.8 478.5,82.8 512.1,49.2 529.3,66.4 529.3,82.8 "/>
<polyline class="st9" points="529.3,66.4 512.1,49.2 548.1,13.2 559.3,13.2 559.3,36.5 529.3,66.4 "/>
<polyline class="st8" points="455.6,82.8 433.4,82.8 444.5,71.6 455.6,82.8 "/>
<polyline class="st10" points="460.1,82.8 455.6,82.8 444.5,71.6 446.8,69.4 460.1,82.8 "/>
<polyline class="st8" points="379.4,46.8 379.4,46.8 401.8,24.4 401.8,24.4 379.4,46.8 "/>
<polyline class="st8" points="433.4,82.8 379.4,82.8 379.4,46.8 401.8,24.4 439.4,62 439.4,66.4 444.5,71.6 433.4,82.8 "/>
<polyline class="st10" points="444.5,71.6 439.4,66.4 439.4,62 446.8,69.4 444.5,71.6 "/>
<polyline class="st11" points="379.4,46.8 379.4,13.2 390.6,13.2 401.8,24.4 379.4,46.8 "/>
<polyline class="st8" points="512.1,49.2 476.1,13.2 476.1,13.2 512.1,49.2 512.1,49.2 "/>
<polyline class="st10" points="478.5,82.8 460.1,82.8 446.8,69.4 458.6,57.5 458.6,13.2 476.1,13.2 512.1,49.2 478.5,82.8 "/>
<polyline class="st10" points="512.1,49.2 476.1,13.2 548.1,13.2 512.1,49.2 "/>
<polyline class="st8" points="401.8,24.4 401.8,24.4 412.9,13.2 412.9,13.2 401.8,24.4 "/>
<polyline class="st8" points="439.4,62 401.8,24.4 412.9,13.2 439.4,13.2 439.4,62 "/>
<polyline class="st10" points="446.8,69.4 439.4,62 439.4,13.2 458.6,13.2 458.6,57.5 446.8,69.4 "/>
<polyline class="st11" points="401.8,24.4 390.6,13.2 412.9,13.2 401.8,24.4 "/>
<polyline class="st12" points="157.2,67.1 157.2,13.2 14.2,13.2 14.2,82.8 141.6,82.8 157.2,67.1 "/>
<polyline class="st6" points="80.3,766.1 68,759 68,773.1 80.3,780.2 80.3,766.1 "/>
<polyline class="st12" points="80.3,780.2 92.5,773.1 92.5,759 80.3,766.1 80.3,780.2 "/>
<polyline class="st13" points="68,759 80.3,766.1 92.5,759 80.3,752 68,759 "/>
<g>
	<g>
		<g>
			<g>
				<defs>
					<rect id="SVGID_5_" x="623.6" y="13.2" width="14.2" height="793.7"/>
				</defs>
				<clipPath id="SVGID_6_">
					<use xlink:href="#SVGID_5_"  style="overflow:visible;"/>
				</clipPath>
				<g class="st14">
					<polyline class="st12" points="769.7,67.1 769.7,13.2 623.6,13.2 623.6,82.8 754,82.8 769.7,67.1 					"/>
				</g>
			</g>
		</g>
	</g>
</g>
<text transform="matrix(1 0 0 1 69.06 426.05)" class="st15 st16 st17">2.  </text>
<polyline class="st18" points="98.1,418.5 98.1,424.7 111.4,429.6 121.2,425.6 121.2,417.6 111.4,413.6 98.1,418.5 "/>
<g>
	<g>
		<g>
			<g>
				<defs>
					<path id="SVGID_7_" d="M98.1,432.2c-5.8,0-10.6-4.7-10.6-10.6c0-5.8,4.7-10.6,10.6-10.6c5.8,0,10.6,4.7,10.6,10.6l0,0
						C108.7,427.4,104,432.2,98.1,432.2"/>
				</defs>
				<clipPath id="SVGID_8_">
					<use xlink:href="#SVGID_7_"  style="overflow:visible;"/>
				</clipPath>
				<g class="st19">
					<g>
						<g>
							<g>
								<g>
									<defs>
										<rect id="SVGID_9_" x="87.6" y="411" width="21.2" height="21.1"/>
									</defs>
									<clipPath id="SVGID_10_">
										<use xlink:href="#SVGID_9_"  style="overflow:visible;"/>
									</clipPath>
									<g class="st20">
										<g>
											<g>
												<g>
													<g>
														<defs>
															<rect id="SVGID_11_" x="87.6" y="411" width="21.2" height="21.1"/>
														</defs>
														<clipPath id="SVGID_12_">
															<use xlink:href="#SVGID_11_"  style="overflow:visible;"/>
														</clipPath>
														<g class="st21">
															
																<image style="overflow:visible;enable-background:new    ;" width="89" height="89" xlink:href="5E83763C.png"  transform="matrix(0.24 0 0 0.24 87.48 410.91)">
															</image>
														</g>
													</g>
												</g>
											</g>
										</g>
									</g>
								</g>
							</g>
						</g>
					</g>
				</g>
			</g>
		</g>
	</g>
</g>
<g>
	<g>
		<g>
			<g>
				<defs>
					<path id="SVGID_13_" d="M98.1,432.2c-5.8,0-10.6-4.7-10.6-10.6c0-5.8,4.7-10.6,10.6-10.6c5.8,0,10.6,4.7,10.6,10.6l0,0
						C108.7,427.4,104,432.2,98.1,432.2"/>
				</defs>
				<clipPath id="SVGID_14_">
					<use xlink:href="#SVGID_13_"  style="overflow:visible;"/>
				</clipPath>
				<g class="st22">
					<polyline class="st0" points="98.1,418.5 98.1,424.7 111.4,429.6 121.2,425.6 121.2,417.6 111.4,413.6 98.1,418.5 					"/>
				</g>
			</g>
		</g>
	</g>
</g>
<path class="st23" d="M98.1,432.2c-5.8,0-10.6-4.7-10.6-10.6c0-5.8,4.7-10.6,10.6-10.6c5.8,0,10.6,4.7,10.6,10.6l0,0
	C108.7,427.4,104,432.2,98.1,432.2z"/>
<path class="st0" d="M98.1,424.8c-1.7,0-3.2-1.4-3.2-3.1s1.4-3.2,3.2-3.2c1.7,0,3.2,1.4,3.2,3.2l0,0
	C101.3,423.3,99.9,424.7,98.1,424.8"/>
<path class="st24" d="M98.1,424.8c-1.7,0-3.2-1.4-3.2-3.1s1.4-3.2,3.2-3.2c1.7,0,3.2,1.4,3.2,3.2l0,0
	C101.3,423.3,99.9,424.7,98.1,424.8z"/>
<path class="st18" d="M98.1,423c-0.7,0-1.3-0.6-1.3-1.4c0-0.7,0.6-1.4,1.3-1.4c0.7,0,1.3,0.6,1.3,1.4S98.9,423,98.1,423L98.1,423"/>
<text transform="matrix(1 0 0 1 129.06 426.05)" class="st25 st26 st17">Listen to the conversation. Circle what they decide to do. Then, number the activities in the</text>
<text transform="matrix(1 0 0 1 129.06 439.55)" class="st25 st26 st17">order in which they are mentioned.</text>
<text transform="matrix(1 0 0 1 70.08 629.52)" class="st15 st16 st17">  </text>
<polyline class="st18" points="99.2,622 99.2,628.2 112.5,633.1 122.2,629.1 122.2,621.1 112.5,617.1 99.2,622 "/>
<g>
	<g>
		<g>
			<g>
				<defs>
					<path id="SVGID_15_" d="M99.2,635.7c-5.8,0-10.6-4.7-10.6-10.6c0-5.8,4.7-10.6,10.6-10.6c5.8,0,10.6,4.7,10.6,10.6l0,0
						C109.7,630.9,105,635.6,99.2,635.7"/>
				</defs>
				<clipPath id="SVGID_16_">
					<use xlink:href="#SVGID_15_"  style="overflow:visible;"/>
				</clipPath>
				<g class="st27">
					<g>
						<g>
							<g>
								<g>
									<defs>
										<rect id="SVGID_17_" x="88.6" y="614.5" width="21.2" height="21.2"/>
									</defs>
									<clipPath id="SVGID_18_">
										<use xlink:href="#SVGID_17_"  style="overflow:visible;"/>
									</clipPath>
									<g class="st28">
										<g>
											<g>
												<g>
													<g>
														<defs>
															<rect id="SVGID_19_" x="88.6" y="614.5" width="21.2" height="21.2"/>
														</defs>
														<clipPath id="SVGID_20_">
															<use xlink:href="#SVGID_19_"  style="overflow:visible;"/>
														</clipPath>
														<g class="st29">
															
																<image style="overflow:visible;enable-background:new    ;" width="89" height="89" xlink:href="5E83763D.png"  transform="matrix(0.24 0 0 0.24 88.44 614.43)">
															</image>
														</g>
													</g>
												</g>
											</g>
										</g>
									</g>
								</g>
							</g>
						</g>
					</g>
				</g>
			</g>
		</g>
	</g>
</g>
<g>
	<g>
		<g>
			<g>
				<defs>
					<path id="SVGID_21_" d="M99.2,635.7c-5.8,0-10.6-4.7-10.6-10.6c0-5.8,4.7-10.6,10.6-10.6c5.8,0,10.6,4.7,10.6,10.6l0,0
						C109.7,630.9,105,635.6,99.2,635.7"/>
				</defs>
				<clipPath id="SVGID_22_">
					<use xlink:href="#SVGID_21_"  style="overflow:visible;"/>
				</clipPath>
				<g class="st30">
					<polyline class="st0" points="99.2,622 99.2,628.2 112.5,633.1 122.2,629.1 122.2,621.1 112.5,617.1 99.2,622 					"/>
				</g>
			</g>
		</g>
	</g>
</g>
<path class="st23" d="M99.2,635.7c-5.8,0-10.6-4.7-10.6-10.6c0-5.8,4.7-10.6,10.6-10.6c5.8,0,10.6,4.7,10.6,10.6l0,0
	C109.7,630.9,105,635.6,99.2,635.7z"/>
<path class="st0" d="M99.2,628.2c-1.7,0-3.2-1.4-3.2-3.1c0-1.7,1.4-3.2,3.1-3.2s3.2,1.4,3.2,3.1l0,0
	C102.3,626.8,100.9,628.2,99.2,628.2"/>
<path class="st24" d="M99.2,628.2c-1.7,0-3.2-1.4-3.2-3.1c0-1.7,1.4-3.2,3.1-3.2s3.2,1.4,3.2,3.1l0,0
	C102.3,626.8,100.9,628.2,99.2,628.2z"/>
<path class="st18" d="M99.2,626.4c-0.7,0-1.3-0.6-1.3-1.3s0.6-1.4,1.3-1.4c0.7,0,1.3,0.6,1.3,1.4l0,0
	C100.5,625.8,99.9,626.4,99.2,626.4L99.2,626.4"/>
<path class="st25" d="M131.1,621.9h1.4l-0.1,6.4h3v1.2H131L131.1,621.9z M136.5,624h1.4l-0.1,5.5h-1.3L136.5,624z M136.5,621.9h1.3
	v1.3h-1.4L136.5,621.9z M139.6,628.2c0.4,0.3,0.9,0.4,1.4,0.5c0.4,0,0.8-0.2,0.8-0.7c0-1.1-2.6-0.3-2.6-2.5c0-1,0.9-1.8,1.9-1.7h0.1
	c0.7,0,1.3,0.2,1.9,0.6l-0.6,0.8c-0.4-0.3-0.8-0.4-1.2-0.4s-0.9,0.2-0.9,0.7c0,1.1,2.7,0.4,2.7,2.4c0,1-0.9,1.8-1.9,1.8
	c-0.1,0-0.1,0-0.2,0c-0.7,0-1.3-0.2-1.9-0.5L139.6,628.2z M147.2,629.2l-0.5,0.2c-0.3,0.1-0.5,0.2-0.8,0.2c-0.9,0-1.5-0.5-1.5-1.7
	c0-0.3,0-0.8,0-1.3V625h-0.8v-1h0.8v-2h1.3v2h1.2v1h-1.2v1.6c0,0.5,0,1,0,1.5s0.1,0.6,0.4,0.6c0.2,0,0.4-0.1,0.6-0.3L147.2,629.2z
	 M148.9,626.9c0,0.8,0.4,1.7,1.3,1.7c0.5-0.1,1-0.3,1.3-0.7l0.8,0.7c-0.6,0.7-1.4,1.1-2.3,1.1c-1.4,0-2.4-1.2-2.4-2.9
	c-0.1-1.5,1-2.8,2.5-2.9h0.1c1.6,0,2.3,1.2,2.3,3.1L148.9,626.9z M151.1,626c0-0.6-0.3-1.2-1-1.2c-0.6,0.1-1.1,0.6-1.1,1.2H151.1z
	 M153.4,624h1.3v0.7l0,0c0.4-0.5,1.1-0.8,1.8-0.8c1.2,0,1.5,0.8,1.5,1.7c0,0.5,0,0.9,0,1.3v2.8h-1.3v-1.4c0-0.8,0-1.5,0-2.2
	s-0.2-0.9-0.7-0.9c-0.5,0.1-0.9,0.4-1.2,0.7v3.8h-1.3L153.4,624z M162.4,625c0.6-0.7,1.5-1.1,2.4-1.1c0.8,0,1.5,0.6,1.6,1.4
	c0,0.1,0,0.1,0,0.2c0,0.2,0,0.3,0,0.5v1.6c0,0.3,0,0.5,0,0.7s0.2,0.5,0.3,0.5s0.3-0.1,0.4-0.1l0.3,0.7c-0.3,0.3-0.7,0.4-1.2,0.5
	c-0.5,0-0.9-0.3-1-0.7c-0.3,0.4-0.9,0.7-1.4,0.7c-0.8,0.1-1.6-0.6-1.7-1.4c0-0.1,0-0.1,0-0.2c0-0.9,0.6-1.7,3-2.1v-0.4
	c0-0.6-0.3-0.7-0.6-0.7s-0.6,0.1-1.4,0.8L162.4,625z M165.1,626.9c-1.3,0.3-1.7,0.6-1.7,1.2c0,0.3,0.3,0.6,0.6,0.7h0.1
	c0.4,0,0.8-0.2,1-0.5L165.1,626.9z M172.3,624.9c0.2,0.2,0.3,0.5,0.3,0.8c0,1-0.9,1.8-2,1.8l0,0c-0.3,0-0.7,0-1-0.2
	c-0.2,0.2-0.5,0.3-0.5,0.5s0.3,0.3,1.6,0.4s2.6,0.3,2.6,1.7s-1.6,2.3-3,2.3c-1.8,0-2.5-0.8-2.5-1.6s0.6-1.2,1.2-1.5l0,0
	c-0.5-0.1-1.2-0.2-1.2-0.8s0.4-0.7,1.3-1.3c-0.5-0.2-0.8-0.8-0.8-1.3c0.1-1.1,1-1.9,2.1-1.9l0,0c0.4,0,0.8,0.1,1.2,0.2h1.8v0.9
	L172.3,624.9z M170.3,631.3c1,0,1.6-0.6,1.6-1.2s-0.2-0.7-2.1-0.9c-0.4,0.3-1,0.6-1,1.1C168.8,631.1,169.7,631.3,170.3,631.3
	L170.3,631.3z M169.5,625.7c0,0.5,0.3,0.9,0.8,0.9h0.1c0.5,0,0.9-0.3,0.9-0.8c0-0.1,0-0.1,0-0.2c0.1-0.5-0.3-0.9-0.8-1h-0.1
	c-0.5,0-0.9,0.4-1,0.9C169.5,625.6,169.5,625.6,169.5,625.7L169.5,625.7z M174,625c0.6-0.7,1.5-1.1,2.4-1.1c0.8,0,1.5,0.6,1.6,1.4
	c0,0.1,0,0.1,0,0.2c0,0.2,0,0.3,0,0.5l-0.1,1.6c0,0.3,0,0.5,0,0.7s0.1,0.5,0.3,0.5c0.1,0,0.3-0.1,0.4-0.1l0.3,0.7
	c-0.3,0.3-0.7,0.4-1.1,0.5c-0.5,0.1-0.9-0.3-1-0.7c-0.3,0.4-0.9,0.7-1.4,0.7c-0.8,0.1-1.6-0.6-1.7-1.4c0-0.1,0-0.1,0-0.2
	c0-0.9,0.6-1.7,3-2.1v-0.4c0-0.6-0.3-0.7-0.6-0.7s-0.6,0.1-1.4,0.8L174,625z M176.8,626.9c-1.3,0.3-1.7,0.6-1.7,1.2
	c0,0.3,0.3,0.6,0.6,0.7h0.1c0.4,0,0.8-0.2,1-0.5L176.8,626.9z M179.8,624h1.3l-0.1,5.5h-1.4L179.8,624z M179.8,621.9h1.3v1.3h-1.3
	V621.9z M182.8,624h1.3v0.7l0,0c0.4-0.5,1.1-0.8,1.8-0.8c1.2,0,1.5,0.8,1.5,1.7c0,0.5,0,0.9,0,1.3v2.8H186v-1.4c0-0.8,0-1.5,0-2.2
	s-0.2-0.9-0.7-0.9c-0.5,0.1-0.9,0.4-1.2,0.7v3.8h-1.3V624z M191.8,625c0.6-0.7,1.5-1.1,2.4-1.1c0.8,0,1.5,0.6,1.6,1.4
	c0,0.1,0,0.1,0,0.2c0,0.2,0,0.3,0,0.5v1.6c0,0.3,0,0.5,0,0.7s0.2,0.5,0.3,0.5s0.3-0.1,0.4-0.1l0.3,0.7c-0.3,0.3-0.7,0.4-1.1,0.5
	c-0.5,0-0.9-0.3-1-0.7c-0.3,0.4-0.9,0.7-1.4,0.7c-0.8,0.1-1.6-0.6-1.7-1.4c0-0.1,0-0.1,0-0.2c0-0.9,0.6-1.7,3-2.1v-0.4
	c0-0.6-0.3-0.7-0.6-0.7s-0.6,0.1-1.4,0.8L191.8,625z M194.5,626.9c-1.3,0.3-1.7,0.6-1.7,1.2c0,0.3,0.3,0.6,0.6,0.7h0.1
	c0.4,0,0.8-0.2,1-0.5L194.5,626.9z M197.5,624h1.3v0.7l0,0c0.5-0.5,1.1-0.8,1.8-0.8c1.2,0,1.5,0.8,1.5,1.7c0,0.5,0,0.9,0,1.3v2.8
	h-1.4v-1.4c0-0.8,0-1.5,0-2.2s-0.2-0.9-0.7-0.9c-0.5,0.1-0.9,0.4-1.2,0.7v3.8h-1.3L197.5,624z M207,629L207,629
	c-0.3,0.5-0.8,0.7-1.4,0.7c-1.4,0-2.3-1.2-2.3-2.8c0-1.5,0.9-3,2.4-3c0.5,0,0.9,0.2,1.2,0.5l0,0v-3.1h1.3v8.3h-1.3L207,629z
	 M206.9,625.5c-0.2-0.3-0.6-0.5-0.9-0.5c-0.7,0-1.4,0.7-1.4,1.8s0.6,1.8,1.3,1.8c0.5,0,0.9-0.4,1-0.9L206.9,625.5z M213.1,625h-0.9
	v-1h0.9v-0.7c-0.1-1.1,0.7-2,1.8-2.1c0.1,0,0.2,0,0.3,0h0.4v1.1h-0.3c-0.5,0-0.8,0.3-0.8,1v0.7h3.4l-0.1,5.5h-1.3l0.1-4.5h-2.1v4.5
	h-1.4L213.1,625z M216.6,622h1.4v1.3h-1.4V622z"/>
<text transform="matrix(1 0 0 1 218.7 629.52)" class="st25 st26 st17">ll in the table about Jimm</text>
<text transform="matrix(1 0 0 1 341.57 629.52)" class="st25 st26 st17">y</text>
<text transform="matrix(1 0 0 1 346.27 629.52)" class="st25 st26 st17">, Deb and Lola. Check your answers by</text>
<text transform="matrix(1 0 0 1 130.08 643.02)" class="st25 st26 st17">reading the text in the scripts section.</text>
<g>
	<g>
		<g>
			<g>
				<defs>
					<rect id="SVGID_23_" x="131.9" y="448.5" width="104.2" height="75"/>
				</defs>
				<clipPath id="SVGID_24_">
					<use xlink:href="#SVGID_23_"  style="overflow:visible;"/>
				</clipPath>
				<g class="st31">
					<g>
						<g>
							<g>
								<g>
									<defs>
										<rect id="SVGID_25_" x="131.9" y="448.5" width="104.2" height="75.2"/>
									</defs>
									<clipPath id="SVGID_26_">
										<use xlink:href="#SVGID_25_"  style="overflow:visible;"/>
									</clipPath>
									<g class="st32">
										
											<image style="overflow:visible;enable-background:new    ;" width="436" height="314" xlink:href="5E837632.png"  transform="matrix(0.2389 0 0 0.2389 131.86 448.5529)">
										</image>
									</g>
								</g>
							</g>
						</g>
					</g>
				</g>
			</g>
		</g>
	</g>
</g>
<g>
	<g>
		<g>
			<g>
				<defs>
					<rect id="SVGID_27_" x="131.9" y="531.5" width="104.2" height="75"/>
				</defs>
				<clipPath id="SVGID_28_">
					<use xlink:href="#SVGID_27_"  style="overflow:visible;"/>
				</clipPath>
				<g class="st33">
					<g>
						<g>
							<g>
								<g>
									<defs>
										<rect id="SVGID_29_" x="131.9" y="531.5" width="104.2" height="75.2"/>
									</defs>
									<clipPath id="SVGID_30_">
										<use xlink:href="#SVGID_29_"  style="overflow:visible;"/>
									</clipPath>
									<g class="st34">
										
											<image style="overflow:visible;enable-background:new    ;" width="436" height="314" xlink:href="5E837633.png"  transform="matrix(0.2389 0 0 0.2389 131.86 531.5529)">
										</image>
									</g>
								</g>
							</g>
						</g>
					</g>
				</g>
			</g>
		</g>
	</g>
</g>
<g>
	<g>
		<g>
			<g>
				<defs>
					<rect id="SVGID_31_" x="279.4" y="448.5" width="104.2" height="75"/>
				</defs>
				<clipPath id="SVGID_32_">
					<use xlink:href="#SVGID_31_"  style="overflow:visible;"/>
				</clipPath>
				<g class="st35">
					<g>
						<g>
							<g>
								<g>
									<defs>
										<rect id="SVGID_33_" x="279.4" y="448.5" width="104.2" height="75.2"/>
									</defs>
									<clipPath id="SVGID_34_">
										<use xlink:href="#SVGID_33_"  style="overflow:visible;"/>
									</clipPath>
									<g class="st36">
										
											<image style="overflow:visible;enable-background:new    ;" width="435" height="314" xlink:href="5E837634.png"  transform="matrix(0.2392 0 0 0.2392 279.4162 448.5)">
										</image>
									</g>
								</g>
							</g>
						</g>
					</g>
				</g>
			</g>
		</g>
	</g>
</g>
<g>
	<g>
		<g>
			<g>
				<defs>
					<rect id="SVGID_35_" x="279.4" y="531.5" width="104.2" height="75"/>
				</defs>
				<clipPath id="SVGID_36_">
					<use xlink:href="#SVGID_35_"  style="overflow:visible;"/>
				</clipPath>
				<g class="st37">
					<g>
						<g>
							<g>
								<g>
									<defs>
										<rect id="SVGID_37_" x="279.4" y="531.5" width="104.2" height="75.2"/>
									</defs>
									<clipPath id="SVGID_38_">
										<use xlink:href="#SVGID_37_"  style="overflow:visible;"/>
									</clipPath>
									<g class="st38">
										
											<image style="overflow:visible;enable-background:new    ;" width="435" height="314" xlink:href="5E837631.png"  transform="matrix(0.2392 0 0 0.2392 279.4162 531.5)">
										</image>
									</g>
								</g>
							</g>
						</g>
					</g>
				</g>
			</g>
		</g>
	</g>
</g>
<g>
	<g>
		<g>
			<g>
				<defs>
					<rect id="SVGID_39_" x="426.9" y="448.5" width="104.2" height="75"/>
				</defs>
				<clipPath id="SVGID_40_">
					<use xlink:href="#SVGID_39_"  style="overflow:visible;"/>
				</clipPath>
				<g class="st39">
					<g>
						<g>
							<g>
								<g>
									<defs>
										<rect id="SVGID_41_" x="426.9" y="448.5" width="104.2" height="75.2"/>
									</defs>
									<clipPath id="SVGID_42_">
										<use xlink:href="#SVGID_41_"  style="overflow:visible;"/>
									</clipPath>
									<g class="st40">
										
											<image style="overflow:visible;enable-background:new    ;" width="435" height="314" xlink:href="5E837630.png"  transform="matrix(0.2392 0 0 0.2392 426.8962 448.5)">
										</image>
									</g>
								</g>
							</g>
						</g>
					</g>
				</g>
			</g>
		</g>
	</g>
</g>
<g>
	<g>
		<g>
			<g>
				<defs>
					<rect id="SVGID_43_" x="426.9" y="531.5" width="104.2" height="75"/>
				</defs>
				<clipPath id="SVGID_44_">
					<use xlink:href="#SVGID_43_"  style="overflow:visible;"/>
				</clipPath>
				<g class="st41">
					<g>
						<g>
							<g>
								<g>
									<defs>
										<rect id="SVGID_45_" x="426.9" y="531.5" width="104.2" height="75.2"/>
									</defs>
									<clipPath id="SVGID_46_">
										<use xlink:href="#SVGID_45_"  style="overflow:visible;"/>
									</clipPath>
									<g class="st42">
										
											<image style="overflow:visible;enable-background:new    ;" width="435" height="314" xlink:href="5E83762F.png"  transform="matrix(0.2392 0 0 0.2392 426.8962 531.5)">
										</image>
									</g>
								</g>
							</g>
						</g>
					</g>
				</g>
			</g>
		</g>
	</g>
</g>
<rect x="132.1" y="502.8" class="st0" width="20.5" height="20.5"/>
<path class="st43" d="M152.6,502.8h-20.5v20.5h20.5V502.8z"/>
<rect x="132.1" y="585.8" class="st0" width="20.5" height="20.5"/>
<path class="st43" d="M152.6,585.8h-20.5v20.5h20.5V585.8z"/>
<rect x="279.6" y="502.8" class="st0" width="20.5" height="20.5"/>
<path class="st43" d="M300.1,502.8h-20.5v20.5h20.5V502.8z"/>
<rect x="279.6" y="585.8" class="st0" width="20.5" height="20.5"/>
<path class="st43" d="M300.1,585.8h-20.5v20.5h20.5V585.8z"/>
<rect x="427.1" y="502.8" class="st0" width="20.5" height="20.5"/>
<path class="st43" d="M447.6,502.8h-20.5v20.5h20.5V502.8z"/>
<rect x="427.1" y="585.8" class="st0" width="20.5" height="20.5"/>
<path class="st43" d="M447.6,585.8h-20.5v20.5h20.5V585.8z"/>
<path class="st44" d="M356.4,648.7h212.1V664H356.4V648.7z M144.3,648.7h212.1V664H144.3V648.7z M88.3,648.7h55.9V664H88.3V648.7z"
	/>
<path class="st0" d="M356.4,721.3h212.1v31.3H356.4V721.3z M144.3,721.3h212.1v31.3H144.3V721.3z M88.3,721.3h55.9v31.3H88.3V721.3z
	 M356.4,692.8h212.1v28.5H356.4V692.8z M144.3,692.8h212.1v28.5H144.3V692.8z M88.3,692.8h55.9v28.5H88.3V692.8z M356.4,664.3h212.1
	v28.5H356.4V664.3z M144.3,664.3h212.1v28.5H144.3V664.3z M88.3,664.3h55.9v28.5H88.3V664.3z"/>
<path class="st45" d="M356.4,752h212.3 M88.1,752h268.3 M568.5,751.8V721 M356.4,751.8V721 M356.4,720.9h212.4 M144.3,751.9V721
	 M144.3,720.9h212.1 M88.4,751.9V721 M88.1,720.9h56.2 M568.5,720.7v-28 M356.4,720.7v-28 M356.4,692.5h212.3 M144.3,720.7v-28
	 M144.3,692.5h212.1 M88.4,720.7v-28 M88.1,692.5h56.2 M568.5,692.4v-28 M356.4,692.4v-28 M356.4,664.2h212.3 M144.3,692.3v-28
	 M144.3,664.2h212.1 M88.4,692.3v-28 M88.1,664.2h56.2 M568.5,664v-15.2 M356.4,664v-15.2 M356.4,648.7h212.3 M144.3,664v-15.2
	 M144.3,648.7h212.1 M88.3,664v-15.2 M88.1,648.7h56.2"/>
<text transform="matrix(1 0 0 1 485.65 659.92)" class="st25 st26 st17">e</text>
<text transform="matrix(1 0 0 1 480.15 659.92)" class="st25 st26 st17">k</text>
<text transform="matrix(1 0 0 1 477.09 659.92)" class="st25 st26 st17">i</text>
<text transform="matrix(1 0 0 1 474.03 659.92)" class="st25 st26 st17">l</text>
<text transform="matrix(1 0 0 1 467.31 659.92)" class="st25 st26 st17">t</text>
<text transform="matrix(1 0 0 1 464.26 659.92)" class="st25 st26 st17">’</text>
<text transform="matrix(1 0 0 1 458.14 659.92)" class="st25 st26 st17">n</text>
<text transform="matrix(1 0 0 1 453.27 659.92)" class="st25 st26 st17">s</text>
<text transform="matrix(1 0 0 1 447.77 659.92)" class="st25 st26 st17">e</text>
<text transform="matrix(1 0 0 1 441.65 659.92)" class="st25 st26 st17">o</text>
<text transform="matrix(1 0 0 1 433.71 659.92)" class="st25 st26 st17">D</text>
<text transform="matrix(1 0 0 1 257.67 659.92)" class="st25 st26 st17">s</text>
<text transform="matrix(1 0 0 1 252.17 659.92)" class="st25 st26 st17">e</text>
<text transform="matrix(1 0 0 1 246.67 659.92)" class="st25 st26 st17">k</text>
<text transform="matrix(1 0 0 1 243.61 659.92)" class="st25 st26 st17">i</text>
<text transform="matrix(1 0 0 1 238.11 659.92)" class="st25 st26 st17">L</text>
<text transform="matrix(1 0 0 1 101.29 679.05)" class="st25 st46 st17">Jimmy</text>
<text transform="matrix(1 0 0 1 99.49 707.7)" class="st25 st46 st17">Deb</text>
<text transform="matrix(1 0 0 1 100.51 736.88)" class="st25 st46 st17">Lola</text>
<text transform="matrix(1 0 0 1 69.45 113.42)" class="st15 st16 st17">1.</text>
<polyline class="st18" points="98.5,106.7 98.5,112.9 111.8,117.8 121.6,113.8 121.6,105.8 111.8,101.8 98.5,106.7 "/>
<g>
	<g>
		<g>
			<g>
				<defs>
					<path id="SVGID_47_" d="M98.5,120.3c-5.8,0-10.6-4.7-10.6-10.6c0-5.8,4.7-10.6,10.6-10.6c5.8,0,10.6,4.7,10.6,10.6l0,0
						C109.1,115.6,104.4,120.3,98.5,120.3L98.5,120.3"/>
				</defs>
				<clipPath id="SVGID_48_">
					<use xlink:href="#SVGID_47_"  style="overflow:visible;"/>
				</clipPath>
				<g class="st47">
					<g>
						<g>
							<g>
								<g>
									<defs>
										<rect id="SVGID_49_" x="87.9" y="99.2" width="21.2" height="21.2"/>
									</defs>
									<clipPath id="SVGID_50_">
										<use xlink:href="#SVGID_49_"  style="overflow:visible;"/>
									</clipPath>
									<g class="st48">
										<g>
											<g>
												<g>
													<g>
														<defs>
															<rect id="SVGID_51_" x="87.9" y="99.2" width="21.2" height="21.2"/>
														</defs>
														<clipPath id="SVGID_52_">
															<use xlink:href="#SVGID_51_"  style="overflow:visible;"/>
														</clipPath>
														<g class="st49">
															
																<image style="overflow:visible;enable-background:new    ;" width="90" height="89" xlink:href="5E83764A.png"  transform="matrix(0.24 0 0 0.24 87.72 99.15)">
															</image>
														</g>
													</g>
												</g>
											</g>
										</g>
									</g>
								</g>
							</g>
						</g>
					</g>
				</g>
			</g>
		</g>
	</g>
</g>
<g>
	<g>
		<g>
			<g>
				<defs>
					<path id="SVGID_53_" d="M98.5,120.3c-5.8,0-10.6-4.7-10.6-10.6c0-5.8,4.7-10.6,10.6-10.6c5.8,0,10.6,4.7,10.6,10.6l0,0
						C109.1,115.6,104.4,120.3,98.5,120.3L98.5,120.3"/>
				</defs>
				<clipPath id="SVGID_54_">
					<use xlink:href="#SVGID_53_"  style="overflow:visible;"/>
				</clipPath>
				<g class="st50">
					<polyline class="st0" points="98.5,106.7 98.5,112.9 111.8,117.8 121.6,113.8 121.6,105.8 111.8,101.8 98.5,106.7 					"/>
				</g>
			</g>
		</g>
	</g>
</g>
<path class="st23" d="M98.5,120.3c-5.8,0-10.6-4.7-10.6-10.6c0-5.8,4.7-10.6,10.6-10.6c5.8,0,10.6,4.7,10.6,10.6l0,0
	C109.1,115.6,104.4,120.3,98.5,120.3L98.5,120.3z"/>
<path class="st0" d="M98.5,112.9c-1.7,0-3.2-1.4-3.2-3.2c0-1.7,1.4-3.2,3.2-3.2c1.7,0,3.2,1.4,3.2,3.2l0,0
	C101.7,111.5,100.3,112.9,98.5,112.9L98.5,112.9"/>
<path class="st24" d="M98.5,112.9c-1.7,0-3.2-1.4-3.2-3.2c0-1.7,1.4-3.2,3.2-3.2c1.7,0,3.2,1.4,3.2,3.2l0,0
	C101.7,111.5,100.3,112.9,98.5,112.9L98.5,112.9z"/>
<path class="st18" d="M98.5,111.1c-0.8,0-1.4-0.6-1.4-1.4s0.6-1.4,1.4-1.4s1.4,0.6,1.4,1.4l0,0C99.9,110.5,99.3,111.1,98.5,111.1"/>
<text transform="matrix(1 0 0 1 129.45 113.42)" class="st25 st26 st17">Listen to the conversation. Circle the celebration they are talking about.</text>
<polyline class="st18" points="98.5,240.8 98.5,247 111.8,251.9 121.6,247.9 121.6,239.9 111.8,235.9 98.5,240.8 "/>
<g>
	<g>
		<g>
			<g>
				<defs>
					<path id="SVGID_55_" d="M98.5,254.5c-5.8,0-10.6-4.7-10.6-10.6c0-5.8,4.7-10.6,10.6-10.6c5.8,0,10.6,4.7,10.6,10.6l0,0
						C109.1,249.8,104.4,254.5,98.5,254.5L98.5,254.5"/>
				</defs>
				<clipPath id="SVGID_56_">
					<use xlink:href="#SVGID_55_"  style="overflow:visible;"/>
				</clipPath>
				<g class="st51">
					<g>
						<g>
							<g>
								<g>
									<defs>
										<rect id="SVGID_57_" x="87.9" y="233.3" width="21.2" height="21.1"/>
									</defs>
									<clipPath id="SVGID_58_">
										<use xlink:href="#SVGID_57_"  style="overflow:visible;"/>
									</clipPath>
									<g class="st52">
										<g>
											<g>
												<g>
													<g>
														<defs>
															<rect id="SVGID_59_" x="87.9" y="233.3" width="21.2" height="21.1"/>
														</defs>
														<clipPath id="SVGID_60_">
															<use xlink:href="#SVGID_59_"  style="overflow:visible;"/>
														</clipPath>
														<g class="st53">
															
																<image style="overflow:visible;enable-background:new    ;" width="90" height="89" xlink:href="A9001647.png"  transform="matrix(0.24 0 0 0.24 87.72 233.31)">
															</image>
														</g>
													</g>
												</g>
											</g>
										</g>
									</g>
								</g>
							</g>
						</g>
					</g>
				</g>
			</g>
		</g>
	</g>
</g>
<g>
	<g>
		<g>
			<g>
				<defs>
					<path id="SVGID_61_" d="M98.5,254.5c-5.8,0-10.6-4.7-10.6-10.6c0-5.8,4.7-10.6,10.6-10.6c5.8,0,10.6,4.7,10.6,10.6l0,0
						C109.1,249.8,104.4,254.5,98.5,254.5L98.5,254.5"/>
				</defs>
				<clipPath id="SVGID_62_">
					<use xlink:href="#SVGID_61_"  style="overflow:visible;"/>
				</clipPath>
				<g class="st54">
					<polyline class="st0" points="98.5,240.8 98.5,247 111.8,251.9 121.6,247.9 121.6,239.9 111.8,235.9 98.5,240.8 					"/>
				</g>
			</g>
		</g>
	</g>
</g>
<path class="st23" d="M98.5,254.5c-5.8,0-10.6-4.7-10.6-10.6c0-5.8,4.7-10.6,10.6-10.6c5.8,0,10.6,4.7,10.6,10.6l0,0
	C109.1,249.8,104.4,254.5,98.5,254.5L98.5,254.5z"/>
<path class="st0" d="M98.5,247.1c-1.7,0-3.2-1.4-3.2-3.2s1.4-3.2,3.2-3.2c1.7,0,3.2,1.4,3.2,3.2l0,0
	C101.7,245.7,100.3,247.1,98.5,247.1L98.5,247.1"/>
<path class="st24" d="M98.5,247.1c-1.7,0-3.2-1.4-3.2-3.2s1.4-3.2,3.2-3.2c1.7,0,3.2,1.4,3.2,3.2l0,0
	C101.7,245.7,100.3,247.1,98.5,247.1L98.5,247.1z"/>
<path class="st18" d="M98.5,245.3c-0.8,0-1.4-0.6-1.4-1.4c0-0.8,0.6-1.4,1.4-1.4s1.4,0.6,1.4,1.4l0,0
	C99.9,244.7,99.3,245.3,98.5,245.3"/>
<text transform="matrix(1 0 0 1 129.45 247.57)" class="st25 st26 st17">Listen again. Match the pictures to the words.</text>
<g>
	<g>
		<g>
			<g>
				<defs>
					<rect id="SVGID_63_" x="69.4" y="122.7" width="156.5" height="104.2"/>
				</defs>
				<clipPath id="SVGID_64_">
					<use xlink:href="#SVGID_63_"  style="overflow:visible;"/>
				</clipPath>
				<g class="st55">
					<g>
						<g>
							<g>
								<g>
									<defs>
										<rect id="SVGID_65_" x="69.4" y="122.6" width="156.5" height="104.2"/>
									</defs>
									<clipPath id="SVGID_66_">
										<use xlink:href="#SVGID_65_"  style="overflow:visible;"/>
									</clipPath>
									<g class="st56">
										
											<image style="overflow:visible;enable-background:new    ;" width="653" height="436" xlink:href="A9001659.png"  transform="matrix(0.2389 0 0 0.2389 69.6694 122.64)">
										</image>
									</g>
								</g>
							</g>
						</g>
					</g>
				</g>
			</g>
		</g>
	</g>
</g>
<g>
	<g>
		<g>
			<g>
				<defs>
					<rect id="SVGID_67_" x="240.7" y="122.7" width="156.5" height="104.2"/>
				</defs>
				<clipPath id="SVGID_68_">
					<use xlink:href="#SVGID_67_"  style="overflow:visible;"/>
				</clipPath>
				<g class="st57">
					<g>
						<g>
							<g>
								<g>
									<defs>
										<rect id="SVGID_69_" x="240.6" y="122.6" width="156.5" height="104.2"/>
									</defs>
									<clipPath id="SVGID_70_">
										<use xlink:href="#SVGID_69_"  style="overflow:visible;"/>
									</clipPath>
									<g class="st58">
										
											<image style="overflow:visible;enable-background:new    ;" width="653" height="436" xlink:href="A900165A.png"  transform="matrix(0.2389 0 0 0.2389 240.8795 122.64)">
										</image>
									</g>
								</g>
							</g>
						</g>
					</g>
				</g>
			</g>
		</g>
	</g>
</g>
<g>
	<g>
		<g>
			<g>
				<defs>
					<rect id="SVGID_71_" x="411.9" y="122.7" width="156.5" height="104.2"/>
				</defs>
				<clipPath id="SVGID_72_">
					<use xlink:href="#SVGID_71_"  style="overflow:visible;"/>
				</clipPath>
				<g class="st59">
					<g>
						<g>
							<g>
								<g>
									<defs>
										<rect id="SVGID_73_" x="411.9" y="122.6" width="156.5" height="104.2"/>
									</defs>
									<clipPath id="SVGID_74_">
										<use xlink:href="#SVGID_73_"  style="overflow:visible;"/>
									</clipPath>
									<g class="st60">
										
											<image style="overflow:visible;enable-background:new    ;" width="653" height="436" xlink:href="A900165B.png"  transform="matrix(0.2389 0 0 0.2389 412.0894 122.64)">
										</image>
									</g>
								</g>
							</g>
						</g>
					</g>
				</g>
			</g>
		</g>
	</g>
</g>
<g>
	<g>
		<g>
			<g>
				<defs>
					<rect id="SVGID_75_" x="89.9" y="259.1" width="102.7" height="83.8"/>
				</defs>
				<clipPath id="SVGID_76_">
					<use xlink:href="#SVGID_75_"  style="overflow:visible;"/>
				</clipPath>
				<g class="st61">
					<g>
						<g>
							<g>
								<g>
									<defs>
										<rect id="SVGID_77_" x="89.9" y="259.1" width="102.8" height="83.8"/>
									</defs>
									<clipPath id="SVGID_78_">
										<use xlink:href="#SVGID_77_"  style="overflow:visible;"/>
									</clipPath>
									<g class="st62">
										
											<image style="overflow:visible;enable-background:new    ;" width="430" height="351" xlink:href="A900165F.png"  transform="matrix(0.2393 0 0 0.2393 89.917 259.07)">
										</image>
									</g>
								</g>
							</g>
						</g>
					</g>
				</g>
			</g>
		</g>
	</g>
</g>
<g>
	<g>
		<g>
			<g>
				<defs>
					<rect id="SVGID_79_" x="215.2" y="259.1" width="102.7" height="83.8"/>
				</defs>
				<clipPath id="SVGID_80_">
					<use xlink:href="#SVGID_79_"  style="overflow:visible;"/>
				</clipPath>
				<g class="st63">
					<g>
						<g>
							<g>
								<g>
									<defs>
										<rect id="SVGID_81_" x="215.2" y="259.1" width="102.7" height="83.8"/>
									</defs>
									<clipPath id="SVGID_82_">
										<use xlink:href="#SVGID_81_"  style="overflow:visible;"/>
									</clipPath>
									<g class="st64">
										
											<image style="overflow:visible;enable-background:new    ;" width="430" height="351" xlink:href="A9001658.png"  transform="matrix(0.2393 0 0 0.2393 215.257 259.07)">
										</image>
									</g>
								</g>
							</g>
						</g>
					</g>
				</g>
			</g>
		</g>
	</g>
</g>
<g>
	<g>
		<g>
			<g>
				<defs>
					<rect id="SVGID_83_" x="340.6" y="259.1" width="102.7" height="83.8"/>
				</defs>
				<clipPath id="SVGID_84_">
					<use xlink:href="#SVGID_83_"  style="overflow:visible;"/>
				</clipPath>
				<g class="st65">
					<g>
						<g>
							<g>
								<g>
									<defs>
										<rect id="SVGID_85_" x="340.5" y="259.1" width="102.8" height="83.8"/>
									</defs>
									<clipPath id="SVGID_86_">
										<use xlink:href="#SVGID_85_"  style="overflow:visible;"/>
									</clipPath>
									<g class="st66">
										
											<image style="overflow:visible;enable-background:new    ;" width="431" height="351" xlink:href="A9001656.png"  transform="matrix(0.2389 0 0 0.2389 340.54 259.1454)">
										</image>
									</g>
								</g>
							</g>
						</g>
					</g>
				</g>
			</g>
		</g>
	</g>
</g>
<g>
	<g>
		<g>
			<g>
				<defs>
					<rect id="SVGID_87_" x="465.9" y="259.1" width="102.5" height="83.8"/>
				</defs>
				<clipPath id="SVGID_88_">
					<use xlink:href="#SVGID_87_"  style="overflow:visible;"/>
				</clipPath>
				<g class="st67">
					<g>
						<g>
							<g>
								<g>
									<defs>
										<rect id="SVGID_89_" x="465.9" y="259.1" width="102.5" height="83.8"/>
									</defs>
									<clipPath id="SVGID_90_">
										<use xlink:href="#SVGID_89_"  style="overflow:visible;"/>
									</clipPath>
									<g class="st68">
										
											<image style="overflow:visible;enable-background:new    ;" width="430" height="351" xlink:href="A9001657.png"  transform="matrix(0.2389 0 0 0.2389 465.88 259.1459)">
										</image>
									</g>
								</g>
							</g>
						</g>
					</g>
				</g>
			</g>
		</g>
	</g>
</g>
<rect x="132.2" y="377.1" class="st0" width="41.3" height="17.5"/>
<path class="st25" d="M144,388.6c-0.5,0.7-1.3,1.1-2.1,1.1c-1.4-0.1-2.5-1.4-2.4-2.8l0,0c-0.1-1.5,1-2.9,2.5-3h0.1
	c0.8,0,1.5,0.4,1.9,0.9l-0.8,0.7c-0.3-0.3-0.7-0.5-1.1-0.5c-0.8,0-1.3,0.9-1.3,1.8c0,1.2,0.5,1.8,1.2,1.8c0.4,0,0.9-0.3,1.1-0.6
	L144,388.6z M147.1,383.8c1.4,0,2.6,1.1,2.7,2.6c0,0.1,0,0.2,0,0.4c0.1,1.5-1,2.8-2.4,2.9c-0.1,0-0.1,0-0.2,0
	c-1.8,0-2.6-1.4-2.6-2.9C144.3,385.2,145.5,383.9,147.1,383.8L147.1,383.8L147.1,383.8z M147.1,388.5c1,0,1.3-1,1.3-1.8
	c0-1.2-0.4-1.9-1.3-1.9s-1.3,1.1-1.3,1.9S146.1,388.5,147.1,388.5L147.1,388.5z M151.2,384.9h-0.9v-1h0.9v-0.7
	c-0.1-1.1,0.7-2,1.8-2.1c0.1,0,0.2,0,0.3,0h0.4v1.1h-0.3c-0.5,0-0.9,0.3-0.9,1v0.8h1.1v1h-1.2v4.5H151L151.2,384.9z M154.7,384.9
	h-0.9v-1h0.9v-0.7c-0.1-1.1,0.7-2,1.8-2.1c0.1,0,0.2,0,0.3,0h0.4v1.1H157c-0.5,0-0.8,0.3-0.8,1v0.8h3.4l-0.1,5.5h-1.3V385h-2.1v4.5
	h-1.4L154.7,384.9z M158.1,381.9h1.4v1.3h-1.4V381.9z"/>
<text transform="matrix(1 0 0 1 160.33 389.47)" class="st25 st26 st17">n</text>
<path class="st43" d="M173.4,377.1h-41.3v17.5h41.3V377.1z"/>
<rect x="236.4" y="377.1" class="st0" width="41.3" height="17.5"/>
<text transform="matrix(1 0 0 1 246.31 389.47)" class="st25 st26 st17">altar</text>
<path class="st43" d="M277.6,377.1h-41.3v17.5h41.3V377.1z"/>
<rect x="340.6" y="377.1" class="st0" width="41.3" height="17.5"/>
<text transform="matrix(1 0 0 1 347.47 389.47)" class="st25 st26 st17">skulls</text>
<path class="st43" d="M381.8,377.1h-41.3v17.5h41.3V377.1z"/>
<rect x="444.8" y="377.1" class="st0" width="60.8" height="17.5"/>
<text transform="matrix(1 0 0 1 451.37 389.47)" class="st25 st26 st17">marigolds</text>
<path class="st43" d="M505.6,377.1h-60.8v17.5h60.8V377.1z"/>
<g class="st69">
	
		<image style="overflow:visible;opacity:0.37;enable-background:new    ;" width="282" height="92" xlink:href="D66D48CD.png"  transform="matrix(1 0 0 1 166 11)">
	</image>
	<g>
		
			<image style="overflow:visible;opacity:0.8;enable-background:new    ;" width="258" height="72" xlink:href="D66D48CA.png"  transform="matrix(1 0 0 1 172 14)">
		</image>
		<g>
			<text transform="matrix(1 0 0 1 187.0334 44.7174)" class="st0 st70 st71">LISTENING </text>
			<text transform="matrix(1 0 0 1 187.0334 66.3174)" class="st0 st70 st71">Holidays, likes and dislikes</text>
		</g>
	</g>
</g>
</svg>
